<svg xmlns="http://www.w3.org/2000/svg" width="34" height="54" viewBox="0 0 34 54"><g><g><g><path fill="#ff7e0f" d="M33.52 1.546c-.061 2.609-.513 5.203-1.25 7.708-.736 2.509-1.744 4.93-2.856 7.291-1.11 2.364-2.327 4.674-3.461 7.016-1.13 2.342-2.234 4.89-2.912 7.383l-.507.097c-1.68.334-2.9.61-4.45 1.202-.774.297-1.584.647-2.319 1.035-.367.193-.797.417-1.15.638-.353.221-.878.418-1.144.679.623-.29 1.424-.502 2.086-.73.663-.228 1.384-.467 2.068-.63a15.615 15.615 0 0 1 2.12-.353 9.458 9.458 0 0 1 2.533.098l-.145.29c-.472.94-.935 1.922-1.39 2.878-.229.478-.463.955-.72 1.425-.256.47-.534.93-.837 1.373l-.055.077-.078.025c-.81.256-1.628.476-2.45.673-.821.197-1.647.372-2.476.531a71.15 71.15 0 0 1-4.993.77 70.333 70.333 0 0 0 4.936-1.032 54.57 54.57 0 0 0 2.43-.656 35.534 35.534 0 0 0 2.378-.792l-.133.102c.292-.428.562-.87.81-1.327.25-.456.48-.926.708-1.4.45-.949.898-1.91 1.375-2.856l.19.383a8.553 8.553 0 0 0-2.029-.162c-.687.02-1.377.099-2.061.215a21.53 21.53 0 0 0-2.037.455c-.672.185-1.339.394-1.993.642.311-.278.647-.528.988-.769.343-.24.695-.466 1.054-.681.718-.43 1.466-.677 2.233-1.019 1.535-.682 3.147-1.053 4.796-1.41l-.21.056A33.212 33.212 0 0 1 23.918 27a64.368 64.368 0 0 1 1.675-3.584c1.18-2.33 2.433-4.633 3.58-6.97 1.149-2.336 2.194-4.736 2.968-7.223.778-2.483 1.273-5.07 1.38-7.678z"/></g><g><path fill="#ff7e0f" d="M33.52 1.546c-.063 2.608-.513 5.203-1.251 7.708-.735 2.509-1.743 4.93-2.855 7.29-1.11 2.365-2.327 4.675-3.461 7.017-1.132 2.341-2.189 4.726-2.868 7.218l-.043.157-.166.034c-.816.13-1.626.3-2.426.509-.8.208-1.59.464-2.365.758-.773.298-1.534.635-2.27 1.024-.367.193-.728.4-1.082.62-.352.22-.699.453-1.025.713.637-.29 1.29-.541 1.954-.77a21.744 21.744 0 0 1 2.023-.589 15.265 15.265 0 0 1 2.09-.353c.354-.03.71-.05 1.07-.046.358.005.719.03 1.08.082l.353.056-.162.327c-.236.47-.466.942-.693 1.417l-.678 1.43a29.79 29.79 0 0 1-.72 1.425c-.258.47-.536.93-.839 1.373l-.054.077-.079.025c-.811.251-1.628.474-2.45.673a57.81 57.81 0 0 1-2.476.53 73.176 73.176 0 0 1-4.993.772c.83-.14 1.655-.301 2.478-.473.823-.173 1.642-.36 2.458-.56.815-.2 1.625-.421 2.43-.657.802-.24 1.596-.502 2.378-.79l-.133.101c.292-.428.561-.871.81-1.328.249-.456.48-.925.708-1.399l.678-1.43c.228-.476.46-.952.697-1.426l.19.383a7.955 7.955 0 0 0-1.003-.14c-.34-.026-.682-.03-1.026-.021a14.93 14.93 0 0 0-2.061.214c-.684.118-1.364.272-2.037.455-.672.185-1.339.394-1.993.642.312-.277.647-.528.989-.769.342-.24.694-.466 1.053-.68.718-.431 1.467-.812 2.233-1.155.768-.339 1.553-.64 2.355-.896a25.629 25.629 0 0 1 2.44-.65l-.209.19c.739-2.533 1.85-4.92 3.024-7.25 1.18-2.332 2.433-4.617 3.58-6.955 1.148-2.335 2.193-4.727 2.968-7.213.778-2.483 1.27-5.063 1.38-7.67z"/></g><g><path fill="#ff7e0f" d="M8.871 23.559l1.566 2.445L7.99 27.57l1.558 2.445-2.445 1.565 1.558 2.446-2.737 1.776.91 4.28-6.598 10.09C.238 52.588.149 51.936.15 53.79 11.109 29.05 31.213 12.494 33.385.423"/></g><g><g><path fill="#ff7e0f" d="M7.743 26.45l-.768-1.2 1.2-.768.768 1.2z"/></g><g><path fill="#ff7e0f" d="M6.804 30.438l-.768-1.2 1.2-.769.769 1.2z"/></g><g><path fill="#ff7e0f" d="M5.717 27.749l-.48-.75.75-.48.48.75z"/></g><g><path fill="#ff7e0f" d="M4.778 31.736l-.48-.75.75-.48.48.75z"/></g><g><path fill="#ff7e0f" d="M4.28 29.304l-.289-.45.45-.288.288.45z"/></g><g><path fill="#ff7e0f" d="M5.914 34.5l-.768-1.2 1.2-.768.769 1.2z"/></g></g><g><path fill="#ff7e0f" d="M33.385.423c.128.784.135 1.147.135 1.159-.401 11.655-8.2 20.231-10.692 29.125-5.974 1.11-9.12 3.887-9.12 3.887s4.723-2.04 8.169-1.413c-1.307 2.608-1.8 4.002-2.911 5.629-4.24 1.467-3.435 1.408-9.791 2.567 0 0-1.042.129-1.207.146-1.5 1.921-3.055 3.955-7.572 12.417-.4.5.011-.599-.398-.15C3.62 43.2 30.53 7.594 33.385.423z"/></g></g></g></svg>