<svg xmlns="http://www.w3.org/2000/svg" width="103" height="103" viewBox="0 0 103 103"><g><g><g><path fill="#fcc01b" d="M52.21.82c27.788 0 50.366 22.943 50.366 50.64 0 27.696-22.486 50.274-50.274 50.274S1.662 79.247 1.662 51.459 24.422.82 52.21.82z"/></g><g/><g/><g><path fill="#fff" d="M72.594 81.167a7.905 7.905 0 0 0-.914-.64c1.28 2.834 2.377 6.399 3.108 9.506.457 1.92.823 3.84 1.188 5.76 2.011-1.098 4.297-2.469 6.125-3.84-1.92-2.377-3.84-4.753-5.85-7.038a20.316 20.316 0 0 0-3.657-3.748z"/></g><g><path fill="#2c394e" d="M76.525 84.732a29.42 29.42 0 0 0-3.565-3.93c-.457-.366-1.006-.824-1.554-1.098.183.366.366.823.64 1.28.183.091.365.183.548.366a23.053 23.053 0 0 1 3.657 3.656c2.01 2.285 3.839 4.753 5.85 7.038l.183-.091a92.324 92.324 0 0 1-2.468-3.108c-1.189-1.28-2.194-2.742-3.291-4.113z"/></g><g><path fill="#fff" d="M30.73 80.893l.182-.183c-.73-.092-1.645.822-2.193 1.37-1.28 1.19-2.377 2.469-3.383 3.84-1.28 1.737-2.468 3.748-3.656 5.484 1.463 1.097 2.925 2.194 4.48 3.108.182-.914.456-1.828.639-2.742a55.064 55.064 0 0 1 3.93-10.877z"/></g><g><path fill="#2c394e" d="M28.719 82.172c.548-.548 1.28-.914 2.01-1.188.183-.274.275-.64.458-1.005-.275 0-.457.09-.732.182-.822.275-1.554.823-2.193 1.463-1.189 1.28-2.286 2.65-3.2 4.113-1.188 1.828-2.376 3.565-3.473 5.393l.183.183a108.759 108.759 0 0 1 3.656-5.302c.823-1.37 2.01-2.65 3.29-3.839z"/></g><g><path fill="#fff" d="M70.31 78.516c-1.92-3.656-4.754-6.764-8.136-9.05a21.414 21.414 0 0 0-11.792-3.199c-2.102 0-4.113.457-6.033 1.189-1.92.73-3.747 1.828-5.301 3.108-3.108 2.742-5.942 6.032-7.77 9.78-1.828 3.748-3.108 7.678-4.022 11.7-.274 1.006-.457 2.011-.64 3.017 14.9 8.775 33.547 9.232 48.903 1.188a61.998 61.998 0 0 0-1.097-5.941c-.822-4.205-2.193-8.136-4.113-11.792z"/></g><g><path fill="#2c394e" d="M72.046 80.984a8.358 8.358 0 0 0-.64-1.28 10.914 10.914 0 0 1-.731-1.462c-2.011-3.657-4.845-6.856-8.41-9.141a21.19 21.19 0 0 0-11.974-3.108c-2.103 0-4.205.366-6.125 1.097s-3.839 1.737-5.393 3.108c-3.199 2.742-5.758 6.033-7.678 9.78-.183.275-.274.64-.457 1.006-1.645 3.473-2.925 7.038-3.93 10.695-.275.914-.457 1.828-.64 2.742.274.183.457.274.731.457.183-1.006.457-2.011.64-3.017.914-4.021 2.285-7.952 4.022-11.7 1.828-3.747 4.296-7.038 7.404-9.78 1.554-1.28 3.382-2.377 5.301-3.108a17.17 17.17 0 0 1 6.033-1.097 21.623 21.623 0 0 1 11.792 3.2c3.473 2.284 6.216 5.392 8.135 9.049 1.92 3.656 3.291 7.586 4.114 11.608.457 2.011.822 3.93 1.097 5.942.274-.183.548-.274.822-.366-.274-1.92-.731-3.839-1.188-5.758-.549-2.926-1.554-5.942-2.925-8.867z"/></g><g><path fill="#eb8807" d="M98.645 70.655c-7.86 18.739-26.142 30.987-46.526 30.987-27.788-.091-50.274-22.578-50.183-50.366C2.028 23.49 24.514 1.002 52.302 1.094c27.788.091 50.183 22.577 50.183 50.365 0 6.582-1.28 13.163-3.84 19.196zm4.022-19.196c.092-13.345-5.118-26.234-14.625-35.74C68.298-4.482 35.94-4.848 15.74 14.896A51.138 51.138 0 0 0 4.404 31.624C-3.823 51.002.656 73.397 15.647 88.114a50.425 50.425 0 0 0 16.91 10.969c19.196 7.587 41.043 2.925 55.485-11.792 9.415-9.506 14.717-22.395 14.625-35.832z"/></g><g><path fill="#2c394e" d="M89.413 4.201h2.103c.365 0 .64.275.64.64l.548 45.521c0 .366-.274.64-.64.64h-2.102a.625.625 0 0 1-.64-.64l-.549-45.52c0-.275.275-.64.64-.64z"/></g><g><path fill="#2c394e" d="M89.322 7.766h2.468c.731 0 1.371.64 1.371 1.371l.091 5.028c0 .731-.64 1.371-1.37 1.371h-2.469c-.731 0-1.37-.64-1.37-1.371l-.092-5.028c0-.73.548-1.28 1.37-1.37z"/></g><g><path fill="#2c394e" d="M83.741 49.596c-.05-5.098 2.568-9.258 5.849-9.29 3.281-.033 5.982 4.073 6.033 9.171.051 5.099-2.567 9.258-5.848 9.291-3.281.033-5.983-4.073-6.034-9.172z"/></g><g><path fill="#fff" d="M91.973 49.266c.091 7.13-2.285 12.888-6.856 12.888-7.312.091-8.318-5.667-8.41-12.706-.09-7.038.458-12.797 8.045-12.888 4.57-.092 7.13 5.576 7.22 12.706z"/></g><g><path fill="#2c394e" d="M91.881 49.265a21.059 21.059 0 0 1-1.37 8.227c-.55 1.28-1.372 2.468-2.377 3.382-1.097.914-2.468 1.371-3.84 1.189-1.37 0-2.742-.457-3.93-1.189-1.097-.731-2.011-1.92-2.468-3.199a25.18 25.18 0 0 1-1.097-8.227c0-2.833-.091-5.667.823-8.318a6.501 6.501 0 0 1 2.468-3.2c1.188-.73 2.56-1.096 3.93-1.187 1.371-.275 2.743.182 3.84 1.005 1.096.823 1.919 2.011 2.467 3.29 1.097 2.652 1.554 5.394 1.554 8.228zm-.091-4.204c-.183-1.371-.549-2.742-1.006-4.114a8.508 8.508 0 0 0-2.376-3.747c-.549-.549-1.28-.914-2.011-1.189a10.538 10.538 0 0 0-2.377-.274c-1.554 0-3.199.366-4.57 1.097-1.463.914-2.56 2.285-3.2 3.84-1.188 3.016-1.28 6.032-1.188 8.866.092 2.833.183 5.85 1.463 8.775.64 1.554 1.737 2.834 3.2 3.748 1.37.822 3.016 1.188 4.57 1.096.822 0 1.645-.09 2.376-.365a5.81 5.81 0 0 0 2.011-1.28c1.097-1.097 1.828-2.376 2.285-3.839.457-1.371.731-2.834.914-4.205.183-1.37.183-2.833.183-4.204 0-1.463-.091-2.834-.274-4.205z"/></g><g><path fill="#fff" d="M49.742 15.719c25.595 0 36.472 14.26 36.746 32.45.274 18.19-11.791 33.363-35.923 33.363-25.777 0-36.746-14.26-36.746-32.45 0-22.303 14.9-33.363 35.923-33.363z"/></g><g><path fill="#2c394e" d="M49.742 15.627c4.662-.091 9.324.457 13.894 1.554a32.076 32.076 0 0 1 12.523 6.125c3.565 3.016 6.399 6.947 8.044 11.334a39.102 39.102 0 0 1 2.468 13.711c.091 4.662-.548 9.324-2.01 13.803a26.198 26.198 0 0 1-7.68 11.609c-3.655 3.016-7.952 5.119-12.522 6.215-9.14 2.194-18.647 2.286-27.88.366a32.91 32.91 0 0 1-12.705-5.85 25.704 25.704 0 0 1-7.953-11.426c-1.553-4.388-2.285-9.05-2.285-13.803-.091-4.661.549-9.323 2.103-13.802a26.891 26.891 0 0 1 7.77-11.517c3.564-3.108 7.769-5.302 12.34-6.49 4.57-1.189 9.232-1.829 13.893-1.829zm0 .183c-4.661.092-9.323.732-13.802 2.011-4.48 1.189-8.593 3.474-12.157 6.49C20.4 27.42 17.84 31.35 16.47 35.737c-1.371 4.388-2.011 8.958-1.737 13.528.092 4.57 1.006 9.05 2.56 13.255 1.554 4.204 4.204 7.86 7.678 10.694 3.565 2.743 7.678 4.57 12.066 5.485 4.479.914 8.958 1.28 13.528 1.188 4.57 0 9.05-.548 13.528-1.554 4.297-1.005 8.41-3.016 11.883-5.759 3.382-2.925 5.942-6.58 7.496-10.786 1.462-4.296 2.194-8.866 2.194-13.437.091-4.57-.64-9.14-2.103-13.528a26.64 26.64 0 0 0-7.678-11.243c-3.565-2.925-7.77-5.119-12.249-6.216-4.57-1.005-9.232-1.554-13.894-1.554z"/></g><g><path fill="#eb8807" d="M50.382 68.827C31.644 69.1 20.766 60.6 20.583 47.529c-.183-13.072 9.324-23.126 29.25-23.31 19.928-.182 29.708 9.507 29.8 22.578.091 13.072-10.512 21.756-29.25 22.03z"/></g><g><path fill="#2c394e" d="M50.382 68.735c-3.473.092-6.855-.274-10.329-1.005a30.96 30.96 0 0 1-9.69-3.565 19.163 19.163 0 0 1-9.688-17.185c0-3.473.822-6.855 2.376-9.963 1.646-3.017 4.022-5.667 6.947-7.496 2.925-1.92 6.216-3.199 9.598-3.93 3.382-.731 6.764-1.188 10.238-1.188 3.473-.092 6.947.274 10.329.914 3.473.64 6.673 1.92 9.69 3.656 2.924 1.737 5.392 4.296 7.129 7.313 1.737 3.107 2.56 6.49 2.65 9.963a19.12 19.12 0 0 1-9.323 17.459c-2.925 1.828-6.216 3.108-9.598 3.84-3.382.73-6.855 1.187-10.329 1.187zm0 .092c3.474 0 6.947-.366 10.33-1.097 3.381-.64 6.672-1.92 9.688-3.748 6.308-3.656 9.964-10.42 9.69-17.642 0-3.564-.914-7.038-2.56-10.237-1.736-3.108-4.204-5.759-7.312-7.678-3.017-1.829-6.399-3.108-9.872-3.84a50.93 50.93 0 0 0-21.024.275c-3.474.73-6.764 2.102-9.78 4.022-3.017 1.92-5.485 4.661-7.13 7.86-1.554 3.2-2.377 6.765-2.286 10.33-.091 7.22 3.84 13.894 10.147 17.367 3.016 1.737 6.307 2.925 9.78 3.565a48.75 48.75 0 0 0 10.33.823z"/></g><g><path fill="#2c394e" d="M56.14 54.567c0 1.554-2.65 2.925-5.94 2.925-3.291 0-6.034-1.37-6.034-2.925 0-1.554 2.651 0 5.942 0 3.29 0 6.033-1.645 6.033 0z"/></g><g><path fill="#2c394e" d="M29.998 44.147c0-2.878 1.76-5.21 3.93-5.21 2.172 0 3.931 2.332 3.931 5.21 0 2.877-1.76 5.21-3.93 5.21-2.171 0-3.93-2.333-3.93-5.21z"/></g><g><path fill="#fff" d="M34.386 42.593c0-.707.368-1.28.823-1.28.454 0 .822.573.822 1.28 0 .706-.368 1.28-.822 1.28-.455 0-.823-.573-.823-1.28z"/></g><g><path fill="#2c394e" d="M62.448 44.147c0-2.878 1.76-5.21 3.93-5.21 2.171 0 3.931 2.332 3.931 5.21 0 2.877-1.76 5.21-3.93 5.21-2.171 0-3.931-2.333-3.931-5.21z"/></g><g><path fill="#fff" d="M67.11 42.593c0-.707.368-1.28.822-1.28.455 0 .823.573.823 1.28 0 .706-.368 1.28-.823 1.28-.454 0-.822-.573-.822-1.28z"/></g><g><path fill="#eb8807" d="M69.943 89.12c-2.925 1.462-9.689 2.742-13.71 2.559a.625.625 0 0 1-.64-.64v-3.93c0-.366.274-.64.64-.64 4.295-.092 8.592-.823 12.614-2.194.365-.092.73.091.822.457v.183l.549 3.747c0 .092-.092.366-.275.457z"/></g><g><path fill="#fcc01b" d="M69.578 88.662c-2.651 1.28-9.05 2.468-12.797 2.468-.274 0-.549-.183-.549-.548l-.091-3.2c0-.274.274-.548.548-.548 4.022-.183 7.953-.914 11.792-2.102.274-.092.64 0 .823.365v.092l.548 3.016c0 .183-.091.457-.274.457z"/></g></g></g></svg>