<svg xmlns="http://www.w3.org/2000/svg" width="31" height="31" viewBox="0 0 31 31"><g><g><path fill="#bbc0d6" d="M19.805 9.96a.37.37 0 0 1-.371.366h-1.587c-1.093 0-1.294.422-1.294 1.254v1.73h2.767a.366.366 0 0 1 .37.366v2.958l-.002.002a.368.368 0 0 1-.374.363h-2.767v7.463a.368.368 0 0 1-.37.366h-3.09a.369.369 0 0 1-.37-.367V17H10.35a.368.368 0 0 1-.37-.367v-2.96a.368.368 0 0 1 .371-.365h2.368v-2.04a4.115 4.115 0 0 1 4.357-4.425h2.364a.368.368 0 0 1 .366.37zM15.388.802C7.088.802.36 7.532.36 15.832c0 8.3 6.729 15.028 15.03 15.028 8.3 0 15.029-6.728 15.029-15.029 0-8.3-6.73-15.03-15.03-15.03z"/></g></g></svg>