<svg xmlns="http://www.w3.org/2000/svg" width="31" height="31" viewBox="0 0 31 31"><g><g><g><path fill="#fff" d="M19.804 9.96a.37.37 0 0 1-.37.366h-1.587c-1.094 0-1.294.422-1.294 1.254v1.73h2.766a.366.366 0 0 1 .37.366v2.958l-.001.003a.368.368 0 0 1-.374.362h-2.768v7.463a.368.368 0 0 1-.37.366h-3.09a.369.369 0 0 1-.368-.367V17h-2.37a.368.368 0 0 1-.368-.367v-2.96a.368.368 0 0 1 .37-.365h2.368v-2.04a4.115 4.115 0 0 1 4.357-4.425h2.363a.368.368 0 0 1 .366.37zM15.388.802C7.088.802.359 7.532.359 15.832c0 8.3 6.729 15.028 15.029 15.028s15.03-6.728 15.03-15.028S23.687.802 15.387.802z"/></g></g></g></svg>