<svg xmlns="http://www.w3.org/2000/svg" width="12" height="20" viewBox="0 0 12 20"><g><g><g><path fill="#ff7e0f" d="M11.902.823a10.61 10.61 0 0 1-.444 2.736c-.261.89-.62 1.75-1.014 2.589s-.826 1.66-1.23 2.49c-.4.832-.792 1.737-1.033 2.622l-.18.034c-.597.119-1.03.217-1.58.427-.275.105-.562.23-.823.367-.13.07-.283.149-.409.227-.125.079-.311.149-.406.241.221-.103.506-.178.74-.26.237-.08.492-.165.735-.223a5.55 5.55 0 0 1 .753-.125 3.36 3.36 0 0 1 .9.035l-.052.103c-.168.333-.332.682-.494 1.022-.08.17-.164.339-.255.505-.091.167-.19.33-.298.488l-.02.027-.027.009c-.288.091-.578.169-.87.24-.291.07-.585.131-.879.188a25.278 25.278 0 0 1-1.773.273 25.106 25.106 0 0 0 1.753-.366c.29-.072.577-.149.862-.233.286-.085.568-.177.845-.281l-.047.036c.103-.152.2-.31.287-.472.089-.162.171-.328.252-.496.16-.337.318-.679.488-1.014l.068.135a3.038 3.038 0 0 0-.72-.057c-.245.007-.49.035-.733.076a7.887 7.887 0 0 0-1.43.39c.11-.099.229-.188.35-.273.122-.085.247-.166.375-.242.255-.153.52-.24.792-.362.545-.242 1.117-.374 1.703-.5l-.075.02c.131-.45.296-.912.48-1.34.183-.427.385-.857.594-1.271.419-.828.864-1.645 1.271-2.475.408-.83.78-1.682 1.054-2.565.276-.881.452-1.8.49-2.725z"/></g><g><path fill="#ff7e0f" d="M11.902.823a10.61 10.61 0 0 1-.445 2.736c-.26.89-.619 1.75-1.013 2.589-.394.839-.826 1.659-1.23 2.49-.401.832-.776 1.679-1.017 2.563l-.016.056-.059.012a8.252 8.252 0 0 0-1.701.45 7.445 7.445 0 0 0-.805.363 6.05 6.05 0 0 0-.385.22c-.125.079-.248.161-.364.254a7.857 7.857 0 0 1 1.412-.483c.244-.057.49-.101.742-.125.126-.01.253-.018.38-.016.128.002.255.01.384.029l.125.02-.057.116a31.03 31.03 0 0 0-.246.503l-.241.508c-.081.17-.165.339-.256.505a5.83 5.83 0 0 1-.298.488l-.019.027-.028.009c-.288.09-.578.169-.87.239a20.54 20.54 0 0 1-.879.188 26.005 26.005 0 0 1-1.773.274 26.27 26.27 0 0 0 1.753-.367c.29-.07.577-.149.862-.233.286-.085.568-.178.845-.28l-.047.036c.103-.152.199-.31.287-.472.089-.162.171-.328.252-.496l.24-.508c.081-.17.164-.338.248-.506l.068.136a2.825 2.825 0 0 0-.357-.05c-.12-.01-.242-.01-.364-.008-.244.007-.489.035-.732.077a7.896 7.896 0 0 0-1.43.39v-.001c.11-.099.229-.188.35-.273.122-.085.247-.166.374-.242.256-.153.521-.288.793-.41.273-.12.551-.227.836-.318a9.11 9.11 0 0 1 .867-.23l-.075.067c.263-.9.657-1.747 1.074-2.574.419-.828.864-1.64 1.271-2.47.408-.829.778-1.678 1.054-2.56.276-.882.451-1.798.49-2.723z"/></g><g><path fill="#ff7e0f" d="M3.15 8.638l.556.868-.869.556.553.868-.868.556.553.868-.971.63.323 1.52-2.343 3.583c0 .857-.03.625-.03 1.284 3.89-8.783 11.028-14.662 11.8-18.947"/></g><g><g><path fill="#ff7e0f" d="M2.75 9.665l-.273-.427.426-.272.273.426z"/></g><g><path fill="#ff7e0f" d="M2.416 11.08l-.272-.426.426-.273.272.427z"/></g><g><path fill="#ff7e0f" d="M2.03 10.125l-.17-.266.266-.17.17.266z"/></g><g><path fill="#ff7e0f" d="M1.697 11.541l-.17-.266.266-.17.17.266z"/></g><g><path fill="#ff7e0f" d="M1.52 10.678l-.103-.16.16-.102.103.16z"/></g><g><path fill="#ff7e0f" d="M2.1 12.523l-.273-.427.427-.272.272.426z"/></g></g><g><path fill="#ff7e0f" d="M11.854.424c.045.278.047.407.047.411-.142 4.138-2.91 7.183-3.796 10.34-2.12.395-3.237 1.38-3.237 1.38s1.676-.724 2.9-.5c-.464.925-.64 1.42-1.034 1.998-1.505.52-1.22.5-3.476.911 0 0-.37.046-.429.052-.532.682-1.084 1.404-2.688 4.408-.142.178.004-.212-.141-.053C1.286 15.611 10.84 2.97 11.854.424z"/></g></g></g></svg>