<svg xmlns="http://www.w3.org/2000/svg" width="14" height="23" viewBox="0 0 14 23"><g><g><g><path fill="#fff" d="M14.11.897a12.58 12.58 0 0 1-.526 3.244c-.31 1.056-.734 2.075-1.202 3.069-.467.995-.98 1.967-1.457 2.953-.476.985-.94 2.058-1.225 3.107l-.214.041c-.707.14-1.22.257-1.872.506a9.058 9.058 0 0 0-.977.436c-.155.081-.335.176-.484.268-.149.093-.37.176-.482.286.263-.122.6-.211.879-.307s.582-.197.87-.265c.289-.068.594-.121.892-.149.298-.027.68-.03 1.066.041l-.06.123c-.2.395-.394.809-.586 1.21-.096.202-.194.403-.302.6a6.706 6.706 0 0 1-.353.578l-.023.033-.033.01c-.341.108-.685.2-1.031.284a23.01 23.01 0 0 1-1.042.223 29.959 29.959 0 0 1-2.102.325 29.627 29.627 0 0 0 2.078-.434c.343-.085.684-.177 1.022-.277.338-.1.673-.21 1.001-.333l-.056.043c.123-.18.237-.367.341-.56.105-.191.203-.389.298-.588.19-.4.378-.804.579-1.202l.08.16a3.6 3.6 0 0 0-.854-.067c-.29.008-.58.041-.867.09-.289.05-.574.114-.858.192a9.32 9.32 0 0 0-.839.27 4.61 4.61 0 0 1 .416-.324c.145-.1.293-.196.444-.287.302-.18.617-.285.94-.428.646-.287 1.324-.444 2.018-.594l-.088.023c.155-.533.35-1.08.568-1.587.217-.507.457-1.017.705-1.508.496-.98 1.024-1.95 1.507-2.934.483-.983.923-1.993 1.25-3.04.326-1.045.535-2.134.58-3.231z"/></g><g><path fill="#fff" d="M14.11.897a12.592 12.592 0 0 1-.526 3.244c-.31 1.056-.734 2.075-1.202 3.069-.467.995-.98 1.967-1.457 2.953-.476.985-.92 1.99-1.207 3.038l-.018.066-.07.014a10.57 10.57 0 0 0-1.02.215c-.338.087-.67.195-.996.319a8.81 8.81 0 0 0-.956.43 7.168 7.168 0 0 0-.455.262c-.148.093-.295.19-.432.3.268-.122.543-.228.823-.324.279-.096.563-.18.851-.248.289-.068.582-.12.88-.149.15-.013.299-.02.45-.02.151.003.303.013.455.035l.149.024-.069.137c-.099.198-.196.397-.291.597l-.286.602c-.096.2-.195.402-.303.6a6.86 6.86 0 0 1-.353.577l-.023.033-.033.01c-.342.106-.685.2-1.031.284-.346.081-.694.157-1.042.223a30.86 30.86 0 0 1-2.102.325 31.162 31.162 0 0 0 2.078-.435c.343-.084.684-.177 1.022-.276.338-.101.672-.212 1.001-.333l-.056.043c.123-.18.237-.367.341-.56.105-.191.203-.389.298-.588l.286-.602c.096-.2.193-.401.293-.6l.08.16a3.35 3.35 0 0 0-.422-.058 4.387 4.387 0 0 0-.432-.01c-.29.01-.58.042-.867.091-.289.05-.574.114-.858.192a9.329 9.329 0 0 0-.839.27c.132-.117.272-.223.417-.324a7.2 7.2 0 0 1 .443-.287c.302-.18.617-.341.94-.485.323-.143.653-.27.99-.377.338-.108.681-.2 1.028-.274l-.088.08c.311-1.066.779-2.071 1.273-3.052.496-.981 1.024-1.943 1.507-2.927.483-.983.923-1.99 1.25-3.036.326-1.045.534-2.131.58-3.228z"/></g><g><path fill="#fff" d="M3.735 10.162l.66 1.03-1.03.658.655 1.03-1.029.658.656 1.03-1.152.747.383 1.802-2.777 4.247c0 1.016-.037.742-.036 1.522C4.677 12.475 13.139 5.506 14.054.425"/></g><g><g><path fill="#fff" d="M3.26 11.38l-.323-.506.505-.323.324.505z"/></g><g><path fill="#fff" d="M2.865 13.057l-.323-.505.505-.323.324.505z"/></g><g><path fill="#fff" d="M2.408 11.925l-.202-.315.315-.202.202.315z"/></g><g><path fill="#fff" d="M2.013 13.604l-.202-.316.315-.202.202.316z"/></g><g><path fill="#fff" d="M1.803 12.58l-.122-.19.19-.12.121.19z"/></g><g><path fill="#fff" d="M2.49 14.767l-.323-.505.506-.323.323.505z"/></g></g><g><path fill="#fff" d="M14.054.424c.053.33.056.483.056.487-.168 4.906-3.451 8.516-4.5 12.26-2.514.467-3.839 1.636-3.839 1.636s1.988-.859 3.439-.595c-.55 1.098-.758 1.684-1.226 2.37-1.784.617-1.445.592-4.121 1.08 0 0-.438.054-.508.061-.632.809-1.286 1.665-3.187 5.227-.168.21.005-.252-.168-.064C1.526 18.43 12.852 3.442 14.054.424z"/></g></g></g></svg>