<svg xmlns="http://www.w3.org/2000/svg" width="31" height="30" viewBox="0 0 31 30"><g><g><path fill="#ff7e0f" d="M6.682 8.264l.22.345-.345.221-.22-.344zm.83 2.055l-.574.367-.367-.573.574-.368zm.354-3.623l-.003.002v-.002zm.364.574l-.574.368-.363-.575.57-.365zM9.537 5.14l.59.918-.919.587-.588-.918zm-.13 3.969l-.919.588-.588-.919.92-.588.588.919zm-.68 3.108l-.918.587-.588-.916.92-.59zM25.636 0c-.37.75-.572 1.22-.898 1.898-.36.748-.758 1.516-1.126 2.274a32.849 32.849 0 0 0-2.208 5.604l-.044.165-.17.033-.388.075c-1.146.196-2.27.499-3.359.905-.248.095-.486.19-.714.29a12.196 12.196 0 0 1 1.862-.327 8.02 8.02 0 0 1 .736-.034c.428-.001.855.037 1.276.114l.355.065-.16.324-.113.226c-.316.627-.63 1.287-.933 1.924l-.129.272c-.17.353-.354.732-.557 1.103-.2.37-.42.728-.655 1.076l-.043.056-.052.074-.087.028-.06.019c-.576.183-1.196.353-1.893.52a41.66 41.66 0 0 1-1.907.41c-.616.117-1.26.226-1.916.33-.713.11-2.186.319-2.96.422-.648.931-2.578 3.679-4.745 7.422-.551 1.075-1.624 3.236-1.624 3.236V24.75l5.098-7.73-.674-3.164-.039-.183.158-.102 1.868-1.212-1.047-1.641-.146-.23.23-.147 1.64-1.051-1.045-1.641-.146-.23.229-.147 1.641-1.05L9.84 4.578 9.7 4.362l.208-.162c2.159-1.567 4.044-2.924 5.707-4.2H.5v30h30V0z"/></g></g></svg>