<svg xmlns="http://www.w3.org/2000/svg" width="31" height="30" viewBox="0 0 31 30"><g><g><path fill="#fff" d="M15.534.859A14.864 14.864 0 0 0 .65 15.743c0 6.55 4.266 12.106 10.22 14.09.794.1.992-.297.992-.694v-2.58c-4.167.893-5.06-1.985-5.06-1.985-.695-1.687-1.687-2.183-1.687-2.183-1.39-.893.1-.893.1-.893 1.488.1 2.281 1.489 2.281 1.489 1.29 2.282 3.473 1.587 4.366 1.19.1-.992.497-1.587.993-1.984-3.275-.397-6.748-1.687-6.748-7.343 0-1.588.596-2.977 1.489-3.97-.199-.396-.695-1.885.099-3.968 0 0 1.29-.397 4.068 1.488 1.191-.298 2.48-.496 3.77-.496s2.58.198 3.772.496c2.877-1.885 4.068-1.488 4.068-1.488.794 2.083.298 3.572.1 3.969.991.992 1.488 2.381 1.488 3.969 0 5.755-3.473 6.946-6.748 7.343.496.496.992 1.389.992 2.778v4.069c0 .397.298.893.993.694a14.785 14.785 0 0 0 10.12-14.09C30.419 7.507 23.77.859 15.535.859z"/></g></g></svg>