<svg xmlns="http://www.w3.org/2000/svg" width="223" height="53" viewBox="0 0 223 53"><g><g><g><g><path fill="#fff" d="M79.381 33.231c.587 0 1.072.192 1.456.577.385.384.577.87.577 1.456 0 .573-.215 1.075-.645 1.505-2.02 1.772-4.398 2.658-7.134 2.658-3.023 0-5.603-1.068-7.74-3.205-2.137-2.138-3.206-4.718-3.206-7.74 0-3.024 1.068-5.603 3.206-7.74 2.136-2.138 4.717-3.206 7.74-3.206 2.75 0 5.128.886 7.134 2.658.469.417.704.931.704 1.544 0 .586-.193 1.075-.577 1.466-.384.39-.87.586-1.456.586-.496 0-.939-.157-1.33-.469a7.5 7.5 0 0 0-2.09-1.27 6.464 6.464 0 0 0-2.385-.43c-.952 0-1.845.178-2.678.537a7.033 7.033 0 0 0-2.19 1.466 6.815 6.815 0 0 0-1.475 2.179 6.706 6.706 0 0 0-.537 2.677c0 .952.179 1.845.537 2.678a6.82 6.82 0 0 0 1.476 2.18 7.011 7.011 0 0 0 2.19 1.465 6.71 6.71 0 0 0 2.677.538c.86 0 1.654-.14 2.384-.42.73-.28 1.42-.7 2.072-1.261a2.201 2.201 0 0 1 1.29-.429z"/></g><g><path fill="#fff" d="M89.44 19.569v.39a11.201 11.201 0 0 1 3.185-1.797 10.673 10.673 0 0 1 3.675-.626c.574 0 1.19.04 1.848.117a8.084 8.084 0 0 1 1.817.42c.554.202 1.013.48 1.379.831.364.352.547.808.547 1.368 0 .287-.056.554-.166.802-.11.247-.258.466-.44.655a1.932 1.932 0 0 1-.645.44 2.04 2.04 0 0 1-.801.156c-.248 0-.535-.072-.86-.215a7.204 7.204 0 0 0-2.678-.489c-.951 0-1.845.18-2.678.537a6.913 6.913 0 0 0-2.18 1.466 6.9 6.9 0 0 0-1.465 2.18 6.712 6.712 0 0 0-.538 2.677v8.913c0 .56-.198 1.04-.596 1.437a1.958 1.958 0 0 1-1.437.596 1.98 1.98 0 0 1-1.456-.596 1.957 1.957 0 0 1-.596-1.437V19.568c0-.56.198-1.039.596-1.436a1.981 1.981 0 0 1 1.456-.596c.56 0 1.04.199 1.437.596.397.398.596.877.596 1.437z"/></g><g><path fill="#fff" d="M107.742 26.449a6.328 6.328 0 0 1 .958-1.964c.43-.593.938-1.101 1.525-1.525a7.137 7.137 0 0 1 1.935-.987 6.814 6.814 0 0 1 2.169-.352c.743 0 1.463.117 2.16.352a7.026 7.026 0 0 1 1.915.987c.58.424 1.088.932 1.525 1.525.436.593.765 1.247.987 1.964zm12.294 6.821a2.137 2.137 0 0 0-1.348.508 6.486 6.486 0 0 1-1.994 1.173c-.717.26-1.505.39-2.365.39a6.788 6.788 0 0 1-2.18-.35 7.017 7.017 0 0 1-1.915-.988 6.854 6.854 0 0 1-1.515-1.525 6.674 6.674 0 0 1-.977-1.964h15.48c.574 0 1.059-.192 1.456-.577.398-.383.597-.87.597-1.456 0-1.51-.267-2.915-.801-4.211-.535-1.297-1.336-2.473-2.405-3.529-2.163-2.137-4.743-3.205-7.74-3.205-3.023 0-5.603 1.068-7.74 3.205-2.137 2.138-3.205 4.717-3.205 7.74 0 3.023 1.068 5.603 3.205 7.74 2.137 2.138 4.717 3.206 7.74 3.206 2.75 0 5.134-.886 7.154-2.658a2.03 2.03 0 0 0 .586-1.466c0-.586-.192-1.072-.576-1.456-.385-.384-.87-.577-1.457-.577z"/></g><g><path fill="#fff" d="M142.025 22.169a6.958 6.958 0 0 1 3.645 3.664c.359.828.538 1.71.538 2.648a6.59 6.59 0 0 1-.538 2.65 6.955 6.955 0 0 1-3.645 3.665 6.598 6.598 0 0 1-2.677.546 6.654 6.654 0 0 1-2.697-.547 6.917 6.917 0 0 1-2.17-1.476 6.97 6.97 0 0 1-1.456-2.179 6.655 6.655 0 0 1-.538-2.658c0-.939.18-1.824.538-2.659a6.987 6.987 0 0 1 1.456-2.179 6.919 6.919 0 0 1 2.17-1.475 6.656 6.656 0 0 1 2.697-.548c.951 0 1.844.183 2.677.548zm4.183 15.226c0 .56.199 1.038.597 1.436.397.398.882.596 1.456.596.56 0 1.038-.198 1.436-.596.398-.397.597-.876.597-1.436v-8.913c0-3.023-1.07-5.603-3.206-7.74-2.163-2.137-4.743-3.206-7.74-3.206-3.023 0-5.603 1.069-7.74 3.206-2.137 2.137-3.206 4.717-3.206 7.74 0 3.023 1.069 5.603 3.206 7.74 2.137 2.137 4.716 3.205 7.74 3.205 1.302 0 2.528-.208 3.675-.625a11.212 11.212 0 0 0 3.185-1.798z"/></g><g><path fill="#fff" d="M153.577 17.536h.919v-7.35c0-.56.198-1.038.596-1.435a1.982 1.982 0 0 1 1.456-.597c.56 0 1.04.199 1.437.597.397.397.596.876.596 1.436v7.35h2.443c.56 0 1.037.198 1.428.595.39.398.585.877.585 1.437 0 .574-.195 1.059-.585 1.456-.391.397-.867.596-1.428.596h-2.443v9.832c0 2.593 1.303 3.89 3.91 3.89.56 0 1.035.198 1.426.595.391.398.587.877.587 1.437 0 .574-.196 1.059-.587 1.456-.39.398-.867.596-1.427.596-5.33 0-7.994-2.658-7.994-7.974V21.62h-.919c-.547 0-1.02-.198-1.417-.596a1.98 1.98 0 0 1-.596-1.456c0-.56.199-1.04.596-1.437.398-.397.87-.596 1.417-.596z"/></g><g><path fill="#fff" d="M179.73 22.169a6.956 6.956 0 0 1 3.645 3.664c.358.828.537 1.71.537 2.648 0 .94-.179 1.822-.537 2.65a6.944 6.944 0 0 1-3.645 3.665 6.601 6.601 0 0 1-2.678.546 6.653 6.653 0 0 1-2.697-.547 6.916 6.916 0 0 1-2.17-1.476 6.973 6.973 0 0 1-1.456-2.179 6.655 6.655 0 0 1-.538-2.658c0-.939.18-1.824.538-2.659a6.99 6.99 0 0 1 1.456-2.179 6.918 6.918 0 0 1 2.17-1.475 6.655 6.655 0 0 1 2.697-.548c.951 0 1.844.183 2.678.548zm4.183 15.226c0 .56.198 1.038.596 1.436a1.98 1.98 0 0 0 1.456.596c.56 0 1.039-.198 1.436-.596.398-.397.597-.876.597-1.436v-8.913c0-3.023-1.069-5.603-3.206-7.74-2.163-2.137-4.743-3.206-7.74-3.206-3.023 0-5.603 1.069-7.74 3.206-2.137 2.137-3.206 4.717-3.206 7.74 0 3.023 1.069 5.603 3.206 7.74 2.137 2.137 4.717 3.205 7.74 3.205 1.303 0 2.528-.208 3.674-.625a11.204 11.204 0 0 0 3.186-1.798v.39z"/></g><g><path fill="#fff" d="M191.743 37.395V10.206c0-.573.192-1.058.576-1.455.384-.398.87-.597 1.456-.597.587 0 1.072.199 1.457.597.383.397.576.882.576 1.455v25.137h.939c.56 0 1.039.199 1.436.596.398.398.597.883.597 1.456 0 .56-.2 1.04-.597 1.437a1.959 1.959 0 0 1-1.436.596h-2.991c-.56 0-1.036-.199-1.427-.596a1.976 1.976 0 0 1-.586-1.437z"/></g><g><path fill="#fff" d="M204.865 26.449a6.317 6.317 0 0 1 .958-1.964c.43-.593.938-1.101 1.524-1.525a7.135 7.135 0 0 1 1.935-.987 6.815 6.815 0 0 1 2.17-.352c.743 0 1.463.117 2.16.352a7.022 7.022 0 0 1 1.916.987 7.05 7.05 0 0 1 1.524 1.525 6.55 6.55 0 0 1 .987 1.964zm12.295 6.821a2.138 2.138 0 0 0-1.349.508 6.49 6.49 0 0 1-1.993 1.173c-.717.26-1.506.39-2.366.39a6.785 6.785 0 0 1-2.179-.35 7.02 7.02 0 0 1-1.915-.988 6.864 6.864 0 0 1-1.515-1.525 6.688 6.688 0 0 1-.978-1.964h15.48c.574 0 1.059-.192 1.457-.577.397-.383.596-.87.596-1.456 0-1.51-.268-2.915-.802-4.211-.533-1.297-1.335-2.473-2.403-3.529-2.164-2.137-4.744-3.205-7.74-3.205-3.023 0-5.603 1.068-7.74 3.205-2.138 2.138-3.206 4.717-3.206 7.74 0 3.023 1.068 5.603 3.206 7.74 2.136 2.138 4.716 3.206 7.74 3.206 2.749 0 5.133-.886 7.153-2.658.391-.404.587-.892.587-1.466 0-.586-.193-1.072-.577-1.456-.384-.384-.87-.577-1.456-.577z"/></g></g><g><path fill="#fff" d="M10.921 14.597l.39.61-.609.388-.389-.608zm1.47 3.636l-1.014.649-.649-1.014 1.014-.65zm.62-6.404l.649 1.014-1.015.65-.649-1.015 1.015-.649zm2.958-2.752l1.038 1.623-1.623 1.038-1.038-1.623zm-.23 7.012l-1.623 1.039-1.039-1.623 1.623-1.038zm-1.204 5.492l-1.623 1.038-1.038-1.623 1.623-1.038zM44.406 0c-.653 1.325-1.009 2.156-1.585 3.352-.637 1.322-1.34 2.678-1.99 4.018-1.894 3.924-3.134 7.072-3.904 9.9l-.079.293-.295.058-.684.132c-2.453.486-3.966.85-5.934 1.602-.438.168-.86.338-1.262.511.12-.031.239-.06.357-.089.986-.233 2-.401 2.933-.488.432-.04.87-.06 1.3-.06.787 0 1.546.067 2.255.198l.627.117-.283.571-.196.396a170.284 170.284 0 0 0-1.648 3.401l-.228.48c-.3.624-.626 1.293-.984 1.949a22.16 22.16 0 0 1-1.158 1.896l-.003.004-.003.004-.074.105-.093.13-.153.049-.106.033a48.812 48.812 0 0 1-3.344.92 73.871 73.871 0 0 1-3.369.722 97.414 97.414 0 0 1-3.385.584 345.69 345.69 0 0 1-5.227.745c-1.145 1.646-4.555 6.502-8.383 13.112-.974 1.9-2.87 5.717-2.87 5.717v-6.637l9.006-13.656-1.19-5.59-.068-.325.278-.18 3.299-2.14-1.85-2.903-.258-.406.405-.259 2.901-1.856-1.848-2.9-.258-.406.405-.26 2.9-1.855-1.856-2.9-.244-.383.367-.285C20.436 4.65 23.767 2.253 26.705 0H0v53h53V0h-8.594z"/></g></g></g></svg>