<svg xmlns="http://www.w3.org/2000/svg" width="75" height="76" viewBox="0 0 75 76"><g><g><g><g><g><path fill="#fec107" d="M9.62 52.864c-11.94-11.941-11.94-31.301 0-43.242 11.942-11.941 31.302-11.941 43.243 0 11.94 11.94 11.94 31.3 0 43.242-11.941 11.94-31.301 11.94-43.242 0z"/></g></g></g></g><g><g><g><path fill="#37474f" d="M31.242 68.935a.5.5 0 1 1 0-1c8.583 0 16.89-3.076 23.391-8.663a.501.501 0 0 1 .653.759 36.916 36.916 0 0 1-24.044 8.904z"/></g></g></g><g><g><g><path fill="#37474f" d="M31.242 75.274a.5.5 0 1 1 0-1 42.224 42.224 0 0 0 21.244-5.721.5.5 0 0 1 .504.864 43.227 43.227 0 0 1-21.748 5.857z"/></g></g></g><g><g><g><path fill="#37474f" d="M59.088 64.962a.5.5 0 0 1-.326-.88 42.524 42.524 0 0 0 6.37-6.822.5.5 0 0 1 .801.598 43.593 43.593 0 0 1-6.518 6.984.501.501 0 0 1-.327.12z"/></g></g></g><g><g><g><g><path fill="#37474f" d="M34.25 16.253a.5.5 0 0 1-.5-.5V11.39a.5.5 0 0 1 1 0v4.363a.5.5 0 0 1-.5.5z"/></g></g></g><g><g><g><path fill="#37474f" d="M36.431 14.07H32.07a.499.499 0 1 1 0-1h4.362a.5.5 0 1 1 0 1z"/></g></g></g></g><g><g><g><g><path fill="#37474f" d="M71.483 37.055a.5.5 0 0 1-.5-.5v-4.363a.5.5 0 0 1 1 0v4.363a.5.5 0 0 1-.5.5z"/></g></g></g><g><g><g><path fill="#37474f" d="M73.664 34.874h-4.363a.5.5 0 0 1 0-1h4.363a.5.5 0 1 1 0 1z"/></g></g></g></g><g><path fill="#fff" d="M31 30.516L41.827 21H20.174l10.825 9.516H31zm13 9.055V22.912L31.96 33.496a1.45 1.45 0 0 1-1.92 0L18 22.912v16.659c0 .788.648 1.43 1.444 1.43h23.112c.796 0 1.444-.642 1.444-1.43z"/></g></g></svg>