<svg xmlns="http://www.w3.org/2000/svg" width="168" height="166" viewBox="0 0 168 166"><g><g><g><path fill="#ff7e0f" d="M83.61 11.562l70.948 36.218-16.284 35.215 16.284 35.213-70.948 36.219-70.948-36.22 16.286-35.212L12.662 47.78z"/></g><g><path fill="#fff" d="M83.91 19.383l1.76 5.274 5.557.042L86.757 28l1.676 5.3-4.523-3.232-4.522 3.233 1.678-5.3-4.473-3.302 5.56-.042 1.757-5.274z"/></g><g><path fill="#ffb00d" d="M83.61 4.333L163 44.862l-17.632 38.133L163 121.126l-79.39 40.529-79.39-40.529 17.634-38.131L4.22 44.862zM0 43.403l18.308 39.592L0 122.585l83.61 42.684 83.612-42.684-18.307-39.59 18.307-39.592L83.61.719z"/></g><g><path fill="#fff" d="M138.103 82.995L127.9 60.93h-88.58L29.117 82.995l10.204 22.062h88.58z"/></g><g><g><path fill="#ff7e0f" d="M51.581 96.221h-3.419c-.563 0-.845-.282-.845-.845V71.202c0-.563.282-.845.845-.845h12.831c.537 0 .805.282.805.845v2.735c0 .563-.268.845-.805.845h-8.085c-.322 0-.482.148-.482.442v6.235c0 .322.16.483.482.483h6.879c.563 0 .844.281.844.844v2.695c0 .59-.281.885-.844.885h-6.879c-.322 0-.482.148-.482.443v8.567c0 .563-.281.845-.845.845z"/></g><g><path fill="#ff7e0f" d="M79.497 96.221H66.263c-.563 0-.845-.282-.845-.845V71.202c0-.563.282-.845.845-.845h3.42c.562 0 .843.282.843.845v20.112c0 .295.162.442.484.442h8.487c.536 0 .804.296.804.885v2.735c0 .563-.268.845-.804.845z"/></g><g><path fill="#ff7e0f" d="M97.476 96.221H84.323c-.564 0-.845-.282-.845-.845V71.202c0-.563.281-.845.845-.845h13.153c.536 0 .804.282.804.845v2.735c0 .563-.268.845-.804.845h-8.407c-.321 0-.483.148-.483.442v5.23c0 .295.162.442.483.442h6.878c.564 0 .845.282.845.845v2.735c0 .563-.281.844-.845.844H89.07c-.321 0-.483.148-.483.443v5.591c0 .295.162.442.483.442h8.407c.536 0 .804.282.804.845v2.735c0 .563-.268.845-.804.845z"/></g><g><path fill="#ff7e0f" d="M105.68 96.221H101.7c-.269 0-.456-.087-.563-.261-.108-.175-.108-.383 0-.624l6.234-12.348-6.034-11.746c-.107-.214-.107-.415 0-.603.107-.187.295-.282.564-.282h3.861c.67 0 1.113.282 1.328.845l3.82 8.648h.162l3.781-8.648c.268-.563.697-.845 1.287-.845h3.942c.268 0 .462.1.583.302.12.201.127.41.02.623l-6.114 11.706 6.235 12.308c.134.268.147.49.04.664-.107.174-.308.261-.603.261h-4.023c-.563 0-.952-.268-1.166-.804l-3.982-8.689h-.161l-4.022 8.689c-.241.536-.644.804-1.207.804z"/></g></g><g><g><path fill="#fffefd" d="M52.279 123.066h-1.86c-.925 0-1.64-.245-2.142-.737-.504-.491-.755-1.199-.755-2.124v-5.564c0-.924.251-1.632.755-2.123.503-.492 1.217-.737 2.141-.737h1.86c.914 0 1.62.248 2.125.745.503.498.754 1.203.754 2.115v.527c0 .258-.122.386-.368.386h-1.493c-.245 0-.368-.128-.368-.386v-.421c0-.374-.076-.64-.228-.799-.153-.158-.415-.237-.79-.237h-1.141c-.362 0-.623.08-.781.237-.157.158-.237.425-.237.799v5.353c0 .375.08.64.237.799.158.158.419.237.781.237h1.14c.376 0 .638-.08.79-.237.153-.158.23-.424.23-.799v-1.106c0-.128-.065-.193-.194-.193h-1.053c-.246 0-.369-.123-.369-.368v-1.194c0-.245.123-.368.37-.368h3.07c.269 0 .404.134.404.403v2.931c0 .913-.251 1.618-.754 2.116-.504.497-1.211.745-2.124.745z"/></g><g><path fill="#fffefd" d="M61.933 113.904l1.263 5.073H60.6l1.263-5.073zm-2.362 9.083c.053-.052.091-.149.115-.29l.49-1.93H63.6l.49 1.93c.024.141.06.238.106.29.047.053.135.08.264.08h1.685c.21 0 .28-.123.21-.37l-2.773-10.548c-.059-.246-.234-.368-.526-.368h-2.334c-.27 0-.446.122-.528.368l-2.773 10.549c-.07.246 0 .368.21.368h1.685c.118 0 .203-.026.255-.079z"/></g><g><path fill="#fffefd" d="M71.217 117.116c-.13 0-.193-.064-.193-.193v-3.019c0-.128.064-.193.193-.193h1.72c.375 0 .65.082.825.246.175.164.263.427.263.79v1.369c0 .35-.088.605-.263.763-.176.158-.45.237-.825.237h-1.72zm-.562 5.95c.246 0 .369-.122.369-.368V119.1c0-.129.07-.193.21-.193h1.176l1.756 3.79c.058.153.134.253.228.3.093.046.246.07.456.07h1.421c.305 0 .405-.14.3-.422l-1.879-3.914v-.07c1.041-.433 1.562-1.31 1.562-2.633v-1.369c0-.913-.257-1.62-.772-2.124-.515-.503-1.229-.754-2.141-.754h-4.178c-.246 0-.368.122-.368.368v10.549c0 .246.122.368.368.368h1.492z"/></g><g><path fill="#fffefd" d="M83.065 113.904l1.264 5.073h-2.598l1.264-5.073zm-2.615 9.162c.116 0 .201-.026.255-.079.052-.052.09-.149.113-.29l.492-1.93h3.422l.492 1.93c.024.141.059.238.105.29.047.053.135.08.263.08h1.685c.211 0 .281-.123.211-.37l-2.773-10.548c-.059-.246-.235-.368-.527-.368h-2.334c-.27 0-.445.122-.526.368l-2.774 10.549c-.07.246 0 .368.21.368z"/></g><g><path fill="#fffefd" d="M91.753 123.066h-1.457c-.246 0-.368-.122-.368-.368v-10.549c0-.246.122-.368.368-.368h1.316c.246 0 .41.082.492.245l3.545 6.652h.07v-6.529c0-.246.124-.368.37-.368h1.456c.246 0 .369.122.369.368v10.549c0 .246-.123.368-.37.368h-1.28a.587.587 0 0 1-.562-.35l-3.51-6.53h-.07v6.512c0 .246-.123.368-.37.368z"/></g><g><path fill="#fffefd" d="M104.566 123.066h-1.475c-.257 0-.386-.122-.386-.368v-8.794c0-.128-.064-.193-.193-.193h-2c-.246 0-.37-.123-.37-.368v-1.194c0-.246.124-.368.37-.368h6.634c.246 0 .369.122.369.368v1.194c0 .245-.123.368-.369.368h-2.001c-.14 0-.21.065-.21.193v8.794c0 .246-.123.368-.37.368z"/></g><g><path fill="#fffefd" d="M112.043 112.15v10.548c0 .246-.123.368-.368.368h-1.492c-.246 0-.369-.122-.369-.368v-10.549c0-.246.123-.368.369-.368h1.492c.245 0 .368.122.368.368z"/></g><g><path fill="#fffefd" d="M121.398 123.066h-5.74c-.245 0-.368-.122-.368-.368v-10.549c0-.246.123-.368.368-.368h5.74c.234 0 .351.122.351.368v1.194c0 .245-.117.368-.351.368h-3.669c-.14 0-.21.065-.21.193v2.282c0 .13.07.193.21.193h3.002c.246 0 .369.123.369.369v1.193c0 .246-.123.369-.369.369h-3.002c-.14 0-.21.064-.21.193v2.44c0 .129.07.193.21.193h3.669c.234 0 .351.123.351.368v1.194c0 .246-.117.368-.351.368z"/></g></g><g><g><path fill="#fff" d="M55.725 53.045c-.83 0-1.568-.189-2.215-.567a4.092 4.092 0 0 1-1.524-1.539c-.367-.647-.55-1.38-.55-2.199 0-.839.18-1.585.543-2.237a3.964 3.964 0 0 1 1.492-1.531c.632-.368 1.357-.552 2.175-.552.611 0 1.17.117 1.679.35a4.05 4.05 0 0 1 1.368 1.049c.144.166.196.337.155.513-.042.176-.155.331-.342.466a.59.59 0 0 1-.482.1.946.946 0 0 1-.482-.271c-.507-.539-1.14-.808-1.896-.808-.528 0-.994.122-1.398.365-.404.244-.72.583-.948 1.018-.228.435-.342.948-.342 1.538 0 .56.116 1.057.35 1.492.233.435.557.78.97 1.034.415.254.897.38 1.447.38.361 0 .68-.043.955-.132a2.28 2.28 0 0 0 .754-.411.942.942 0 0 1 .513-.226.611.611 0 0 1 .466.148c.176.145.274.308.295.49a.577.577 0 0 1-.187.49c-.746.693-1.678 1.04-2.796 1.04z"/></g><g><path fill="#fff" d="M61.972 47.668a3.1 3.1 0 0 1 .792-2.121v-.288c0-.259-.065-.453-.194-.583-.13-.129-.324-.194-.583-.194-.249 0-.44.068-.575.202-.135.135-.202.327-.202.575v6.947c0 .26.067.453.202.583.134.13.326.194.575.194.259 0 .453-.067.583-.202.13-.134.194-.326.194-.575v-4.547.01zm1.694-2.844a3.441 3.441 0 0 1 1.709-.435c.622 0 1.085.101 1.391.303.305.202.421.443.35.723a.596.596 0 0 1-.18.334.617.617 0 0 1-.302.148.918.918 0 0 1-.373-.016c-.663-.135-1.259-.145-1.788-.031-.528.114-.945.326-1.25.637-.304.309-.457.7-.459 1.172v-2.112c.253-.287.553-.528.902-.723z"/></g><g><path fill="#fff" d="M72.135 53.045c-.86 0-1.624-.184-2.292-.551a4.033 4.033 0 0 1-1.57-1.523c-.378-.648-.567-1.391-.567-2.23 0-.85.178-1.599.536-2.246a3.92 3.92 0 0 1 1.484-1.523c.632-.368 1.357-.552 2.176-.552.807 0 1.502.179 2.082.536.58.358 1.023.85 1.329 1.477.305.627.459 1.35.459 2.168a.65.65 0 0 1-.203.49.71.71 0 0 1-.512.193h-6.263v-1.243h6.216l-.637.435a3.334 3.334 0 0 0-.311-1.39 2.358 2.358 0 0 0-.84-.972c-.362-.238-.803-.357-1.32-.357-.591 0-1.096.13-1.515.388-.42.26-.739.614-.956 1.065-.218.45-.326.96-.326 1.53 0 .57.129 1.078.388 1.523.259.446.616.798 1.072 1.057.456.26.98.389 1.57.389.32 0 .65-.06.987-.179.336-.119.608-.256.816-.412a.88.88 0 0 1 .505-.179c.181-.005.34.05.474.164.176.155.269.326.28.513.01.186-.073.347-.25.481-.351.28-.79.508-1.313.684a4.693 4.693 0 0 1-1.5.264z"/></g><g><path fill="#fff" d="M84.817 52.999a.77.77 0 0 1-.793-.793v-.577c.172-.21.325-.44.458-.69.348-.647.52-1.38.52-2.199h.607v3.466a.77.77 0 0 1-.792.793zm-.793-3.17l.295-1.648 1.29.56c0-.819-.19-1.555-.567-2.207a4.211 4.211 0 0 0-1.53-1.547c-.643-.378-1.368-.567-2.177-.567-.808 0-1.536.19-2.183.567a4.2 4.2 0 0 0-1.539 1.547c-.378.652-.567 1.388-.567 2.206 0 .819.174 1.552.52 2.2.348.647.822 1.16 1.423 1.538.6.378 1.28.567 2.036.567s1.434-.189 2.036-.567a3.97 3.97 0 0 0 .963-.85zm-4.095 1.437c-.42-.254-.751-.6-.994-1.041a3.013 3.013 0 0 1-.366-1.485c0-.56.122-1.059.366-1.5.243-.44.575-.786.994-1.04.42-.254.888-.381 1.406-.381.529 0 1 .127 1.415.38.414.255.74.602.979 1.042.238.44.357.94.357 1.5 0 .549-.12 1.043-.357 1.484a2.71 2.71 0 0 1-.979 1.04c-.415.255-.886.382-1.415.382-.518 0-.986-.127-1.406-.381z"/></g><g><path fill="#fff" d="M91.064 52.983c-.519 0-.984-.132-1.398-.396a2.776 2.776 0 0 1-.98-1.08 3.27 3.27 0 0 1-.357-1.539V46.13h1.553v3.838c0 .415.115.762.342 1.041.229.28.508.42.84.42h.528a.61.61 0 0 1 .474.218c.13.145.194.331.194.559a.698.698 0 0 1-.257.56c-.17.145-.39.217-.66.217zm-2.735-10.428c0-.228.072-.414.217-.56a.756.756 0 0 1 .56-.217.76.76 0 0 1 .56.218.76.76 0 0 1 .216.56v2.237H88.33zm2.875 3.575a.748.748 0 0 0 .528-.187.608.608 0 0 0 .202-.466.644.644 0 0 0-.202-.497.747.747 0 0 0-.528-.187h-1.322v1.337zm-3.59-1.337a.747.747 0 0 0-.529.187.644.644 0 0 0-.202.497c0 .186.068.342.202.466.135.124.311.187.529.187h.715v-1.337z"/></g><g><path fill="#fff" d="M101.538 52.999a.767.767 0 0 1-.792-.793v-.577c.171-.21.324-.44.458-.69.347-.647.52-1.38.52-2.199h.607v3.466a.768.768 0 0 1-.793.793zm-.792-3.17l.295-1.648 1.29.56c0-.819-.19-1.555-.567-2.207a4.219 4.219 0 0 0-1.531-1.547c-.643-.378-1.368-.567-2.176-.567s-1.536.19-2.183.567a4.199 4.199 0 0 0-1.539 1.547c-.378.652-.567 1.388-.567 2.206 0 .819.173 1.552.52 2.2.347.647.822 1.16 1.422 1.538.601.378 1.28.567 2.036.567s1.435-.189 2.036-.567c.37-.232.69-.515.964-.85zm-4.096 1.437c-.419-.254-.75-.6-.994-1.041a3.013 3.013 0 0 1-.365-1.485c0-.56.122-1.059.365-1.5.243-.44.575-.786.994-1.04.42-.254.89-.381 1.407-.381.528 0 1 .127 1.414.38.415.255.74.602.98 1.042.238.44.357.94.357 1.5 0 .549-.119 1.043-.358 1.484a2.65 2.65 0 0 1-2.393 1.422c-.518 0-.987-.127-1.407-.381z"/></g><g><path fill="#fff" d="M106.713 52.983a2.05 2.05 0 0 1-1.212-.373 2.471 2.471 0 0 1-.823-1.018c-.198-.43-.296-.925-.296-1.484v-8.485c0-.228.073-.415.218-.56a.758.758 0 0 1 .56-.217c.227 0 .413.072.558.217a.756.756 0 0 1 .219.56v8.485c0 .383.072.7.217.948.145.249.331.373.56.373h.388c.207 0 .375.073.505.218a.81.81 0 0 1 .194.559.667.667 0 0 1-.295.56c-.197.145-.45.217-.762.217z"/></g><g><path fill="#fff" d="M112.883 53.045c-.86 0-1.624-.184-2.292-.551a4.034 4.034 0 0 1-1.57-1.523c-.378-.648-.567-1.391-.567-2.23 0-.85.18-1.599.536-2.246a3.923 3.923 0 0 1 1.484-1.523c.632-.368 1.358-.552 2.176-.552.808 0 1.502.179 2.083.536.58.358 1.022.85 1.328 1.477.306.627.459 1.35.459 2.168 0 .196-.068.36-.202.49a.71.71 0 0 1-.513.193h-6.263v-1.243h6.216l-.637.435a3.311 3.311 0 0 0-.31-1.39 2.365 2.365 0 0 0-.84-.972c-.363-.238-.804-.357-1.321-.357-.59 0-1.096.13-1.515.388-.42.26-.738.614-.956 1.065-.218.45-.326.96-.326 1.53 0 .57.129 1.078.388 1.523.26.446.617.798 1.073 1.057.455.26.978.389 1.57.389.32 0 .65-.06.986-.179a3.06 3.06 0 0 0 .816-.412.882.882 0 0 1 .505-.179c.182-.005.34.05.475.164.175.155.268.326.279.513.01.186-.073.347-.248.481-.353.28-.791.508-1.314.684a4.698 4.698 0 0 1-1.5.264z"/></g></g></g></g></svg>