<svg xmlns="http://www.w3.org/2000/svg" width="165" height="165" viewBox="0 0 165 165"><g><g><g><path fill="#ffb00d" d="M28.146 143.638a82.885 82.885 0 0 1-5.53-5.351 82.471 82.471 0 0 1-3.012-3.385C7.57 120.634.302 102.23.302 82.177c.044-1.412.103-2.817.176-4.213.126-2.423.274-4.731.61-7.125a81.743 81.743 0 0 1 1.159-6.395l41.588 30.408-15.689 48.786zm-5.42-10.745zm11.198-34.82L4.208 76.345a77.915 77.915 0 0 0-.221 5.832c0 19.32 7.065 37.039 18.74 50.716zm89.887 54.693a81.634 81.634 0 0 1-4.758 2.606 81.205 81.205 0 0 1-4.19 1.976 81.344 81.344 0 0 1-32.605 6.786 81.325 81.325 0 0 1-32.155-6.593 81.69 81.69 0 0 1-4.451-2.074 82.24 82.24 0 0 1-4.945-2.7l41.551-29.998 41.553 29.997zm-11.899 1.832zM82.258 133.19l-29.65 21.405a77.695 77.695 0 0 0 29.65 5.854 77.707 77.707 0 0 0 29.654-5.85zm80.012-68.746c.426 1.72.782 3.462 1.05 5.22.303 1.969.466 3.968.627 5.954.176 2.165.268 4.352.268 6.56 0 21.638-8.817 42.615-23.948 57.794a83.215 83.215 0 0 1-3.897 3.665l-15.689-48.784 41.589-30.409zm-1.962 11.901l-29.715 21.728 11.197 34.819c11.673-13.678 18.74-31.395 18.74-50.715 0-1.96-.077-3.906-.222-5.832zM99.57 2.067c22.271 4.821 41.218 18.745 52.733 37.652a81.895 81.895 0 0 1 1.859 3.202 81.931 81.931 0 0 1 3.38 6.919l-51.537-.156L89.887.58a82.607 82.607 0 0 1 9.683 1.487zm49.422 39.297c-10.7-17.414-28.019-30.356-48.407-35.281l11.546 35.17zM6.975 49.84a81.542 81.542 0 0 1 5.981-11.317C24.203 20.747 42.091 7.558 63.086 2.493A82.163 82.163 0 0 1 74.63.58L58.512 49.684l-51.537.156zm8.55-8.476l36.861-.111L63.932 6.08C43.543 11.005 26.226 23.95 15.525 41.364z"/></g><g><path fill="#ff7e0f" d="M82.258 4.435l17.622 53.68 56.497.17-45.607 33.347 17.297 53.786-45.809-33.071-45.808 33.071 17.296-53.786L8.14 58.285l56.497-.17z"/></g><g><g><path fill="#fff" d="M49.94 76.183h-5.145c-.22 0-.33-.111-.33-.331v-9.454c0-.22.11-.33.33-.33h5.144c.21 0 .314.11.314.33v1.07c0 .22-.104.33-.314.33h-3.288c-.126 0-.188.057-.188.173v2.045c0 .115.062.173.188.173h2.69c.22 0 .33.11.33.33v1.07c0 .22-.11.33-.33.33h-2.69c-.126 0-.188.058-.188.173v2.187c0 .116.062.173.188.173h3.288c.21 0 .314.11.314.33v1.07c0 .22-.104.33-.314.33z"/></g><g><path fill="#fff" d="M54.077 66.398v9.454c0 .22-.11.33-.331.33h-1.337c-.22 0-.33-.11-.33-.33v-9.454c0-.22.11-.33.33-.33h1.337c.22 0 .33.11.33.33z"/></g><g><path fill="#fff" d="M60.305 76.183h-1.667c-.829 0-1.469-.22-1.92-.661-.45-.44-.676-1.075-.676-1.904v-4.987c0-.828.226-1.463.676-1.903.451-.44 1.091-.66 1.92-.66h1.667c.819 0 1.453.222 1.904.667.45.447.676 1.078.676 1.896v.473c0 .23-.11.345-.33.345h-1.338c-.22 0-.33-.115-.33-.345v-.378c0-.336-.068-.574-.204-.716-.137-.142-.372-.212-.708-.212h-1.022c-.326 0-.559.07-.7.212-.142.142-.212.38-.212.716v4.797c0 .336.07.575.211.717.142.141.375.212.7.212h1.023c.336 0 .571-.07.708-.212.136-.142.204-.38.204-.717v-.99c0-.116-.057-.174-.173-.174h-.943c-.22 0-.331-.109-.331-.33v-1.07c0-.22.11-.33.331-.33h2.753c.24 0 .361.121.361.362v2.627c0 .818-.225 1.45-.676 1.896-.45.445-1.085.669-1.904.669z"/></g><g><path fill="#fff" d="M70.248 76.183h-5.144c-.22 0-.33-.111-.33-.331v-9.454c0-.22.11-.33.33-.33h5.144c.209 0 .314.11.314.33v1.07c0 .22-.105.33-.314.33H66.96c-.126 0-.189.057-.189.173v2.045c0 .115.063.173.189.173h2.69c.22 0 .33.11.33.33v1.07c0 .22-.11.33-.33.33h-2.69c-.126 0-.189.058-.189.173v2.187c0 .116.063.173.189.173h3.288c.209 0 .314.11.314.33v1.07c0 .22-.105.33-.314.33z"/></g><g><path fill="#fff" d="M73.944 76.183h-1.306c-.22 0-.33-.111-.33-.331v-9.454c0-.22.11-.33.33-.33h1.18c.22 0 .367.073.44.22l3.178 5.962h.063v-5.852c0-.22.11-.33.33-.33h1.306c.22 0 .33.11.33.33v9.454c0 .22-.11.33-.33.33h-1.148a.528.528 0 0 1-.504-.314l-3.146-5.852h-.063v5.836c0 .22-.11.33-.33.33z"/></g><g><path fill="#fff" d="M84.641 76.183H83.32c-.231 0-.347-.111-.347-.331v-7.881c0-.116-.057-.173-.173-.173h-1.793c-.22 0-.33-.11-.33-.33v-1.07c0-.22.11-.33.33-.33h5.947c.22 0 .33.11.33.33v1.07c0 .22-.11.33-.33.33H85.16c-.126 0-.189.057-.189.173v7.881c0 .22-.11.33-.33.33z"/></g><g><path fill="#fff" d="M93.655 66.067h1.321c.23 0 .346.105.346.315v7.236c0 .818-.228 1.45-.684 1.896-.456.445-1.094.669-1.911.669h-1.73c-.83 0-1.47-.22-1.92-.661-.451-.44-.677-1.075-.677-1.904v-7.22c0-.22.11-.33.331-.33h1.337c.22 0 .33.11.33.33v7.125c0 .336.071.575.212.717.142.141.375.212.701.212h1.085c.335 0 .574-.07.716-.212.141-.142.212-.38.212-.717v-7.125c0-.22.11-.33.33-.33z"/></g><g><path fill="#fff" d="M104.006 66.067h2.328c.22 0 .331.11.331.331v9.454c0 .22-.11.33-.331.33h-1.29c-.22 0-.33-.11-.33-.33v-7.456h-.064l-1.604 5.27c-.064.209-.193.314-.393.314h-1.322c-.2 0-.33-.105-.393-.314l-1.635-5.286h-.064v7.472c0 .126-.021.212-.062.26-.042.047-.132.07-.268.07h-1.29c-.22 0-.33-.11-.33-.33v-9.454c0-.22.11-.33.33-.33h2.344c.146 0 .246.073.299.22l1.667 5.553h.094l1.684-5.553c.031-.147.13-.22.299-.22z"/></g><g><path fill="#fff" d="M108.458 73.603v-.315c0-.22.109-.331.33-.331h1.337c.22 0 .33.11.33.33v.127c0 .398.079.671.236.818.157.147.445.22.866.22h.738c.41 0 .696-.078.858-.236.162-.157.244-.45.244-.881v-.189a.79.79 0 0 0-.37-.7c-.246-.162-.553-.26-.92-.29a9.929 9.929 0 0 1-1.188-.182 7.716 7.716 0 0 1-1.188-.346c-.366-.141-.673-.419-.92-.834-.246-.414-.37-.946-.37-1.596v-.551c0-.818.23-1.452.692-1.903.462-.45 1.102-.677 1.92-.677h1.573c.829 0 1.473.226 1.935.677.461.45.691 1.085.691 1.903v.3c0 .22-.109.329-.329.329h-1.338c-.22 0-.33-.11-.33-.33v-.094c0-.41-.079-.687-.236-.834-.157-.147-.446-.22-.865-.22h-.613c-.43 0-.722.081-.874.243-.152.163-.227.48-.227.952v.3c0 .492.43.775 1.289.849.892.073 1.684.251 2.376.535.366.157.674.437.92.841.246.404.37.92.37 1.55v.535c0 .817-.231 1.452-.692 1.903-.462.451-1.102.677-1.92.677h-1.714c-.819 0-1.458-.226-1.92-.677-.461-.451-.691-1.086-.691-1.903z"/></g><g><path fill="#fff" d="M120.114 71.965h-2.989c-.22 0-.33-.109-.33-.329v-.928c0-.23.11-.346.33-.346h2.989c.22 0 .33.115.33.346v.928c0 .22-.11.33-.33.33z"/></g></g><g><g><path fill="#fff" d="M60.192 87.967H58.92c-.631 0-1.12-.168-1.463-.503-.344-.336-.516-.82-.516-1.452v-3.804c0-.631.172-1.116.516-1.451.344-.337.832-.505 1.463-.505h1.272c.624 0 1.108.17 1.453.51.343.34.515.822.515 1.446v.36c0 .177-.084.264-.252.264h-1.02c-.168 0-.252-.087-.252-.264v-.288c0-.256-.052-.438-.156-.546-.104-.108-.284-.161-.54-.161h-.78c-.247 0-.425.053-.534.16-.107.11-.162.291-.162.547v3.66c0 .256.055.438.162.546.109.108.287.162.535.162h.779c.256 0 .436-.054.54-.162.104-.108.156-.29.156-.547v-.755c0-.088-.044-.132-.132-.132h-.72c-.167 0-.252-.084-.252-.252v-.816c0-.168.085-.252.253-.252h2.1c.183 0 .275.092.275.276v2.004c0 .624-.172 1.106-.515 1.446-.345.34-.83.51-1.453.51z"/></g><g><path fill="#fff" d="M66.792 81.705l.864 3.467H65.88l.864-3.467zm-1.788 6.262c.081 0 .139-.017.175-.053.036-.036.061-.102.077-.198l.337-1.32h2.339l.336 1.32a.409.409 0 0 0 .073.198c.031.036.09.053.179.053h1.152c.144 0 .191-.083.144-.251l-1.896-7.212c-.04-.168-.16-.252-.36-.252h-1.595c-.185 0-.305.084-.36.252l-1.896 7.212c-.049.168 0 .251.144.251z"/></g><g><path fill="#fff" d="M73.14 83.9c-.089 0-.133-.044-.133-.132v-2.063c0-.089.044-.132.133-.132h1.175c.256 0 .444.055.564.168.12.111.18.292.18.54v.935c0 .24-.06.414-.18.522-.12.108-.308.162-.564.162zm-.385 4.067c.168 0 .252-.083.252-.251v-2.46c0-.088.048-.132.144-.132h.805l1.199 2.592c.04.104.092.172.156.203a.74.74 0 0 0 .312.048h.972c.208 0 .276-.095.204-.287l-1.284-2.676v-.048c.712-.296 1.068-.896 1.068-1.8v-.936c0-.624-.176-1.108-.528-1.451-.352-.344-.84-.517-1.464-.517h-2.855c-.17 0-.253.084-.253.252v7.212c0 .168.084.251.253.251h1.02z"/></g><g><path fill="#fff" d="M81.24 81.705l.863 3.467h-1.776l.863-3.467zm-1.615 6.209c.036-.036.062-.102.078-.198l.336-1.32h2.339l.337 1.32a.4.4 0 0 0 .072.198c.031.036.092.053.18.053h1.152c.144 0 .192-.083.144-.251l-1.897-7.212c-.039-.168-.159-.252-.36-.252h-1.595c-.184 0-.304.084-.36.252l-1.896 7.212c-.049.168 0 .251.145.251h1.151c.08 0 .138-.017.174-.053z"/></g><g><path fill="#fff" d="M87.178 87.967h-.996c-.168 0-.252-.083-.252-.251v-7.212c0-.168.084-.252.252-.252h.9c.168 0 .28.057.336.168l2.424 4.548h.048v-4.464c0-.168.084-.252.252-.252h.996c.168 0 .252.084.252.252v7.212c0 .168-.084.251-.252.251h-.876a.4.4 0 0 1-.384-.24l-2.4-4.463h-.048v4.452c0 .168-.084.251-.252.251z"/></g><g><path fill="#fff" d="M95.936 87.967h-1.008c-.176 0-.264-.083-.264-.251v-6.011c0-.089-.044-.132-.131-.132h-1.368c-.169 0-.252-.085-.252-.253v-.816c0-.168.083-.252.252-.252H97.7c.168 0 .252.084.252.252v.816c0 .168-.084.253-.252.253h-1.368c-.096 0-.144.043-.144.132v6.01c0 .169-.084.252-.252.252z"/></g><g><path fill="#fff" d="M101.048 80.504v7.212c0 .168-.084.251-.252.251h-1.02c-.168 0-.252-.083-.252-.251v-7.212c0-.168.084-.252.252-.252h1.02c.168 0 .252.084.252.252z"/></g><g><path fill="#fff" d="M107.443 87.967h-3.923c-.169 0-.252-.083-.252-.251v-7.212c0-.168.083-.252.252-.252h3.923c.16 0 .24.084.24.252v.816c0 .168-.08.253-.24.253h-2.507c-.097 0-.145.043-.145.132v1.559c0 .088.048.132.145.132h2.051c.168 0 .252.084.252.252v.816c0 .168-.084.252-.252.252h-2.051c-.097 0-.145.044-.145.132v1.668c0 .088.048.132.145.132h2.507c.16 0 .24.084.24.252v.816c0 .168-.08.251-.24.251z"/></g></g><g><g><path fill="#fff" d="M66.517 99.374c-.44 0-.83-.1-1.173-.3a2.162 2.162 0 0 1-.806-.815 2.308 2.308 0 0 1-.292-1.165c0-.444.095-.838.288-1.184a2.09 2.09 0 0 1 .79-.81 2.25 2.25 0 0 1 1.152-.293c.323 0 .619.062.887.185.269.124.51.31.725.556.077.088.103.178.082.272a.43.43 0 0 1-.18.246.312.312 0 0 1-.256.054.504.504 0 0 1-.255-.145 1.324 1.324 0 0 0-1.003-.427c-.28 0-.528.064-.742.193-.213.13-.38.31-.502.539-.12.23-.18.502-.18.814 0 .297.061.56.184.79.124.231.295.413.515.548.22.134.475.201.766.201.191 0 .36-.023.505-.07.145-.046.279-.119.399-.218a.498.498 0 0 1 .271-.12.323.323 0 0 1 .247.079.394.394 0 0 1 .157.26.305.305 0 0 1-.099.259c-.394.367-.888.55-1.48.55z"/></g><g><path fill="#fff" d="M69.823 96.526a1.64 1.64 0 0 1 .42-1.123v-.152c0-.137-.034-.24-.103-.308-.068-.07-.17-.104-.308-.104-.132 0-.233.036-.305.108-.07.07-.107.172-.107.304v3.677c0 .138.036.24.107.31.072.067.173.102.305.102.137 0 .24-.036.308-.107.069-.072.103-.173.103-.305v-2.407.005zm.897-1.505c.275-.155.576-.23.905-.23.33 0 .575.053.737.16.161.106.222.234.185.382a.316.316 0 0 1-.095.177.316.316 0 0 1-.16.078.48.48 0 0 1-.198-.008 2.311 2.311 0 0 0-.946-.016c-.28.06-.5.172-.662.337a.853.853 0 0 0-.243.62v-1.118c.134-.151.293-.279.477-.382z"/></g><g><path fill="#fff" d="M75.205 99.374c-.455 0-.86-.097-1.214-.292a2.142 2.142 0 0 1-.83-.807c-.2-.342-.301-.736-.301-1.18 0-.45.095-.846.284-1.19.19-.342.452-.61.786-.806a2.249 2.249 0 0 1 1.152-.292c.428 0 .794.095 1.102.285.307.189.542.45.703.78.162.333.243.716.243 1.149 0 .104-.036.19-.107.259a.376.376 0 0 1-.272.103h-3.315v-.659h3.291l-.337.23a1.762 1.762 0 0 0-.164-.735 1.25 1.25 0 0 0-.445-.515 1.247 1.247 0 0 0-.7-.19c-.312 0-.58.07-.802.207-.222.137-.39.324-.506.563a1.844 1.844 0 0 0-.172.81c0 .302.068.571.206.807.137.236.325.423.567.56a1.65 1.65 0 0 0 1.353.11c.178-.063.323-.135.433-.218a.468.468 0 0 1 .267-.094.362.362 0 0 1 .25.086.39.39 0 0 1 .149.271c.005.1-.039.185-.132.255a2.273 2.273 0 0 1-.695.363c-.277.093-.541.14-.794.14z"/></g><g><path fill="#fff" d="M81.918 99.349a.406.406 0 0 1-.419-.42v-.306c.09-.11.172-.232.243-.364.183-.343.275-.731.275-1.165h.321v1.835a.406.406 0 0 1-.42.42zm-.419-1.678l.156-.872.683.295c0-.433-.1-.822-.3-1.167-.2-.346-.47-.62-.81-.819-.34-.2-.725-.3-1.153-.3-.427 0-.813.1-1.155.3-.343.2-.615.473-.815.819-.2.345-.3.734-.3 1.167 0 .434.091.822.275 1.165.185.343.435.614.753.814.319.2.677.3 1.078.3.4 0 .76-.1 1.078-.3.195-.123.365-.273.51-.45zm-2.168.76a1.454 1.454 0 0 1-.526-.55 1.594 1.594 0 0 1-.194-.787c0-.295.064-.56.194-.793.129-.233.303-.417.526-.552a1.41 1.41 0 0 1 .744-.201 1.406 1.406 0 0 1 1.268.753c.126.233.188.498.188.793 0 .291-.062.553-.188.787a1.41 1.41 0 0 1-1.268.752c-.274 0-.522-.067-.744-.201z"/></g><g><path fill="#fff" d="M85.226 99.34c-.275 0-.522-.07-.74-.21-.22-.14-.393-.33-.52-.571a1.733 1.733 0 0 1-.189-.815v-2.032h.824v2.032c0 .22.06.403.18.552a.555.555 0 0 0 .445.222h.28c.098 0 .182.038.25.115a.428.428 0 0 1 .103.296c0 .12-.045.22-.136.296a.522.522 0 0 1-.349.115zm-1.449-5.52a.4.4 0 0 1 .116-.296.4.4 0 0 1 .296-.116c.12 0 .22.039.296.116a.401.401 0 0 1 .116.296v1.185h-.824zm1.522 1.892a.393.393 0 0 0 .28-.099.321.321 0 0 0 .107-.247.342.342 0 0 0-.107-.263.397.397 0 0 0-.28-.098h-.698v.707zm-1.9-.707a.397.397 0 0 0-.28.098.342.342 0 0 0-.107.263c0 .1.036.181.108.247.07.066.164.099.279.099h.378v-.707z"/></g><g><path fill="#fff" d="M90.77 99.349a.405.405 0 0 1-.419-.42v-.306c.09-.11.172-.232.242-.364a2.42 2.42 0 0 0 .276-1.165h.32v1.835a.405.405 0 0 1-.419.42zm-.419-1.678l.156-.872.682.295c0-.433-.1-.822-.3-1.167a2.222 2.222 0 0 0-1.962-1.12c-.427 0-.813.1-1.155.301-.343.2-.615.473-.815.819-.2.345-.3.734-.3 1.167 0 .434.092.822.275 1.165.184.343.435.614.753.814.318.2.677.3 1.078.3.4 0 .76-.1 1.078-.3a2.1 2.1 0 0 0 .51-.45zm-2.168.76a1.454 1.454 0 0 1-.527-.55 1.599 1.599 0 0 1-.193-.787c0-.295.064-.56.193-.793.129-.233.304-.417.527-.552.222-.134.47-.201.744-.201.28 0 .53.067.75.201.218.135.39.319.518.552.126.233.188.498.188.793 0 .291-.062.553-.188.787-.127.233-.3.416-.519.55-.22.135-.469.202-.749.202-.274 0-.522-.067-.744-.201z"/></g><g><path fill="#fff" d="M93.51 99.34c-.242 0-.456-.065-.643-.197a1.312 1.312 0 0 1-.436-.54 1.862 1.862 0 0 1-.156-.785v-4.492c0-.12.038-.22.115-.295a.4.4 0 0 1 .296-.116c.121 0 .22.038.297.116a.4.4 0 0 1 .115.295v4.492c0 .203.038.37.115.503.077.13.175.197.296.197h.206c.11 0 .199.038.267.115a.43.43 0 0 1 .103.296c0 .12-.052.22-.156.296a.659.659 0 0 1-.404.115z"/></g><g><path fill="#fff" d="M96.776 99.374c-.455 0-.86-.097-1.213-.292a2.136 2.136 0 0 1-.832-.807c-.2-.342-.3-.736-.3-1.18 0-.45.095-.846.284-1.19.19-.342.451-.61.785-.806a2.252 2.252 0 0 1 1.153-.292c.427 0 .795.095 1.102.285.307.189.541.45.704.78.161.333.242.716.242 1.149 0 .104-.035.19-.107.259a.376.376 0 0 1-.271.103h-3.316v-.659h3.29l-.336.23a1.755 1.755 0 0 0-.165-.735 1.242 1.242 0 0 0-.444-.515 1.248 1.248 0 0 0-.7-.19c-.312 0-.58.07-.801.207a1.32 1.32 0 0 0-.507.563 1.844 1.844 0 0 0-.172.81c0 .302.069.571.205.807.137.236.327.423.568.56a1.65 1.65 0 0 0 1.353.11 1.62 1.62 0 0 0 .432-.218.472.472 0 0 1 .268-.094.362.362 0 0 1 .251.086.39.39 0 0 1 .147.271c.006.1-.038.185-.13.255a2.273 2.273 0 0 1-.696.363c-.277.093-.542.14-.794.14z"/></g></g></g></g></svg>