<svg xmlns="http://www.w3.org/2000/svg" width="217" height="163" viewBox="0 0 217 163"><g><g><g><path fill="#ffb00d" d="M216.868.32l-108.31 162.497L.25.32z"/></g><g><path fill="#ffb00d" d="M17.703 70.953h181.713v4.236H17.703z"/></g><g><path fill="#ffb00d" d="M17.703 62.48h181.713v4.236H17.703z"/></g><g><path fill="#ffb00d" d="M17.703 54.009h181.713v4.237H17.703z"/></g><g><path fill="#fff" d="M206.393 5.926l-97.834 146.781L10.725 5.927z"/></g><g><path fill="#ff7e0f" d="M108.56 125.08l1.713 5.138 5.418.041-4.36 3.218 1.636 5.166-4.408-3.15-4.407 3.15 1.635-5.166-4.36-3.218 5.42-.04 1.712-5.14z"/></g><g><path fill="#ff7e0f" d="M41.467 82.987H175.65l-18.484 27.73H59.95z"/></g><g><g><path fill="#ff7e0f" d="M59.74 50.925h-3.267c-.571 0-.856-.273-.856-.817V30.624c0-.286-.142-.428-.428-.428h-4.433c-.545 0-.817-.273-.817-.817v-2.644c0-.545.272-.817.817-.817h14.7c.544 0 .817.272.817.817v2.644c0 .544-.272.817-.817.817h-4.433c-.311 0-.467.142-.467.428v19.484c0 .544-.272.817-.816.817z"/></g><g><path fill="#ff7e0f" d="M82.763 50.925H70.045c-.544 0-.816-.273-.816-.817V26.735c0-.545.272-.817.816-.817h12.718c.519 0 .778.272.778.817v2.644c0 .544-.26.817-.778.817h-8.128c-.31 0-.467.142-.467.428v5.056c0 .285.156.428.467.428h6.65c.545 0 .817.272.817.816v2.645c0 .544-.272.817-.816.817h-6.651c-.31 0-.467.142-.467.427v5.406c0 .285.156.428.467.428h8.128c.519 0 .778.272.778.816v2.645c0 .544-.26.817-.778.817z"/></g><g><path fill="#ff7e0f" d="M93.225 37.74c-.286 0-.429-.141-.429-.427v-6.689c0-.286.143-.428.429-.428h3.81c.83 0 1.44.181 1.828.545.389.363.583.946.583 1.75v3.033c0 .778-.194 1.342-.583 1.691-.389.35-.998.526-1.827.526h-3.811zM91.98 50.926c.544 0 .816-.273.816-.817v-7.972c0-.285.156-.428.467-.428h2.606l3.888 8.4c.13.337.299.558.506.66.208.105.545.157 1.011.157h3.15c.675 0 .895-.311.662-.933l-4.161-8.674v-.154c2.306-.96 3.46-2.904 3.46-5.834v-3.034c0-2.023-.57-3.59-1.71-4.706-1.141-1.114-2.722-1.672-4.745-1.672h-9.256c-.544 0-.817.272-.817.817v23.373c0 .544.273.817.817.817h3.306z"/></g><g><path fill="#ff7e0f" d="M125.736 25.918h5.756c.545 0 .817.272.817.817v23.373c0 .544-.272.817-.817.817h-3.19c-.543 0-.816-.273-.816-.817V31.674h-.155l-3.967 13.029c-.156.518-.48.777-.973.777h-3.266c-.494 0-.817-.259-.972-.777l-4.045-13.068h-.155v18.473c0 .311-.053.525-.157.642-.103.116-.324.175-.66.175h-3.19c-.544 0-.816-.273-.816-.817V26.735c0-.545.272-.817.817-.817h5.795c.362 0 .608.182.738.544l4.123 13.729h.233l4.162-13.73c.077-.36.323-.543.738-.543z"/></g><g><path fill="#ff7e0f" d="M142.499 26.735v23.373c0 .544-.273.817-.817.817h-3.306c-.544 0-.817-.273-.817-.817V26.735c0-.545.273-.817.817-.817h3.306c.544 0 .817.272.817.817z"/></g><g><path fill="#ff7e0f" d="M151.793 50.925h-3.227c-.545 0-.817-.273-.817-.817V26.735c0-.545.272-.817.817-.817h2.916c.545 0 .908.182 1.09.544l7.855 14.74h.156V26.735c0-.545.271-.817.816-.817h3.228c.545 0 .817.272.817.817v23.373c0 .544-.272.817-.817.817h-2.838c-.571 0-.986-.26-1.245-.779l-7.778-14.466h-.156v14.428c0 .544-.272.817-.817.817z"/></g></g><g><g><path fill="#ff7e0f" d="M71.986 67.945H69.87c-1.052 0-1.864-.28-2.437-.839-.572-.56-.859-1.365-.859-2.417v-6.333c0-1.051.287-1.857.86-2.417.572-.559 1.384-.839 2.436-.839h2.117c1.04 0 1.845.284 2.418.85.573.565.859 1.368.859 2.406v.6c0 .293-.14.439-.42.439h-1.697c-.28 0-.42-.146-.42-.439v-.48c0-.426-.087-.728-.26-.909-.173-.18-.473-.27-.9-.27H70.27c-.413 0-.71.09-.889.27-.18.18-.27.483-.27.91v6.092c0 .427.09.73.27.909.18.18.476.27.889.27h1.298c.426 0 .726-.09.9-.27.172-.18.26-.482.26-.909v-1.258c0-.147-.075-.22-.221-.22h-1.198c-.28 0-.42-.14-.42-.42v-1.358c0-.28.14-.419.42-.419h3.495c.306 0 .46.152.46.459v3.336c0 1.039-.286 1.84-.86 2.407-.572.566-1.378.849-2.417.849z"/></g><g><path fill="#ff7e0f" d="M82.973 57.518l1.439 5.772h-2.957l1.438-5.772zm-2.687 10.337c.06-.06.103-.17.13-.33l.56-2.197h3.895l.559 2.198c.026.159.067.269.12.329.053.06.153.09.3.09h1.917c.24 0 .32-.14.24-.42L84.85 55.52c-.067-.28-.267-.42-.6-.42h-2.657c-.306 0-.506.14-.6.42L77.84 67.526c-.08.279 0 .419.24.419h1.918c.132 0 .23-.03.289-.09z"/></g><g><path fill="#ff7e0f" d="M93.54 61.173c-.147 0-.22-.072-.22-.22v-3.435c0-.147.073-.22.22-.22h1.958c.426 0 .739.093.939.28.2.187.3.486.3.899v1.558c0 .4-.1.689-.3.868-.2.18-.513.27-.939.27H93.54zm-.64 6.772c.28 0 .42-.14.42-.42V63.43c0-.146.08-.22.24-.22h1.338l1.998 4.316c.066.173.153.286.26.34.106.052.28.079.52.079h1.618c.345 0 .459-.16.338-.48l-2.137-4.454v-.08c1.185-.493 1.778-1.492 1.778-2.996v-1.558c0-1.04-.293-1.845-.879-2.418-.586-.572-1.398-.859-2.436-.859h-4.755c-.28 0-.42.14-.42.42v12.006c0 .279.14.419.42.419z"/></g><g><path fill="#ff7e0f" d="M107.024 57.518l1.439 5.772h-2.957l1.439-5.772zm-2.687 10.337c.06-.06.104-.17.13-.33l.56-2.197h3.895l.56 2.198c.026.159.066.269.12.329.053.06.152.09.299.09h1.917c.24 0 .32-.14.24-.42l-3.156-12.005c-.067-.28-.266-.42-.599-.42h-2.657c-.306 0-.506.14-.6.42l-3.155 12.006c-.08.279 0 .419.24.419h1.917c.134 0 .23-.03.29-.09z"/></g><g><path fill="#ff7e0f" d="M116.912 67.945h-1.659c-.28 0-.419-.14-.419-.42V55.522c0-.28.14-.42.42-.42h1.497c.28 0 .466.093.56.28l4.035 7.57h.08v-7.43c0-.28.14-.42.42-.42h1.658c.28 0 .42.14.42.42v12.005c0 .279-.14.419-.42.419h-1.459a.669.669 0 0 1-.64-.4l-3.994-7.43h-.08v7.41c0 .28-.14.42-.42.42z"/></g><g><path fill="#ff7e0f" d="M131.495 67.945h-1.679c-.293 0-.44-.14-.44-.42V57.519c0-.147-.073-.22-.22-.22h-2.277c-.279 0-.419-.14-.419-.42v-1.357c0-.28.14-.42.42-.42h7.55c.28 0 .42.14.42.42v1.357c0 .28-.14.42-.42.42h-2.277c-.16 0-.24.073-.24.22v10.008c0 .279-.14.419-.418.419z"/></g><g><path fill="#ff7e0f" d="M140.003 55.52v12.006c0 .279-.14.419-.42.419h-1.698c-.28 0-.42-.14-.42-.42V55.522c0-.28.14-.42.42-.42h1.698c.28 0 .42.14.42.42z"/></g><g><path fill="#ff7e0f" d="M150.65 67.945h-6.532c-.28 0-.42-.14-.42-.42V55.522c0-.28.14-.42.42-.42h6.531c.267 0 .4.14.4.42v1.357c0 .28-.133.42-.4.42h-4.174c-.16 0-.24.073-.24.22v2.596c0 .147.08.22.24.22h3.415c.28 0 .42.14.42.42v1.358c0 .28-.14.42-.42.42h-3.415c-.16 0-.24.073-.24.22v2.776c0 .146.08.22.24.22h4.174c.267 0 .4.14.4.418v1.36c0 .279-.133.419-.4.419z"/></g></g><g><g><path fill="#fff" d="M73.725 103.4c-1.032 0-1.951-.235-2.757-.705a5.103 5.103 0 0 1-1.896-1.916c-.459-.806-.687-1.719-.687-2.738 0-1.045.225-1.975.677-2.786a4.916 4.916 0 0 1 1.857-1.906c.787-.458 1.69-.687 2.71-.687.76 0 1.457.145 2.09.434.631.29 1.2.726 1.702 1.307.18.206.246.42.194.638-.052.22-.194.414-.426.581a.73.73 0 0 1-.6.126 1.175 1.175 0 0 1-.6-.34c-.632-.67-1.418-1.005-2.36-1.005-.658 0-1.239.152-1.742.455a3.153 3.153 0 0 0-1.18 1.267c-.284.542-.426 1.18-.426 1.916 0 .697.145 1.316.435 1.857.29.543.694.972 1.21 1.288.515.315 1.116.473 1.8.473.45 0 .847-.054 1.19-.164a2.82 2.82 0 0 0 .938-.514c.207-.167.42-.26.639-.28a.76.76 0 0 1 .58.185c.22.18.342.384.368.609.026.225-.052.429-.232.609-.93.865-2.09 1.296-3.484 1.296z"/></g><g><path fill="#fff" d="M81.504 96.706c0-.774.19-1.468.571-2.08.125-.201.263-.388.416-.562v-.358c0-.322-.08-.564-.241-.726-.162-.16-.404-.241-.726-.241-.31 0-.549.084-.716.251-.168.168-.252.406-.252.716v8.65c0 .322.084.565.252.726.167.161.406.241.716.241.322 0 .564-.083.726-.251.16-.167.241-.406.241-.716v-5.66.01zm2.11-3.541a4.286 4.286 0 0 1 2.128-.542c.774 0 1.351.126 1.732.377.38.251.526.552.435.9a.752.752 0 0 1-.221.416.77.77 0 0 1-.378.183c-.143.027-.297.02-.465-.019-.826-.167-1.567-.18-2.225-.038-.658.141-1.178.406-1.558.793-.379.384-.569.871-.57 1.46v-2.63a4.244 4.244 0 0 1 1.121-.9z"/></g><g><path fill="#fff" d="M94.16 103.4c-1.071 0-2.023-.229-2.855-.685a5.025 5.025 0 0 1-1.954-1.898c-.47-.805-.707-1.732-.707-2.776 0-1.058.224-1.99.668-2.797a4.884 4.884 0 0 1 1.848-1.895c.787-.458 1.69-.687 2.71-.687 1.005 0 1.87.222 2.592.667a4.35 4.35 0 0 1 1.655 1.839c.38.78.57 1.68.57 2.699a.807.807 0 0 1-.251.61.882.882 0 0 1-.638.241H90V97.17h7.74l-.794.541c-.013-.644-.142-1.222-.386-1.73a2.956 2.956 0 0 0-1.047-1.211c-.45-.296-.999-.444-1.643-.444-.736 0-1.365.16-1.887.483-.523.322-.919.765-1.19 1.326-.27.562-.407 1.197-.407 1.906 0 .709.162 1.341.485 1.896a3.54 3.54 0 0 0 1.334 1.316c.568.323 1.22.484 1.955.484.4 0 .809-.075 1.228-.223.42-.148.758-.319 1.016-.513.194-.141.403-.215.629-.222a.85.85 0 0 1 .59.202c.22.195.336.407.35.64.011.232-.092.432-.311.6-.439.347-.984.632-1.635.85a5.855 5.855 0 0 1-1.867.33z"/></g><g><path fill="#fff" d="M109.95 103.342a.956.956 0 0 1-.706-.28.953.953 0 0 1-.282-.706v-.718c.214-.262.404-.548.571-.859.433-.806.649-1.719.649-2.738h.754v4.315a.957.957 0 0 1-.986.986zm-.988-3.947l.368-2.05 1.606.696c0-1.019-.235-1.936-.706-2.748a5.257 5.257 0 0 0-1.906-1.926c-.8-.47-1.703-.705-2.71-.705-1.005 0-1.912.234-2.718.705a5.229 5.229 0 0 0-1.916 1.926c-.47.812-.706 1.729-.706 2.748 0 1.02.216 1.932.649 2.738a5.02 5.02 0 0 0 1.77 1.916c.748.47 1.593.705 2.535.705.941 0 1.787-.235 2.535-.705.46-.29.86-.642 1.2-1.057zm-5.098 1.791a3.422 3.422 0 0 1-1.239-1.297c-.303-.548-.454-1.164-.454-1.848 0-.697.151-1.32.454-1.868.304-.548.716-.98 1.24-1.296a3.31 3.31 0 0 1 1.75-.474c.657 0 1.245.158 1.76.474.517.316.923.748 1.22 1.296.296.549.445 1.171.445 1.868 0 .684-.149 1.3-.445 1.848a3.377 3.377 0 0 1-1.22 1.297c-.515.315-1.103.473-1.76.473a3.323 3.323 0 0 1-1.75-.473z"/></g><g><path fill="#fff" d="M117.729 103.323a3.17 3.17 0 0 1-1.742-.493 3.454 3.454 0 0 1-1.219-1.345c-.297-.567-.445-1.206-.445-1.916V94.79h1.935v4.78c0 .516.141.948.426 1.296.283.348.631.522 1.045.522h.658c.232 0 .428.091.59.272.16.18.241.413.241.696a.87.87 0 0 1-.32.697c-.211.18-.486.27-.821.27zm-3.406-12.984c0-.283.09-.516.27-.696a.942.942 0 0 1 .698-.27c.283 0 .515.09.696.27a.94.94 0 0 1 .27.696v2.787h-1.934zm3.58 4.451c.27 0 .49-.077.658-.232a.76.76 0 0 0 .251-.58c0-.259-.084-.465-.251-.62-.168-.154-.387-.232-.659-.232h-1.644v1.664zm-4.47-1.664c-.271 0-.49.078-.658.232-.168.155-.252.361-.252.62 0 .231.084.425.252.58.168.155.387.232.657.232h.891v-1.664z"/></g><g><path fill="#fff" d="M130.77 103.342a.959.959 0 0 1-.986-.986v-.719c.214-.26.404-.547.571-.858.432-.806.648-1.719.648-2.738h.755v4.315a.958.958 0 0 1-.987.986zm-.986-3.947l.368-2.05 1.606.696c0-1.019-.237-1.936-.707-2.748a5.256 5.256 0 0 0-1.906-1.926c-.8-.47-1.703-.705-2.709-.705s-1.913.234-2.72.705a5.231 5.231 0 0 0-1.914 1.926c-.471.812-.707 1.729-.707 2.748 0 1.02.216 1.932.649 2.738a5.024 5.024 0 0 0 1.77 1.916c.748.47 1.593.705 2.535.705.942 0 1.787-.235 2.535-.705.46-.29.86-.642 1.2-1.058zm-5.1 1.791a3.416 3.416 0 0 1-1.238-1.297 3.757 3.757 0 0 1-.455-1.848c0-.697.153-1.32.455-1.868.303-.548.716-.98 1.239-1.296a3.316 3.316 0 0 1 1.751-.474c.658 0 1.245.158 1.76.474.517.316.923.748 1.22 1.296.297.549.445 1.171.445 1.868 0 .684-.148 1.3-.445 1.848a3.376 3.376 0 0 1-1.22 1.297c-.515.315-1.102.473-1.76.473a3.329 3.329 0 0 1-1.751-.473z"/></g><g><path fill="#fff" d="M137.213 103.323c-.567 0-1.07-.155-1.509-.464a3.086 3.086 0 0 1-1.025-1.268c-.245-.535-.368-1.151-.368-1.847V89.178c0-.284.09-.516.271-.697.18-.18.413-.27.697-.27.283 0 .516.09.696.27.18.181.271.413.271.697v10.566c0 .476.09.87.27 1.18.181.31.414.464.697.464h.484c.258 0 .468.09.63.271.16.18.24.413.24.696 0 .285-.122.517-.366.697-.246.18-.562.27-.949.27z"/></g><g><path fill="#fff" d="M144.895 103.4c-1.071 0-2.022-.229-2.854-.685a5.018 5.018 0 0 1-1.955-1.898c-.471-.805-.706-1.732-.706-2.776 0-1.058.223-1.99.667-2.797a4.878 4.878 0 0 1 1.849-1.895c.786-.458 1.688-.687 2.708-.687 1.007 0 1.87.222 2.594.667a4.348 4.348 0 0 1 1.654 1.839c.38.78.57 1.68.57 2.699a.81.81 0 0 1-.25.61.886.886 0 0 1-.64.241h-7.797V97.17h7.74l-.794.541c-.013-.644-.142-1.222-.387-1.73a2.955 2.955 0 0 0-1.044-1.211c-.453-.296-1.001-.444-1.646-.444-.735 0-1.364.16-1.886.483-.523.322-.92.765-1.19 1.326-.272.562-.407 1.197-.407 1.906 0 .709.162 1.341.484 1.896.323.555.768.993 1.335 1.316.568.323 1.22.484 1.955.484.4 0 .81-.075 1.229-.223.418-.148.757-.319 1.015-.513.194-.141.403-.215.63-.222a.848.848 0 0 1 .589.202c.22.195.336.407.349.64.013.232-.09.432-.31.6-.439.347-.983.632-1.635.85a5.85 5.85 0 0 1-1.867.33z"/></g></g></g></g></svg>