<svg xmlns="http://www.w3.org/2000/svg" width="101" height="28" viewBox="0 0 101 28"><g><g><g><g><path fill="#2e2d2d" d="M15.094 15.007a.813.813 0 0 0-.407-.707l-6.734-3.874a.791.791 0 0 0-.37-.108h-.07a.805.805 0 0 0-.372.108L.407 14.3a.816.816 0 0 0-.407.707l.015 10.435a.4.4 0 0 0 .203.351c.125.075.28.075.404 0l4.002-2.291a.82.82 0 0 0 .407-.706v-4.875c0-.29.154-.56.406-.704l1.704-.981a.809.809 0 0 1 .812 0l1.703.981a.81.81 0 0 1 .407.704v4.875c0 .29.156.557.408.706l4 2.291a.406.406 0 1 0 .609-.351l.013-10.435"/></g><g><path fill="#2e2d2d" d="M51.05.663L55.057 2.9a.814.814 0 0 1 .417.71v19.386c0 .29-.155.56-.406.705l-6.737 3.89a.815.815 0 0 1-.814 0l-6.737-3.89a.814.814 0 0 1-.406-.705v-7.777c0-.29.155-.56.407-.704l6.736-3.888a.814.814 0 0 1 .813 0l1.686.972a.284.284 0 0 0 .427-.247V1.018a.407.407 0 0 1 .605-.355zm-.626 17.107a.204.204 0 0 0-.101-.176l-2.313-1.336a.205.205 0 0 0-.204 0l-2.312 1.336a.204.204 0 0 0-.102.176v2.67c0 .073.039.14.102.176l2.313 1.334c.062.036.14.036.203 0l2.312-1.334a.202.202 0 0 0 .102-.175z"/></g><g><path fill="#2e2d2d" d="M75.15 17.7a.813.813 0 0 0 .404-.703v-1.885a.813.813 0 0 0-.405-.703l-6.693-3.886a.814.814 0 0 0-.815-.002l-6.734 3.888a.813.813 0 0 0-.407.705v7.774c0 .293.157.562.411.707l6.692 3.813c.247.141.55.143.798.005l4.048-2.25a.407.407 0 0 0 .005-.708l-6.777-3.89a.406.406 0 0 1-.205-.353v-2.436c0-.145.078-.28.204-.352l2.11-1.217a.404.404 0 0 1 .405 0l2.11 1.217a.406.406 0 0 1 .204.352v1.917a.407.407 0 0 0 .611.352L75.15 17.7"/></g><g><path fill="#72c42d" d="M27.343 10.48a.813.813 0 0 1 .813 0l6.735 3.888a.812.812 0 0 1 .407.704v7.78c0 .29-.155.559-.407.704l-6.735 3.89a.812.812 0 0 1-.814 0l-6.734-3.89a.814.814 0 0 1-.407-.704v-7.78c0-.29.156-.56.407-.704l6.735-3.887"/></g><g><path fill="#72c42d" d="M88.227 27.557a1.33 1.33 0 0 1-.666-.178l-2.12-1.254c-.317-.178-.162-.24-.058-.277.423-.146.508-.18.959-.436.047-.026.11-.016.158.012l1.628.967a.21.21 0 0 0 .197 0l6.351-3.665a.2.2 0 0 0 .097-.172v-7.33a.204.204 0 0 0-.098-.175l-6.348-3.663a.2.2 0 0 0-.197 0l-6.347 3.664a.204.204 0 0 0-.1.174v7.33c0 .07.039.136.1.17l1.74 1.005c.944.472 1.522-.084 1.522-.643V15.85c0-.103.082-.183.184-.183h.806c.1 0 .184.08.184.183v7.236c0 1.26-.686 1.983-1.88 1.983-.368 0-.657 0-1.464-.398l-1.665-.959a1.341 1.341 0 0 1-.666-1.158v-7.33c0-.476.254-.92.666-1.158l6.351-3.67a1.388 1.388 0 0 1 1.335 0l6.35 3.67c.412.238.668.682.668 1.158v7.33c0 .476-.256.919-.668 1.158l-6.35 3.667a1.331 1.331 0 0 1-.669.178"/></g><g><path fill="#72c42d" d="M90.19 22.508c-2.78 0-3.363-1.276-3.363-2.346 0-.102.083-.183.184-.183h.821c.092 0 .168.066.183.156.124.836.493 1.257 2.174 1.257 1.338 0 1.908-.302 1.908-1.012 0-.41-.162-.713-2.241-.917-1.738-.172-2.813-.556-2.813-1.946 0-1.281 1.08-2.046 2.891-2.046 2.035 0 3.042.707 3.17 2.222a.186.186 0 0 1-.049.141.189.189 0 0 1-.134.059h-.825a.183.183 0 0 1-.178-.144c-.198-.88-.68-1.16-1.984-1.16-1.46 0-1.63.508-1.63.89 0 .462.2.596 2.172.857 1.952.258 2.88.624 2.88 1.995 0 1.384-1.155 2.177-3.167 2.177"/></g><g><path fill="#72c42d" d="M67.949 17.336a.156.156 0 0 1 .156 0l1.293.746c.048.028.078.08.078.135v1.493c0 .055-.03.107-.078.135l-1.293.745a.156.156 0 0 1-.156 0l-1.291-.745a.156.156 0 0 1-.078-.135v-1.493c0-.056.03-.107.078-.135l1.29-.746"/></g><g><path fill="#72c42d" d="M100.31 12.382c0 .674-.551 1.224-1.224 1.224a1.227 1.227 0 0 1-1.224-1.224c0-.693.57-1.224 1.224-1.224l.222.223a1.021 1.021 0 0 0-1.25.998c.001.57.461 1.03 1.024 1.03a1.035 1.035 0 0 0 1.007-1.247zm-.22-.22l-.782-.781c.388.086.697.39.781.781zm-.991-.466c.162 0 .48 0 .48.362 0 .253-.163.305-.26.337.188.013.2.136.226.31.014.111.033.299.071.364h-.29c-.008-.065-.053-.415-.053-.434-.019-.078-.045-.117-.142-.117h-.24v.55h-.266v-1.372zm-.214.602h.214c.174 0 .207-.123.207-.194 0-.188-.13-.188-.2-.188h-.221z"/></g></g></g></g></svg>