<svg id="Ebene_1" data-name="Ebene 1" xmlns="http://www.w3.org/2000/svg" viewBox="0 0 683.05 176.4"><defs><style>.cls-1{fill:#0085e3;}.cls-2{fill:#ed814c;}</style></defs><path class="cls-1" d="M245.74,168.7c-.44-4-.89-8.06-1.41-12.42l-.05-.47-.71.12-.51-.1-.16.29c-2.4,4.51-5.53,10.29-8.3,15.38-2.1,3.88-4,7.3-5,9.23-4.38-8.06-8.66-16-12.78-24.59l-.14-.3-.65.09-.82-.1,0,.46c-.83,7.92-2.33,18.74-4.46,32.16l-.11.64.64-.13a5.07,5.07,0,0,0,.56-.13,3.93,3.93,0,0,1,1-.18,5.55,5.55,0,0,1,1.49.3l.57.18v-.6A219.44,219.44,0,0,1,217,166.46c1.26,2.5,2.54,5,3.81,7.47,2.51,4.87,5.1,9.91,7.37,14.73l.17.36.42-.14.45.12.16-.35c3.17-7.29,6.92-14.14,10.55-20.76l.83-1.52c1,7.82,1.45,12.89,2.18,22.19l0,.48.47-.07c.28,0,.54-.09.8-.15a7.13,7.13,0,0,1,1.29-.17,8.23,8.23,0,0,1,1.81.26l.88.19-.09-.64C247.19,181.82,246.48,175.45,245.74,168.7Z" transform="translate(-15.46 -13.55)"/><path class="cls-1" d="M292.46,168.7c-.43-4-.88-8.06-1.4-12.42l-.06-.47-.7.12-.52-.1-.16.29c-2.4,4.52-5.54,10.3-8.31,15.4-2.1,3.87-3.94,7.28-5,9.21-4.22-7.76-8.66-16-12.78-24.59l-.14-.3-.64.09-.83-.1-.05.46c-.83,7.91-2.33,18.73-4.46,32.16l-.1.64L258,189c.19,0,.38-.08.57-.13a3.93,3.93,0,0,1,1-.18,5.56,5.56,0,0,1,1.48.3l.58.18v-.6c0-4.12.76-11.54,2.12-22.07,1.26,2.5,2.54,5,3.81,7.47,2.51,4.87,5.1,9.91,7.37,14.73l.17.36.42-.14.46.12.15-.35c3.34-7.57,7.22-14.67,11-21.53l.41-.75c1,7.82,1.45,12.89,2.18,22.19l0,.48.48-.07c.27,0,.54-.09.8-.15a7.12,7.12,0,0,1,3.09.09l.88.19-.08-.64C293.91,181.82,293.21,175.45,292.46,168.7Z" transform="translate(-15.46 -13.55)"/><path class="cls-1" d="M183.92,155.62c-10.7,0-17.62,6.72-17.62,17.13s6.92,17.19,17.62,17.19,17.68-6.75,17.68-17.19S194.66,155.62,183.92,155.62Zm12.31,17.13c0,9.16-4.6,14.62-12.31,14.62s-12.25-5.46-12.25-14.62,4.58-14.62,12.25-14.62S196.23,163.6,196.23,172.75Z" transform="translate(-15.46 -13.55)"/><path class="cls-1" d="M332.38,156.85a8.65,8.65,0,0,1-2-.3l-.71-.2.15.72c.41,2,.59,6.51.59,14.77,0,6,0,15-9.62,15-9.83,0-9.83-7.9-9.83-14.25,0-6.73.27-12.95.53-15.61l.07-.65-.63.17a7.58,7.58,0,0,1-1.88.3,10.9,10.9,0,0,1-2.26-.31l-.58-.13,0,.59c.1,2.5.26,6.7.26,11.82,0,1.09,0,2.13-.09,3.23s-.12,2.53-.12,4c0,9.27,4.32,13.58,13.58,13.58,8.42,0,13.48-5.11,13.53-13.67.21-6.54.48-14.6.81-19l0-.7-.66.25A3.73,3.73,0,0,1,332.38,156.85Z" transform="translate(-15.46 -13.55)"/><path class="cls-1" d="M509,157.06l0-.59-.83.18a8.06,8.06,0,0,1-1.8.26,8.23,8.23,0,0,1-1.81-.26l-.82-.18.13,3.16c.14,3.13.27,6.08.27,9.19v7.92c0,4.21-.19,8.31-.38,11.76l0,.55.55-.08c.27,0,.53-.09.79-.15a7.12,7.12,0,0,1,1.3-.17,8.06,8.06,0,0,1,1.8.26l.82.18-.12-3c-.14-3.06-.28-6.23-.28-9.4v-7.92C508.58,164.58,508.77,160.49,509,157.06Z" transform="translate(-15.46 -13.55)"/><path class="cls-1" d="M592.25,156.17l-.66.22a4.1,4.1,0,0,1-1.31.19,9.07,9.07,0,0,1-1.53-.2l-.57-.12,0,.59c.41,6.77.43,15.44.43,23.25-4.41-4.5-11.14-11.8-17.13-18.28-1.89-2.06-3.74-4.06-5.45-5.9l-.13-.14h-1.44l0,.48c.16,2,.16,6.58.16,12.35,0,6.2-.61,17.91-1,20l-.11.7.68-.19a5.75,5.75,0,0,1,1.6-.2,6.72,6.72,0,0,1,1.41.18l.73.15-.08-.62c-.2-1.76-.42-11.35-.42-15.5,0-3.94.07-6.5.12-8.27l2.58,2.75c6.82,7.27,13.86,14.79,19.92,21.91l.13.15h1.32v-.46c-.06-2-.16-12.16-.16-16.94,0-3.72.49-12.8.75-15.41Z" transform="translate(-15.46 -13.55)"/><path class="cls-1" d="M147.43,155.88c-10.74,0-17.68,6.65-17.68,16.93s6.77,16.92,17.25,16.92c5-.06,8.79-1.87,9.86-2.74l.15-.12.17-1.92.26-1.37-.61-.6-.63.48c-1.79,1.36-4.77,3.64-8.77,3.64-3.7,0-12.31-1.39-12.31-14.29,0-9.09,4.49-14.3,12.31-14.3a11.88,11.88,0,0,1,8.39,3.94l.21.23.77-.31.06-.23c0-.19.07-.42.11-.67a9.19,9.19,0,0,1,.26-1.31,6.29,6.29,0,0,1,.55-1.5l.24-.43-.45-.21A25.27,25.27,0,0,0,147.43,155.88Z" transform="translate(-15.46 -13.55)"/><path class="cls-1" d="M451.76,159.5l-1.53-3.66-.72.09-.71-.08-.13.31c-4.84,11.24-9.9,22.37-14.37,32.18l-.36.78.85-.15a5.81,5.81,0,0,0,.63-.15,4.11,4.11,0,0,1,1-.17A6.79,6.79,0,0,1,438,189l.44.12.11-.44a111.26,111.26,0,0,1,4.34-11.84c1.8-.05,3.51-.1,5.29-.1,1.94,0,3.86.05,5.72.1l1.18,2.81a84.35,84.35,0,0,1,3.43,9l.11.38.39-.05.82-.13a8.52,8.52,0,0,1,1.54-.19,12.52,12.52,0,0,1,2.33.31l.91.19-.42-.83C462,183.88,456.06,169.79,451.76,159.5Zm1.06,14.28c-2.28.06-4.58.11-6.95,0l-1.81-.05,4.33-10.1Z" transform="translate(-15.46 -13.55)"/><path class="cls-1" d="M370.19,156.4l-.72-.13,0,.58c.41,6.77.42,15.44.42,23.25-4.41-4.5-11.15-11.81-17.13-18.29l-5.45-5.89-.13-.14h-1.44l0,.48c.16,2,.16,6.58.16,12.35,0,6.2-.6,17.91-1,20l-.12.7.68-.19a5.82,5.82,0,0,1,1.61-.2,8.05,8.05,0,0,1,1.52.21l.61.12-.07-.62c-.21-1.76-.43-11.35-.43-15.5,0-3.94.07-6.5.13-8.27l.11.12c7.66,8.14,15.59,16.55,22.38,24.54l.14.15h1.31v-.46c-.05-2-.16-12.2-.16-16.94,0-3.48.42-12.64.75-15.4l.08-.7-.67.22A5.22,5.22,0,0,1,370.19,156.4Z" transform="translate(-15.46 -13.55)"/><path class="cls-1" d="M493.35,158.33a4.53,4.53,0,0,1,.3-1.32l.2-.61-.65,0c-4.51.19-8.27.27-11.82.27s-7.43-.09-11.82-.27l-.66,0,.21.61a4.4,4.4,0,0,1,.3,1.32,4,4,0,0,1-.29,1.29l-.27.7.74-.09a90.68,90.68,0,0,1,9.52-.48c0,2,0,4,0,5.89,0,1.06,0,2.12,0,3.18v7.92c0,2.76-.13,5.43-.27,8.26-.06,1.17-.11,2.33-.16,3.5l0,.54.53-.07.78-.14a8.09,8.09,0,0,1,3.32.08l.83.17,0-.58c0-1.3-.12-2.6-.2-3.9-.14-2.57-.28-5.22-.28-7.86v-7.92c0-.79,0-1.59,0-2.38,0-2.2,0-4.46,0-6.69a90.82,90.82,0,0,1,9.52.48l.7.08-.22-.67A4.55,4.55,0,0,1,493.35,158.33Z" transform="translate(-15.46 -13.55)"/><path class="cls-1" d="M537.68,155.62c-10.7,0-17.62,6.72-17.62,17.13s6.92,17.19,17.62,17.19,17.68-6.75,17.68-17.19S548.42,155.62,537.68,155.62ZM550,172.75c0,9.16-4.6,14.62-12.31,14.62s-12.25-5.46-12.25-14.62,4.58-14.62,12.25-14.62S550,163.6,550,172.75Z" transform="translate(-15.46 -13.55)"/><path class="cls-1" d="M418.35,155.88c-10.74,0-17.68,6.65-17.68,16.93s6.77,16.92,17.25,16.92a18.87,18.87,0,0,0,9.85-2.73l.16-.12.17-1.93.26-1.36-.61-.62-.48.37c-1.67,1.32-4.8,3.76-8.92,3.76-3.7,0-12.31-1.39-12.31-14.29,0-9.09,4.49-14.3,12.31-14.3a11.88,11.88,0,0,1,8.39,3.94l.21.23.77-.31.06-.23c0-.19.07-.42.11-.67a9.19,9.19,0,0,1,.26-1.31,5.88,5.88,0,0,1,.55-1.5l.24-.43-.45-.21A25.27,25.27,0,0,0,418.35,155.88Z" transform="translate(-15.46 -13.55)"/><path class="cls-1" d="M389.57,157.06l0-.59-.83.18a6.4,6.4,0,0,1-3.61,0l-.82-.18.13,3.13c.14,3.14.27,6.11.27,9.22v7.92c0,4.23-.19,8.32-.38,11.76l0,.54.54-.07c.32,0,.6-.1.88-.16a7,7,0,0,1,3,.1l.82.18-.13-3c-.13-3.05-.27-6.2-.27-9.35v-7.92C389.19,164.62,389.37,160.68,389.57,157.06Z" transform="translate(-15.46 -13.55)"/><path class="cls-2" d="M95.28,17.45a15.29,15.29,0,0,1-3.73.67,9.71,9.71,0,0,1-2.85-.54l-1.34-.37-.23-.05-.07.22C81.71,34.1,66.8,71.52,57.86,91.8,45.1,61.09,35.75,36.74,29.3,17.38l-.07-.21-.21,0-1.35.25a29.94,29.94,0,0,1-5.23.66,28.47,28.47,0,0,1-5.13-.65l-1.4-.26-.45-.08.18.42C29,49.26,43.72,84.38,51.05,104.48l.09.22.23-.07a13.6,13.6,0,0,1,4.12-.85,12.53,12.53,0,0,1,3.37.64l.76.21.22.06.08-.21C70.13,77.76,81.74,50.14,96.46,17.56l.22-.47-.5.12Z" transform="translate(-15.46 -13.55)"/><path class="cls-2" d="M154,17.58l0-.32-.31.06c-.62.11-1.21.23-1.78.35a20.11,20.11,0,0,1-4.15.56,21.79,21.79,0,0,1-4.68-.65l-1.25-.26-.31-.06.17,3.81c.45,9.9.87,19.25.87,29V71.93c0,9.7-.42,19-.87,28.94l-.17,3.82.31,0,1.57-.3a17.25,17.25,0,0,1,8.72,0l1.57.3.31,0-.17-3.81c-.45-9.9-.87-19.25-.87-29V50.08C153,39.23,153.44,28.52,154,17.58Z" transform="translate(-15.46 -13.55)"/><circle class="cls-2" cx="179.98" cy="46.7" r="4.45"/><path class="cls-2" d="M275.3,32.3c-2.49-5.92-4.88-11.6-7.07-16.77l-.06-.16-1.45.06-1.3-.12-.07.16c-13.22,30.62-26.9,60.78-39.72,88.82l-.21.46.49-.12c.46-.1.91-.22,1.35-.33a13.18,13.18,0,0,1,3.28-.58,15.73,15.73,0,0,1,4,.74l.86.24.06-.25c2.38-8.84,8.12-23.29,12.26-33.45h.05l2.43-6,13.6-31.7c4.54,10.66,12.7,29.9,13.29,31.55h0L284.89,84c.95,2.32,1.93,4.71,2.86,7.06l.16.37,0,0,.19.49h0l0,.07a123.16,123.16,0,0,1,4.35,12.46l.06.22.23,0,1.62-.29a27.23,27.23,0,0,1,5.06-.62,30.35,30.35,0,0,1,5.7.72l1.48.28-.22-.45C300.9,93.16,286.71,59.42,275.3,32.3Z" transform="translate(-15.46 -13.55)"/><path class="cls-2" d="M388.48,66.31l-3.68-4.64a32.75,32.75,0,0,0,15.35-6.45,21.92,21.92,0,0,0,8.54-17.95c0-16.67-14.48-20.17-26.62-20.17-2.44,0-4.89.19-7.26.38s-4.81.37-7.22.37c-4.79,0-9.64-.37-14.33-.74l-.42,0,.15,3.29c.44,9.75.89,19.84.89,29.71V71.93c0,9.75-.42,19.09-.87,29l-.17,3.82.31,0,1.33-.24a26.3,26.3,0,0,1,4.87-.62,25.62,25.62,0,0,1,4.76.6l1.39.26.31,0,0-.31c-.54-10.94-1-21.65-1-32.5V62.5l7.66.36c12.54,12.7,30.73,40.49,31.5,41.67l.09.13.15,0,1.19-.19a39.2,39.2,0,0,1,6.15-.67,41.51,41.51,0,0,1,6.18.64l1.37.22.68.1-.45-.52C413.09,97.25,397.08,77.12,388.48,66.31ZM373,57.74a49.23,49.23,0,0,1-8.26-.65v-7c0-10.74.15-19.5.47-27.55,2.6-.25,6.43-.36,12.36-.36S397,23.77,397,38.56C397,52.7,384.61,57.74,373,57.74Z" transform="translate(-15.46 -13.55)"/><path class="cls-2" d="M488.58,21.11l.17-3.85-.31.06c-.62.11-1.21.23-1.78.35a20.11,20.11,0,0,1-4.15.56,21.79,21.79,0,0,1-4.68-.65l-1.25-.26-.31-.06.17,3.81c.45,9.9.87,19.25.87,29v21.8c0,10.84-.49,21.56-1,32.5l0,.31.31,0c.62-.11,1.21-.23,1.78-.35a20.13,20.13,0,0,1,4.15-.57,21.81,21.81,0,0,1,4.68.66l1.25.25.31.07-.17-3.86c-.45-9.88-.87-19.22-.87-29V50.08C487.71,40.34,488.13,31,488.58,21.11Z" transform="translate(-15.46 -13.55)"/><path class="cls-2" d="M575.49,52.77c-9.76-3.81-19-7.41-19-18.57,0-8.82,7.32-15.47,17-15.47,7.05,0,11.92,3.86,14.9,11.79l.07.19.81-.14,1.11.13.05-.22a33.53,33.53,0,0,0,.52-3.37,20.05,20.05,0,0,1,.49-3A10.39,10.39,0,0,1,593,21.36c.31-.48.64-1,.92-1.47l.1-.18-.17-.13c-5.22-4.17-11.07-6-18.94-6-16.63,0-27.81,9.74-27.81,24.25,0,16,11.34,20.57,22.3,25,9.41,3.8,18.29,7.38,18.29,18.18,0,10.53-7.8,18.16-18.54,18.16-12.81,0-18.39-10-19.8-13l-.07-.16-1.06.12-.87-.14,0,.26c-.12,1.06-.16,2-.19,3a19,19,0,0,1-.3,3.34,12.27,12.27,0,0,1-1.14,3.23c-.24.52-.49,1.07-.73,1.67l-.06.17.14.12c4.52,3.59,10.56,7.26,21.1,7.26,9.35,0,17.32-2.95,23-8.54a27.93,27.93,0,0,0,8.31-20.24C597.44,61.33,586.28,57,575.49,52.77Z" transform="translate(-15.46 -13.55)"/><path class="cls-2" d="M697.91,101.05a26.42,26.42,0,0,1,.54-4l.07-.36-.36.07c-7.8,1.46-22.23,1.66-34,1.66l0-1c-.12-3.46-.33-9.26-.33-17.82,0-12,.1-15.24.25-18.16,6.46,0,22,.29,30.58,1.13l.34,0-.1-.49a17.51,17.51,0,0,1-.5-3.61,19.45,19.45,0,0,1,.53-3.88l.08-.36-.36.06c-7.42,1.28-15.66,1.29-30.55,1.29,0-1.3,0-3.14,0-5.3,0-3.26-.07-7.32-.07-11.19,0-3.69.13-6.77.26-9.75.08-1.95.17-4,.22-6.1,13,0,19.6.56,27.19,1.19,1.88.16,3.81.32,5.92.48l.33,0-.07-.33a17.94,17.94,0,0,1-.48-3.77,18.08,18.08,0,0,1,.36-3.07l.12-.71,0-.3h-.31c-7.35.37-14.94.75-22.57.75s-15.15-.37-22.52-.74l-.46,0,.12,2.55c.45,10,.92,20.33.92,30.44V71.66c0,9.87-.45,19.94-.89,29.69l-.15,3.46.52,0c7.8-.38,15.17-.74,22.83-.47,6.82,0,14.06.2,22.82.64l.33,0-.08-.32A16.79,16.79,0,0,1,697.91,101.05Z" transform="translate(-15.46 -13.55)"/></svg>