<svg xmlns="http://www.w3.org/2000/svg" width="151" height="39" viewBox="0 0 151 39"><g><g><g><path fill="#0085e3" d="M31.12 38.229c-.25.202-1.095.571-2.118.583-2.143 0-3.715-1.333-3.715-3.643 0-2.31 1.56-3.643 3.81-3.643.869 0 1.655.214 2.202.464a1.514 1.514 0 0 0-.13.358c-.048.154-.06.333-.084.44l-.06.024c-.285-.31-.976-.905-1.928-.905-1.596 0-2.822 1-2.822 3.262 0 2.25 1.226 3.262 2.822 3.262.976 0 1.678-.583 2.071-.88l.036.035-.048.25-.035.393zm6.049-6.405c-.133 0-.264.007-.39.022l.39-.38c2.25 0 3.81 1.382 3.81 3.691 0 2.31-1.56 3.703-3.81 3.703-2.239 0-3.798-1.393-3.798-3.703l1.091-1.06a5.131 5.131 0 0 0-.103 1.06c0 2.25 1.226 3.334 2.81 3.334 1.595 0 2.821-1.072 2.821-3.334zm-2.707 2.273c.293-1.383 1.18-2.117 2.316-2.25zm12.815 3.037c.416-.798 2.023-3.727 3.024-5.608l.06.012.07-.012c.31 2.607.512 4.786.834 7.12-.167-.036-.31-.072-.476-.072-.167 0-.31.048-.477.072-.166-2.108-.261-3.274-.523-5.215-.929 1.702-1.87 3.37-2.667 5.203l-.048-.012-.036.012c-.797-1.69-1.738-3.441-2.619-5.203-.226 1.714-.5 3.988-.512 5.215a1.269 1.269 0 0 0-.357-.072c-.119 0-.238.048-.357.072.357-2.25.762-4.965.988-7.12l.095.012.084-.012zm7.417-5.608c.916 1.905 1.88 3.703 2.917 5.608.416-.798 2.023-3.727 3.024-5.608l.06.012.07-.012c.31 2.607.512 4.786.834 7.12-.167-.036-.31-.072-.476-.072-.155 0-.31.048-.477.072-.166-2.108-.261-3.274-.523-5.215-.929 1.702-1.858 3.37-2.667 5.203l-.048-.012-.036.012c-.797-1.69-1.738-3.441-2.619-5.203-.226 1.714-.5 3.988-.512 5.215a1.269 1.269 0 0 0-.357-.072c-.119 0-.238.048-.357.072.357-2.25.762-4.965.988-7.12l.095.012.084-.012zm14.977 3.429c0-2-.048-2.881-.131-3.286.13.036.321.071.464.071a.905.905 0 0 0 .31-.071c-.072.952-.131 2.667-.179 4.203-.012 1.797-1.06 2.928-2.893 2.928-2.012 0-2.905-.928-2.905-2.905 0-.63.048-1.095.048-1.607 0-1.119-.036-2.024-.06-2.619.155.036.357.071.524.071.143 0 .31-.035.44-.071-.059.595-.118 1.964-.118 3.464 0 1.393 0 3.25 2.274 3.25 2.226 0 2.226-2.142 2.226-3.428zm9.048 3.845c-1.56-1.833-3.405-3.786-5.143-5.63-.012.38-.036 1-.036 2.07 0 .882.048 3.037.095 3.441-.119-.023-.238-.047-.357-.047-.13 0-.25.012-.38.047.083-.488.214-3.095.214-4.44 0-1.298 0-2.286-.036-2.739h.167c1.666 1.798 3.916 4.262 5.167 5.524 0-1.833 0-3.821-.096-5.393.131.024.25.048.357.048.108 0 .215-.012.322-.048-.072.596-.167 2.62-.167 3.417 0 1.036.024 3.298.036 3.75h-.143zm2.881-7.12c.167.037.31.072.476.072.167 0 .31-.035.477-.071a47.678 47.678 0 0 0-.084 2.607v1.75c0 .881.048 1.739.084 2.608-.167-.036-.31-.072-.477-.072-.166 0-.297.048-.476.072.048-.881.084-1.739.084-2.608v-1.75zm9.441 6.549c-.262.202-1.107.571-2.119.583-2.155 0-3.714-1.333-3.714-3.643 0-2.31 1.56-3.643 3.81-3.643.868 0 1.654.214 2.202.464a1.513 1.513 0 0 0-.131.358c-.048.154-.06.333-.083.44l-.06.024c-.286-.31-.976-.905-1.929-.905-1.595 0-2.821 1-2.821 3.262 0 2.25 1.226 3.262 2.821 3.262.977 0 1.69-.583 2.072-.88l.036.035-.048.25-.036.393zm4.965-6.703zm0 0c.988 2.357 2.512 6.024 3.072 7.12a2.757 2.757 0 0 0-.536-.072c-.179 0-.357.048-.536.072-.19-.703-.679-1.786-1.048-2.691-.44-.012-.88-.024-1.333-.024-.417 0-.822.012-1.238.024-.429 1.048-.822 2.048-.988 2.69a1.526 1.526 0 0 0-.381-.07c-.131 0-.25.047-.381.07a380.986 380.986 0 0 0 3.178-7.119l.096.012zm-1.453 3.953c.358 0 .739.024 1.096.024.38 0 .762-.012 1.143-.024l-1.131-2.584zm8.001-1.19c0-.703.012-1.406 0-2.108-.702 0-1.643.036-2.214.107a.972.972 0 0 0 .071-.321c0-.108-.036-.215-.071-.322.869.036 1.75.06 2.619.06.869 0 1.738-.024 2.619-.06a1.043 1.043 0 0 0-.071.322c0 .107.035.214.071.321-.571-.071-1.512-.107-2.214-.107-.024.702-.012 1.405-.012 2.107v1.75c0 .881.071 1.739.107 2.608-.179-.036-.334-.072-.5-.072-.167 0-.334.048-.5.072.035-.881.095-1.739.095-2.608v-1.75zm5.453-2.608c.166.036.31.071.476.071.167 0 .31-.035.476-.071a47.668 47.668 0 0 0-.083 2.607v1.75c0 .881.047 1.739.083 2.608-.167-.036-.31-.072-.476-.072-.167 0-.31.048-.476.072.047-.881.083-1.739.083-2.608v-1.75zm7.405.143c-.133 0-.264.007-.391.022l.391-.38c2.238 0 3.81 1.382 3.81 3.691 0 2.31-1.56 3.703-3.81 3.703-2.226 0-3.798-1.393-3.798-3.703l1.093-1.061c-.069.319-.105.672-.105 1.061 0 2.25 1.227 3.334 2.81 3.334 1.595 0 2.822-1.072 2.822-3.334zm-2.705 2.272c.294-1.382 1.185-2.115 2.314-2.25zM127.09 38.8c-1.56-1.833-3.417-3.786-5.143-5.63-.012.38-.036 1-.036 2.07 0 .882.048 3.037.096 3.441-.12-.023-.227-.047-.358-.047-.13 0-.25.012-.38.047.083-.488.214-3.095.214-4.44 0-1.298 0-2.286-.036-2.739h.167c1.667 1.798 3.917 4.262 5.167 5.524 0-1.833 0-3.821-.095-5.393.119.024.25.048.357.048.107 0 .214-.012.321-.048-.06.596-.167 2.62-.167 3.417 0 1.036.024 3.298.036 3.75h-.143z"/></g><g><path fill="#ed814c" d="M15.798.81c-1.178 3.679-4.464 11.953-6.512 16.584C6.929 11.727 4.571 5.774 2.916.81c-.476.083-.988.202-1.464.202S.476.893 0 .81c2.726 6.453 6.143 14.596 7.833 19.227.25-.083.62-.19.93-.19.309 0 .618.107.928.19C12.155 13.584 14.858 7.263 17.775.81c-.334.083-.703.202-1.036.202-.334 0-.595-.119-.94-.202"/></g><g><path fill="#ed814c" d="M27.847 20.037c.476-.083.869-.19 1.321-.19.453 0 .845.107 1.322.19-.107-2.417-.226-4.774-.226-7.19V8.024c0-2.417.107-4.775.226-7.191-.476.083-.87.202-1.322.202-.452 0-.845-.107-1.321-.202.107 2.416.226 4.774.226 7.19v4.834c0 2.405-.12 4.762-.226 7.18"/></g><g><path fill="#ed814c" d="M39.717 11.203a.93.93 0 0 0 0-1.857.93.93 0 0 0-.93.929c0 .5.418.928.93.928"/></g><g><path fill="#ed814c" d="M55.48.417l-.25-.024c-2.858 6.62-5.787 13.084-8.787 19.644.37-.083.703-.202 1.036-.202.333 0 .679.107 1.036.202.476-1.774 1.547-4.548 2.726-7.44h.012l.524-1.287 3.06-7.13s3.035 7.13 3 7.13l1.714 4.203c.214.524.429 1.048.631 1.56l.095.214c.405 1.024.75 1.976.965 2.762.5-.083.976-.202 1.488-.202.5 0 .976.107 1.488.202-1.488-3-5.703-13.132-8.453-19.644z"/></g><g><path fill="#ed814c" d="M89.184 20.037c-.56-.083-1.12-.19-1.679-.19-.535 0-1.095.107-1.63.19-1.12-1.714-4.572-6.798-6.99-9.238l-1.773-.084v2.143c0 2.417.107 4.774.226 7.191-.476-.083-.917-.19-1.37-.19-.452 0-.904.107-1.38.19.107-2.417.226-4.774.226-7.19V8.024c0-2.405-.119-4.822-.226-7.239 1.071.083 2.13.167 3.202.167s2.132-.167 3.203-.167c3.167 0 5.834 1.06 5.834 4.405 0 3.62-3.203 5.072-5.334 5.358zM78.993 9.775c2.298 0 5.357-.953 5.357-4.298 0-2.953-2.44-3.679-4.345-3.679-1.298 0-2.19.024-2.786.083-.083 2.048-.107 4.12-.107 6.144V9.62z"/></g><g><path fill="#ed814c" d="M104.53.834c-.476.083-.869.202-1.321.202-.453 0-.846-.107-1.322-.202.107 2.416.226 4.774.226 7.19v4.822c0 2.417-.107 4.774-.226 7.191.476-.083.87-.202 1.322-.202.452 0 .845.107 1.321.202-.107-2.417-.226-4.774-.226-7.19V8.024c0-2.417.12-4.775.226-7.191"/></g><g><path fill="#ed814c" d="M119.52 4.512c0-2.047 1.714-3.476 3.821-3.476s2.953 1.595 3.346 2.643l.142-.024.203.024c.119-.536.119-1.036.226-1.405.107-.369.369-.643.536-.952C126.674.429 125.413 0 123.639 0c-3.727 0-6.096 2.19-6.096 5.31 0 6.596 8.977 4.381 8.977 9.548 0 2.25-1.655 4.072-4.155 4.072-2.417 0-3.822-1.595-4.43-2.917l-.201.024-.143-.024c-.06.536-.024 1.012-.107 1.405-.06.37-.25.679-.417 1.095.988.786 2.298 1.596 4.631 1.596 4.322 0 6.881-2.893 6.881-6.31-.011-6.227-9.06-4.048-9.06-9.287"/></g><g><path fill="#ed814c" d="M150.914 18.406c-1.774.334-5.083.37-7.584.37-.023-.703-.083-2.072-.083-4.215 0-2.69.024-3.393.06-4.072 1.345 0 4.88.06 6.822.25-.06-.286-.12-.56-.12-.845 0-.286.06-.596.12-.87-1.655.286-3.513.286-6.822.286 0-.702-.024-2.25-.024-3.702 0-1.381.083-2.358.107-3.56 3.643 0 5.024.19 7.381.37a4.11 4.11 0 0 1-.107-.846c0-.286.06-.56.107-.846-1.654.084-3.31.167-5 .167-1.679 0-3.345-.083-5.024-.167.107 2.382.226 4.834.226 7.24v4.833c0 2.417-.119 4.833-.226 7.274 1.714-.083 3.393-.167 5.107-.107 1.715 0 3.393.06 5.048.143-.06-.25-.107-.56-.107-.81s.072-.643.12-.893"/></g><g><path fill="#ed814c" d="M60.182 17.06c.024.072.06.144.083.215z"/></g></g></g></svg>