<svg xmlns="http://www.w3.org/2000/svg" width="118" height="19" viewBox="0 0 118 19"><g><g><g><g><path d="M.001 2.156h9.097v2.579H3.284v4.031h5.533v2.58H3.284v7.176H0zm11.347 4.29h2.79v2.742h.048c.14-1.123 1.43-3.024 3.305-3.024.306 0 .633 0 .962.094v3.165c-.283-.165-.845-.258-1.408-.258-2.555 0-2.555 3.19-2.555 4.924v4.433h-3.142zm9.354.633c1.22-.562 2.86-.915 4.197-.915 3.68 0 5.204 1.524 5.204 5.088v1.547c0 1.22.024 2.134.047 3.025.024.913.07 1.758.14 2.698h-2.765c-.116-.637-.116-1.432-.14-1.805h-.049c-.725 1.337-2.297 2.086-3.727 2.086-2.133 0-4.219-1.29-4.219-3.586 0-1.807.866-2.861 2.062-3.449 1.196-.587 2.744-.702 4.056-.702h1.736c0-1.947-.868-2.603-2.72-2.603-1.337 0-2.673.514-3.728 1.313zm3.682 9.427c.962 0 1.711-.426 2.203-1.079.517-.682.657-1.548.657-2.487h-1.36c-1.408 0-3.494.235-3.494 2.088zM43.82 6.446zm0 0v12.076h-2.979V16.88h-.048c-.96 1.174-2.32 1.923-3.961 1.923-2.86 0-4.103-2.017-4.103-4.736v-7.62h3.141v6.446c0 1.477.024 3.47 2.04 3.47 2.274 0 2.766-2.462 2.766-4.007v-5.91zm3.237 0h2.974v1.641h.05c.984-1.383 2.321-1.923 3.962-1.923 2.86 0 4.104 2.017 4.104 4.736v7.622h-3.144v-6.45c0-1.476-.023-3.47-2.039-3.47-2.273 0-2.767 2.463-2.767 4.01v5.91h-3.14zM61.381.937h3.143v7.15h.05c.793-1.172 2.153-1.923 3.794-1.923 2.859 0 4.1 2.017 4.1 4.736v7.622H69.33v-6.45c0-1.476-.022-3.47-2.037-3.47-2.276 0-2.768 2.463-2.768 4.01v5.91h-3.143zm19.39 5.228c3.59 0 6.33 2.415 6.33 6.402 0 3.467-2.321 6.236-6.33 6.236-3.985 0-6.309-2.769-6.309-6.236zm0 10.2c2.417 0 3.048-2.158 3.048-4.175 0-1.852-.983-3.588-3.047-3.588-2.041 0-3.025 1.782-3.025 3.588zm9.471-7.622h-2.32V6.446h2.32V4.757c0-2.414 1.36-4.102 3.845-4.102.798 0 1.69.117 2.298.258l-.26 2.603c-.278-.165-.677-.424-1.356-.424-1.056 0-1.386.916-1.386 1.853v1.501h2.742v2.297h-2.742v9.779h-3.14zm15.38 2.556c-.091-1.523-.796-2.836-2.556-2.836-1.759 0-2.646 1.218-2.79 2.836zm2.112 3.988v2.554c-1.151.634-2.46.962-4.15.962-3.988 0-6.307-2.296-6.307-6.261 0-3.494 1.853-6.377 5.602-6.377 4.48 0 5.744 3.07 5.744 7.29h-8.346c.143 1.95 1.504 3.052 3.446 3.052 1.526 0 2.837-.565 4.01-1.22zm3.142 3.235V6.447h2.788v2.74h.048c.14-1.122 1.43-3.023 3.306-3.023.303 0 .63 0 .962.094v3.165c-.282-.165-.847-.258-1.41-.258-2.553 0-2.553 3.19-2.553 4.924v4.433h-3.141z"/></g></g></g></g></svg>