<svg xmlns="http://www.w3.org/2000/svg" width="201" height="30" viewBox="0 0 201 30"><g><g><g><g><path fill="#ff7e0f" d="M44.296 18.531a1.101 1.101 0 0 1 1.135 1.134c0 .32-.121.6-.36.84-1.128.989-2.455 1.483-3.982 1.483-1.687 0-3.127-.596-4.319-1.788-1.193-1.193-1.789-2.633-1.789-4.32 0-1.686.596-3.126 1.789-4.319 1.192-1.192 2.632-1.788 4.32-1.788 1.533 0 2.86.494 3.98 1.483.262.233.393.52.393.862 0 .327-.108.6-.322.817a1.091 1.091 0 0 1-.813.328c-.276 0-.523-.088-.741-.262a4.187 4.187 0 0 0-1.167-.709c-.408-.16-.851-.24-1.331-.24-.53 0-1.03.1-1.494.3-.466.2-.873.473-1.222.818a3.803 3.803 0 0 0-1.123 2.71 3.804 3.804 0 0 0 1.123 2.71c.35.346.756.619 1.222.818.465.2.963.3 1.494.3.48 0 .923-.078 1.33-.234.408-.156.793-.391 1.157-.704.203-.152.443-.232.72-.239z"/></g><g><path fill="#ff7e0f" d="M49.908 10.907v.218a6.251 6.251 0 0 1 1.778-1.003 5.954 5.954 0 0 1 2.051-.35c.32 0 .663.023 1.03.066a4.51 4.51 0 0 1 1.015.235c.31.112.565.267.77.463.202.197.305.451.305.764 0 .16-.031.309-.093.447s-.144.26-.246.365a1.077 1.077 0 0 1-.36.246 1.138 1.138 0 0 1-.447.087c-.138 0-.298-.04-.48-.12a4.019 4.019 0 0 0-1.494-.273c-.53 0-1.029.1-1.494.3-.465.2-.87.473-1.216.818s-.618.751-.818 1.216c-.2.466-.3.964-.3 1.494v4.974c0 .313-.111.58-.333.802-.222.222-.489.332-.801.332-.32 0-.591-.11-.813-.332a1.092 1.092 0 0 1-.333-.802v-9.947c0-.313.11-.58.333-.802.222-.221.492-.332.813-.332.312 0 .58.11.801.332.222.222.332.49.332.802z"/></g><g><path fill="#ff7e0f" d="M60.122 14.746c.116-.4.294-.765.534-1.096.24-.33.524-.614.851-.85.327-.237.687-.42 1.08-.551a3.802 3.802 0 0 1 2.416 0 3.918 3.918 0 0 1 1.92 1.401c.243.331.426.696.55 1.096zm6.86 3.807a1.193 1.193 0 0 0-.752.283 3.62 3.62 0 0 1-1.113.655c-.4.145-.84.218-1.32.218-.422 0-.827-.066-1.216-.197a3.91 3.91 0 0 1-1.069-.55 3.824 3.824 0 0 1-.845-.851 3.722 3.722 0 0 1-.545-1.096h8.638c.32 0 .59-.108.813-.322.221-.214.332-.485.332-.813 0-.843-.149-1.626-.447-2.35a5.933 5.933 0 0 0-1.341-1.969c-1.208-1.192-2.647-1.788-4.32-1.788-1.686 0-3.127.596-4.319 1.788-1.192 1.193-1.789 2.633-1.789 4.32 0 1.686.597 3.126 1.79 4.319 1.191 1.192 2.631 1.788 4.318 1.788 1.534 0 2.865-.494 3.992-1.483.219-.225.328-.498.328-.818 0-.327-.108-.598-.322-.812a1.103 1.103 0 0 0-.813-.322z"/></g><g><path fill="#ff7e0f" d="M77.758 12.052c.53 0 1.029.102 1.494.306a3.882 3.882 0 0 1 2.034 2.045c.2.462.3.954.3 1.478 0 .523-.1 1.016-.3 1.478a3.883 3.883 0 0 1-2.034 2.045 3.683 3.683 0 0 1-1.494.305c-.538 0-1.04-.102-1.505-.305a3.862 3.862 0 0 1-1.21-.824 3.893 3.893 0 0 1-.814-1.216c-.2-.465-.3-.96-.3-1.483 0-.524.1-1.018.3-1.484.2-.465.471-.87.813-1.216a3.86 3.86 0 0 1 1.21-.823 3.713 3.713 0 0 1 1.506-.306zm3.828 8.802c0 .313.111.58.333.802.221.222.492.333.812.333.313 0 .58-.111.802-.333.222-.222.333-.489.333-.802v-4.973c0-1.687-.597-3.127-1.789-4.32-1.207-1.192-2.647-1.788-4.32-1.788-1.686 0-3.126.596-4.318 1.788-1.193 1.193-1.789 2.633-1.789 4.32 0 1.687.596 3.126 1.789 4.319 1.192 1.192 2.632 1.789 4.319 1.789.727 0 1.41-.117 2.05-.35a6.252 6.252 0 0 0 1.778-1.003z"/></g><g><path fill="#ff7e0f" d="M85.698 9.773h.513V5.672c0-.313.11-.58.333-.802.221-.221.492-.332.812-.332.313 0 .58.11.802.332.221.222.333.49.333.802v4.1h1.363c.313 0 .578.112.796.333.218.222.327.49.327.802 0 .32-.109.591-.327.813a1.075 1.075 0 0 1-.796.332h-1.363v5.487c0 1.447.726 2.17 2.18 2.17.314 0 .579.111.797.333.218.222.327.489.327.801 0 .32-.109.591-.327.813a1.076 1.076 0 0 1-.796.333c-2.974 0-4.461-1.484-4.461-4.45v-5.487h-.513c-.305 0-.569-.11-.79-.332a1.105 1.105 0 0 1-.333-.813c0-.313.11-.58.333-.802a1.08 1.08 0 0 1 .79-.332z"/></g><g><path fill="#ff7e0f" d="M98.798 12.052c.53 0 1.028.102 1.494.306a3.88 3.88 0 0 1 2.034 2.045c.2.462.3.954.3 1.478 0 .523-.1 1.016-.3 1.478a3.873 3.873 0 0 1-2.034 2.045 3.683 3.683 0 0 1-1.494.305c-.539 0-1.04-.102-1.505-.305a3.858 3.858 0 0 1-1.211-.824 3.889 3.889 0 0 1-.813-1.216c-.2-.465-.3-.96-.3-1.483 0-.524.1-1.018.3-1.484.2-.465.47-.87.813-1.216.341-.345.745-.62 1.21-.823a3.712 3.712 0 0 1 1.506-.306zm3.828 8.802c0 .313.111.58.333.802.221.222.493.333.812.333.313 0 .58-.111.802-.333.222-.222.332-.489.332-.802v-4.973c0-1.687-.596-3.127-1.788-4.32-1.207-1.192-2.647-1.788-4.32-1.788-1.686 0-3.126.596-4.318 1.788-1.193 1.193-1.79 2.633-1.79 4.32 0 1.687.597 3.126 1.79 4.319 1.192 1.192 2.632 1.789 4.319 1.789.726 0 1.41-.117 2.05-.35a6.248 6.248 0 0 0 1.778-1.003v.218z"/></g><g><path fill="#ff7e0f" d="M106.996 20.854V5.683c0-.32.107-.591.321-.813.215-.222.486-.332.813-.332.328 0 .598.11.813.332.214.222.321.493.321.813v14.026h.524c.312 0 .58.111.802.333.222.222.332.493.332.813 0 .312-.11.58-.332.801-.222.222-.49.333-.802.333h-1.669c-.312 0-.578-.111-.796-.333a1.103 1.103 0 0 1-.327-.802z"/></g><g><path fill="#ff7e0f" d="M114.319 14.746c.115-.4.294-.765.534-1.096.24-.33.523-.614.85-.85.328-.237.688-.42 1.08-.551a3.805 3.805 0 0 1 2.417 0c.388.13.744.314 1.068.55.324.237.607.52.851.851.244.331.427.696.551 1.096zm6.86 3.807a1.195 1.195 0 0 0-.753.283c-.341.29-.712.51-1.112.655-.4.145-.84.218-1.32.218-.421 0-.827-.066-1.216-.197a3.919 3.919 0 0 1-1.068-.55 3.816 3.816 0 0 1-1.391-1.947h8.638c.32 0 .59-.108.813-.322.221-.214.332-.485.332-.813a6.11 6.11 0 0 0-.447-2.35 5.928 5.928 0 0 0-1.342-1.969c-1.207-1.192-2.646-1.788-4.319-1.788-1.686 0-3.126.596-4.319 1.788-1.192 1.193-1.789 2.633-1.789 4.32 0 1.686.597 3.126 1.79 4.319 1.192 1.192 2.631 1.788 4.318 1.788 1.535 0 2.865-.494 3.992-1.483.219-.225.327-.498.327-.818 0-.327-.107-.598-.321-.812a1.102 1.102 0 0 0-.813-.322z"/></g></g><g><path fill="#ff7e0f" d="M6.094 8.133l.217.34-.34.217-.217-.34zm.82 2.029l-.566.362-.362-.566.566-.362zm.346-3.574l.362.566-.566.362-.362-.566zm1.65-1.535l.58.905-.906.58-.58-.906zm-.128 3.912l-.906.58-.58-.905.906-.58.58.905zM8.11 12.03l-.905.58-.58-.906.906-.58.58.906zM24.78-.013c-.366.74-.564 1.203-.885 1.87-.356.739-.748 1.495-1.11 2.243-1.058 2.19-1.75 3.947-2.18 5.525l-.043.163-.165.032-.382.074c-1.369.271-2.213.474-3.311.894-.245.094-.48.189-.704.285l.199-.05c.55-.13 1.116-.224 1.636-.272a8.02 8.02 0 0 1 .726-.033c.44 0 .863.037 1.258.11l.35.065-.158.319-.11.22c-.31.62-.62 1.27-.919 1.899l-.127.268c-.167.348-.35.72-.55 1.087-.202.372-.42.728-.645 1.058l-.002.003-.001.002-.042.058-.052.073-.085.027-.06.019a27.27 27.27 0 0 1-1.866.513c-.594.142-1.21.274-1.88.403-.606.116-1.242.226-1.888.326-.702.108-2.155.314-2.917.415-.639.919-2.542 3.628-4.678 7.317-.543 1.06-1.602 3.19-1.602 3.19v-3.703l5.026-7.62-.664-3.12-.038-.181.155-.1 1.84-1.195-1.031-1.62-.144-.226.226-.145 1.619-1.036-1.031-1.618-.145-.227.226-.144 1.619-1.036-1.036-1.618-.136-.214.205-.159c2.125-1.545 3.984-2.884 5.623-4.14H0v29.574h29.575V-.013h-4.796z"/></g><g><g><path fill="#ff7e0f" d="M154.438 9.554h2.16c.245 0 .368.106.368.32v.907c0 .23-.123.344-.368.344h-2.16c-.147 0-.22.073-.22.22v10.382c0 .23-.124.344-.37.344h-1.079c-.229 0-.343-.114-.343-.344V11.346c0-.148-.082-.221-.246-.221h-1.447c-.23 0-.344-.115-.344-.344v-.908c0-.213.114-.319.344-.319h1.447c.164 0 .246-.074.246-.22v-.909c0-1.162.286-2.053.858-2.675.573-.622 1.408-.933 2.504-.933h.835c.228 0 .343.107.343.32v.907c0 .23-.115.344-.343.344h-.614c-.67 0-1.137.172-1.399.515-.262.328-.393.86-.393 1.596v.834c0 .147.074.221.221.221z"/></g><g><path fill="#ff7e0f" d="M160.632 18.39v-5.154c0-1.408.687-2.111 2.062-2.111h1.718c1.374 0 2.062.703 2.062 2.11v5.155c0 1.407-.688 2.11-2.062 2.11h-1.718c-1.375 0-2.062-.703-2.062-2.11zm6.627 2.724c.654-.638.982-1.53.982-2.675v-5.253c0-1.145-.328-2.037-.982-2.675-.638-.638-1.522-.957-2.65-.957h-2.111c-1.13 0-2.021.32-2.676.957-.638.638-.957 1.53-.957 2.675v5.253c0 1.145.32 2.037.957 2.675.655.638 1.547.957 2.676.957h2.11c1.129 0 2.013-.319 2.651-.957z"/></g><g><path fill="#ff7e0f" d="M172.83 22.071h-1.104c-.23 0-.344-.114-.344-.344V9.897c0-.228.115-.343.344-.343h1.104c.23 0 .344.115.344.344v.981h.098c.164-.36.475-.67.933-.932.458-.262.998-.393 1.62-.393h.957c.213 0 .319.115.319.344v.908a.443.443 0 0 1-.074.27c-.049.049-.13.065-.245.049h-1.326c-.736 0-1.3.22-1.693.662-.392.442-.59 1.048-.59 1.817v8.123c0 .23-.114.344-.343.344z"/></g><g><path fill="#ff7e0f" d="M186.63 17.58c0 .72-.197 1.276-.59 1.669-.393.392-.957.589-1.693.589h-1.374c-1.375 0-2.062-.712-2.062-2.136V13.26c0-1.423.687-2.135 2.062-2.135h3.411c.164 0 .245.073.245.22v6.235zm-2.602 3.828c1.244 0 2.078-.433 2.503-1.3h.098v1.89c0 1.407-.687 2.11-2.06 2.11h-4.296c-.245 0-.369.115-.369.344v.908c0 .229.124.343.369.343h4.516c1.129 0 2.012-.327 2.65-.981.655-.638.982-1.522.982-2.65V9.897c0-.23-.114-.344-.343-.344h-5.326c-1.13 0-2.021.32-2.675.957-.639.638-.957 1.53-.957 2.675v4.59c0 1.145.31 2.037.932 2.675.622.638 1.489.957 2.602.957z"/></g><g><path fill="#ff7e0f" d="M193.325 15.125v-1.89c0-1.407.687-2.11 2.062-2.11h1.668c1.375 0 2.062.703 2.062 2.11v1.89c0 .164-.082.246-.245.246h-5.302c-.163 0-.245-.082-.245-.246zm7.068 6.946c.23 0 .344-.106.344-.319v-.884c0-.229-.115-.343-.344-.343h-5.006c-1.375 0-2.062-.712-2.062-2.135v-1.498c0-.147.082-.22.245-.22h6.946c.229 0 .343-.123.343-.369v-3.117c0-1.145-.319-2.037-.957-2.675-.637-.638-1.521-.957-2.65-.957h-2.062c-1.129 0-2.02.32-2.675.957-.639.638-.957 1.53-.957 2.675v5.253c0 1.145.318 2.037.957 2.675.654.638 1.546.957 2.675.957z"/></g></g><g><g><path fill="#ff7e0f" d="M129.222 26.859h-1.55c-.454 0-.606-.202-.454-.605.403-1.009 1.828-4.917 4.273-11.724 2.47-6.833 3.857-10.64 4.16-11.421.152-.379.39-.568.719-.568h1.588c.429 0 .555.215.378.643l-8.395 23.108c-.127.378-.366.567-.719.567z"/></g></g><g><g><path fill="#ff7e0f" d="M137.161 26.87h-1.55c-.454 0-.606-.202-.454-.605.403-1.009 1.828-4.917 4.273-11.724 2.471-6.833 3.858-10.64 4.16-11.421.152-.378.391-.568.719-.568h1.588c.429 0 .555.215.378.643l-8.395 23.108c-.126.378-.366.567-.719.567z"/></g></g></g></g></svg>