<svg xmlns="http://www.w3.org/2000/svg" width="151" height="42" viewBox="0 0 151 42"><g><g><g><g><g><path fill="#179c7d" d="M0 24.522c5.81-2.99 14.32-7.827 24.423-14.897V7.252C15.532 13.07 6.49 17.74 0 20.83z"/></g><g><path fill="#179c7d" d="M0 17.436C6.469 14.8 15.51 10.729 24.423 5.428V4.256C16.046 8.411 7.343 11.012 0 12.634z"/></g><g><path fill="#179c7d" d="M24.423 24.534V12.598c-5.56 4.687-11.067 8.746-15.693 11.936z"/></g><g><path fill="#179c7d" d="M5.607 24.534c4.393-2.608 9.724-6.01 15.034-9.988a318.735 318.735 0 0 0 3.782-2.873v-1.48c-7.859 5.892-15.88 10.804-22.146 14.34z"/></g><g><path fill="#179c7d" d="M0 10.897c7.143-1.256 15.883-3.516 24.423-7.575v-1.33C15.817 5.855 7.203 7.494 0 8.077z"/></g><g><path fill="#179c7d" d="M0-.013v6.838c.534-.033 1.077-.072 1.633-.115 5.939-.456 14.043-1.506 22.79-5.288V-.013z"/></g><g><g><g><path fill="#fff" d="M0 6.825v1.252c7.203-.583 15.817-2.222 24.423-6.085v-.57C15.677 5.204 7.572 6.254 1.633 6.71c-.556.044-1.1.082-1.633.115z"/></g></g></g><g><g><g><path fill="#fff" d="M0 12.634c7.343-1.622 16.046-4.223 24.423-8.378v-.933C15.883 7.381 7.143 9.641 0 10.897z"/></g></g></g><g><g><g><path fill="#fff" d="M0 20.83c6.49-3.09 15.532-7.76 24.423-13.578V5.428C15.51 10.728 6.469 14.8 0 17.436z"/></g></g></g><g><g><g><path fill="#fff" d="M5.607 24.534h3.124c4.625-3.19 10.132-7.249 15.692-11.936v-.925a313.879 313.879 0 0 1-3.782 2.873c-5.31 3.977-10.641 7.38-15.033 9.988z"/></g></g></g><g><g><g><path fill="#fff" d="M0 24.534h2.277c6.266-3.537 14.287-8.448 22.146-14.34v-.569C14.32 16.695 5.81 21.531 0 24.522z"/></g></g></g></g><g><path d="M32.653 8.156h9.097v2.579h-5.814v4.031h5.533v2.58h-5.533v7.176h-3.283zM44 12.446h2.79v2.742h.048c.14-1.123 1.43-3.024 3.305-3.024.306 0 .633 0 .962.094v3.165c-.283-.165-.845-.258-1.408-.258-2.555 0-2.555 3.19-2.555 4.924v4.433H44zm9.354.633c1.22-.562 2.86-.915 4.197-.915 3.68 0 5.204 1.524 5.204 5.088v1.547c0 1.22.024 2.134.047 3.025.024.913.07 1.758.14 2.698h-2.765c-.116-.637-.116-1.432-.141-1.805h-.048c-.725 1.337-2.297 2.086-3.727 2.086-2.133 0-4.219-1.29-4.219-3.586 0-1.807.866-2.861 2.062-3.449 1.196-.587 2.744-.702 4.056-.702h1.735c0-1.947-.867-2.603-2.719-2.603-1.337 0-2.673.514-3.728 1.313zm3.682 9.427c.962 0 1.71-.426 2.203-1.079.516-.682.657-1.548.657-2.487h-1.36c-1.408 0-3.494.235-3.494 2.088zm19.437-10.06h-.001zm-.001 0v12.076h-2.978V22.88h-.048c-.96 1.174-2.32 1.923-3.961 1.923-2.86 0-4.103-2.017-4.103-4.736v-7.62h3.141v6.446c0 1.477.024 3.47 2.04 3.47 2.274 0 2.766-2.462 2.766-4.007v-5.91zm3.238 0h2.974v1.641h.05c.984-1.383 2.321-1.923 3.962-1.923 2.86 0 4.104 2.017 4.104 4.736v7.622h-3.144v-6.45c0-1.476-.023-3.47-2.04-3.47-2.272 0-2.766 2.463-2.766 4.01v5.91h-3.14zm14.323-5.509h3.143v7.15h.05c.793-1.172 2.153-1.923 3.794-1.923 2.859 0 4.1 2.017 4.1 4.736v7.622h-3.139v-6.45c0-1.476-.022-3.47-2.038-3.47-2.275 0-2.767 2.463-2.767 4.01v5.91h-3.143zm19.39 5.228c3.59 0 6.33 2.415 6.33 6.402 0 3.467-2.321 6.236-6.33 6.236-3.985 0-6.309-2.769-6.309-6.236zm0 10.2c2.417 0 3.047-2.158 3.047-4.175 0-1.852-.982-3.588-3.046-3.588-2.041 0-3.025 1.782-3.025 3.588zm9.471-7.622h-2.32v-2.297h2.32v-1.689c0-2.414 1.36-4.102 3.845-4.102.798 0 1.69.117 2.297.258l-.26 2.603c-.277-.165-.676-.424-1.355-.424-1.056 0-1.386.916-1.386 1.853v1.501h2.742v2.297h-2.742v9.779h-3.14zm15.38 2.556c-.091-1.523-.796-2.836-2.556-2.836-1.759 0-2.646 1.218-2.79 2.836zm2.112 3.988v2.554c-1.151.634-2.46.962-4.15.962-3.988 0-6.307-2.296-6.307-6.261 0-3.494 1.853-6.377 5.602-6.377 4.48 0 5.744 3.07 5.744 7.29h-8.346c.143 1.95 1.504 3.052 3.446 3.052 1.526 0 2.837-.565 4.01-1.22zm3.142 3.235V12.447h2.788v2.74h.048c.14-1.122 1.43-3.023 3.305-3.023.304 0 .632 0 .962.094v3.165c-.281-.165-.846-.258-1.409-.258-2.553 0-2.553 3.19-2.553 4.924v4.433h-3.141z"/></g><g><g><path d="M131.102 32.86h1.587v8.188h-1.587z"/></g><g><path d="M139.241 37.882h-2.313l1.145-3.379h.022zm-5.101 3.166h1.644l.692-1.876h3.207l.68 1.876h1.757l-3.107-8.188h-1.79z"/></g><g><path d="M144.523 36.931c0-.758.178-1.426.533-2.004.347-.596.91-.9 1.688-.916.786.017 1.357.32 1.713.916.339.579.51 1.247.51 2.005 0 .767-.168 1.443-.5 2.03-.166.28-.393.508-.68.679-.288.172-.635.259-1.043.259-.793-.017-1.364-.329-1.711-.938-.348-.587-.518-1.264-.51-2.03zm-.658 3.062c.65.783 1.61 1.181 2.88 1.197 1.261-.016 2.225-.419 2.89-1.209.65-.774.98-1.79.987-3.05 0-1.266-.332-2.28-.997-3.038-.666-.767-1.626-1.157-2.88-1.173-1.263.008-2.222.396-2.88 1.161-.665.76-.996 1.776-.996 3.05 0 1.275.331 2.296.996 3.062z"/></g></g></g></g></g></svg>