<svg xmlns="http://www.w3.org/2000/svg" width="17" height="20" viewBox="0 0 17 20"><g><g><path fill="#fff" d="M16.102 9.437c-.134-.287-.374-.468-.629-.632l-.59-.377c-.746-.477-1.493-.954-2.237-1.432L9.559 5.021c-1.082-.69-2.161-1.383-3.243-2.074l-2.71-1.733C3.11.9 2.619.583 2.125.267c-.336-.215-.708-.326-1.11-.235C.398.172.003.742 0 1.359V18.72c0 .017.002.035.005.052.026.464.287.903.712 1.113.419.205.904.193 1.303-.054.09-.057.18-.115.269-.174l1.784-1.14 2.872-1.837c1.084-.695 2.171-1.388 3.256-2.083l2.966-1.897c.666-.426 1.335-.852 2-1.28.14-.088.28-.179.419-.267.132-.086.257-.184.355-.309.32-.403.38-.94.161-1.407z"/></g></g></svg>