<svg xmlns="http://www.w3.org/2000/svg" width="282" height="236" viewBox="0 0 282 236"><g><g><g><path fill="#fcc01b" d="M16.602 114.548C16.602 54.394 65.366 5.63 125.52 5.63c60.153 0 108.917 48.764 108.917 108.918 0 60.153-48.764 108.917-108.917 108.917-60.154 0-108.918-48.764-108.918-108.917z"/></g><g><g><path fill="#fff" d="M123.148 107.234c-3.756-10.675-11.465-22.337-17.593-26.29-7.907-5.14-22.535-13.245-36.174-1.582-13.64 11.663-13.837 14.232-10.28 21.546 3.559 7.314 11.07 16.012 3.361 17.988-7.709 1.977-10.081-2.767-12.848-5.732-2.768-2.965-8.5-6.128-12.85-2.57-4.348 3.558-7.906 10.674-8.697 14.826-.79 3.558-1.581 8.104 5.733 17.79 4.744 6.325-4.151 6.919-7.71 6.72-1.383 0-7.313 1.385-6.127 4.547 1.383 3.36 10.674 9.686 5.337 16.012-5.14 6.325-10.279.593-17.988 6.918-6.128 5.14-6.721 9.489-2.965 14.233 3.755 4.744 21.348 12.058 22.732 16.406 1.384 4.35 3.756 7.907-1.78 8.5-5.534.593-12.057-1.581-11.464 1.582 1.384 6.523 12.058 1.976 20.558 6.523 3.163 1.779 5.14 4.349 2.57 6.72-2.57 2.373-1.78 3.559.395 2.57 2.372-.988 6.523-1.779 7.511-4.744.989-2.767-1.383-8.302-6.72-8.5-5.338-.197-2.57-3.36-.593-3.558 3.558-.593 9.686 1.186 10.872-1.186s-9.686-8.895-3.559-11.86c6.128-2.965 16.605-10.081 26.29-7.907 9.687 2.174 22.535 9.686 31.233 3.36 8.698-6.325.79-12.057-.79-13.046-1.582-.988-8.896-5.337-3.756-8.104 5.139-2.57 10.476.395 13.244 2.767 2.57 2.57 11.662 4.349 19.767.79 8.104-3.557 17-15.615 17.988-18.976 2.57-7.511 2.174-13.441-1.78-18.976-2.569-3.756-10.278-12.256-13.44-15.221-3.164-2.965-8.5-16.011-10.477-21.546z"/></g><g><path fill="#2c394e" d="M123.148 107.234c2.372 6.128 4.744 12.058 7.906 17.593.791 1.383 1.582 2.767 2.768 3.953 1.186 1.186 2.372 2.372 3.36 3.558l6.523 7.116c2.175 2.372 4.35 4.942 5.535 8.105 1.384 2.965 1.582 6.523 1.186 9.686-.197 1.581-.593 3.162-.988 4.744-.198.79-.395 1.581-.79 2.372-.396.79-.791 1.384-1.187 2.174a56.98 56.98 0 0 1-5.93 7.71c-2.174 2.372-4.546 4.744-7.314 6.523-2.767 1.976-5.93 3.162-9.29 3.558-3.36.593-6.721.395-9.884-.396-1.581-.395-3.163-.988-4.744-2.174-1.186-.988-2.372-1.977-3.756-2.57-2.767-1.383-6.128-1.383-8.697 0-1.384.791-1.582 1.582-.593 2.768.79 1.186 2.174 2.174 3.36 2.965.593.395 1.384.79 2.174 1.384.791.593 1.384.988 1.977 1.779 1.186 1.186 2.174 2.767 2.372 4.744.198 1.976-.593 3.755-1.779 5.14-1.186 1.383-2.57 2.371-3.953 3.36-3.163 1.779-6.721 1.976-10.082 1.581-3.36-.395-6.523-1.384-9.686-2.372-3.162-.988-6.127-2.174-9.092-2.965-2.966-.79-6.128-.989-9.093-.198-6.128 1.186-11.663 4.547-17.396 7.512-.79.395-1.383.593-1.58.988-.199.395-.199.593-.199 1.186.396 1.186 1.384 2.372 2.373 3.558.593.593.988 1.186 1.58 1.977.594.79 1.187 1.186 1.385 2.767 0 .396 0 .791-.198 1.384-.198.395-.395.593-.593.988-.593.396-1.186.791-1.581.791-.989.198-1.977.395-2.768.395-1.779 0-3.36-.197-4.942-.197-.79 0-1.581 0-1.976.197-.344 0-.836.298-1.089.635.419.156 1.15.156 1.88.156 1.976 0 3.953.79 5.336 2.175 1.384 1.383 2.373 2.965 2.768 4.941a5.868 5.868 0 0 1-.198 3.163c-.395 1.186-1.186 1.977-1.977 2.57-1.58 1.186-3.36 1.779-4.744 2.372l-2.372.79c-.593.198-.988.396-2.174.198-.593 0-1.384-.79-1.582-1.581-.197-.79 0-1.186.198-1.384.593-1.186 1.186-1.779 1.78-2.372.395-.395.592-.79.592-.988.198-.593-.79-1.582-1.976-2.372-2.373-1.582-5.338-2.175-8.5-2.57-1.582-.198-3.163-.198-4.745-.198-1.58-.197-3.36-.197-5.337-.79-.988-.396-1.976-.791-2.767-1.78a6.007 6.007 0 0 1-.988-1.383c-.198-.198-.198-.593-.198-.79 0-.199-.198-.594-.198-.99 0-.395 0-.79.198-1.383s.593-.988.988-1.186c.791-.593 1.384-.593 1.977-.593.988-.198 1.977 0 2.767 0 1.582.198 3.163.198 4.745.198 1.383 0 3.162 0 3.953-.396.395-.197.395-.197.395-.395 0-.395 0-.988-.197-1.78-.198-.79-.396-1.383-.791-2.173l-.395-1.186v-.396l-.198-.197c-.593-.989-1.977-1.977-3.163-2.768-1.186-.988-2.57-1.779-3.953-2.57-2.768-1.581-5.535-3.162-8.302-4.941-1.384-.791-2.768-1.78-4.152-2.768-.593-.593-1.383-.988-1.976-1.779-.593-.79-1.186-1.384-1.582-2.174-.988-1.582-1.581-3.36-1.581-5.337 0-1.977.988-3.756 1.977-5.338.988-1.383 2.372-2.57 3.558-3.755 1.383-1.186 2.767-2.175 4.546-2.768 1.582-.593 3.558-.988 5.14-1.186 1.779-.197 3.162 0 4.546-.395 1.384-.395 2.57-.988 3.558-1.977.989-.988 1.582-2.174 1.78-3.36.197-2.57-1.78-5.14-3.756-7.71l-1.582-1.976c-.593-.593-.988-1.384-1.384-2.372-.197-.593-.197-1.186-.197-1.78.197-.592.395-1.185.79-1.58.791-.791 1.582-1.187 2.373-1.582.79-.395 1.779-.593 2.57-.79.395 0 .79-.198 1.383-.198h1.186c1.581 0 3.163-.198 4.546-.593.593-.198 1.384-.396 1.78-.791.395-.396.593-.79.593-1.186 0-.989-.989-2.372-1.977-3.756-1.977-2.767-3.558-5.535-4.547-8.895-.593-1.582-.79-3.36-.593-5.14.198-1.779.396-3.36.989-4.941.988-3.163 2.57-6.128 4.546-8.896a28.904 28.904 0 0 1 3.163-3.755c.681-.682 1.493-1.363 2.397-1.857a7.636 7.636 0 0 0-1.606 1.461 28.903 28.903 0 0 0-3.163 3.756c-1.78 2.57-3.36 5.535-4.349 8.697-.988 3.163-1.186 6.326-.198 9.489.989 3.162 2.57 5.93 4.547 8.5.79 1.383 2.174 2.57 2.372 4.348 0 .791-.395 1.78-.988 2.175-.594.593-1.384.79-2.175 1.186a19.496 19.496 0 0 1-4.744.593c-1.581-.198-3.163.198-4.744.79-.79.396-1.384.791-1.977 1.384-.593.593-.593 1.384-.395 2.175.593 1.383 1.779 2.57 2.767 3.755.989 1.186 1.977 2.57 2.965 3.954.791 1.384 1.384 2.965 1.384 4.744s-.988 3.163-2.174 4.349c-1.186 1.186-2.57 2.174-4.152 2.57-1.58.395-3.162.395-4.941.395-1.582.198-3.163.395-4.744.988-1.384.593-2.768 1.582-3.954 2.57-1.186.988-2.372 2.174-3.36 3.558-.989 1.384-1.582 2.767-1.582 4.349 0 1.581.396 3.163 1.384 4.546.79 1.384 1.977 2.57 3.163 3.558 1.186.989 2.57 1.78 3.953 2.768 2.768 1.779 5.535 3.36 8.302 4.942 1.384.79 2.768 1.779 4.152 2.57 1.383.988 2.767 1.976 3.755 3.162.593.79.593 1.581.989 2.372.197.79.593 1.582.79 2.372.198.79.396 1.582.396 2.372 0 .791-.791 1.582-1.582 1.977-1.581.593-3.162.593-4.941.593-1.582 0-3.163-.198-4.942-.198h-2.372c-.791 0-1.582.396-1.384 1.186.198.791.395 1.582.988 1.977.593.593 1.186.988 1.977 1.186 2.965.989 6.326.593 9.488.989 3.163.395 6.523.988 9.29 2.965.594.395 1.385.988 1.78 1.581.593.593.988 1.384.79 2.372 0 .79-.592 1.581-1.185 2.174-.593.593-1.186 1.186-1.384 1.78-.198.395-.198.593.198.79.395 0 .79 0 .988-.198.79-.197 1.581-.593 2.174-.79 1.582-.593 2.965-.989 4.35-1.977.592-.395 1.185-1.186 1.383-1.779a4.818 4.818 0 0 0 0-2.372c-.396-1.581-1.186-2.965-2.175-4.151a6.132 6.132 0 0 0-4.348-1.78c-.791 0-1.582 0-2.372-.395-.396-.197-.791-.395-.989-.79-.197-.396 0-.989.396-1.384.593-.593 1.186-1.186 2.174-1.384.79-.197 1.581-.197 2.372-.197 1.581 0 3.163.197 4.744.197.79 0 1.582 0 2.372-.197.79-.198 1.582-.791 1.384-1.384-.198-.79-.593-1.384-1.186-1.977-.593-.593-.988-1.186-1.582-1.779-.988-1.186-2.174-2.57-2.57-4.15-.197-.792-.197-1.78.396-2.373.593-.593 1.384-.988 1.977-1.384 5.732-2.965 11.465-6.325 17.79-7.511 3.163-.593 6.523-.593 9.686.395 3.163.79 6.128 1.977 9.29 2.965 3.164.989 6.129 1.977 9.291 2.372 3.163.396 6.524.198 9.291-1.383 1.384-.791 2.767-1.78 3.756-2.965.988-1.187 1.779-2.768 1.581-4.35-.198-1.58-.988-2.964-2.174-4.15-.989-1.186-2.372-1.977-3.756-2.965-1.384-.989-2.57-1.977-3.558-3.163-.395-.593-.79-1.582-.593-2.372.198-.791.988-1.384 1.581-1.78 2.965-1.58 6.523-1.383 9.488 0 1.384.594 2.768 1.582 3.954 2.768 1.186.988 2.767 1.581 4.349 1.977 3.162.79 6.325.988 9.488.395 3.163-.395 6.325-1.581 8.895-3.36 2.57-1.78 4.942-3.954 7.116-6.523a56.98 56.98 0 0 0 5.93-7.71c1.78-2.57 2.57-5.93 2.966-9.093.395-3.162.197-6.523-1.186-9.488-1.186-2.965-3.36-5.535-5.535-7.907-2.175-2.372-4.349-4.941-6.523-7.314-1.186-1.186-2.175-2.372-3.36-3.558-1.187-1.186-1.978-2.57-2.768-3.953-2.57-5.93-4.942-11.86-7.314-17.988-1.36-3.832-3.106-7.509-5.093-11.031 2.162 3.301 3.89 7.084 5.29 11.03zm-83.616 2.372c1.78-.396 3.558 0 5.14.79 1.581.593 2.965 1.582 4.349 2.768.148.127.292.257.432.388a11.76 11.76 0 0 0-1.025-.981c-2.373-1.977-5.535-3.756-8.698-3.163-.85.106-1.642.44-2.347.911.67-.366 1.392-.63 2.15-.713zm12.849 7.116c.988 1.186 2.174 2.174 3.558 2.57 1.384.593 2.965.593 4.349.395 1.49-.186 2.982-.548 3.644-1.417-1.01.563-2.276.744-3.249 1.022-1.581.197-3.36.197-4.942-.396-1.42-.532-2.522-1.384-3.591-2.412.077.082.154.161.231.238zm11.663 1.384c.79-.989.593-2.57 0-3.954-.593-1.383-1.186-2.965-1.977-4.349-1.581-2.767-3.36-5.534-4.546-8.697-.594-1.581-1.384-3.163-1.384-4.744-.198-1.78.395-3.558 1.186-4.942 1.779-2.965 4.15-5.14 6.523-7.314 1.912-1.752 3.824-3.505 5.942-5.05-1.809 1.393-3.48 2.925-5.151 4.457-2.372 2.174-4.744 4.349-6.326 7.116a9.182 9.182 0 0 0-1.186 4.547c.198 1.581.79 3.162 1.384 4.546 1.384 2.965 2.965 5.733 4.546 8.5.791 1.384 1.582 2.767 2.175 4.349.593 1.384.988 3.36-.198 4.744-.293.41-.674.717-1.1.955.04-.053.078-.108.112-.164zm7.314-40.128c2.767-1.779 5.93-2.965 9.092-3.558 6.524-.988 13.244.989 18.977 3.954 2.767 1.581 5.732 3.162 8.104 5.337a38.625 38.625 0 0 1 6.326 7.511c1.478 1.478 2.805 3.156 4 4.98a97.577 97.577 0 0 0-3.802-6.166c-1.78-2.57-3.954-5.14-6.326-7.314-2.372-2.174-5.337-3.755-8.104-5.14-5.733-2.964-12.256-4.94-18.582-3.755-3.162.593-6.127 1.78-8.895 3.558-.818.526-1.6 1.086-2.36 1.67a32.32 32.32 0 0 1 1.57-1.077zM36.34 219.74c-.109.122-.043.144 0 0zm15.447-103.61c-.83-.83-1.563-1.757-2.335-2.577 1.062.995 1.89 2.08 2.697 2.932-.121-.116-.242-.235-.362-.355z"/></g></g><g><g><path fill="#eb8807" d="M109.31 109.013S96.067 92.606 86.184 97.35c-9.488 4.547-8.302 10.872-9.884 19.965-1.186 6.128-1.186 7.314-4.546 11.07-3.954 3.953-17.593-1.78-23.918 3.36-5.14 4.151-5.338 20.558 1.779 27.279 11.465 10.674 2.372 10.674-2.57 10.279-2.768-.198-9.488-3.36-6.523 6.325.988 3.163-6.919-3.163-8.105 3.163-.79 4.151.988 4.151.79 7.71-.197 3.162-9.685-3.757-10.476 1.58-.79 5.535 11.465 19.965 13.047 19.965 1.58 0-6.326-14.232-4.745-15.616 1.78-1.383 4.547.396 6.128-.593 1.582-.988 1.384-2.174.593-5.337-.395-1.779 2.175-2.372 4.942-1.581 2.767.79 7.907 2.965 10.279 1.186 1.78-1.384-4.942-6.326-4.546-8.105.395-1.779 3.755-.197 7.116.593 3.36.791 8.302 2.768 14.627 5.14 10.675 4.15 16.803.593 11.268-3.954-3.954-3.162-6.326-6.128-4.349-8.5 1.977-2.372 10.477-1.976 14.628-1.779 3.36.198 9.883 1.582 16.802 1.78 9.488 0 17-1.582 18.383-8.303 1.186-5.93-8.104-5.337-4.546-11.662 2.174-3.756 5.732.988 10.476 1.383 4.745.396 4.942-3.756 5.535-6.918.989-5.337-4.744-10.675-4.744-10.675z"/></g><g><path fill="#2c394e" d="M109.31 109.013l19.372 20.558 1.62 1.754-1.817-1.754-19.174-20.558a46.976 46.976 0 0 0-7.985-7.554c2.783 1.776 5.52 4.597 7.984 7.554zm24.117 25.697c1.58 1.581 3.162 3.558 4.15 5.733.396.988.791 2.174.989 3.36.198 1.186-.198 2.372-.395 3.558-.198 1.186-.396 2.372-.989 3.36a3.862 3.862 0 0 1-1.866 1.564c1.049-.121 1.918-.842 2.46-1.563.592-.989.79-2.175.988-3.163.197-1.186.395-2.372.395-3.36 0-1.187-.395-2.175-.988-3.361-.989-2.174-2.372-3.953-3.954-5.733l-3.915-3.78zm.79 17.79c-2.372.198-4.546-.79-6.72-1.778-.948-.38-2.077-.94-3.214-.986.208-.12.426-.2.644-.2 1.383-.198 2.372.395 3.558.988 2.174.988 4.348 1.977 6.523 1.779.104 0 .207-.006.308-.018a3.043 3.043 0 0 1-1.099.216zm-10.081-2.767c-1.186.198-1.78 1.384-2.174 2.372-.396.989-.593 2.372.197 3.36.593.989 1.582 1.582 2.57 2.373.988.79 1.779 1.581 2.174 2.767.396 1.186.198 2.372-.197 3.558a9.209 9.209 0 0 1-.081.233c.102-.208.194-.418.278-.628.396-.988.593-2.174.198-3.163-.395-.988-1.186-1.779-1.977-2.57-.79-.79-1.976-1.383-2.57-2.372-.79-.988-.592-2.57-.197-3.558a4.304 4.304 0 0 1 .988-1.581c.25-.25.58-.58.938-.788a3.657 3.657 0 0 0-.147-.003zm.79 17.395c-.79.791-1.778 1.582-2.964 1.977a21.212 21.212 0 0 1-6.721 1.78c-4.744.592-9.489.394-14.035-.199-2.372-.197-4.744-.593-6.919-.988-2.372-.395-4.744-.395-6.918-.395-2.372 0-4.744 0-6.919.593-1.186.197-2.372.593-2.965 1.581-.79.988-.79 2.175-.197 3.163.988 2.174 2.965 3.558 4.744 5.14.79.79 1.779 1.58 2.174 2.767.198.197 0 .593 0 .988-.197.198-.197.593-.395.79-.198.198-.396.396-.79.594-.199.198-.594.198-.792.395-2.372.79-4.744.396-6.918 0-2.372-.593-4.547-1.384-6.72-2.174-4.35-1.582-8.698-3.558-13.245-4.547-1.186-.197-2.174-.593-3.36-.988-.593-.198-1.186-.198-1.78-.198-.592 0-.988.593-.79 1.186.395.989 1.186 1.977 1.977 2.768.79.988 1.581 1.779 2.174 2.767.395.395.593.989.593 1.582 0 .395-.395.593-.593.79-.198.198-.593.198-.79.396a10.748 10.748 0 0 1-3.559 0c-2.372-.396-4.546-1.384-6.72-1.78-1.187-.197-2.373-.197-3.361.396-1.186.593-.395 1.977-.198 3.163 0 .593.198 1.186.198 1.779s-.395 1.186-.79 1.581c-.99.988-2.373.593-3.361.593-.593 0-1.186-.198-1.78 0-.592 0-1.185.198-1.383.593-.198.988.198 2.174.593 3.36.79 2.175 1.78 4.35 2.57 6.524.395.988.988 2.174 1.384 3.36.197.593.395 1.186.395 1.78 0 .197 0 .394-.198.394-.197.198-.395 0-.593 0-.197-.197-.593-.395-.79-.593-1.78-1.58-3.36-3.36-4.745-5.139-1.383-1.78-2.767-3.756-4.15-5.733-1.187-1.976-2.373-4.15-2.966-6.325-.197-1.186-.395-2.372.396-3.36.106-.134.227-.245.359-.338-.36.61-.353 1.752-.162 2.71.593 2.174 1.78 4.15 2.965 6.128 1.186 1.976 2.57 3.755 4.151 5.534 1.297 1.667 2.767 3.334 4.41 4.676a3.7 3.7 0 0 0-.06-.13c-.396-.988-.791-2.174-1.384-3.162-.989-2.174-1.78-4.349-2.768-6.523l-.593-1.78c0-.395-.198-.592-.198-.988 0-.395 0-.79.198-1.383 0-.198.593-.791.593-.791.198-.198.395-.198.593-.198.395-.197.79-.197 1.186-.197h1.977c2.57.593 3.558-.396 2.965-2.768l-.395-1.779c0-.395-.198-.79 0-1.383.197-.396.593-.791.988-.989 1.384-.79 2.767-.593 3.953-.395 2.57.395 4.547 1.384 6.721 1.977.989.197 2.175.395 3.163 0 .281 0 .663-.301.788-.403a9.19 9.19 0 0 0-.393-.981c-.593-.988-1.383-1.78-2.174-2.57-.395-.395-.79-.988-1.186-1.384-.395-.593-.79-.988-.988-1.779v-.79c0-.198.197-.396.395-.593.395-.396.79-.593 1.186-.791.79 0 1.384 0 1.977.198 1.186.197 2.372.593 3.36.988 4.744.988 9.093 2.965 13.442 4.546 2.174.791 4.349 1.78 6.523 2.175 2.174.395 4.546.79 6.523.197.988-.395 1.78-.988 1.581-1.779-.197-.79-.988-1.779-1.779-2.372-1.779-1.581-3.755-2.965-4.941-5.337-.198-.593-.396-1.186-.396-1.976 0-.791.396-1.384.791-1.977.988-1.186 2.174-1.384 3.36-1.78 2.372-.592 4.745-.592 7.117-.592s4.744 0 7.116.395 4.546.593 6.918.988c4.547.593 9.29.791 14.035.198 2.372-.198 4.546-.79 6.72-1.779.99-.593 1.978-1.186 2.768-1.977a8.009 8.009 0 0 0 1.5-2.14c-.393 1.084-.959 1.995-1.697 2.733zM27.08 186.896c1.186.197 2.372.593 3.36.79.593.198 1.186.198 1.78.396.58 0 1.161 0 1.37-.558-.175.205-.378.36-.58.36a1.26 1.26 0 0 1-1.186 0c-.593 0-1.186-.198-1.779-.395-1.186-.396-2.174-.593-3.36-.791-.989-.198-2.175-.198-2.57.395a1.229 1.229 0 0 0-.036.058c.847-.598 2.146-.426 3.001-.255zm6.523.593c.198-1.186 0-2.372-.395-3.36-.396-1.187-.593-2.373-.396-3.559.198-1.186.396-2.372 1.186-3.36.553-.443 1.168-.638 1.81-.689-.565.051-1.082.246-1.414.689-.593.593-.79 1.779-.989 2.767-.197 1.186 0 1.977.396 3.163.198.593.395 1.186.395 1.779v.988c0 .396 0 .593-.197.989-.097.193-.24.433-.408.628l.012-.035zm3.756-10.872c1.186.197 2.372.593 3.36.593.198 0 .396-.396.198-.593l-.198-.791c-.197-.593-.395-1.186-.395-1.78-.198-1.185-.395-2.371.198-3.557.37-.742 1.051-1.097 1.8-1.211-.55.099-.978.358-1.207.815-.396.791-.396 1.977-.198 3.163 0 .593.198 1.186.395 1.582l.198.988v.79c-.198.396-.395.594-.79.594-.989.197-1.384-.198-1.977-.198-.593-.198-1.186-.198-1.582-.395a5.311 5.311 0 0 0-1.011-.11c.397-.003.803.042 1.209.11zm6.325-7.314c1.186 0 2.372.395 3.559.593 1.12.186 2.24.197 3.36.197-1.186 0-2.372 0-3.558-.197a112.717 112.717 0 0 1-3.36-.593zm7.117.79c1.186 0 2.372-.197 3.36-.593a1.782 1.782 0 0 0 1.186-1.186c.012-.036.024-.073.034-.109-.143.218-.286.362-.43.505-.197.197-.592.395-.79.593-1.186.593-2.372.593-3.558.79h.198zm4.546-3.36c-.79-2.174-2.372-3.953-3.953-5.535-.791-.79-1.582-1.581-2.372-2.57-.791-.988-1.384-1.976-1.977-2.965-2.175-4.15-2.768-9.093-2.372-13.639.092-1.104.227-2.208.464-3.272a31.67 31.67 0 0 0-.267 2.284c-.395 4.546.396 9.29 2.372 13.441.594.989 1.187 1.977 1.78 2.768.79.79 1.58 1.581 2.372 2.57 1.581 1.779 3.36 3.36 4.15 5.93.198.593.198 1.383 0 2.174a2.81 2.81 0 0 1-.163.286c.163-.556.152-1.101-.034-1.472zm-8.895-31.43c.593-.988 1.186-1.977 2.174-2.767.989-.593 1.977-1.186 3.163-1.582 4.546-1.186 9.29-.197 14.035-.197 2.372 0 4.941.197 6.523-1.582.79-.79 1.581-1.779 2.174-2.767.593-.989.989-2.175 1.384-3.163.593-2.372.988-4.546 1.186-6.918.395-2.372.593-4.745.988-6.919.396-2.372 1.186-4.546 2.57-6.523 1.384-1.977 3.36-3.36 5.535-4.349 2.174-1.186 4.546-1.384 6.918-.79 2.372.395 4.35 1.58 6.524 2.767a15.23 15.23 0 0 1 1.701.946 47.088 47.088 0 0 0-2.492-1.737c-1.977-1.186-4.151-2.372-6.326-2.767-2.372-.593-4.744-.198-6.72.79-1.977.989-3.954 2.373-5.338 4.35-1.383 1.778-2.174 4.15-2.57 6.325-.395 2.372-.592 4.546-.988 6.918-.395 2.372-.79 4.547-1.186 6.919-.197 1.186-.79 2.372-1.383 3.36a14.927 14.927 0 0 1-2.175 2.768c-.988.988-2.174 1.383-3.36 1.581-1.186.198-2.372.395-3.558.198-4.744-.198-9.489-.989-13.837.197-1.186.198-2.175.791-2.965 1.384-.791.593-1.582 1.581-1.977 2.57-.67 1.339-1.067 2.859-1.315 4.437.273-1.222.68-2.392 1.315-3.449zM35.443 206.2c.15.334.29.762.325 1.1a1.5 1.5 0 0 1 .206-.24c.198-.199.396-.199.396-.199.197 0 0 0 0 0-.198 0-.396-.197-.593-.395a18.116 18.116 0 0 1-.334-.266zm.334 1.254c0-.048-.003-.1-.009-.153-.097.153.009.153.009.153zm17.392-22.146l.003.007c.057-.057.048-.048-.003-.007zm-17.362-8.786zm6.513-7.243a4.36 4.36 0 0 1 1.312.016c-.48-.075-.926-.085-1.312-.016z"/></g></g><g><g><path fill="#fcc01b" d="M125.322 116.92c7.116 10.476 4.546 24.709-5.93 31.825-10.477 7.116-38.546 13.244-45.662 2.767-7.117-10.476 9.29-33.604 19.767-40.72 10.476-7.116 24.709-4.349 31.825 6.128z"/></g><g><path fill="#2c394e" d="M125.322 117.117c3.953 5.733 5.14 13.442 2.57 20.36-1.186 3.36-2.965 6.524-5.535 8.896-2.372 2.57-5.535 4.349-8.698 5.732-6.523 2.768-13.441 4.547-20.36 5.14-3.558.197-7.116.197-10.477-.396-3.36-.593-6.918-1.976-8.895-4.744-1.976-2.965-1.976-6.72-1.383-10.081.593-3.558 1.976-6.72 3.558-9.884 3.36-6.127 7.709-11.86 12.65-16.802 2.57-2.57 5.338-4.744 8.5-6.128 3.163-1.581 6.721-2.174 10.28-1.976 7.116.197 13.837 4.15 17.79 9.883zm.198-.197c-3.954-5.93-10.675-9.884-17.989-9.884-3.558-.198-7.116.198-10.476 1.581-3.36 1.384-6.326 3.558-8.895 5.93-5.14 4.942-9.686 10.477-13.244 16.803-1.78 3.162-3.163 6.523-3.954 10.279-.395 1.779-.593 3.755-.395 5.732 0 1.977.79 3.954 1.977 5.733 1.186 1.581 2.965 2.965 4.744 3.755 1.779.791 3.755 1.186 5.534 1.582 3.559.593 7.314.593 10.872.197 7.117-.79 14.035-2.965 20.558-5.93 3.36-1.581 6.326-3.558 8.896-6.128 2.57-2.57 4.15-5.93 5.337-9.29 2.372-6.721 1.186-14.628-2.965-20.36z"/></g></g><g><g><path fill="#fff" d="M125.322 116.92c4.942 7.313 3.163 17.197-4.151 22.139-7.116 4.942-30.244 9.488-33.802 3.756-3.954-6.128 8.895-24.907 16.011-29.849 7.117-5.14 17-3.163 21.942 3.954z"/></g><g><path fill="#2c394e" d="M125.322 116.92zm1.779 14.43c-.79 2.372-2.372 4.348-4.151 6.128-1.977 1.779-4.151 2.767-6.523 3.755a63.221 63.221 0 0 1-14.628 3.558c-2.57.396-4.942.593-7.512.396-1.383 0-2.57-.198-3.755-.593-1.186-.396-2.372-.989-3.163-1.977-.79-.988-.79-2.372-.79-3.558.197-1.384.395-2.57.79-3.756.593-2.372 1.779-4.744 2.965-6.918 2.57-4.547 5.535-8.5 8.895-12.256 1.78-1.78 3.756-3.36 5.93-4.547 2.372-.988 4.745-1.58 7.314-1.58 5.14.197 10.082 2.767 12.849 6.918-2.767-4.152-7.71-6.919-12.651-7.512-2.57-.198-5.14.395-7.512 1.581s-4.348 2.966-6.127 4.745c-3.559 3.755-6.524 7.906-9.093 12.255-1.186 2.175-2.372 4.349-3.163 6.919-.395 1.383-.593 2.57-.79 3.953-.198 1.384 0 2.768.79 4.151.79 1.384 2.372 1.977 3.558 2.372 1.384.396 2.57.593 3.953.593 2.57.198 5.14 0 7.71-.395 4.941-.79 9.883-1.977 14.627-3.953 2.372-.989 4.745-2.175 6.524-3.954 1.779-1.779 3.36-3.953 4.15-6.325 1.78-4.744.99-10.28-1.976-14.43 2.767 4.15 3.558 9.686 1.779 14.43z"/></g></g><g><path fill="#2c394e" d="M149.043 100.71c-10.872-16.209-29.849-14.627-41.116-6.127-10.872 8.104-9.488 21.941-1.186 34.988 9.093 12.453 21.546 18.778 33.011 11.662 11.86-7.314 20.36-24.313 9.29-40.522z"/></g><g><path fill="#2c394e" d="M204.193 112.57s.593 12.256-1.384 20.559c-3.558 15.023-23.72 34.79-39.139 36.371-3.755.396 4.35-10.476 6.326-19.174 1.977-8.104.593-13.046.79-20.953.396-11.465 33.407-16.802 33.407-16.802z"/></g><g><path fill="#2c394e" d="M156.554 44.176s-11.267-4.546-19.965-5.534c-15.22-1.582-40.72 11.07-47.243 25.104-1.582 3.36 11.267-.593 20.162.198 8.302.988 12.454 3.755 20.163 6.127 11.07 3.36 26.883-25.895 26.883-25.895z"/></g><g><g><g><path fill="#fff" d="M279.11 10.967c8.105 12.058-4.15 55.349-38.94 80.453-34.79 25.302-86.383 50.01-107.139 20.162-18.779-27.08 18.977-70.766 55.348-93.894 36.767-23.523 82.232-19.372 90.732-6.72z"/></g><g><path fill="#2c394e" d="M281.285 17.293c.396 2.174.396 4.546.198 6.72-.395 4.35-1.384 8.698-2.57 13.047-2.57 8.5-6.325 16.802-11.07 24.314-4.744 7.511-10.278 14.628-16.802 20.755-6.523 6.128-13.837 11.268-21.348 16.21a229.456 229.456 0 0 1-23.326 13.441c-8.104 3.954-16.406 7.512-24.906 9.884-8.698 2.372-17.593 3.756-26.488 2.57-4.349-.594-8.698-1.977-12.454-4.35-3.755-2.174-7.116-5.336-9.488-9.092-2.57-3.558-4.151-7.907-4.546-12.256-.396-4.546 0-8.895 1.186-13.244 2.174-8.697 6.523-16.604 11.662-23.918 10.28-14.628 23.523-27.081 37.953-37.558 7.314-5.337 14.826-10.081 23.128-13.64 8.302-3.557 16.802-6.127 25.697-7.708C236.81.886 245.901.49 254.797 1.282c4.349.395 8.895 1.186 13.046 2.57 2.175.79 4.152 1.58 6.128 2.767 1.977 1.186 3.756 2.57 4.942 4.348 1.384 1.78 1.977 3.954 2.372 6.326zm-1.977-6.523c-1.186-1.977-3.162-3.36-4.941-4.744-1.977-1.186-3.954-1.977-6.128-2.768-4.349-1.383-8.698-2.174-13.244-2.767-8.895-.989-17.988-.395-26.884.988-8.895 1.582-17.79 3.756-26.092 7.314-8.5 3.36-16.21 8.105-23.72 13.244-7.315 5.14-14.431 10.872-21.152 17-6.72 6.325-13.046 12.849-18.383 20.36-5.337 7.512-9.884 15.616-12.454 24.907-1.383 4.546-1.976 9.488-1.383 14.43.395 4.942 2.174 9.883 4.941 14.035 2.768 4.15 6.326 7.709 10.675 10.278 4.15 2.57 9.093 4.152 13.837 4.745 9.686 1.186 18.976-.396 27.872-2.965 8.895-2.57 17.197-6.524 25.302-10.675 7.906-4.15 15.616-8.895 23.127-14.034 3.558-2.57 7.314-5.14 10.872-7.907 3.756-2.768 7.116-5.93 10.28-9.093 6.522-6.326 11.86-13.64 16.603-21.349 4.547-7.71 8.5-16.011 10.872-24.709 1.186-4.349 2.175-8.697 2.373-13.244.197-2.174.197-4.546-.198-6.72-.198-2.175-.79-4.35-2.175-6.326z"/></g></g><g><g><path fill="#eb8807" d="M180.275 70.467c0-6.223 5.044-11.268 11.267-11.268s11.267 5.045 11.267 11.268c0 6.222-5.044 11.267-11.267 11.267s-11.267-5.045-11.267-11.267z"/></g><g><path fill="#2c394e" d="M202.612 71.06c-.198 2.767-1.582 5.535-3.558 7.709-2.175 1.977-5.14 2.965-7.907 2.767-2.965-.197-5.733-1.581-7.512-3.755-1.977-2.175-2.965-5.14-2.767-7.907.197-2.768 1.383-5.535 3.558-7.512 2.174-1.977 5.14-2.965 7.907-2.767 2.767 0 5.535 1.383 7.511 3.558 1.977 2.174 2.965 4.942 2.768 7.907zm-.198-4.744c-.395-1.582-.988-2.965-1.977-4.152-1.779-2.57-4.744-4.546-8.104-5.139-3.36-.593-7.314.198-10.28 2.372-1.58 1.186-2.964 2.57-3.755 4.349-.988 1.779-1.384 3.558-1.581 5.535 0 1.976.395 3.953.988 5.732.79 1.78 1.779 3.36 3.163 4.744 2.767 2.57 6.523 3.756 9.883 3.558 3.558-.197 6.721-1.779 8.698-4.15 1.186-.99 1.977-2.373 2.57-3.756.593-1.384.988-2.768.988-4.35 0-1.58-.198-2.964-.593-4.743z"/></g></g><g><g><path fill="#fcc01b" d="M162.682 86.083a5.535 5.535 0 1 1 11.07 0 5.535 5.535 0 0 1-11.07 0z"/></g><g><path fill="#2c394e" d="M173.554 86.28c0 1.582-.79 2.768-1.78 3.559-1.185.988-2.569 1.58-3.953 1.383-1.383 0-2.57-.79-3.558-1.779-.79-.988-1.186-2.372-1.186-3.756a6.133 6.133 0 0 1 1.78-3.558c.988-.988 2.371-1.383 3.755-1.383s2.768.79 3.558 1.581c.989 1.186 1.384 2.57 1.384 3.953zm.395 0c.198-1.383-.197-2.965-1.186-4.546-.79-1.581-2.174-2.767-4.15-3.36-1.78-.593-4.152-.396-6.129.988-1.779 1.186-3.162 3.558-3.36 5.93-.198 2.372.79 4.744 2.57 6.326 1.779 1.581 4.15 2.174 6.127 1.779 1.977-.396 3.559-1.384 4.547-2.768.988-1.383 1.384-2.767 1.581-4.349z"/></g></g><g><path fill="#2c394e" d="M213.088 6.026c31.43-10.477 57.918-5.733 66.22 4.941 6.128 7.907 2.372 35.581-17.197 59.5 0 0-21.942 2.965-39.534-21.547-15.221-21.348-9.489-42.894-9.489-42.894z"/></g></g></g></g></svg>