<svg xmlns="http://www.w3.org/2000/svg" width="273" height="236" viewBox="0 0 273 236"><g><g><g><path fill="#fcc01b" d="M21.578 122.74c0-62.37 50.562-112.932 112.933-112.932 62.37 0 112.932 50.561 112.932 112.932 0 62.37-50.561 112.932-112.932 112.932S21.578 185.111 21.578 122.74z"/></g><g><g><path fill="#2c394e" d="M177.552 166.601c-14.552-11.068-30.744-3.689-38.122 7.174-6.969 10.453-1.64 22.135 9.633 31.154 11.888 8.198 24.595 9.838 32.588.205 8.404-10.248 10.658-27.875-4.099-38.533z"/></g><g><path fill="#2c394e" d="M229.612 160.043s4.304 10.452 5.124 18.446c1.64 14.142-10.248 37.917-23.366 43.861-3.074 1.435.615-10.453-.204-18.651-.82-7.789-3.485-11.478-5.74-18.651-3.074-10.248 24.186-25.005 24.186-25.005z"/></g><g><path fill="#2c394e" d="M166.894 114.542s-11.272-.615-19.266 1.23c-13.937 3.279-32.383 22.135-33.818 36.482-.41 3.484 9.633-4.1 17.831-5.944 7.584-1.844 12.093-.41 19.472-.82 10.862-.204 15.781-30.948 15.781-30.948z"/></g><g><g><g><path fill="#fff" d="M264.455 47.725c10.863 7.993 13.117 50.01-9.633 82.599-22.75 32.793-60.668 70.3-88.133 50.42-24.8-18.037-4.919-68.047 19.881-99.406 25.21-31.768 66.407-42.016 77.885-33.613z"/></g><g><path fill="#2c394e" d="M264.25 47.93c1.64 1.23 2.87 3.074 3.484 4.919 1.025 1.845 1.64 3.69 2.255 5.739a63.724 63.724 0 0 1 1.844 12.297c.41 8.404-.41 16.602-2.254 24.8a106.09 106.09 0 0 1-8.403 23.366c-3.69 7.378-8.609 14.142-13.733 20.7-10.043 13.118-21.52 25.62-35.048 35.254-6.763 4.714-14.142 8.813-22.34 10.453-4.1.82-8.199.82-12.298 0s-7.788-2.665-11.068-5.124c-3.279-2.46-5.943-5.74-7.788-9.429-1.845-3.689-2.665-7.788-3.074-11.887-.615-8.404.82-16.602 3.074-24.595 4.714-15.987 12.502-30.95 21.93-44.681 4.715-6.969 9.839-13.323 15.987-19.062 6.15-5.533 12.913-10.453 20.086-14.552a97.578 97.578 0 0 1 23.16-9.223c4.1-.82 8.2-1.64 12.298-1.64 4.1-.204 8.404.205 11.888 2.665zm.205-.205c-3.484-2.664-7.993-3.074-11.888-2.87-4.304 0-8.403.615-12.502 1.64-8.199 1.845-15.987 5.124-23.366 9.018-7.378 4.1-14.347 8.814-20.7 14.348-6.354 5.533-11.888 12.092-16.807 18.856-4.92 6.968-9.633 14.142-13.527 21.52-4.1 7.584-7.584 15.372-10.043 23.57-2.46 8.2-4.1 16.807-3.485 25.826.205 4.509 1.23 9.018 3.28 13.322 2.05 4.304 5.124 8.198 8.813 11.068 3.69 2.664 7.993 4.919 12.707 5.739 4.51.82 9.224.615 13.733-.205 9.018-1.845 16.806-6.354 23.775-11.273 6.969-5.124 13.117-11.068 18.856-17.217 5.739-6.148 11.068-12.707 15.987-19.47 2.46-3.485 4.919-6.97 7.174-10.454a95.95 95.95 0 0 0 6.148-11.067c3.69-7.789 6.354-15.782 7.994-23.98 1.64-8.199 2.46-16.602 2.05-25.006-.41-4.304-.82-8.403-2.05-12.502-.615-2.05-1.23-4.1-2.255-5.944-1.025-1.845-2.254-3.69-3.894-4.919z"/></g></g><g><g><path fill="#eb8807" d="M195.179 126.84c0-5.774 4.68-10.454 10.453-10.454s10.453 4.68 10.453 10.453-4.68 10.453-10.453 10.453-10.453-4.68-10.453-10.453z"/></g><g><path fill="#2c394e" d="M214.445 132.168c-1.435 2.255-3.69 4.1-6.149 4.714-2.46.615-5.329.205-7.583-1.025-2.255-1.434-4.1-3.689-4.714-6.148-.82-2.46-.41-5.33.82-7.584 1.23-2.46 3.484-4.099 5.943-4.919 2.665-.82 5.534-.41 7.789.82 2.46 1.435 4.099 3.484 4.919 6.149.615 2.46.41 5.329-1.025 7.993zm1.435-8.198a23.222 23.222 0 0 0-1.845-4.1 10.979 10.979 0 0 0-3.074-3.074c-2.46-1.844-5.534-2.664-8.814-2.254-3.279.41-6.558 2.254-8.608 5.329-1.025 1.64-1.845 3.279-2.05 5.124-.205 1.844 0 3.689.41 5.533.615 1.845 1.435 3.485 2.665 4.92 1.23 1.434 2.664 2.459 4.304 3.279 3.28 1.435 7.174 1.435 10.043 0 3.074-1.435 5.329-3.894 6.354-6.559.615-1.23 1.025-2.664 1.025-4.099.204-1.435 0-2.87-.41-4.1z"/></g></g><g><g><path fill="#fcc01b" d="M184.726 147.745a5.124 5.124 0 1 1 10.248 0 5.124 5.124 0 0 1-10.248 0z"/></g><g><path fill="#2c394e" d="M194.769 146.515c.615 2.46-1.025 5.33-3.485 6.15-2.459.614-5.328-1.026-5.943-3.485-.82-2.255.82-5.33 3.279-5.944 2.46-.82 5.534.615 6.149 3.28zm-2.05-4.099c-1.23-1.025-3.074-1.64-4.919-1.64-1.844.205-3.894 1.025-5.329 2.87-1.434 1.844-1.844 4.304-1.23 6.559.615 2.254 2.46 4.099 4.51 4.919 2.254.82 4.509.614 6.148-.41a6.89 6.89 0 0 0 3.28-4.1c.41-1.434.41-2.869 0-4.304-.41-1.434-1.23-2.664-2.46-3.894z"/></g></g><g><path fill="#2c394e" d="M204.812 63.712c24.39-18.856 49.19-22.75 59.643-15.987 7.993 5.124 12.912 30.539 3.074 57.594 0 0-18.241 9.223-41.196-6.764-19.882-13.937-21.521-34.843-21.521-34.843z"/></g></g></g><g><g><path fill="#2c394e" d="M69.539 96.505c8.813-7.173 18.036-13.527 27.26-19.676 9.427-6.149 18.856-11.887 29.308-17.216 5.534-2.46 11.273-4.305 17.012-5.74 5.944-1.229 11.888-2.049 18.651-1.639 3.28.41 6.764.82 10.863 2.87 2.05 1.024 4.304 2.664 5.944 5.533.82 1.435 1.435 3.075 1.435 4.714.205 1.64 0 3.075-.205 4.51-.205 1.23-.615 2.46-1.23 3.484-.205.41-.615 1.23-1.025 1.845-.41.614-.82 1.23-1.23 1.64-1.64 1.844-3.279 3.074-4.919 4.098-3.074 1.845-5.943 3.075-8.608 4.305-5.534 2.254-10.658 3.894-15.577 5.943a108.352 108.352 0 0 0-6.763 3.075c-2.05 1.025-3.69 2.46-4.51 3.28-.41.409-.614.819-.614 1.024v.615l.205.205c.205.205.615.615 1.434 1.025 1.435.82 3.895 1.434 6.15 2.05 2.459.409 5.123.819 7.788 1.229 5.328.615 10.862 1.025 16.806 2.05 2.87.614 5.944 1.23 8.813 2.254 2.87 1.025 5.74 2.255 8.404 3.69 5.534 2.869 10.043 7.378 13.527 11.682.41.41 1.025 1.025 1.435 1.64.41.614 1.025 1.23 1.434 1.64.82 1.229 1.845 2.254 2.46 3.484 1.435 2.46 2.87 4.919 3.894 7.583l-.615.41c-2.87-4.714-6.148-9.223-10.453-12.707-2.05-1.845-4.099-3.69-6.558-5.33-2.255-1.64-4.714-2.869-7.174-4.099-10.248-4.509-21.52-4.304-32.588-5.329-5.534-.614-11.273-1.024-16.602-3.279-1.23-.615-2.664-1.435-3.69-2.46-1.024-1.024-1.844-2.459-2.254-3.894-.82-2.869.205-6.148 2.05-8.403 1.844-2.254 4.304-3.894 6.763-5.329 2.46-1.435 5.124-2.46 7.584-3.69 5.124-2.049 10.453-3.893 15.577-5.943 2.46-1.025 5.124-2.05 7.378-3.484a9.075 9.075 0 0 0 3.075-2.46c.82-.82 1.434-2.05 1.64-3.28.204-1.229.204-2.459-.41-3.483-.615-1.025-1.64-1.845-2.665-2.46-2.255-1.23-5.124-1.64-7.788-2.05-5.534-.41-11.068 0-16.397 1.025a73.98 73.98 0 0 0-15.782 4.92c-10.043 4.508-20.086 9.632-29.72 14.961-9.837 5.33-19.47 10.658-29.103 16.397z"/></g></g><g><g><g><g><path fill="#fff" d="M26.292 120.28c-4.714 2.255-14.552-5.123-15.167-.82-1.024 9.019 13.323 17.012 20.701 13.323 9.428-4.714 13.733-23.98 7.994-26.235-4.1-1.64-7.789 10.863-13.528 13.733z"/></g><g><path fill="#2c394e" d="M26.292 120.076c1.64-.82 3.075-2.46 4.305-4.1 1.23-1.64 2.254-3.279 3.279-4.919 1.025-1.64 2.05-3.484 3.894-4.509.41-.205 1.025-.41 1.435-.41.615 0 1.025.205 1.435.615.82.615 1.434 1.64 1.64 2.665.614 2.05.41 4.099.204 5.944-.205 2.05-.82 3.894-1.435 5.738-1.434 3.69-3.279 7.379-6.353 10.043-1.435 1.23-3.28 2.46-5.534 2.665-2.05.205-4.1 0-5.944-.615-3.894-1.23-7.379-3.484-9.838-6.559-1.23-1.64-2.05-3.484-2.255-5.534v-1.434c0-.41.205-1.23.82-1.435 1.025-.41 2.05-.205 3.075 0 1.844.615 3.689 1.23 5.738 1.845 1.64.41 3.69.82 5.534 0zm0 .41c-1.844.82-4.099.41-5.943 0-2.05-.41-3.895-1.025-5.74-1.435-.82-.205-2.049-.205-2.254.205v.615c0 .41 0 .82.205 1.23.41 1.639 1.23 3.279 2.46 4.508 2.46 2.46 5.739 4.305 9.223 5.124 1.64.41 3.28.615 4.714.41.82-.205 1.435-.41 1.844-.615l1.845-1.23c2.46-2.254 4.51-5.328 5.944-8.608 1.435-3.279 2.46-7.173 1.845-10.452-.205-.82-.41-1.435-.82-1.845-.41-.41-.615-.615-1.23-.205-1.435.615-2.665 2.46-3.894 3.894-1.23 1.64-2.255 3.28-3.69 4.714-1.23 1.23-2.664 2.665-4.509 3.69z"/></g></g><g><g><g><path fill="#fff" d="M16.864 112.902c-.205-3.894.82-6.559-1.64-7.174-2.459-.41-6.353 2.255-6.353 6.354 0 1.025.41 2.05.82 3.075h-.41c-4.51.82-7.379 5.124-6.559 9.633.82 4.509 5.124 7.378 9.633 6.558 4.51-.82 7.379-5.124 6.559-9.633-.205-1.434-.615-3.28-1.435-4.304.205-1.435-.41-2.46-.615-4.509z"/></g><g><path fill="#2c394e" d="M17.07 112.902c0 .82.204 1.435.41 2.255.204.614.41 1.434.614 2.254v-.205c.615.82.82 1.64 1.025 2.665.205.82.41 1.844.615 2.664.205 1.845-.205 3.894-1.435 5.329-2.05 3.28-6.354 4.714-10.043 3.484-3.69-1.23-6.149-5.124-5.739-9.018.397-3.57 3.288-6.947 7.002-7.534-.702-1.547-1.013-3.258-.443-4.968.615-1.845 2.05-3.28 3.69-3.895.819-.41 1.844-.615 2.664-.41.41 0 1.024.205 1.23.615.41.41.41.82.614 1.435.205 1.845-.205 3.69-.205 5.329zm-.41 0c-.206-1.845.204-3.69-.206-5.329-.205-1.64-2.254-1.435-3.484-.615-1.23.82-2.05 2.255-2.255 3.484-.204 1.23.41 2.255 1.23 3.28l2.05 2.46-3.894 1.23c-2.46.819-3.69 3.278-3.895 5.123 0 .615 0 1.025.205 1.435 0 .41.205 1.025.615 1.434.615.82 1.23 1.64 2.255 2.255 1.844 1.23 5.124 1.025 7.173-1.025 1.025-1.025 1.64-2.664 1.845-4.304 0-.82-.205-1.845-.205-2.664-.205-.82-.41-1.845-.82-2.46 0-.615-.205-1.435-.41-2.254 0-.41-.205-1.23-.205-2.05z"/></g></g><g><g><path fill="#fff" d="M16.454 120.69c1.435 3.895.82 7.789-2.87 9.224-3.688 1.434-7.378-.82-8.812-4.714-1.435-3.895-.41-7.789 3.279-9.224 3.69-1.434 6.969.82 8.403 4.714z"/></g><g><path fill="#2c394e" d="M16.25 120.895c.614 1.64 1.024 3.485.82 4.92-.41 1.844-1.845 3.074-3.485 3.689-1.845.615-3.69.615-5.124-.41-1.64-1.025-2.665-2.46-3.28-4.1-.614-1.64-.82-3.484-.41-5.123.41-1.64 1.64-3.075 3.28-3.69 1.435-.615 3.484-.615 4.919.41 1.64 1.025 2.665 2.665 3.28 4.304zm-2.665-5.124c-1.435-1.434-4.1-2.05-6.354-1.64-1.23.206-2.46.82-3.484 1.64-1.025.82-1.845 2.05-2.46 3.28-1.024 2.46-.82 5.329 0 7.583.82 2.46 2.665 4.51 5.124 5.74 2.46 1.229 5.534.819 7.584-.41 2.254-1.23 3.69-3.485 3.69-5.535.204-2.254-.41-3.894-1.026-5.739-.615-1.64-1.434-3.484-3.074-4.919z"/></g></g></g></g><g><g><path fill="#fff" d="M100.078 102.859c9.838 6.764 18.651 11.068 15.167 14.347-5.124 4.51-16.192 1.025-26.03-5.534-9.838-6.763-14.962-14.142-9.633-18.651 3.689-3.28 10.658 3.074 20.496 9.838z"/></g><g><path fill="#2c394e" d="M99.873 103.064c3.484 2.255 6.968 4.51 10.043 6.764 1.64 1.23 3.484 2.46 4.714 3.894.615.615 1.025 1.64.615 2.46a2.47 2.47 0 0 1-1.025 1.024c-.41.41-.82.615-1.23.82-1.845.82-3.894 1.025-5.944.82-2.05-.205-4.099-.82-5.944-1.435a60.303 60.303 0 0 1-10.862-5.534c-3.485-2.254-6.764-4.714-9.428-7.788-1.23-1.435-2.46-3.28-3.075-5.124-.615-1.845-.205-3.894 1.23-5.33 1.23-1.639 3.484-1.434 5.329-.614 1.844.82 3.69 1.845 5.329 3.074l10.248 6.969zm-4.714-3.894l-4.92-3.894c-1.64-1.23-3.279-2.665-5.328-3.69-.82-.615-2.05-1.025-3.485-1.025-.82 0-1.434.205-2.254.41-.41.205-.615.41-1.025.615-.41.205-.615.41-.82.615-1.025.82-1.844 2.05-2.254 3.484-.615 1.435-.41 2.87-.205 4.305.615 2.664 1.844 4.714 3.279 6.558 2.664 3.69 6.149 6.354 9.838 8.814 3.69 2.459 7.789 4.304 12.093 5.533 2.05.615 4.509 1.025 6.763 1.025 2.46 0 4.92-.41 7.174-1.64.615-.41 1.23-.82 1.64-1.23.41-.41 1.024-1.024 1.434-1.844.41-.82.615-1.844.205-2.664a3.963 3.963 0 0 0-1.025-1.845c-1.64-1.64-3.484-2.664-5.329-3.69l-5.328-3.074-5.33-3.279z"/></g></g><g><g><path fill="#fff" d="M87.165 123.56c-7.993 3.074-6.763 12.502-5.534 15.987l6.354 18.036c2.255 6.149 9.633 18.037 16.602 15.372 6.763-2.664 3.484-16.807 2.05-23.16l-5.33-17.832c-1.434-3.484-6.148-11.478-14.142-8.403z"/></g><g><path fill="#2c394e" d="M86.96 123.56c2.46-1.025 5.33-1.025 7.789.205 2.46 1.23 4.099 3.28 5.534 5.534.615 1.025 1.23 2.46 1.434 3.689l1.025 3.69 2.255 7.378c.615 2.46 1.64 4.919 2.05 7.583.614 2.46 1.024 5.124 1.434 7.584.41 2.664.41 5.124 0 7.788-.205 1.23-.615 2.665-1.23 3.894-.615 1.23-1.844 2.255-3.074 2.665-1.23.41-2.87.41-4.1 0-1.23-.41-2.459-1.23-3.484-2.05-2.05-1.64-3.689-3.689-5.124-5.944-1.434-2.254-2.664-4.509-3.689-6.968l-2.664-7.379-2.46-7.378c-.82-2.46-1.844-4.92-2.254-7.379-.41-2.664-.205-5.329.82-7.788 1.23-2.46 3.279-4.304 5.738-5.124zm.205.205c-2.46 1.025-4.304 2.87-5.329 5.124-1.024 2.254-.82 4.919-.41 7.378.205 1.23.615 2.46 1.23 3.485l1.64 3.484 3.074 7.173c1.025 2.255 2.05 4.92 3.075 6.97 1.024 2.049 2.46 4.098 3.894 5.943 1.435 1.845 3.074 3.69 4.714 4.714.82.615 1.64 1.025 2.254 1.23.615.205 1.025.205 1.435 0 .41-.205.615-.205 1.025-.82.41-.41.615-1.435.82-2.255.41-2.05.41-4.304.205-6.763-.205-2.46-.41-4.92-.82-7.379l-.205-1.844-.41-1.845-.82-3.69-1.64-7.583-.82-3.894.206-.82c0-.205-.205-.615-.205-.82-.205-.615-.41-1.23-.82-1.64-1.23-2.254-2.665-4.304-4.92-5.533-2.049-1.435-4.713-1.435-7.173-.615z"/></g></g><g><g><path fill="#fff" d="M49.043 139.137c7.378-4.304 13.937 2.46 15.987 5.534l10.248 16.191c3.484 5.534 8.198 18.652 1.844 22.546-6.353 3.69-15.372-7.584-19.47-12.708L46.992 155.33c-2.05-3.075-5.329-11.683 2.05-16.192z"/></g><g><path fill="#2c394e" d="M49.248 139.342c2.05-1.23 4.714-1.64 6.968-.82 2.46.82 4.51 2.46 6.15 4.304.819.82 1.434 1.845 2.049 3.074l1.844 3.485 3.69 6.968c1.024 2.255 2.46 4.714 3.484 6.764 1.025 2.05 1.64 4.51 2.255 6.764.614 2.254.82 4.509.82 6.558 0 .82-.206 1.845-.41 2.46-.41.615-.615 1.025-1.025 1.23-.41.205-.615.205-1.23.205-.41 0-1.435-.41-2.255-.82-1.844-1.025-3.689-2.46-5.534-4.1-1.64-1.64-3.484-3.279-5.328-5.123l-2.46-2.87-2.46-2.87-4.919-5.943-2.459-2.87-.615-.82c-.205-.41-.41-.614-.615-.82-.205-.614-.615-1.024-.82-1.639-1.024-2.05-1.64-4.714-1.23-7.173.206-2.46 1.845-4.715 4.1-5.944zm-.205-.41c-2.255 1.435-4.1 3.69-4.304 6.149-.41 2.664 0 5.329 1.025 7.788.41 1.23 1.024 2.46 1.844 3.484l2.255 3.075 4.509 6.353c1.435 2.255 2.87 4.305 4.509 6.354 1.64 1.845 3.28 3.894 5.124 5.74 1.845 1.844 3.894 3.688 6.149 4.918 1.024.615 2.254 1.23 3.689 1.435 1.23.205 2.664 0 3.894-.82 1.025-.615 2.05-1.845 2.255-3.28.41-1.23.615-2.664.615-3.894 0-2.664-.615-5.329-1.435-7.788-.82-2.46-1.845-4.92-3.075-7.174l-4.099-6.558-4.304-6.56c-1.435-2.049-2.664-4.508-4.509-6.353-1.845-1.844-3.894-3.484-6.559-4.099-2.46-.615-5.329-.205-7.583 1.23z"/></g></g><g><g><path fill="#fff" d="M54.577 82.568c-22.34 6.559-20.291 41.812-15.372 58.208 4.919 16.397 14.142 28.49 38.532 21.316 24.595-7.378 26.03-22.135 21.316-38.737-7.584-25.415-22.136-47.14-44.476-40.787z"/></g><g><path fill="#2c394e" d="M54.577 82.363c4.714-1.435 9.838-1.64 14.552-.205 4.714 1.435 9.018 4.304 12.502 7.789 6.969 6.968 11.478 15.986 14.962 25.21 1.64 4.714 3.28 9.223 4.1 14.142.82 4.919 1.23 9.838-.205 14.757-1.435 4.919-4.51 9.018-8.609 11.887-4.099 2.87-8.608 4.92-13.322 6.354-4.714 1.435-9.633 2.46-14.552 2.255-4.92 0-10.043-1.435-13.937-4.51-3.895-3.074-6.764-7.378-8.609-11.887-1.844-4.51-3.279-9.223-4.099-14.142-1.64-9.633-2.05-19.676-.205-29.31 1.025-4.713 2.665-9.632 5.534-13.527 2.87-4.304 6.969-7.378 11.888-8.813zm0 .41c-4.714 1.435-8.813 4.51-11.478 8.403-2.664 3.895-4.304 8.814-5.124 13.528-1.435 9.633-.615 19.47 1.435 28.694a57.049 57.049 0 0 0 4.714 13.322c2.05 4.1 4.714 7.789 7.993 10.248 6.764 4.92 16.397 3.894 25.21 1.23 8.813-2.665 17.217-7.174 19.676-15.167 1.23-3.894 1.435-8.608.82-13.117-.615-4.51-2.05-9.224-3.484-13.938-1.435-4.509-3.28-9.018-5.33-13.322-2.254-4.304-4.713-8.403-7.993-11.888-3.279-3.484-7.378-6.353-11.887-7.788-4.714-1.64-9.838-1.435-14.552-.205z"/></g></g><g><g><path fill="#2c394e" d="M81.221.38l-1.024.204c-.82.205-1.23 1.025-1.025 1.845l14.757 50.215c.205.82 1.025 1.23 1.845 1.025l1.024-.205c.82-.205 1.23-1.025 1.025-1.845L83.066 1.404C82.861.584 82.041.174 81.221.38z"/></g><g><path fill="#2c394e" d="M84.5 13.497c-1.639.41-3.279-.41-3.893-2.05l-.82-3.074c-.41-1.64.41-3.28 2.05-3.894 1.639-.41 3.279.41 3.894 2.05l.82 2.869c.614 1.844-.41 3.689-2.05 4.099z"/></g></g><g><path fill="#2c394e" d="M87.653 53.972c-1.687-5.757-.061-11.3 3.632-12.383 3.693-1.082 8.055 2.707 9.742 8.464 1.687 5.757.06 11.302-3.633 12.384-3.693 1.082-8.054-2.708-9.741-8.465z"/></g><g><g><path fill="#fff" d="M96.798 51.21c2.255 7.993 1.435 15.371-3.689 16.806-8.198 2.46-11.273-3.69-13.527-11.683-2.255-7.993-3.485-14.757 5.124-17.216 4.919-1.435 9.633 4.099 12.092 12.092z"/></g><g><path fill="#2c394e" d="M96.593 51.414c.82 3.075 1.435 6.354 1.025 9.633-.205 1.64-.82 3.28-1.64 4.51-.82 1.434-2.254 2.254-3.894 2.459-1.64.41-3.28.41-4.714 0-1.434-.615-2.664-1.64-3.689-2.87-2.05-2.664-2.87-5.943-3.894-9.018-.82-3.074-1.845-6.353-1.64-9.633 0-1.64.615-3.074 1.64-4.304 1.025-1.025 2.664-1.845 4.099-2.46 1.64-.614 3.28-.614 4.714 0 1.435.41 2.664 1.64 3.69 2.87 2.049 2.664 3.279 5.739 4.303 8.813zm.41-.205c-.41-1.64-1.024-3.28-1.434-4.509-.82-1.435-1.435-3.074-2.46-4.509-1.025-1.435-2.05-2.87-3.894-3.894-.82-.41-1.845-.82-2.87-.82-1.024-.205-2.254 0-3.074.205-1.845.615-3.894 1.23-5.534 2.87-1.844 1.434-2.87 3.894-3.074 5.943-.615 4.304.41 7.789 1.23 11.068 1.024 3.28 2.254 6.764 4.919 10.043 1.434 1.64 3.484 3.074 5.738 3.484 2.255.41 4.305 0 6.15-.615.819-.41 1.844-.82 2.664-1.434.82-.82 1.64-1.64 2.05-2.46 1.024-1.844 1.229-3.689 1.229-5.329.205-1.844-.205-3.484-.41-5.124l-1.23-4.919z"/></g></g><g><g><path fill="#fff" d="M7.95 75.962C1.904 55.323 15.405 33.2 38.107 26.547c22.702-6.653 46.008 4.685 52.056 25.323 6.048 20.639-7.453 42.762-30.155 49.415C37.305 107.938 13.998 96.6 7.95 75.962z"/></g><g><path fill="#2c394e" d="M37.975 26.41c5.329-1.435 10.863-2.46 16.397-2.665a36.788 36.788 0 0 1 16.192 3.074c5.124 2.255 9.428 5.944 12.707 10.453 3.28 4.51 5.739 9.633 7.174 14.962 1.434 5.329 2.46 10.863 2.254 16.397-.205 5.534-1.844 11.068-5.124 15.782-3.074 4.714-7.583 8.198-12.297 11.067-4.714 2.87-10.043 4.715-15.372 6.354-5.33 1.435-10.863 2.665-16.397 2.87-5.534.205-11.273-.615-16.397-2.665-5.124-2.254-9.428-5.944-12.707-10.453-3.28-4.509-5.534-9.633-6.969-14.962-1.64-5.329-2.46-10.863-2.05-16.396.41-5.534 2.05-11.068 5.125-15.577 3.074-4.714 7.173-8.404 12.092-11.273 5.124-3.28 10.248-5.33 15.372-6.969zm.205.41c-5.329 1.639-10.248 3.688-14.962 6.558A35.495 35.495 0 0 0 11.74 44.65c-2.87 4.509-4.099 9.838-4.304 15.167-.205 5.329.82 10.657 2.665 15.576a47.265 47.265 0 0 0 7.173 13.938 27.776 27.776 0 0 0 11.683 9.018c4.509 1.845 9.633 2.254 14.757 2.05 5.124-.205 10.248-1.435 15.372-2.87 10.043-3.074 19.88-7.583 25.825-15.577 2.87-4.099 4.509-8.813 5.124-13.937.41-5.124-.205-10.453-1.435-15.577-1.23-5.124-3.28-10.248-6.354-14.552-3.074-4.304-6.968-8.198-11.887-10.453-4.92-2.255-10.248-3.484-15.782-3.28-5.74.206-11.068 1.23-16.397 2.665z"/></g></g><g><g><path fill="#eb8807" d="M55.806 86.667c-21.11 6.149-36.277 0-40.581-14.757-4.305-14.757 3.484-28.9 25.824-35.458 22.341-6.558 36.688 1.025 40.992 15.987 4.304 14.757-5.124 28.08-26.235 34.228z"/></g><g><path fill="#2c394e" d="M55.807 86.667h-.001.001zm-24.186 1.23c-3.894-1.025-7.583-3.074-10.453-5.944-2.869-2.87-4.919-6.559-5.943-10.453-1.025-3.894-1.23-8.198-.41-12.092.82-3.895 2.87-7.584 5.534-10.658 5.533-5.944 13.117-9.633 20.905-11.888 7.789-2.254 16.192-3.484 24.186-1.23 3.894 1.025 7.583 3.075 10.452 5.944 2.87 2.87 4.92 6.559 6.15 10.453 1.229 3.894 1.434 8.198.614 12.093-.82 4.099-3.074 7.583-5.739 10.658-5.738 5.943-13.322 9.633-21.11 11.887 7.788-2.05 15.577-5.739 21.315-11.682 2.87-3.075 5.124-6.764 6.149-10.863 1.025-4.1.82-8.404-.41-12.503s-3.074-7.993-6.149-11.068c-3.074-3.279-6.968-5.533-11.067-6.763-8.404-2.255-17.217-1.23-25.21 1.025-7.994 2.46-15.987 6.148-21.726 12.707-2.665 3.074-4.714 7.174-5.534 11.478-.82 4.304-.41 8.608.82 12.707 1.23 4.1 3.484 7.994 6.559 10.863 2.869 2.87 6.763 4.714 10.862 5.739 8.199 1.844 16.602.615 24.39-1.64-7.788 2.05-16.396 3.28-24.185 1.23z"/></g></g><g><g><g><path fill="#fcc01b" d="M95.774 120.076c0-.205-.615-2.46-.615-2.46-1.64 1.435-2.46 2.255-4.714 3.484-3.895 2.05-13.118 6.15-13.118 6.15l-8.813 2.869-8.813 2.254s-10.043 1.64-14.347 1.845c-2.665.205-3.69 0-5.74-.41 0 0 .616 2.05.82 2.254l1.025 4.1c.205 1.024.82 3.279 5.124 3.689 4.1.41 10.658-.82 16.397-2.05 1.845-.41 5.124-1.434 8.403-2.254 3.28-.82 6.764-2.05 8.404-2.665 5.534-2.05 11.682-4.714 14.962-7.173 3.484-2.665 2.46-4.92 2.254-5.944z"/></g><g><path fill="#2c394e" d="M95.979 129.094c-1.025 1.23-2.46 2.05-3.69 2.87-1.434.819-2.664 1.639-4.099 2.254a77.66 77.66 0 0 1-8.608 3.689c-3.075 1.025-5.944 1.845-9.018 2.87-3.075.82-6.15 1.844-9.224 2.459s-6.148 1.23-9.428 1.435c-1.64.205-3.074.205-4.714.205-1.64-.205-3.28-.41-4.509-1.64-.615-.615-1.025-1.435-1.23-2.05l-.615-2.254c-.41-1.435-.82-3.075-1.23-4.51l-.204-.41c.106.027.214.053.322.078l-.031-.077h.119c1.16.29 2.322.478 3.483.49-1.185.011-2.42-.149-3.57-.413.55 1.365.933 2.885 1.316 4.227.41 1.435.615 3.074 1.845 4.1 1.025 1.024 2.665 1.229 4.304 1.229 1.435 0 3.075 0 4.714-.205 3.075-.41 6.149-1.025 9.223-1.64 1.64-.205 3.075-.82 4.51-1.23l4.509-1.23c3.074-.82 5.943-1.844 9.018-2.664 2.87-1.025 5.944-2.254 8.813-3.28 2.87-1.229 5.739-2.459 7.993-4.713.794-.794 1.342-1.957 1.358-3.108.017 1.295-.54 2.537-1.358 3.518zm-56.57 4.919zm5.33.41l4.495-.562c-1.5.187-3.015.374-4.7.562-.4.05-.812.075-1.23.08.478.004.956-.02 1.435-.08zm4.919-.615c3.28-.41 6.763-1.025 10.043-1.435l8.813-2.46c2.87-1.024 5.739-1.844 8.813-2.869 3.075-1.435 6.149-2.664 9.223-4.099.298-.128.605-.255.918-.385-.242.124-.48.252-.713.385-3.074 1.435-6.148 3.074-9.223 4.51-2.87 1.024-5.739 2.049-8.813 2.869-3.074.82-5.944 1.434-9.018 2.254-3.28.41-6.764.82-10.043 1.23l-.424.053.424-.053zm41.606-12.913c1.388-.792 2.775-1.776 3.976-2.952l-.04-.164c-1.176 1.158-2.369 2.128-3.936 2.911-1.202.687-2.547 1.23-3.796 1.87 1.197-.494 2.497-1.015 3.796-1.665zm4.1-3.074v.205l.41 2.05-.534-2.133.124-.122zm-.165-.042l.165-.163h-.205zm-55.584 16.029l-.205.205h.29a14.113 14.113 0 0 0-.085-.205zm-.205.205zm57.926-8.437a3.43 3.43 0 0 0-.128-.991c.083.331.124.663.128.99z"/></g></g><g><g><path fill="#eb8807" d="M72.408 127.454c5.534-1.64 6.969-.41 8.199 3.484 1.23 4.1 1.23 7.379-4.305 9.633-2.254.82-6.148 2.255-8.608 2.46-5.739.82-7.788-2.05-8.813-5.739-1.025-3.69.205-5.944 4.919-7.378z"/></g><g><path fill="#2c394e" d="M72.408 127.659c1.23-.41 2.46-.615 3.894-.41 1.23 0 2.46.41 2.87 1.64.615 1.23.82 2.46 1.025 3.689.205 1.23.205 2.46 0 3.484-.615 2.05-2.665 3.075-5.124 3.69-1.23.41-2.46.614-3.69 1.024-1.024.41-2.254.615-3.484.82-2.254.205-4.509.205-5.739-1.23-.82-.82-1.434-1.844-1.844-2.869-.615-1.23-.82-2.254-.615-3.28 0-.82.82-1.844 1.844-2.459 1.025-.82 2.255-1.23 3.485-1.64l7.378-2.459zm-7.378 2.05c-1.23.41-2.46.82-3.69 1.434-1.23.615-2.254 1.64-2.664 2.87-.41 1.23-.205 2.664.205 3.894s1.025 2.46 1.845 3.484c1.024 1.025 2.254 1.845 3.484 2.05 1.23.205 2.664.205 3.894 0 2.665-.615 5.124-1.435 7.584-2.255 1.23-.41 2.46-1.024 3.484-1.844 1.23-.82 2.05-2.05 2.254-3.28.205-1.23.205-2.664-.205-3.894s-.82-2.46-1.434-3.69c-.41-.614-.82-1.229-1.435-1.434-.615-.41-1.435-.41-2.05-.41-1.434.205-2.664.41-3.894.82z"/></g></g></g></g></g></g></svg>