<svg xmlns="http://www.w3.org/2000/svg" width="210" height="236" viewBox="0 0 210 236"><g><g><g><path fill="#fcc01b" d="M.59 104.41C.59 46.745 47.337 0 105 0c57.664 0 104.41 46.746 104.41 104.41 0 57.663-46.746 104.409-104.41 104.409-57.664 0-104.41-46.746-104.41-104.41z"/></g><g><g><path fill="#fff" d="M126.791 192.143c-2.463 0-4.547 2.085-4.547 4.548v17.054c0 2.464 2.084 4.548 4.547 4.548 2.464 0 4.548-2.084 4.548-4.548v-17.054c-.19-2.463-2.084-4.548-4.548-4.548z"/></g><g><path fill="#2c394e" d="M126.791 192.143c1.327 0 2.653.569 3.411 1.706.948.947 1.137 2.463 1.137 3.79v15.538c0 1.326-.19 2.653-1.137 3.79-.947.947-2.274 1.705-3.6 1.705a4.667 4.667 0 0 1-3.6-1.705c-.948-.948-1.137-2.464-1.137-3.79v-15.538c0-1.327.19-2.653 1.137-3.79 1.137-1.137 2.463-1.706 3.79-1.706zm0 .19c-1.326 0-2.463.568-3.22 1.516-.759.947-.948 2.274-.759 3.6l.569 7.77.568 7.768v.948c0 .19 0 .379.19.568l.568 1.137c.568.569 1.326.948 2.084.948s1.516-.38 2.085-.948c.19-.379.568-.568.568-1.137 0-.19.19-.379.19-.568v-.948l.568-7.769.569-7.769c.19-1.326 0-2.463-.758-3.6-.758-.948-2.085-1.516-3.222-1.516z"/></g></g><g><g><g><path fill="#fff" d="M136.076 183.995c-14.78 1.137-27.665-9.853-28.992-24.634-1.137-14.78 9.854-27.665 24.634-28.992 14.78-1.137 27.666 9.854 28.992 24.634 1.327 14.97-9.853 27.855-24.634 28.992zm39.793-30.887c-1.705-22.739-21.601-39.603-44.34-37.898-22.74 1.706-39.604 21.602-37.898 44.341 1.705 22.739 21.601 39.604 44.34 37.898 22.74-1.895 39.793-21.602 37.898-44.34z"/></g><g><g><path fill="#2c394e" d="M176.059 153.108c.947 10.801-2.653 21.981-9.664 30.13-7.011 8.337-17.433 13.643-28.234 14.4-10.801.948-21.981-2.652-30.319-9.853-8.337-7.011-13.643-17.433-14.4-28.234-.948-10.801 2.652-21.98 9.853-30.319 7.01-8.337 17.433-13.643 28.234-14.4 10.8-.948 21.98 2.652 30.129 9.853 8.337 7.2 13.643 17.622 14.401 28.423zm-.379 0c-.379-5.305-1.895-10.611-4.548-15.348-2.463-4.738-6.063-8.906-10.043-12.317-8.148-6.632-19.138-9.664-29.37-8.338-10.233 1.137-19.708 6.632-25.961 14.401-6.253 7.77-9.475 18.002-8.527 27.855.758 9.854 5.306 19.329 12.885 26.15 7.39 6.822 17.623 10.612 27.855 10.233 10.233-.38 20.655-5.117 27.666-12.886 3.6-3.979 6.253-8.716 7.959-13.643 1.894-5.306 2.463-10.801 2.084-16.107z"/></g><g><path fill="#2c394e" d="M136.076 183.806c-7.01.568-14.022-1.706-19.328-6.443-5.305-4.548-8.716-11.18-9.285-18.191-.568-7.011 1.706-14.022 6.254-19.328 4.547-5.306 11.18-8.527 18.19-9.096 7.012-.568 14.023 1.706 19.329 6.254 5.305 4.547 8.716 11.18 9.285 18.19.568 6.822-1.706 14.023-6.253 19.329-4.548 5.305-11.18 8.716-18.192 9.285zm0 .379c7.201-.38 14.023-3.79 18.76-9.285 4.927-5.117 7.77-12.507 7.58-20.086-.19-7.58-3.6-15.16-9.285-20.465a28.531 28.531 0 0 0-10.043-6.064c-3.79-1.326-7.77-1.705-11.749-1.516-3.98.38-7.958 1.516-11.37 3.41-3.41 1.896-6.442 4.549-8.905 7.58-4.927 6.064-6.822 14.212-5.875 21.602.948 7.58 5.117 14.402 10.801 18.76 5.685 4.548 13.075 6.632 20.086 6.064z"/></g></g></g><g><path fill="#2c394e" d="M202.588 176.795l-15.16-13.075c-.758-.758-1.895-1.137-2.652-1.327-7.201-.568-11.938 4.359-10.043 11.749.189.758.757 1.705 1.705 2.463l15.16 13.075c.947.947 2.273 1.326 3.22 1.137 5.306-.569 10.422-5.874 9.665-11.18-.38-.758-.948-1.895-1.895-2.842z"/></g><g><g><path fill="#fff" d="M197.092 140.223L150.1 100.24c-2.464-2.084-5.495-3.6-8.148-3.79-21.792-1.705-36.572 13.265-30.887 36.193.568 2.464 2.463 5.117 5.116 7.39l46.804 39.983c3.221 2.653 6.822 4.169 9.664 3.79 16.107-1.895 31.645-18.191 29.371-34.488-.19-3.031-1.895-6.442-4.927-9.095z"/></g><g><path fill="#2c394e" d="M197.092 140.033c2.085 1.895 3.98 4.17 4.738 7.012.947 2.652.947 5.684.568 8.337-.758 5.685-3.221 10.99-6.822 15.349-3.6 4.358-8.148 7.959-13.264 10.422a37.32 37.32 0 0 1-8.148 2.653c-2.842.758-5.874 0-8.338-1.327-2.463-1.326-4.547-3.41-6.632-5.116l-6.442-5.495-12.507-11.18c-8.527-7.39-17.054-14.401-25.581-21.981-1.895-2.084-3.6-4.737-3.98-7.58-.568-2.652-.947-5.495-.947-8.337 0-5.685 1.516-11.37 4.927-15.917 3.41-4.548 8.338-7.77 13.833-9.475 2.653-.758 5.495-1.137 8.337-1.326h4.17c1.326 0 2.842.379 4.168.758 1.326.568 2.653 1.326 3.79 2.084a21.813 21.813 0 0 1 3.221 2.653l6.443 5.495 12.885 10.99zm-.19.38c-8.526-7.201-17.053-14.591-25.77-21.603-4.358-3.6-8.716-7.2-13.075-10.611l-6.632-5.495c-1.137-.948-2.084-1.895-3.221-2.464-1.137-.758-2.274-1.326-3.411-1.894-.568-.19-1.137-.38-1.895-.569-.568-.19-1.137-.19-1.895-.19-1.326 0-2.653 0-3.98.19-2.652.19-5.305.758-7.768 1.516-4.927 1.705-9.475 4.737-12.128 9.095-2.842 4.17-3.979 9.286-3.979 14.402 0 2.463.38 5.116.948 7.58.379 1.515.568 2.084 1.136 3.031a14.309 14.309 0 0 0 2.085 2.653c.379.38.758.758 1.326 1.137l1.706 1.327 3.221 2.652c2.084 1.895 4.358 3.6 6.443 5.496l12.696 10.99 12.506 11.18 6.253 5.685 3.032 2.842c.947.948 1.895 1.706 3.032 2.274.947.568 2.084 1.137 3.221 1.326 1.137.38 2.085.19 3.411 0 2.653-.379 5.116-.947 7.58-2.084 4.926-2.084 9.474-5.306 13.264-9.285 3.6-4.169 6.253-9.285 7.2-14.78.38-2.653.38-5.685-.568-8.148-.947-2.274-2.653-4.548-4.737-6.254z"/></g></g><g><g><path fill="#fff" d="M182.123 108.01l-46.805-39.794c-2.463-2.084-5.874-3.22-9.095-2.652-27.097 4.358-50.215 29.37-50.026 58.742 0 3.221 1.516 6.253 4.17 8.527l46.803 39.982c3.222 2.653 7.39 3.411 11.18 2.085 20.844-7.39 45.668-34.488 47.752-55.9.379-4.169-.758-8.148-3.98-10.99z"/></g><g><path fill="#2c394e" d="M182.312 108.01c2.653 2.273 3.98 5.684 3.98 9.285-.19 3.41-.948 6.821-1.895 10.043-2.085 6.442-5.496 12.506-9.475 18.001-3.98 5.495-8.527 10.612-13.643 15.16-5.117 4.547-10.612 8.716-16.675 11.748-1.516.758-3.032 1.516-4.738 2.084-1.516.569-3.221 1.327-4.926 1.327-1.706 0-3.411-.38-5.117-.948-1.705-.758-3.032-1.895-4.169-3.032l-15.538-13.264c-10.422-8.906-20.654-17.433-31.076-26.529-1.137-1.326-2.085-2.842-2.653-4.547-.19-.758-.379-1.706-.569-2.653v-2.653c.19-3.411.569-6.822 1.327-10.233 1.516-6.632 4.169-13.075 7.769-18.949 7.2-11.559 18.38-20.654 31.266-25.392 3.221-1.136 6.443-2.084 9.853-2.652 3.411-.569 7.012.758 9.665 3.031l15.538 13.265zm-.19.189l-31.455-26.15c-5.116-4.358-10.611-8.527-15.728-12.885-2.463-2.084-5.495-3.032-8.527-2.463a41.937 41.937 0 0 0-9.474 2.842C104.62 74.47 94.199 83.565 87.756 94.745c-3.41 5.495-5.874 11.56-7.01 17.812-.57 3.222-.948 6.253-1.138 9.475v2.084c0 .569.19 1.137.38 1.706.378 1.137.947 2.274 1.894 3.031l30.508 26.53c5.116 4.357 10.043 9.095 15.16 13.642 1.326 1.327 2.273 2.085 3.41 2.653 1.137.569 2.653.948 3.98.948 1.326 0 2.652-.38 4.168-.948s3.032-1.137 4.548-1.895c5.874-2.842 11.559-6.632 16.675-10.99 5.117-4.358 9.854-9.285 13.833-14.59 3.98-5.496 7.39-11.37 9.664-17.623 1.137-3.222 1.895-6.443 2.084-9.854 0-2.842-1.326-6.253-3.79-8.527z"/></g></g><g><path fill="#2c394e" d="M173.596 100.809c2.652 2.274 3.41 6.064 2.652 9.664-3.41 20.275-28.044 47.373-47.562 55.9-3.41 1.516-7.39 1.137-10.043-1.137l3.79 3.221c2.653 2.274 6.443 2.653 10.043 1.137 19.518-8.527 44.151-35.624 47.752-55.9.568-3.6 0-7.39-2.653-9.664z"/></g><g><path fill="#2c394e" d="M169.427 97.209c2.653 2.273 3.41 6.063 2.842 9.664-3.41 20.275-28.234 47.372-47.751 55.9-3.411 1.515-7.39 1.136-10.043-1.138l1.894 1.706c2.653 2.274 6.633 2.653 10.043 1.137 19.707-8.527 44.341-35.625 47.752-55.9.569-3.79 0-7.39-2.842-9.664z"/></g><g><g><g><path fill="#fff" d="M155.026 70.3l-49.647-42.445c-2.653-2.274-6.253-3.221-9.854-2.653-30.129 6.253-62.342 41.878-63.668 74.66a11.055 11.055 0 0 0 4.168 9.284l49.647 42.446c3.41 2.843 7.77 2.843 12.127 1.895 25.013-5.874 60.258-46.804 61.016-71.438 0-4.358-.379-8.906-3.79-11.748z"/></g><g><path fill="#2c394e" d="M155.215 70.111c1.516 1.327 2.653 3.032 3.221 5.117.569 1.895.758 3.979.758 5.874 0 3.98-.947 7.958-2.084 11.748-2.463 7.58-6.443 14.591-10.801 21.034-4.548 6.442-9.475 12.696-15.16 18.19-5.684 5.686-11.748 10.802-18.38 14.97-3.41 2.085-6.822 3.98-10.611 5.306-3.79 1.327-7.77 2.464-11.749 1.516-2.084-.379-3.79-1.516-5.305-2.842l-4.548-3.79-9.285-7.39-36.193-30.887c-1.516-1.326-2.463-3.221-3.221-5.116-.38-.948-.38-2.085-.569-3.032 0-.948.19-2.085.19-3.032.379-3.98 1.137-7.959 2.084-11.748 2.084-7.58 5.685-14.97 9.854-21.602 4.358-6.632 9.285-12.886 14.97-18.38 5.684-5.496 12.127-10.423 18.948-14.213 3.411-1.895 7.012-3.6 10.801-4.926.948-.38 1.895-.569 2.843-.948.947-.379 1.895-.568 2.842-.758 1.895-.568 3.98-.758 6.064-.19 1.895.38 3.79 1.327 5.305 2.654l4.548 3.79 9.096 7.768zm-.379.38l-36.382-30.509c-3.032-2.652-6.064-4.926-9.096-7.58l-4.548-3.789c-1.326-1.137-3.031-1.895-4.737-2.274-.947-.19-1.705-.19-2.653-.19-.947 0-1.705.38-2.653.57-.947.189-1.894.568-2.842.757-.947.379-1.895.568-2.653.947-3.6 1.327-7.01 3.032-10.422 5.117-13.264 7.958-24.255 19.517-32.213 32.592-3.98 6.443-7.2 13.454-9.285 20.844-.948 3.6-1.706 7.39-1.895 10.99 0 .948-.19 1.895-.19 2.653s.19 1.327.38 2.085c.378 1.326 1.136 2.463 2.273 3.6l35.625 31.077c3.031 2.652 5.874 5.305 8.906 7.958l4.358 3.98.568.568.38.379c.378.19.568.379.947.568.568.38 1.326.569 2.084.758 3.032.758 6.822 0 10.422-1.137 3.6-1.137 7.011-2.842 10.422-4.926 6.632-3.98 12.696-8.906 18.38-14.212 5.685-5.495 10.991-11.37 15.35-17.812 4.547-6.443 8.337-13.265 10.99-20.844 1.326-3.79 2.084-7.58 2.274-11.56 0-1.894 0-3.978-.569-5.873-.758-1.706-1.705-3.411-3.221-4.738z"/></g></g><g><g><path fill="#eb8807" d="M41.112 102.262c-6.208-5.3 1.757-24.824 17.79-43.61 16.035-18.784 34.066-29.717 40.275-24.418 6.208 5.3-1.757 24.824-17.79 43.61-16.035 18.785-34.066 29.718-40.275 24.418z"/></g><g><path fill="#2c394e" d="M81.314 77.88c-5.306 6.254-11.18 11.938-18.191 17.055-3.411 2.463-6.822 4.737-10.612 6.442-1.895.758-3.79 1.516-5.874 1.895-2.085.38-4.358.38-5.874-.947-1.516-1.516-1.706-3.6-1.706-5.685 0-2.084.38-4.169.948-6.064 1.137-3.979 2.842-7.769 4.737-11.369 3.79-7.39 8.527-14.212 13.833-20.465 5.495-6.253 11.37-11.938 18.001-16.865 3.411-2.463 6.822-4.737 10.612-6.442 1.895-.758 3.79-1.516 5.874-1.895 2.084-.38 4.358-.569 5.874.758 1.516 1.516 1.706 3.6 1.706 5.684 0 2.085-.38 4.17-.948 6.064-.947 3.98-2.653 7.77-4.548 11.37-3.79 7.39-8.527 14.211-13.832 20.465zm.19 0c5.494-6.253 10.232-12.885 14.4-20.843 1.895-3.6 3.79-7.39 4.927-11.37a36.179 36.179 0 0 0 1.137-6.253c.19-.948 0-2.084-.19-3.221-.189-.948-.757-2.085-1.705-3.032-.947-.758-2.274-1.137-3.41-1.327-1.138 0-2.274 0-3.411.19-2.274.379-4.359 1.137-6.254 1.895-3.979 1.705-7.58 3.79-10.99 6.253-6.822 4.927-12.885 10.8-18.38 17.054-5.306 6.443-10.044 13.264-13.833 20.844-1.895 3.6-3.411 7.58-4.548 11.748-.569 2.085-.948 4.17-.948 6.443 0 1.137 0 2.274.38 3.41.378 1.138.947 2.275 1.894 3.033 1.137.758 2.274 1.137 3.411 1.137 1.137.19 2.084 0 3.221-.19 2.085-.379 3.98-1.137 5.875-2.084 3.79-1.706 7.2-4.169 10.611-6.632 6.632-4.927 12.506-10.801 17.812-17.054z"/></g></g><g><g><path fill="#fcc01b" d="M101.02 131.885a4.927 4.927 0 1 1 9.854 0 4.927 4.927 0 0 1-9.853 0z"/></g><g><path fill="#2c394e" d="M102.916 135.675c-2.085-1.705-2.274-4.927-.569-6.822 1.706-2.084 4.927-2.273 6.822-.568 2.084 1.516 2.274 4.927.568 6.822-1.705 1.895-4.927 2.084-6.821.568zm7.01-.568c.948-.948 1.327-2.274 1.517-3.79 0-1.327-.38-2.843-1.516-3.98-1.137-1.136-2.653-1.894-4.359-1.894-1.705 0-3.41.758-4.547 2.084-1.137 1.326-1.706 3.221-1.327 4.927.38 1.705 1.327 3.221 2.653 3.98 1.137.757 2.842.947 4.169.757 1.326-.379 2.653-1.137 3.41-2.084z"/></g></g><g><g><path fill="#eb8807" d="M90.553 142.452c-1.512-1.29-1.747-3.498-.524-4.931 1.223-1.433 3.44-1.548 4.953-.257 1.512 1.29 1.747 3.499.524 4.931-1.223 1.433-3.44 1.548-4.953.257z"/></g><g><path fill="#2c394e" d="M90.788 141.928c-1.516-1.137-1.705-3.221-.568-4.547.947-1.327 3.221-1.327 4.547-.19 1.327 1.137 1.706 3.41.569 4.737a2.842 2.842 0 0 1-4.548 0zm4.737.19c1.137-1.327 1.327-3.79 0-5.685-.568-.947-1.705-1.516-3.031-1.705-1.327-.19-2.653.379-3.6 1.516-.948.947-1.327 2.463-.948 3.79.19 1.326 1.137 2.273 2.084 2.842 1.895 1.326 4.359.568 5.495-.758z"/></g></g></g></g><g><g><path fill="#fff" d="M130.202 177.363l2.843 1.327c5.305 2.463 7.769 8.906 5.305 14.211l-.758 1.516c-2.463 5.306-8.906 7.77-14.211 5.306l-2.843-1.326c-5.306-2.464-7.769-8.907-5.306-14.212l.758-1.516c2.464-5.495 8.907-7.77 14.212-5.306z"/></g><g><path fill="#2c394e" d="M130.202 177.363c1.327.758 2.843 1.326 4.169 2.084 1.326.758 2.463 2.085 3.221 3.411 1.706 2.653 1.895 6.064.758 9.096-.758 1.326-1.326 2.842-2.274 4.169-.947 1.326-2.273 2.274-3.6 3.031-2.842 1.516-6.253 1.516-9.095.19-1.516-.568-3.032-1.137-4.359-2.084-1.326-.948-2.463-2.085-3.221-3.411-1.516-2.653-1.895-6.064-.758-9.096.758-1.326 1.326-2.842 2.274-4.169.947-1.326 2.274-2.273 3.6-3.031 2.843-1.516 6.443-1.516 9.285-.19zm0-.19c-2.842-1.326-6.442-1.326-9.664-.378-1.516.758-2.842 1.705-3.98 3.031a8.413 8.413 0 0 0-1.515 2.085l-1.137 2.274c-1.326 3.221-1.326 7.2.379 10.422.758 1.705 2.084 3.032 3.6 4.168 1.706.948 3.032 1.516 4.548 2.274 3.221 1.516 7.39 1.516 10.612-.379 1.705-.758 3.031-2.084 3.979-3.6.568-.568.947-1.516 1.326-2.274.38-.758.758-1.326.948-2.274a11.272 11.272 0 0 0-1.327-9.853c-.758-1.327-2.084-2.464-3.41-3.411-1.327-.947-2.843-1.326-4.359-2.084z"/></g></g><g><g><path fill="#fff" d="M131.34 209.955h-9.096c-3.222 0-5.685 2.653-5.685 5.685 0 3.222 2.653 5.685 5.685 5.685h9.095c3.222 0 5.685-2.653 5.685-5.685 0-3.032-2.653-5.685-5.685-5.685z"/></g><g><path fill="#2c394e" d="M131.34 209.955c2.273 0 4.547 1.516 5.494 3.6.948 2.085.38 4.738-1.326 6.443-.758.758-1.895 1.327-3.032 1.706-1.137.19-2.274 0-3.41.19h-6.822c-2.274 0-4.548-1.517-5.496-3.601-.947-2.084-.379-4.737 1.327-6.443.758-.758 1.895-1.326 3.032-1.516 1.137-.19 2.274 0 3.41-.19zm0 .19c-2.275 0-4.549 0-6.822.19-1.137 0-2.274.189-3.222.378-.947.38-1.895.948-2.463 1.706-1.327 1.516-1.327 3.6-.569 5.116a4.42 4.42 0 0 0 3.98 2.463c2.274 0 4.547 0 6.821.19 1.137 0 2.274.19 3.222.19.947 0 1.705-.38 2.463-.948 1.516-1.137 2.274-3.41 1.516-5.495-.379-.948-.948-1.895-1.895-2.653-.947-.758-2.084-1.137-3.032-1.137z"/></g></g><g><g><path fill="#fff" d="M157.868 218.293H95.715c-5.874 0-10.801 4.927-10.801 10.801v1.326c0 5.875 4.737 5.306 10.8 5.306h62.154c5.874 0 10.8.758 10.8-5.306v-1.326c-.189-5.874-4.926-10.8-10.8-10.8z"/></g><g><path fill="#2c394e" d="M157.868 218.293c3.98 0 7.769 2.274 9.664 5.874.568.948.758 1.895.947 2.843.19.947.19 1.895.19 3.031 0 .948 0 2.085-.38 3.032a3.754 3.754 0 0 1-2.084 2.085c-1.894.758-3.979.758-5.874.758H95.715c-1.895 0-3.98.19-5.874 0-.948-.19-2.085-.38-2.843-.758-.947-.569-1.516-1.327-1.895-2.274-.378-.948-.378-2.085-.189-3.032 0-.947 0-2.084.379-3.032.379-1.895 1.516-3.79 2.842-5.116 1.327-1.327 3.222-2.463 5.117-2.842 1.894-.569 3.979-.19 5.874-.38h11.748zm0 .19l-23.497.189-23.497.569-11.748.378h-3.032c-.948 0-1.705.19-2.653.38-1.705.378-3.221 1.326-4.358 2.652-1.137 1.137-2.085 2.843-2.464 4.359-.19.758-.19 1.516-.19 2.652 0 1.137 0 1.706.19 2.464.19.568.569.947.948 1.326.568.38 1.326.38 2.274.569 1.705.19 3.79 0 5.684 0 15.728.19 31.456.19 46.994.568l11.749.19 5.874.19c1.895 0 3.98.189 5.495-.57 1.705-.568 2.084-2.463 2.084-4.358V227.2c-.19-.947-.379-1.895-.947-2.653-1.326-3.6-5.116-6.063-8.906-6.063z"/></g></g></g></g></svg>