<svg xmlns="http://www.w3.org/2000/svg" width="31" height="30" viewBox="0 0 31 30"><g><g><g><path fill="#fff" d="M23.296 12.118c.007.155.01.311.01.468 0 4.788-3.645 10.31-10.31 10.31-2.048 0-3.952-.6-5.556-1.627.284.033.572.05.865.05 1.698 0 3.26-.58 4.5-1.551A3.628 3.628 0 0 1 9.42 17.25a3.616 3.616 0 0 0 1.637-.062 3.625 3.625 0 0 1-2.907-3.6 3.596 3.596 0 0 0 1.641.454A3.621 3.621 0 0 1 8.67 9.205a10.288 10.288 0 0 0 7.47 3.787 3.624 3.624 0 0 1 6.176-3.305 7.262 7.262 0 0 0 2.3-.88 3.637 3.637 0 0 1-1.594 2.005 7.233 7.233 0 0 0 2.081-.57 7.372 7.372 0 0 1-1.807 1.876zM15.746-.065C7.444-.065.713 6.665.713 14.968.713 23.27 7.444 30 15.746 30c8.302 0 15.032-6.73 15.032-15.032S24.048-.065 15.746-.065z"/></g></g></g></svg>