<svg xmlns="http://www.w3.org/2000/svg" width="31" height="30" viewBox="0 0 31 30"><g><g><path fill="#bbc0d6" d="M23.297 12.118c.007.155.01.311.01.468 0 4.789-3.645 10.31-10.31 10.31-2.047 0-3.952-.599-5.555-1.627.283.034.572.05.864.05 1.698 0 3.26-.579 4.5-1.55a3.628 3.628 0 0 1-3.384-2.518 3.616 3.616 0 0 0 1.636-.062 3.625 3.625 0 0 1-2.906-3.599 3.596 3.596 0 0 0 1.64.454 3.621 3.621 0 0 1-1.12-4.838 10.288 10.288 0 0 0 7.469 3.786 3.624 3.624 0 0 1 6.176-3.305 7.262 7.262 0 0 0 2.3-.88 3.637 3.637 0 0 1-1.593 2.005 7.233 7.233 0 0 0 2.08-.57 7.372 7.372 0 0 1-1.807 1.876zM15.747-.064C7.445-.064.715 6.666.715 14.968S7.445 30 15.747 30 30.78 23.27 30.78 14.968 24.05-.064 15.747-.064z"/></g></g></svg>