<svg xmlns="http://www.w3.org/2000/svg" width="30" height="30" viewBox="0 0 30 30"><g><g><g><g><g><path fill="#bbc0d6" d="M21.92 11.805v6.39H20.85v-3.727H9.15v3.726H8.08v-6.39h3.008v.42h7.825v-.42z"/></g><g><path fill="#bbc0d6" d="M6.679 22.095l2.41-2.412 1.914-1.914.638-.638h6.723l.639.638 1.914 1.914 2.412 2.412zm.34-11.354h15.967v8.508H21.09l-1.063-1.063h-.245v-.232l-.185-.185h.185v-1.914l-.313-.328h-8.933l-.325.323v1.915h.187l-.187.187v.238h-.234l-.83.83v.238H7.02zm4.069-4.417h7.825v3.992h-7.825zM15 0C6.716 0 0 6.715 0 15a14.999 14.999 0 0 0 3.005 9.01c4.979 6.624 14.385 7.958 21.009 2.98a15.007 15.007 0 0 0 2.98-2.98l.397-.556C32.061 16.612 30.3 7.28 23.456 2.61A15 15 0 0 0 15 0z"/></g></g></g></g></g></svg>