<svg xmlns="http://www.w3.org/2000/svg" width="31" height="31" viewBox="0 0 31 31"><g><g><path fill="#bbc0d6" d="M23.016 7.055l-1.32 2.332-4.575 8.089v.015l3.746 6.857c.033.046.044.1.053.154a.356.356 0 0 1-.037.253.383.383 0 0 1-.36.172h-2.651a.848.848 0 0 1-.447-.145.85.85 0 0 1-.307-.361l-3.774-6.933L19.266 6.98a.802.802 0 0 1 .172-.251.797.797 0 0 1 .53-.256h2.696a.369.369 0 0 1 .35.173v.005h.002a.377.377 0 0 1 0 .403zM7.774 19.406H7.765a.376.376 0 0 1-.35-.19.348.348 0 0 1 0-.402l2.824-4.987v-.014L8.44 10.7a.36.36 0 0 1-.01-.418l.001-.002a.338.338 0 0 1 .08-.089.364.364 0 0 1 .29-.067h2.651l.01.002h.002c.32.014.607.202.748.49 1.211 2.121 1.816 3.187 1.816 3.2l-2.87 5.073a.814.814 0 0 1-.718.518zM15.212.491C6.812.491.004 7.301.004 15.701c0 8.399 6.809 15.208 15.208 15.208 8.4 0 15.21-6.809 15.21-15.208 0-8.4-6.81-15.21-15.21-15.21z"/></g></g></svg>