<svg id="Ebene_1" data-name="Ebene 1" xmlns="http://www.w3.org/2000/svg" viewBox="0 0 198.97 99.77"><defs><style>.cls-1,.cls-2{fill:#1d1d1b;}.cls-2{font-size:48px;font-family:Rajdhani-Bold, Rajdhani;font-weight:700;}</style></defs><title>vision_control_logo-new</title><path class="cls-1" d="M136.33,10.58c-1.41-4.51-7.72-9-12.06-10s2.54,3.85,4,8.59a11.35,11.35,0,0,0-7.46,2.63,5.2,5.2,0,0,0-3.64-3.12l-5.08-1.18-2.35,10.15,5.07,1.18a5.2,5.2,0,0,0,4.65-1.2A11.32,11.32,0,0,0,125,23.25c-3.38,3.62-11.84,4.92-7.36,6s12-.28,15.25-3.7c7.26.85,17.91.12,18.75-3.52S143.23,13,136.33,10.58Zm4.13,8.83a2.13,2.13,0,1,1-1.59-2.56A2.13,2.13,0,0,1,140.46,19.41Z"/><text class="cls-2" transform="translate(67.88 63.45)">VISION<tspan x="-44.88" y="36">CONTROL</tspan></text><path class="cls-1" d="M8.37,98.23A52,52,0,0,1,2,78.93,52.8,52.8,0,0,1,3.67,58.44a69.85,69.85,0,0,1,8.59-18.85A69.57,69.57,0,0,1,25.88,23.77,72.94,72.94,0,0,1,43.7,12.61a89.54,89.54,0,0,1,20.09-6.2,106,106,0,0,1,21-1.77,92.45,92.45,0,0,1,21.12,2.63,4.5,4.5,0,1,1-2.2,8.73l-.21-.06h0a84.67,84.67,0,0,0-19-3.34,99,99,0,0,0-19.54.65C52,15,39.31,19.54,29,27.53A67.74,67.74,0,0,0,15.37,41.71,67,67,0,0,0,6.06,59.18,50.11,50.11,0,0,0,8.37,98.23Z"/></svg>