<?xml version="1.0" encoding="utf-8"?>
<!-- Generator: Adobe Illustrator 23.0.2, SVG Export Plug-In . SVG Version: 6.00 Build 0)  -->
<svg version="1.1" id="Ebene_1" xmlns="http://www.w3.org/2000/svg" xmlns:xlink="http://www.w3.org/1999/xlink" x="0px" y="0px"
	 viewBox="0 0 199 99.8" style="enable-background:new 0 0 199 99.8;" xml:space="preserve">
<style type="text/css">
	.st0{fill:#1D1D1B;}
	.st1{enable-background:new    ;}
</style>
<title>vision_control_logo-new</title>
<path class="st0" d="M136.3,10.6c-1.4-4.5-7.7-9-12.1-10s2.5,3.8,4,8.6c-2.7,0-5.4,0.9-7.5,2.6c-0.6-1.6-2-2.7-3.6-3.1l-5.1-1.2
	l-2.3,10.1l5.1,1.2c1.7,0.4,3.4-0.1,4.7-1.2c1.1,2.5,3.1,4.5,5.5,5.6c-3.4,3.6-11.8,4.9-7.4,6s12-0.3,15.3-3.7
	c7.3,0.9,17.9,0.1,18.8-3.5S143.2,13,136.3,10.6z M140.5,19.4c-0.3,1.1-1.4,1.9-2.6,1.6c-1.1-0.3-1.9-1.4-1.6-2.6
	c0.3-1.1,1.4-1.9,2.6-1.6C140,17.1,140.7,18.3,140.5,19.4C140.5,19.4,140.5,19.4,140.5,19.4z"/>
<g class="st1">
	<path class="st0" d="M83.6,63.5h-6.3c-0.7,0-1.1-0.3-1.2-1l-7.4-28.8c-0.2-0.7,0.1-1.1,1-1.1h4.5c0.6,0,1,0.3,1.2,1l5,23.6h0.2
		l5-23.6c0.1-0.7,0.5-1,1.2-1h4.5c0.8,0,1.1,0.4,1,1.1l-7.4,28.8C84.6,63.1,84.2,63.5,83.6,63.5z"/>
	<path class="st0" d="M102.3,33.6v28.8c0,0.7-0.3,1-1,1h-4.1c-0.7,0-1-0.3-1-1V33.6c0-0.7,0.3-1,1-1h4.1
		C102,32.6,102.3,32.9,102.3,33.6z"/>
	<path class="st0" d="M108.1,55.6v-1c0-0.7,0.3-1,1-1h4.1c0.7,0,1,0.3,1,1V55c0,1.2,0.2,2,0.7,2.5c0.5,0.4,1.4,0.7,2.6,0.7h2.3
		c1.2,0,2.1-0.2,2.6-0.7s0.7-1.4,0.7-2.7v-0.6c0-0.9-0.4-1.6-1.1-2.1c-0.8-0.5-1.7-0.8-2.8-0.9s-2.3-0.3-3.6-0.6
		c-1.3-0.3-2.5-0.6-3.6-1.1c-1.1-0.4-2.1-1.3-2.8-2.5c-0.8-1.3-1.1-2.9-1.1-4.9v-1.7c0-2.5,0.7-4.4,2.1-5.8c1.4-1.4,3.4-2.1,5.9-2.1
		h4.8c2.5,0,4.5,0.7,5.9,2.1s2.1,3.3,2.1,5.8v0.9c0,0.7-0.3,1-1,1h-4.1c-0.7,0-1-0.3-1-1v-0.3c0-1.2-0.2-2.1-0.7-2.5
		c-0.5-0.4-1.4-0.7-2.6-0.7h-1.9c-1.3,0-2.2,0.2-2.7,0.7s-0.7,1.5-0.7,2.9v0.9c0,1.5,1.3,2.4,3.9,2.6c2.7,0.2,5.1,0.8,7.2,1.6
		c1.1,0.5,2.1,1.3,2.8,2.6c0.8,1.2,1.1,2.8,1.1,4.7v1.6c0,2.5-0.7,4.4-2.1,5.8c-1.4,1.4-3.4,2.1-5.9,2.1H116c-2.5,0-4.4-0.7-5.9-2.1
		C108.8,60,108.1,58.1,108.1,55.6z"/>
	<path class="st0" d="M141,33.6v28.8c0,0.7-0.3,1-1,1h-4.1c-0.7,0-1-0.3-1-1V33.6c0-0.7,0.3-1,1-1h4.1C140.7,32.6,141,32.9,141,33.6
		z"/>
	<path class="st0" d="M160.3,63.5H155c-2.5,0-4.5-0.7-5.9-2c-1.4-1.3-2.1-3.3-2.1-5.8V40.4c0-2.5,0.7-4.5,2.1-5.8
		c1.4-1.3,3.3-2,5.9-2h5.4c2.5,0,4.5,0.7,5.9,2c1.4,1.3,2.1,3.3,2.1,5.8v15.2c0,2.5-0.7,4.5-2.1,5.8
		C164.8,62.8,162.9,63.5,160.3,63.5z M155.9,58.2h3.4c1,0,1.8-0.2,2.2-0.6c0.4-0.4,0.6-1.2,0.6-2.2V40.7c0-1-0.2-1.8-0.6-2.2
		c-0.4-0.4-1.2-0.6-2.2-0.6h-3.4c-1,0-1.7,0.2-2.2,0.6c-0.4,0.4-0.6,1.2-0.6,2.2v14.6c0,1,0.2,1.8,0.6,2.2
		C154.2,58,154.9,58.2,155.9,58.2z"/>
	<path class="st0" d="M179,63.5h-4c-0.7,0-1-0.3-1-1V33.6c0-0.7,0.3-1,1-1h3.6c0.7,0,1.1,0.2,1.3,0.7l9.7,18.2h0.2V33.6
		c0-0.7,0.3-1,1-1h4c0.7,0,1,0.3,1,1v28.8c0,0.7-0.3,1-1,1h-3.5c-0.7,0-1.2-0.3-1.5-1l-9.6-17.9H180v17.8
		C180,63.1,179.7,63.5,179,63.5z"/>
</g>
<g class="st1">
	<path class="st0" d="M38.8,99.5h-5.2c-2.5,0-4.5-0.7-5.9-2c-1.4-1.3-2.1-3.3-2.1-5.8V76.4c0-2.5,0.7-4.5,2.1-5.8
		c1.4-1.3,3.3-2,5.9-2h5.2c2.5,0,4.4,0.7,5.8,2c1.4,1.4,2.1,3.3,2.1,5.8v2.3c0,0.7-0.4,1.1-1.1,1.1h-4c-0.7,0-1-0.4-1-1.1v-2
		c0-1-0.2-1.8-0.6-2.2c-0.4-0.4-1.2-0.6-2.2-0.6h-3.3c-1,0-1.7,0.2-2.1,0.6c-0.4,0.4-0.6,1.2-0.6,2.2v14.6c0,1,0.2,1.8,0.6,2.2
		c0.4,0.4,1.1,0.6,2.1,0.6h3.3c1,0,1.8-0.2,2.2-0.6c0.4-0.4,0.6-1.2,0.6-2.2v-2c0-0.7,0.3-1.1,1-1.1h4c0.7,0,1.1,0.4,1.1,1.1v2.3
		c0,2.5-0.7,4.4-2.1,5.8C43.2,98.8,41.3,99.5,38.8,99.5z"/>
	<path class="st0" d="M64.8,99.5h-5.4c-2.5,0-4.5-0.7-5.9-2c-1.4-1.3-2.1-3.3-2.1-5.8V76.4c0-2.5,0.7-4.5,2.1-5.8
		c1.4-1.3,3.3-2,5.9-2h5.4c2.5,0,4.5,0.7,5.9,2c1.4,1.3,2.1,3.3,2.1,5.8v15.2c0,2.5-0.7,4.5-2.1,5.8C69.2,98.8,67.3,99.5,64.8,99.5z
		 M60.3,94.2h3.4c1,0,1.8-0.2,2.2-0.6c0.4-0.4,0.6-1.2,0.6-2.2V76.7c0-1-0.2-1.8-0.6-2.2c-0.4-0.4-1.2-0.6-2.2-0.6h-3.4
		c-1,0-1.7,0.2-2.2,0.6c-0.4,0.4-0.6,1.2-0.6,2.2v14.6c0,1,0.2,1.8,0.6,2.2C58.6,94,59.3,94.2,60.3,94.2z"/>
	<path class="st0" d="M83.4,99.5h-4c-0.7,0-1-0.3-1-1V69.6c0-0.7,0.3-1,1-1H83c0.7,0,1.1,0.2,1.3,0.7l9.7,18.2h0.2V69.6
		c0-0.7,0.3-1,1-1h4c0.7,0,1,0.3,1,1v28.8c0,0.7-0.3,1-1,1h-3.5c-0.7,0-1.2-0.3-1.5-1l-9.6-17.9h-0.2v17.8
		C84.4,99.1,84.1,99.5,83.4,99.5z"/>
	<path class="st0" d="M116.1,99.5h-4c-0.7,0-1.1-0.3-1.1-1v-24c0-0.4-0.2-0.5-0.5-0.5H105c-0.7,0-1-0.3-1-1v-3.3c0-0.7,0.3-1,1-1
		h18.1c0.7,0,1,0.3,1,1v3.3c0,0.7-0.3,1-1,1h-5.5c-0.4,0-0.6,0.2-0.6,0.5v24C117.1,99.1,116.7,99.5,116.1,99.5z"/>
	<path class="st0" d="M132.9,99.5h-4.1c-0.7,0-1-0.3-1-1V69.6c0-0.7,0.3-1,1-1h11.4c2.5,0,4.4,0.7,5.9,2.1s2.1,3.3,2.1,5.8v3.7
		c0,3.6-1.4,6-4.3,7.2v0.2l5.1,10.7c0.3,0.8,0,1.2-0.8,1.2h-3.9c-0.6,0-1-0.1-1.2-0.2c-0.3-0.1-0.5-0.4-0.6-0.8l-4.8-10.4h-3.2
		c-0.4,0-0.6,0.2-0.6,0.5v9.8C133.9,99.1,133.5,99.5,132.9,99.5z M134.4,83.2h4.7c1,0,1.8-0.2,2.3-0.6s0.7-1.1,0.7-2.1v-3.7
		c0-1-0.2-1.7-0.7-2.2c-0.5-0.4-1.2-0.7-2.3-0.7h-4.7c-0.4,0-0.5,0.2-0.5,0.5v8.3C133.9,83,134.1,83.2,134.4,83.2z"/>
	<path class="st0" d="M166.9,99.5h-5.4c-2.5,0-4.5-0.7-5.9-2c-1.4-1.3-2.1-3.3-2.1-5.8V76.4c0-2.5,0.7-4.5,2.1-5.8
		c1.4-1.3,3.3-2,5.9-2h5.4c2.5,0,4.5,0.7,5.9,2c1.4,1.3,2.1,3.3,2.1,5.8v15.2c0,2.5-0.7,4.5-2.1,5.8
		C171.3,98.8,169.4,99.5,166.9,99.5z M162.4,94.2h3.4c1,0,1.8-0.2,2.2-0.6c0.4-0.4,0.6-1.2,0.6-2.2V76.7c0-1-0.2-1.8-0.6-2.2
		c-0.4-0.4-1.2-0.6-2.2-0.6h-3.4c-1,0-1.7,0.2-2.2,0.6c-0.4,0.4-0.6,1.2-0.6,2.2v14.6c0,1,0.2,1.8,0.6,2.2
		C160.7,94,161.4,94.2,162.4,94.2z"/>
	<path class="st0" d="M197.3,99.5h-15.8c-0.7,0-1-0.3-1-1V69.6c0-0.7,0.3-1,1-1h4.1c0.7,0,1,0.3,1,1v24c0,0.4,0.2,0.5,0.6,0.5h10.1
		c0.6,0,1,0.4,1,1.1v3.3C198.3,99.1,198,99.5,197.3,99.5z"/>
</g>
<path class="st0" d="M8.4,98.2C5,92.3,2.8,85.7,2,78.9c-0.8-6.9-0.2-13.8,1.7-20.5c1.9-6.7,4.8-13,8.6-18.9
	c3.7-5.9,8.3-11.3,13.6-15.8c5.4-4.6,11.4-8.3,17.8-11.2c6.4-2.8,13.2-4.9,20.1-6.2c6.9-1.3,14-1.9,21-1.8
	c7.1,0.1,14.2,0.9,21.1,2.6c2.4,0.6,3.9,3.1,3.3,5.5s-3.1,3.9-5.5,3.3l-0.2-0.1l0,0c-6.2-1.8-12.6-3-19-3.3
	C78,12.2,71.4,12.4,65,13.2C52,15,39.3,19.5,29,27.5c-5.2,4-9.8,8.8-13.6,14.2c-4,5.3-7.1,11.2-9.3,17.5C1.5,72,2.3,86.1,8.4,98.2z"
	/>
</svg>
