<svg xmlns="http://www.w3.org/2000/svg" width="161" height="165" viewBox="0 0 161 165"><g><g><g><path fill="#ffb00d" d="M.803 18.31L64.449 8.283 80.579 0l16.129 8.283 63.645 10.025-24.413 110.29-55.362 35.749-55.363-35.749L.803 18.31"/></g><g><path fill="#fff" d="M80.577 158.716L29.414 125.68 6.51 22.2l59.424-9.362 14.643-7.52 14.644 7.52 59.425 9.363L131.74 125.68z"/></g><g><path fill="#ff7e0f" d="M80.577 147.451l-42.765-27.614L17.924 29.98l50.982-8.03 11.671-5.994 11.67 5.994 50.985 8.03-19.89 89.86zm46.965-24.693l21.396-96.667-55.203-8.696-13.158-6.758-13.156 6.758-55.204 8.696 21.397 96.667 46.963 30.326z"/></g><g><path fill="#ffb00d" d="M80.579 22.855l1.911 5.738 6.05.045-4.868 3.592 1.827 5.768-4.922-3.518-4.92 3.518 1.827-5.768-4.869-3.592 6.05-.045z"/></g><g><path fill="#ff7e0f" d="M80.577 141.82l38.566-24.902 1.404-6.349h-79.94l1.406 6.35z"/></g><g><g><path fill="#ff7e0f" d="M40.533 62.144c-.3 0-.449-.15-.449-.448v-7.292c0-.299.15-.448.449-.448h4.317c.87 0 1.48.183 1.834.55.353.366.53.984.53 1.853v3.422c0 .842-.177 1.446-.53 1.813-.353.366-.965.55-1.834.55h-4.317zm-1.304 13.523c.57 0 .855-.284.855-.855v-7.699c0-.298.164-.448.49-.448h5.132c2.118 0 3.761-.576 4.93-1.731 1.166-1.154 1.75-2.79 1.75-4.909v-3.91c0-2.118-.584-3.754-1.75-4.909-1.169-1.154-2.812-1.731-4.93-1.731h-9.94c-.57 0-.855.285-.855.856v24.481c0 .57.285.855.855.855h3.463z"/></g><g><path fill="#ff7e0f" d="M62.121 61.858c-.299 0-.448-.149-.448-.448v-7.006c0-.299.15-.448.448-.448h3.993c.868 0 1.507.19 1.914.57.408.38.611.992.611 1.833v3.177c0 .815-.203 1.406-.61 1.773-.408.366-1.047.55-1.915.55zm-1.303 13.81c.57 0 .855-.285.855-.856v-8.35c0-.299.163-.449.49-.449h2.729l4.073 8.8c.136.353.312.584.53.692.217.109.57.162 1.059.162h3.299c.706 0 .937-.325.693-.977l-4.359-9.084v-.163c2.417-1.004 3.625-3.041 3.625-6.11v-3.177c0-2.119-.597-3.762-1.792-4.93-1.195-1.167-2.852-1.751-4.97-1.751h-9.695c-.57 0-.855.285-.855.856v24.481c0 .57.285.855.855.855h3.463z"/></g><g><path fill="#ff7e0f" d="M92.959 75.667H79.638c-.57 0-.856-.284-.856-.855V50.331c0-.571.286-.856.856-.856h13.32c.543 0 .815.285.815.856v2.77c0 .57-.272.855-.815.855h-8.513c-.326 0-.489.15-.489.448V59.7c0 .3.163.448.489.448h6.966c.57 0 .855.286.855.856v2.77c0 .57-.285.855-.855.855h-6.966c-.326 0-.489.15-.489.449v5.662c0 .299.163.448.489.448h8.514c.542 0 .814.285.814.855v2.77c0 .57-.272.855-.815.855z"/></g><g><path fill="#ff7e0f" d="M103.67 50.33v24.482c0 .57-.284.855-.854.855h-3.462c-.571 0-.856-.284-.856-.855V50.331c0-.571.285-.856.856-.856h3.462c.57 0 .855.285.855.856z"/></g><g><path fill="#ff7e0f" d="M108.519 68.987v-.815c0-.57.285-.855.855-.855h3.462c.57 0 .856.285.856.855v.326c0 1.033.204 1.738.611 2.118.407.381 1.154.57 2.24.57h1.915c1.06 0 1.799-.203 2.22-.61.42-.408.631-1.168.631-2.281v-.49c0-.787-.32-1.39-.957-1.812-.639-.42-1.433-.672-2.383-.753a25.668 25.668 0 0 1-3.075-.469c-1.1-.23-2.125-.53-3.076-.896-.95-.367-1.745-1.086-2.383-2.16-.638-1.072-.957-2.45-.957-4.134v-1.425c0-2.119.597-3.762 1.793-4.93 1.194-1.167 2.85-1.751 4.968-1.751h4.074c2.145 0 3.815.584 5.01 1.752 1.196 1.167 1.794 2.81 1.794 4.929v.773c0 .57-.286.856-.856.856h-3.463c-.57 0-.855-.285-.855-.856v-.244c0-1.059-.204-1.778-.611-2.159-.408-.38-1.154-.57-2.24-.57h-1.59c-1.113 0-1.867.21-2.26.631-.394.422-.591 1.243-.591 2.465v.774c0 1.277 1.113 2.01 3.34 2.2 2.308.19 4.36.651 6.152 1.384.95.408 1.744 1.134 2.383 2.18.638 1.046.956 2.383.956 4.012v1.385c0 2.118-.597 3.762-1.792 4.929-1.194 1.168-2.851 1.751-4.97 1.751h-4.44c-2.118 0-3.775-.583-4.97-1.751-1.194-1.167-1.791-2.81-1.791-4.929z"/></g></g><g><g><path fill="#ff7e0f" d="M41.522 93.495h-2.217c-1.103 0-1.954-.293-2.553-.88-.6-.585-.9-1.429-.9-2.53V83.45c0-1.101.3-1.946.9-2.531.6-.586 1.45-.879 2.553-.879h2.217c1.088 0 1.932.297 2.532.89.6.592.9 1.432.9 2.52v.628c0 .307-.146.46-.44.46h-1.778c-.293 0-.44-.153-.44-.46v-.502c0-.446-.09-.763-.272-.952-.18-.188-.495-.283-.941-.283h-1.36c-.432 0-.743.095-.931.283-.188.189-.283.506-.283.952v6.381c0 .447.095.764.283.953.188.188.499.282.931.282h1.36c.446 0 .76-.094.941-.282.182-.189.272-.506.272-.953v-1.317c0-.154-.077-.23-.23-.23H40.81c-.293 0-.44-.147-.44-.44v-1.423c0-.293.147-.44.44-.44h3.661c.321 0 .482.161.482.482v3.495c0 1.088-.3 1.927-.9 2.52-.6.593-1.444.89-2.532.89z"/></g><g><path fill="#ff7e0f" d="M53.03 82.572l1.507 6.048H51.44l1.506-6.048zm-3.117 10.923c.14 0 .24-.032.303-.094.063-.063.109-.179.137-.346l.585-2.301h4.08l.586 2.301c.028.167.07.283.126.346.056.062.16.094.313.094h2.01c.25 0 .334-.147.25-.44l-3.305-12.574c-.07-.293-.28-.44-.628-.44h-2.784c-.32 0-.529.147-.627.44l-3.306 12.574c-.083.293 0 .44.252.44z"/></g><g><path fill="#ff7e0f" d="M64.098 86.401c-.154 0-.23-.076-.23-.23v-3.599c0-.152.076-.23.23-.23h2.05c.447 0 .774.099.984.293.21.196.314.51.314.942v1.632c0 .419-.105.722-.314.91-.21.189-.537.282-.984.282h-2.05zm-.67 7.094c.293 0 .44-.147.44-.44v-4.289c0-.153.084-.23.25-.23h1.403l2.092 4.52c.07.18.16.3.272.355.112.056.293.084.544.084h1.695c.362 0 .481-.168.355-.503l-2.238-4.665v-.084c1.241-.516 1.862-1.562 1.862-3.139v-1.632c0-1.088-.307-1.931-.92-2.531-.615-.6-1.465-.9-2.553-.9h-4.98c-.293 0-.44.147-.44.44v12.574c0 .293.147.44.44.44h1.779z"/></g><g><path fill="#ff7e0f" d="M78.221 82.572l1.507 6.048h-3.097l1.507-6.048zm-3.117 10.923c.14 0 .24-.032.303-.094.063-.063.108-.179.136-.346l.586-2.301h4.08l.586 2.301c.028.167.07.283.125.346.056.062.161.094.314.094h2.01c.25 0 .334-.147.25-.44l-3.306-12.574c-.07-.293-.28-.44-.628-.44h-2.783c-.32 0-.53.147-.627.44l-3.306 12.574c-.084.293 0 .44.251.44z"/></g><g><path fill="#ff7e0f" d="M88.578 93.495h-1.737c-.293 0-.44-.147-.44-.44V80.481c0-.293.147-.44.44-.44h1.57c.293 0 .488.098.585.293l4.227 7.93h.084V80.48c0-.293.146-.44.44-.44h1.735c.294 0 .44.147.44.44v12.574c0 .293-.146.44-.44.44h-1.526a.698.698 0 0 1-.67-.419l-4.185-7.783h-.083v7.762c0 .293-.147.44-.44.44z"/></g><g><path fill="#ff7e0f" d="M103.851 93.495h-1.757c-.307 0-.46-.147-.46-.44V82.572c0-.152-.078-.23-.231-.23h-2.385c-.293 0-.44-.146-.44-.439v-1.422c0-.293.147-.44.44-.44h7.909c.293 0 .44.147.44.44v1.422c0 .293-.147.44-.44.44h-2.386c-.167 0-.25.077-.25.23v10.482c0 .293-.147.44-.44.44z"/></g><g><path fill="#ff7e0f" d="M112.765 80.48v12.575c0 .293-.147.44-.44.44h-1.778c-.293 0-.44-.147-.44-.44V80.481c0-.293.147-.44.44-.44h1.778c.293 0 .44.147.44.44z"/></g><g><path fill="#ff7e0f" d="M123.916 93.495h-6.842c-.292 0-.439-.147-.439-.44V80.481c0-.293.147-.44.439-.44h6.842c.279 0 .418.147.418.44v1.422c0 .293-.14.44-.418.44h-4.373c-.168 0-.25.077-.25.23v2.72c0 .153.082.23.25.23h3.578c.293 0 .44.146.44.439v1.423c0 .293-.147.44-.44.44h-3.578c-.168 0-.25.076-.25.23v2.908c0 .153.082.23.25.23h4.373c.279 0 .418.146.418.44v1.422c0 .293-.14.44-.418.44z"/></g></g><g><g><path fill="#fff" d="M62.248 122.472c-.567 0-1.073-.129-1.515-.388a2.801 2.801 0 0 1-1.043-1.052 2.993 2.993 0 0 1-.377-1.505c0-.574.124-1.084.373-1.53a2.708 2.708 0 0 1 1.02-1.048c.433-.251.928-.377 1.488-.377.419 0 .802.08 1.149.239.347.16.659.399.935.717.1.114.136.231.107.351a.56.56 0 0 1-.234.32.403.403 0 0 1-.33.068.645.645 0 0 1-.33-.186 1.71 1.71 0 0 0-1.297-.553c-.361 0-.68.084-.956.25a1.735 1.735 0 0 0-.65.697c-.155.297-.233.648-.233 1.052 0 .383.08.723.24 1.021.159.298.38.534.664.707.283.174.613.26.99.26.247 0 .465-.03.653-.09.187-.06.36-.154.515-.282a.65.65 0 0 1 .351-.154.42.42 0 0 1 .319.101c.121.1.188.211.202.335a.393.393 0 0 1-.128.335c-.51.475-1.148.712-1.913.712z"/></g><g><path fill="#fff" d="M66.521 118.794a2.12 2.12 0 0 1 .542-1.451v-.197c0-.177-.043-.31-.132-.399-.09-.088-.222-.133-.4-.133-.17 0-.3.046-.393.138-.092.093-.138.224-.138.394v4.752c0 .178.046.31.138.4.092.088.224.132.394.132.177 0 .31-.046.399-.138.089-.092.132-.223.132-.394v-3.11.006zm1.16-1.946a2.352 2.352 0 0 1 1.169-.297c.425 0 .742.069.951.207.21.138.289.303.24.494a.41.41 0 0 1-.123.229.423.423 0 0 1-.208.1.625.625 0 0 1-.254-.01c-.454-.092-.862-.099-1.223-.021-.362.078-.647.223-.856.436a1.104 1.104 0 0 0-.314.802v-1.445a2.33 2.33 0 0 1 .617-.495z"/></g><g><path fill="#fff" d="M73.475 122.472c-.589 0-1.111-.126-1.568-.377a2.769 2.769 0 0 1-1.074-1.042c-.26-.443-.388-.952-.388-1.526 0-.58.123-1.093.367-1.536.244-.443.583-.79 1.016-1.042.431-.251.927-.377 1.488-.377.553 0 1.027.122 1.424.366.397.245.7.582.909 1.01.209.43.314.924.314 1.484a.447.447 0 0 1-.138.335.485.485 0 0 1-.35.132H71.19v-.85h4.252l-.436.298a2.27 2.27 0 0 0-.213-.952 1.616 1.616 0 0 0-.574-.665c-.248-.163-.549-.244-.903-.244-.404 0-.75.089-1.037.266a1.71 1.71 0 0 0-.654.728c-.149.308-.223.657-.223 1.047 0 .39.089.738.265 1.042.178.305.422.546.735.723a2.133 2.133 0 0 0 1.749.144c.23-.082.416-.176.558-.282a.605.605 0 0 1 .345-.122.465.465 0 0 1 .324.111c.12.107.185.223.192.351.007.128-.05.238-.17.33a2.946 2.946 0 0 1-.899.468c-.358.12-.7.18-1.026.18z"/></g><g><path fill="#fff" d="M82.15 122.44a.526.526 0 0 1-.542-.542v-.395c.117-.143.222-.3.313-.471.238-.443.357-.945.357-1.505h.415v2.371a.527.527 0 0 1-.543.542zm-.542-2.169l.202-1.126.883.382c0-.56-.13-1.063-.389-1.51a2.885 2.885 0 0 0-1.047-1.057 2.88 2.88 0 0 0-1.488-.388 2.87 2.87 0 0 0-2.547 1.446c-.259.446-.388.95-.388 1.51s.119 1.06.357 1.504c.237.443.561.794.973 1.052.41.26.875.388 1.392.388.518 0 .982-.129 1.393-.388a2.71 2.71 0 0 0 .659-.58zm-2.802.984a1.868 1.868 0 0 1-.68-.713 2.057 2.057 0 0 1-.25-1.015c0-.382.083-.724.25-1.026.166-.3.393-.538.68-.712.287-.174.609-.26.963-.26a1.813 1.813 0 0 1 1.637.972c.163.302.245.644.245 1.026 0 .376-.082.714-.245 1.015a1.81 1.81 0 0 1-1.637.973c-.354 0-.676-.086-.963-.26z"/></g><g><path fill="#fff" d="M86.425 122.43c-.355 0-.673-.09-.957-.271a1.904 1.904 0 0 1-.67-.74 2.236 2.236 0 0 1-.244-1.052v-2.626h1.062v2.626c0 .284.078.521.235.713a.715.715 0 0 0 .574.287h.361c.128 0 .235.05.324.149.09.099.133.227.133.382a.482.482 0 0 1-.175.384.678.678 0 0 1-.452.148zm-1.871-7.134c0-.156.049-.284.148-.383a.52.52 0 0 1 .383-.149.52.52 0 0 1 .383.15c.1.098.148.226.148.382v1.53h-1.062zm1.966 2.445a.514.514 0 0 0 .362-.127.418.418 0 0 0 .138-.32.442.442 0 0 0-.138-.34.514.514 0 0 0-.362-.127h-.904v.914zm-2.456-.914a.51.51 0 0 0-.36.128.442.442 0 0 0-.14.34c0 .127.047.233.14.319a.51.51 0 0 0 .36.127h.49v-.914z"/></g><g><path fill="#fff" d="M93.59 122.44a.525.525 0 0 1-.542-.542v-.395c.117-.143.221-.3.313-.471a3.13 3.13 0 0 0 .357-1.505h.414v2.371a.527.527 0 0 1-.542.542zm-.542-2.169l.201-1.126.883.382c0-.56-.13-1.063-.388-1.51a2.885 2.885 0 0 0-1.047-1.057 2.88 2.88 0 0 0-1.489-.388 2.87 2.87 0 0 0-2.546 1.446c-.259.446-.388.95-.388 1.51s.119 1.06.356 1.504c.238.443.562.794.973 1.052.411.26.876.388 1.393.388s.982-.129 1.393-.388c.252-.159.472-.352.659-.581zm-2.802.984a1.874 1.874 0 0 1-.68-.713 2.062 2.062 0 0 1-.25-1.015c0-.382.083-.724.25-1.026.166-.3.393-.538.68-.712.287-.174.608-.26.962-.26a1.816 1.816 0 0 1 1.638.972c.162.302.244.644.244 1.026 0 .376-.082.714-.244 1.015a1.814 1.814 0 0 1-1.638.973c-.354 0-.675-.086-.962-.26z"/></g><g><path fill="#fff" d="M97.13 122.43c-.312 0-.588-.085-.829-.255a1.688 1.688 0 0 1-.563-.696 2.413 2.413 0 0 1-.202-1.016v-5.805a.52.52 0 0 1 .148-.383.52.52 0 0 1 .383-.149.52.52 0 0 1 .383.15c.099.099.149.226.149.382v5.805c0 .263.05.479.149.65.099.169.226.254.382.254h.266c.142 0 .257.05.346.149.088.1.133.227.133.383a.456.456 0 0 1-.202.383.86.86 0 0 1-.522.148z"/></g><g><path fill="#fff" d="M101.352 122.472c-.59 0-1.112-.126-1.57-.377a2.764 2.764 0 0 1-1.073-1.042c-.258-.443-.388-.952-.388-1.526 0-.58.122-1.093.367-1.536a2.68 2.68 0 0 1 1.015-1.042c.432-.251.929-.377 1.489-.377.553 0 1.027.122 1.424.366.397.245.7.582.91 1.01.208.43.313.924.313 1.484a.445.445 0 0 1-.138.335.485.485 0 0 1-.35.132h-4.285v-.85h4.252l-.436.298a2.278 2.278 0 0 0-.212-.952 1.616 1.616 0 0 0-.574-.665c-.249-.163-.55-.244-.904-.244-.404 0-.75.089-1.037.266a1.71 1.71 0 0 0-.654.728c-.149.308-.223.657-.223 1.047 0 .39.089.738.266 1.042.177.305.421.546.733.723a2.136 2.136 0 0 0 1.75.144c.23-.082.416-.176.557-.282a.605.605 0 0 1 .346-.122.466.466 0 0 1 .324.111c.121.107.184.223.192.351.007.128-.05.238-.17.33-.241.191-.54.347-.899.468-.358.12-.7.18-1.025.18z"/></g></g></g></g></svg>