<svg xmlns="http://www.w3.org/2000/svg" width="172" height="173" viewBox="0 0 172 173"><g><g><g><g><path fill="#ff7e0f" d="M45.034 73.507c-.175-.18-.261-.486-.261-.914v-6.127c0-.428.086-.732.26-.914.175-.18.475-.271.904-.271h1.427c.428 0 .733.09.913.271.181.182.272.486.272.914v6.127c0 .428-.091.733-.272.914-.18.18-.485.271-.913.271h-1.426c-.43 0-.73-.09-.904-.27zm4.58 5.152c.147 0 .253-.047.32-.14.068-.094.068-.22 0-.382l-1.286-2.229c.777-.148 1.377-.496 1.8-1.045.421-.55.632-1.266.632-2.149v-6.368c0-1.058-.289-1.868-.864-2.43-.576-.563-1.393-.845-2.45-.845h-2.25c-1.059 0-1.875.282-2.451.845-.576.562-.864 1.372-.864 2.43v6.368c0 1.057.288 1.868.864 2.43.576.562 1.392.844 2.45.844h.543l1.306 2.25c.16.28.422.42.782.42z"/></g><g><path fill="#ff7e0f" d="M60.279 63.071h1.687c.294 0 .442.134.442.402v9.241c0 1.045-.292 1.851-.874 2.42-.583.57-1.396.854-2.44.854h-2.21c-1.058 0-1.875-.282-2.45-.844-.577-.562-.864-1.373-.864-2.43v-9.22c0-.282.14-.423.422-.423H55.7c.281 0 .422.141.422.422v9.1c0 .428.09.733.27.914.181.18.48.271.895.271h1.386c.428 0 .733-.09.914-.27.18-.182.27-.487.27-.915v-9.1c0-.28.142-.422.423-.422z"/></g><g><path fill="#ff7e0f" d="M69.258 65.502l1.446 5.805h-2.973l1.446-5.805zm-2.993 10.486c.134 0 .23-.03.291-.09.06-.06.104-.171.13-.332l.563-2.21h3.918l.562 2.21c.026.16.066.271.12.331.053.06.154.09.301.09h1.93c.24 0 .32-.14.24-.42l-3.174-12.074c-.067-.28-.268-.422-.603-.422h-2.671c-.308 0-.51.141-.603.422l-3.174 12.073c-.08.28 0 .422.242.422z"/></g><g><path fill="#ff7e0f" d="M83.139 75.988h-6.61c-.28 0-.421-.141-.421-.422V63.493c0-.28.142-.422.422-.422h1.707c.282 0 .423.141.423.422v10.044c0 .147.08.222.24.222h4.239c.268 0 .402.147.402.441v1.366c0 .28-.134.422-.402.422z"/></g><g><path fill="#ff7e0f" d="M87.778 63.493v12.073c0 .28-.14.422-.422.422h-1.708c-.28 0-.421-.141-.421-.422V63.493c0-.28.14-.422.421-.422h1.708c.282 0 .422.141.422.422z"/></g><g><path fill="#ff7e0f" d="M94.487 75.988H92.8c-.295 0-.442-.141-.442-.422V65.502c0-.147-.074-.221-.22-.221h-2.29c-.282 0-.423-.14-.423-.422v-1.366c0-.28.141-.422.423-.422h7.592c.282 0 .422.141.422.422v1.366c0 .281-.14.422-.422.422h-2.29c-.16 0-.24.074-.24.22v10.065c0 .28-.141.422-.423.422z"/></g><g><path fill="#ff7e0f" d="M104.39 61.364c0 .281.128.422.382.422h1.607c.254 0 .382-.14.382-.422v-1.787c0-.255-.128-.383-.382-.383h-1.607c-.254 0-.382.135-.382.402zm-.663 4.138l1.446 5.805h-2.972l1.446-5.805zm-3.154-4.138c0 .281.128.422.382.422h1.607c.254 0 .382-.14.382-.422v-1.787c0-.255-.128-.383-.382-.383h-1.607c-.254 0-.382.135-.382.402zm.161 14.624c.134 0 .232-.03.291-.09.061-.06.104-.171.131-.332l.562-2.21h3.917l.563 2.21c.027.16.067.272.12.331.055.06.155.091.303.091h1.927c.241 0 .322-.141.241-.422l-3.173-12.072c-.067-.281-.268-.423-.603-.423h-2.671c-.309 0-.51.142-.603.423l-3.174 12.072c-.08.28 0 .422.24.422h1.93z"/></g><g><path fill="#ff7e0f" d="M114.554 75.988h-1.686c-.296 0-.442-.141-.442-.422V65.502c0-.147-.074-.221-.22-.221h-2.291c-.282 0-.422-.14-.422-.422v-1.366c0-.28.14-.422.422-.422h7.592c.283 0 .423.141.423.422v1.366c0 .281-.14.422-.423.422h-2.29c-.16 0-.24.074-.24.22v10.065c0 .28-.14.422-.423.422z"/></g><g><path fill="#ff7e0f" d="M119.135 72.694v-.402c0-.282.14-.423.422-.423h1.708c.281 0 .42.141.42.423v.16c0 .51.102.857.303 1.045.201.187.568.281 1.104.281h.945c.522 0 .887-.1 1.095-.301.206-.2.31-.575.31-1.126v-.24c0-.388-.157-.686-.471-.894-.314-.208-.707-.331-1.175-.372-.47-.04-.975-.117-1.518-.231a9.838 9.838 0 0 1-1.516-.441c-.468-.181-.86-.536-1.175-1.065-.315-.53-.472-1.209-.472-2.039v-.704c0-1.044.295-1.854.884-2.43.588-.575 1.407-.864 2.45-.864h2.009c1.058 0 1.882.289 2.471.864.59.576.884 1.386.884 2.43v.382c0 .282-.141.422-.422.422h-1.707c-.281 0-.422-.14-.422-.422v-.12c0-.522-.1-.877-.302-1.065-.2-.187-.569-.281-1.105-.281h-.783c-.549 0-.92.104-1.114.311-.195.208-.292.613-.292 1.216v.381c0 .63.548.991 1.647 1.085 1.139.094 2.15.322 3.033.683.47.201.861.559 1.176 1.075.314.515.472 1.175.472 1.978v.684c0 1.044-.295 1.854-.884 2.43-.589.575-1.406.864-2.451.864h-2.19c-1.044 0-1.862-.289-2.45-.864-.589-.576-.884-1.386-.884-2.43z"/></g><g><path fill="#ff7e0f" d="M134.02 70.604h-3.817c-.281 0-.423-.14-.423-.422v-1.185c0-.295.142-.442.423-.442h3.817c.28 0 .421.147.421.442v1.185c0 .281-.14.422-.421.422z"/></g></g><g><g><path fill="#ff7e0f" d="M48.162 95.456h-2.278c-1.132 0-2.007-.3-2.622-.902-.616-.602-.925-1.47-.925-2.6v-6.815c0-1.132.309-1.999.925-2.6.615-.602 1.49-.903 2.622-.903h2.278c1.118 0 1.984.304 2.6.913.616.61.925 1.473.925 2.59v.646c0 .315-.15.472-.451.472h-1.827c-.302 0-.451-.157-.451-.472v-.517c0-.458-.094-.785-.28-.977-.187-.194-.509-.291-.967-.291h-1.397c-.445 0-.764.097-.957.291-.193.192-.29.519-.29.977v6.556c0 .46.097.785.29.978.193.194.512.29.957.29h1.397c.458 0 .78-.096.967-.29.186-.193.28-.519.28-.978V90.47c0-.158-.08-.237-.237-.237h-1.29c-.3 0-.451-.15-.451-.451V88.32c0-.301.15-.451.452-.451h3.76c.33 0 .495.164.495.493v3.59c0 1.117-.309 1.981-.925 2.59-.616.61-1.482.913-2.6.913z"/></g><g><path fill="#ff7e0f" d="M59.983 84.237l1.548 6.211h-3.182l1.548-6.21zm-3.202 11.22c.142 0 .247-.033.31-.097.065-.065.112-.183.14-.356l.601-2.364h4.192l.602 2.364c.029.173.072.291.13.356.056.064.164.096.322.096h2.063c.258 0 .345-.15.258-.452l-3.397-12.917c-.07-.3-.286-.451-.644-.451h-2.86c-.329 0-.543.15-.643.451l-3.397 12.917c-.084.302 0 .452.26.452z"/></g><g><path fill="#ff7e0f" d="M71.353 88.17c-.158 0-.236-.079-.236-.236v-3.697c0-.157.078-.237.236-.237h2.106c.458 0 .795.1 1.01.301.215.2.323.523.323.967v1.677c0 .43-.108.741-.323.935-.215.193-.552.29-1.01.29h-2.106zm-.688 7.286c.301 0 .452-.15.452-.452V90.6c0-.158.085-.237.258-.237h1.439l2.15 4.642c.071.187.164.31.28.367.113.057.3.085.558.085h1.741c.373 0 .494-.172.365-.516l-2.3-4.793v-.086c1.276-.53 1.913-1.604 1.913-3.224v-1.676c0-1.118-.315-1.985-.945-2.601-.631-.616-1.505-.924-2.623-.924h-5.115c-.3 0-.451.15-.451.451v12.917c0 .302.15.452.451.452h1.827z"/></g><g><path fill="#ff7e0f" d="M85.861 84.237l1.547 6.211h-3.181l1.548-6.21zm-3.202 11.22c.142 0 .246-.033.311-.097.063-.065.11-.183.14-.356l.6-2.364h4.192l.603 2.364c.028.173.07.291.128.356.057.064.164.096.323.096h2.063c.257 0 .344-.15.257-.452L87.88 82.087c-.07-.3-.287-.451-.645-.451h-2.858c-.33 0-.545.15-.645.451l-3.395 12.917c-.086.302 0 .452.258.452z"/></g><g><path fill="#ff7e0f" d="M96.5 95.456h-1.784c-.3 0-.451-.15-.451-.452V82.087c0-.3.15-.451.451-.451h1.612c.3 0 .502.1.602.3l4.341 8.147h.087v-7.996c0-.3.15-.451.45-.451h1.785c.301 0 .452.15.452.451v12.917c0 .302-.15.452-.452.452h-1.57c-.315 0-.543-.143-.687-.43l-4.299-7.995h-.085v7.973c0 .302-.15.452-.452.452z"/></g><g><path fill="#ff7e0f" d="M112.191 95.456h-1.807c-.314 0-.472-.15-.472-.452V84.237c0-.157-.079-.237-.236-.237h-2.45c-.3 0-.452-.15-.452-.451v-1.462c0-.3.151-.451.452-.451h8.124c.3 0 .45.15.45.451v1.462c0 .302-.15.451-.45.451h-2.45c-.172 0-.257.08-.257.237v10.767c0 .302-.152.452-.452.452z"/></g><g><path fill="#ff7e0f" d="M121.347 82.087v12.917c0 .302-.15.452-.452.452h-1.827c-.3 0-.451-.15-.451-.452V82.087c0-.3.151-.451.451-.451h1.827c.302 0 .452.15.452.451z"/></g><g><path fill="#ff7e0f" d="M132.803 95.456h-7.03c-.3 0-.45-.15-.45-.452V82.087c0-.3.15-.451.45-.451h7.03c.286 0 .429.15.429.451v1.462c0 .302-.143.451-.43.451h-4.492c-.173 0-.258.08-.258.237v2.794c0 .157.085.237.258.237h3.675c.302 0 .452.15.452.45v1.462c0 .301-.15.451-.452.451h-3.675c-.173 0-.258.079-.258.237v2.987c0 .158.085.237.258.237h4.493c.286 0 .429.15.429.452v1.46c0 .302-.143.452-.43.452z"/></g></g><g><path fill="#ffb00d" d="M86.566.339l2.929 8.152 8.658.263-6.85 5.305 2.426 8.32-7.163-4.877-7.161 4.877 2.426-8.32-6.851-5.305 8.658-.263L86.566.34z"/></g><g><path fill="#ff7e0f" d="M54.673 157.362c-3.103 2.481-7.547 3.988-12.453 3.883-4.904-.102-9.283-1.794-12.28-4.406 3.104-2.48 7.55-3.99 12.453-3.885 4.906.103 9.282 1.796 12.28 4.408z"/></g><g><path fill="#ff7e0f" d="M40.027 148.237c-3.365 1.715-7.789 2.263-12.333 1.225-4.542-1.037-8.29-3.453-10.578-6.455 3.365-1.715 7.787-2.263 12.333-1.226 4.543 1.038 8.291 3.455 10.578 6.456z"/></g><g><path fill="#ff7e0f" d="M27.988 136.223c-3.472.904-7.687.507-11.69-1.383-4.005-1.893-6.987-4.9-8.495-8.154 3.47-.9 7.688-.507 11.691 1.386 4.005 1.891 6.986 4.9 8.494 8.151z"/></g><g><path fill="#ff7e0f" d="M19.077 122.503c-3.404.098-7.225-1.162-10.532-3.761-3.308-2.601-5.43-6.018-6.135-9.354 3.404-.097 7.223 1.162 10.533 3.764 3.304 2.602 5.43 6.018 6.134 9.351z"/></g><g><path fill="#ff7e0f" d="M13.451 107.142c-3.173-.637-6.439-2.624-8.94-5.74C2.007 98.287.776 94.67.836 91.432c3.174.64 6.44 2.624 8.943 5.741 2.501 3.114 3.735 6.735 3.673 9.969z"/></g><g><path fill="#ff7e0f" d="M11.185 91.017c-2.77-1.334-5.311-3.93-6.88-7.386-1.573-3.457-1.857-7.077-1.04-10.041 2.77 1.334 5.308 3.929 6.88 7.385 1.573 3.456 1.858 7.075 1.04 10.042z"/></g><g><path fill="#ff7e0f" d="M12.436 76.028C9.91 74.276 7.808 71.314 6.8 67.654c-1.01-3.66-.723-7.28.547-10.078 2.529 1.752 4.629 4.712 5.638 8.373 1.008 3.659.724 7.28-.55 10.08z"/></g><g><path fill="#ff7e0f" d="M16.903 60.747c-2.018-2.11-3.41-5.267-3.653-8.864-.24-3.598.715-6.912 2.432-9.275 2.018 2.11 3.41 5.266 3.65 8.865.243 3.599-.713 6.915-2.43 9.274z"/></g><g><path fill="#ff7e0f" d="M23.844 47.426c-1.365-2.417-1.91-5.65-1.294-9.02.617-3.37 2.272-6.199 4.405-7.972 1.365 2.414 1.908 5.645 1.294 9.015-.617 3.371-2.272 6.2-4.405 7.977z"/></g><g><path fill="#ff7e0f" d="M27.171 49.886c2.48 1.243 5.735 1.628 9.07.844 3.336-.784 6.08-2.574 7.746-4.794-2.478-1.243-5.734-1.626-9.068-.844-3.338.784-6.08 2.576-7.748 4.794z"/></g><g><path fill="#ff7e0f" d="M33.358 36.013c-.956-2.456-1.03-5.568.009-8.654 1.038-3.085 2.977-5.52 5.224-6.898.956 2.455 1.027 5.569-.012 8.653-1.037 3.084-2.974 5.52-5.221 6.899z"/></g><g><path fill="#ff7e0f" d="M36.235 38.71c2.213 1.427 5.248 2.126 8.477 1.727 3.232-.399 6.007-1.809 7.811-3.733-2.217-1.429-5.251-2.124-8.481-1.727-3.23.398-6.006 1.808-7.807 3.732z"/></g><g><path fill="#ff7e0f" d="M42.403 28.289c-.563-2.44-.207-5.376 1.188-8.135 1.396-2.759 3.551-4.786 5.85-5.777.565 2.44.211 5.376-1.185 8.137-1.397 2.757-3.55 4.784-5.853 5.775z"/></g><g><path fill="#ff7e0f" d="M45.051 31.185c2.004 1.494 4.84 2.349 7.926 2.178 3.087-.172 5.808-1.335 7.64-3.043-2.008-1.494-4.843-2.347-7.929-2.178-3.087.172-5.808 1.332-7.637 3.043z"/></g><g><path fill="#ff7e0f" d="M20.415 62.59c1.274-2.63 3.745-5.032 7.033-6.515 3.288-1.484 6.727-1.744 9.542-.96-1.276 2.628-3.748 5.035-7.035 6.516-3.289 1.483-6.727 1.744-9.54.96z"/></g><g><path fill="#ff7e0f" d="M16.29 77.106c.624-3.011 2.528-6.1 5.501-8.46 2.975-2.359 6.42-3.51 9.493-3.434-.626 3.01-2.53 6.102-5.503 8.462-2.976 2.358-6.419 3.51-9.49 3.432z"/></g><g><path fill="#ff7e0f" d="M15.341 90.634c.226-3.067 1.707-6.384 4.345-9.11 2.64-2.733 5.9-4.325 8.958-4.656-.225 3.067-1.707 6.383-4.344 9.113-2.638 2.73-5.9 4.326-8.959 4.653z"/></g><g><path fill="#ff7e0f" d="M17.31 105.916c-.482-3.198.263-6.948 2.338-10.364 2.071-3.416 5.05-5.814 8.11-6.861.485 3.198-.264 6.946-2.335 10.364-2.071 3.419-5.051 5.812-8.113 6.861z"/></g><g><path fill="#ff7e0f" d="M22.55 120.35c-1.069-3.235-.953-7.258.596-11.17 1.549-3.909 4.215-6.922 7.207-8.55 1.068 3.236.952 7.257-.596 11.168-1.548 3.913-4.216 6.924-7.206 8.551z"/></g><g><path fill="#ff7e0f" d="M31.262 133.88c-1.702-3.155-2.325-7.342-1.44-11.682.88-4.341 3.09-7.955 5.89-10.193 1.705 3.155 2.325 7.344 1.442 11.684-.881 4.339-3.091 7.954-5.892 10.191z"/></g><g><path fill="#ff7e0f" d="M42.692 144.899c-2.344-2.955-3.763-7.182-3.649-11.843.113-4.66 1.737-8.812 4.226-11.649 2.348 2.955 3.762 7.181 3.65 11.844-.115 4.657-1.737 8.812-4.227 11.648z"/></g><g><path fill="#ff7e0f" d="M56.694 153.225c-3.07-2.525-5.463-6.56-6.373-11.384-.912-4.82-.157-9.453 1.778-12.922 3.067 2.523 5.459 6.562 6.372 11.382.91 4.821.158 9.453-1.777 12.924z"/></g><g><path fill="#ff7e0f" d="M50.231 25.435c.982-2.304 2.998-4.468 5.753-5.876 2.752-1.407 5.687-1.772 8.13-1.218-.982 2.306-3 4.465-5.752 5.873-2.754 1.407-5.69 1.774-8.13 1.22z"/></g><g><path fill="#ff7e0f" d="M86.45 162.868c-34.753-.004-65.857-24.763-72.536-60.118-5.853-30.995 8.75-61.26 34.246-76.793 1.2-.732 2.035.272.652 1.116-24.864 15.159-39.098 44.675-33.389 74.908 6.53 34.58 37.017 58.772 71.027 58.651v2.236z"/></g><g><path fill="#ff7e0f" d="M70.866 162.8c-2.363 2.943-6.172 5.26-10.743 6.177-4.57.917-8.979.252-12.295-1.55 2.365-2.942 6.176-5.258 10.743-6.175 4.57-.918 8.98-.252 12.295 1.548z"/></g><g><path fill="#ff7e0f" d="M71.964 158.357c-3.302-1.533-6.354-4.562-8.271-8.626-1.917-4.066-2.316-8.346-1.398-11.867 3.3 1.53 6.351 4.558 8.27 8.625 1.918 4.064 2.317 8.344 1.4 11.868z"/></g><g><path fill="#ff7e0f" d="M84.855 164.272c-1.366 2.677-3.958 5.1-7.37 6.556-3.412 1.458-6.955 1.654-9.834.79 1.366-2.676 3.957-5.1 7.37-6.558 3.413-1.457 6.956-1.655 9.834-.788z"/></g><g><path fill="#ff7e0f" d="M84.988 159.916c-2.824-.658-5.693-2.524-7.846-5.379-2.156-2.857-3.163-6.129-3.02-9.02 2.821.655 5.69 2.522 7.845 5.377 2.156 2.857 3.163 6.129 3.02 9.022z"/></g><g><path fill="#ff7e0f" d="M118.231 157.362c3.102 2.481 7.547 3.988 12.453 3.883 4.906-.102 9.283-1.794 12.278-4.406-3.102-2.48-7.548-3.99-12.453-3.885-4.907.103-9.283 1.796-12.278 4.408z"/></g><g><path fill="#ff7e0f" d="M132.876 148.237c3.363 1.715 7.788 2.263 12.333 1.225 4.544-1.037 8.291-3.453 10.576-6.455-3.363-1.715-7.787-2.263-12.33-1.226-4.546 1.038-8.294 3.455-10.579 6.456z"/></g><g><path fill="#ff7e0f" d="M144.913 136.223c3.474.904 7.69.507 11.693-1.383 4.002-1.893 6.984-4.9 8.492-8.154-3.468-.9-7.685-.507-11.69 1.386-4.004 1.891-6.986 4.9-8.495 8.151z"/></g><g><path fill="#ff7e0f" d="M153.825 122.503c3.405.098 7.227-1.162 10.534-3.761 3.305-2.601 5.43-6.018 6.138-9.354-3.407-.097-7.23 1.162-10.536 3.764-3.305 2.602-5.429 6.018-6.136 9.351z"/></g><g><path fill="#ff7e0f" d="M159.45 107.142c3.174-.637 6.441-2.624 8.941-5.74 2.505-3.115 3.737-6.733 3.676-9.97-3.172.64-6.441 2.624-8.94 5.741-2.504 3.114-3.739 6.735-3.677 9.969z"/></g><g><path fill="#ff7e0f" d="M161.718 91.017c2.768-1.334 5.309-3.93 6.88-7.386 1.571-3.457 1.858-7.077 1.04-10.041-2.773 1.334-5.31 3.929-6.883 7.385-1.57 3.456-1.855 7.075-1.037 10.042z"/></g><g><path fill="#ff7e0f" d="M160.466 76.028c2.528-1.752 4.627-4.714 5.636-8.374 1.01-3.66.723-7.28-.548-10.078-2.526 1.752-4.63 4.712-5.638 8.373-1.01 3.659-.721 7.28.55 10.08z"/></g><g><path fill="#ff7e0f" d="M156 60.747c2.018-2.11 3.41-5.267 3.653-8.864.24-3.598-.716-6.912-2.434-9.275-2.016 2.11-3.408 5.266-3.65 8.865-.24 3.599.715 6.915 2.431 9.274z"/></g><g><path fill="#ff7e0f" d="M149.06 47.426c1.362-2.417 1.907-5.65 1.291-9.02-.617-3.37-2.27-6.199-4.402-7.972-1.366 2.414-1.912 5.645-1.294 9.015.616 3.371 2.271 6.2 4.404 7.977z"/></g><g><path fill="#ff7e0f" d="M145.73 49.886c-2.478 1.243-5.735 1.628-9.068.844-3.336-.784-6.08-2.574-7.748-4.794 2.482-1.243 5.735-1.626 9.07-.844 3.337.784 6.08 2.576 7.746 4.794z"/></g><g><path fill="#ff7e0f" d="M139.546 36.013c.956-2.456 1.028-5.568-.01-8.654-1.037-3.085-2.977-5.52-5.224-6.898-.955 2.455-1.029 5.569.009 8.653 1.038 3.084 2.979 5.52 5.225 6.899z"/></g><g><path fill="#ff7e0f" d="M136.669 38.71c-2.216 1.427-5.248 2.126-8.477 1.727-3.232-.399-6.006-1.809-7.812-3.733 2.215-1.429 5.25-2.124 8.481-1.727 3.232.398 6.006 1.808 7.808 3.732z"/></g><g><path fill="#ff7e0f" d="M130.498 28.289c.562-2.44.209-5.376-1.187-8.135-1.395-2.759-3.55-4.786-5.85-5.777-.564 2.44-.21 5.376 1.186 8.137 1.397 2.757 3.549 4.784 5.85 5.775z"/></g><g><path fill="#ff7e0f" d="M127.855 31.185c-2.01 1.494-4.842 2.349-7.928 2.178-3.09-.172-5.809-1.335-7.64-3.043 2.008-1.494 4.84-2.347 7.929-2.178 3.087.172 5.806 1.332 7.639 3.043z"/></g><g><path fill="#ff7e0f" d="M152.49 62.59c-1.274-2.63-3.747-5.032-7.036-6.515-3.287-1.484-6.725-1.744-9.54-.96 1.274 2.628 3.748 5.035 7.034 6.516 3.288 1.483 6.726 1.744 9.541.96z"/></g><g><path fill="#ff7e0f" d="M156.615 77.106c-.626-3.011-2.53-6.1-5.505-8.46-2.975-2.359-6.418-3.51-9.493-3.434.626 3.01 2.529 6.102 5.505 8.462 2.975 2.358 6.418 3.51 9.493 3.432z"/></g><g><path fill="#ff7e0f" d="M157.56 90.634c-.223-3.067-1.704-6.384-4.343-9.11-2.637-2.733-5.901-4.325-8.957-4.656.223 3.067 1.704 6.383 4.343 9.113 2.637 2.73 5.899 4.326 8.957 4.653z"/></g><g><path fill="#ff7e0f" d="M155.59 105.916c.487-3.198-.261-6.948-2.335-10.364-2.07-3.416-5.049-5.814-8.111-6.861-.485 3.198.264 6.946 2.335 10.364 2.072 3.419 5.05 5.812 8.111 6.861z"/></g><g><path fill="#ff7e0f" d="M150.355 120.35c1.067-3.235.951-7.258-.597-11.17-1.546-3.909-4.214-6.922-7.209-8.55-1.068 3.236-.953 7.257.595 11.168 1.55 3.913 4.216 6.924 7.211 8.551z"/></g><g><path fill="#ff7e0f" d="M141.639 133.88c1.703-3.155 2.325-7.342 1.443-11.682-.884-4.341-3.093-7.955-5.893-10.193-1.703 3.155-2.324 7.344-1.443 11.684.882 4.339 3.093 7.954 5.893 10.191z"/></g><g><path fill="#ff7e0f" d="M130.208 144.899c2.347-2.955 3.766-7.182 3.65-11.843-.113-4.66-1.735-8.812-4.224-11.649-2.348 2.955-3.766 7.181-3.65 11.844.113 4.657 1.736 8.812 4.224 11.648z"/></g><g><path fill="#ff7e0f" d="M116.207 153.225c3.071-2.525 5.463-6.56 6.373-11.384.911-4.82.159-9.453-1.776-12.922-3.07 2.523-5.46 6.562-6.372 11.382-.913 4.821-.158 9.453 1.775 12.924z"/></g><g><path fill="#ff7e0f" d="M122.672 25.435c-.982-2.304-3-4.468-5.752-5.876-2.755-1.407-5.689-1.772-8.13-1.218.981 2.306 2.997 4.465 5.751 5.873 2.755 1.407 5.69 1.774 8.13 1.22z"/></g><g><path fill="#ff7e0f" d="M86.45 162.868c34.757-.004 65.86-24.763 72.535-60.118 5.856-30.995-8.746-61.26-34.242-76.793-1.2-.732-2.038.272-.652 1.116 24.862 15.159 39.098 44.675 33.388 74.908-6.531 34.58-37.016 58.772-71.028 58.651z"/></g><g><path fill="#ff7e0f" d="M102.035 162.8c2.364 2.943 6.175 5.26 10.744 6.177 4.57.917 8.978.252 12.295-1.55-2.365-2.942-6.172-5.258-10.745-6.175-4.57-.918-8.976-.252-12.294 1.548z"/></g><g><path fill="#ff7e0f" d="M100.937 158.357c3.303-1.533 6.354-4.562 8.273-8.626 1.918-4.066 2.317-8.346 1.399-11.867-3.303 1.53-6.352 4.558-8.27 8.625-1.919 4.064-2.317 8.344-1.402 11.868z"/></g><g><path fill="#ff7e0f" d="M88.05 164.272c1.364 2.677 3.956 5.1 7.368 6.556 3.412 1.458 6.957 1.654 9.835.79-1.366-2.676-3.957-5.1-7.372-6.558-3.412-1.457-6.955-1.655-9.832-.788z"/></g><g><path fill="#ff7e0f" d="M87.916 159.916c2.821-.658 5.691-2.524 7.845-5.379 2.156-2.857 3.162-6.129 3.018-9.02-2.822.655-5.69 2.522-7.847 5.377-2.152 2.857-3.159 6.129-3.016 9.022z"/></g><g><g><path fill="#ffb00d" d="M60.15 115.632c-.758 0-1.434-.172-2.025-.518a3.737 3.737 0 0 1-1.393-1.407c-.337-.593-.505-1.263-.505-2.012 0-.768.166-1.45.497-2.047a3.634 3.634 0 0 1 1.365-1.4c.578-.336 1.241-.504 1.99-.504.56 0 1.07.106 1.535.319.465.213.882.533 1.25.96.134.151.181.308.144.469-.039.16-.143.303-.313.426a.54.54 0 0 1-.44.093.872.872 0 0 1-.442-.249c-.463-.493-1.042-.74-1.734-.74-.483 0-.91.112-1.28.335-.368.223-.658.533-.866.93-.209.399-.313.868-.313 1.408 0 .512.107.967.32 1.365.213.398.51.713.889.945.379.232.82.349 1.321.349.332 0 .623-.04.875-.122.25-.08.48-.206.689-.377a.858.858 0 0 1 .47-.205.556.556 0 0 1 .425.135c.161.133.251.282.27.447a.53.53 0 0 1-.17.448c-.682.635-1.535.952-2.559.952z"/></g><g><path fill="#ffb00d" d="M65.865 110.714a2.838 2.838 0 0 1 .725-1.94v-.264c0-.236-.059-.414-.177-.533-.12-.118-.297-.178-.533-.178-.228 0-.403.063-.526.186-.124.123-.185.299-.185.525v6.355c0 .237.061.415.185.533.123.12.298.178.526.178.236 0 .414-.062.533-.185.118-.123.177-.299.177-.526v-4.157.006zm1.55-2.601a3.146 3.146 0 0 1 1.564-.398c.568 0 .992.092 1.271.277.28.184.387.405.321.66a.552.552 0 0 1-.164.306.557.557 0 0 1-.277.135.836.836 0 0 1-.341-.013c-.607-.123-1.152-.133-1.635-.029-.483.104-.865.298-1.145.583-.278.283-.417.641-.419 1.074v-1.934c.231-.262.506-.483.825-.661z"/></g><g><path fill="#ffb00d" d="M75.162 115.632c-.787 0-1.485-.167-2.097-.504a3.698 3.698 0 0 1-1.436-1.393c-.346-.592-.52-1.272-.52-2.04 0-.777.165-1.462.492-2.054a3.59 3.59 0 0 1 1.357-1.393c.579-.336 1.242-.504 1.99-.504.74 0 1.375.163 1.905.49.531.327.936.777 1.216 1.35.28.574.42 1.234.42 1.983 0 .18-.063.33-.186.448a.65.65 0 0 1-.469.177h-5.729v-1.137h5.687l-.583.399a3.055 3.055 0 0 0-.284-1.273 2.165 2.165 0 0 0-.768-.889c-.332-.217-.735-.326-1.209-.326-.54 0-1.002.118-1.386.355a2.288 2.288 0 0 0-.874.974c-.199.412-.298.88-.298 1.4 0 .522.118.986.355 1.393.236.408.565.73.982.967.417.237.894.355 1.435.355.293 0 .595-.055.903-.163.307-.11.556-.235.746-.377a.807.807 0 0 1 .462-.163.624.624 0 0 1 .434.148c.16.143.246.3.255.47.01.17-.066.318-.228.44a3.93 3.93 0 0 1-1.2.626 4.299 4.299 0 0 1-1.372.241z"/></g><g><path fill="#ffb00d" d="M86.761 115.59a.7.7 0 0 1-.725-.725v-.53c.157-.19.297-.4.42-.628.317-.593.476-1.263.476-2.012h.554v3.17a.704.704 0 0 1-.725.725zm-.724-2.9l.27-1.507 1.179.512c0-.749-.173-1.422-.519-2.018a3.857 3.857 0 0 0-1.4-1.415c-.588-.346-1.251-.518-1.99-.518-.74 0-1.405.172-1.997.518a3.83 3.83 0 0 0-1.408 1.415c-.345.596-.518 1.27-.518 2.018 0 .749.158 1.42.475 2.012a3.7 3.7 0 0 0 1.301 1.407 3.42 3.42 0 0 0 1.863.518c.692 0 1.312-.172 1.862-.518.337-.213.631-.472.882-.778zm-3.746 1.315a2.5 2.5 0 0 1-.91-.952 2.746 2.746 0 0 1-.335-1.358c0-.512.112-.968.335-1.372.222-.402.526-.72.91-.952a2.436 2.436 0 0 1 1.286-.349c.483 0 .915.117 1.294.35.379.231.677.549.895.951.218.404.327.86.327 1.372 0 .503-.11.955-.327 1.358-.218.403-.516.72-.895.952-.38.232-.81.349-1.294.349-.475 0-.903-.117-1.286-.35z"/></g><g><path fill="#ffb00d" d="M92.476 115.576c-.474 0-.9-.12-1.28-.362a2.54 2.54 0 0 1-.895-.988 2.993 2.993 0 0 1-.327-1.408v-3.51h1.421v3.51c0 .38.105.698.313.953.209.255.465.383.768.383h.483c.17 0 .316.068.434.2a.742.742 0 0 1 .178.511.64.64 0 0 1-.235.512c-.156.133-.358.2-.604.2zm-2.502-9.538c0-.209.067-.379.2-.513a.694.694 0 0 1 .51-.198c.21 0 .38.067.513.198a.697.697 0 0 1 .198.513v2.047h-1.42zm2.63 3.27c.2 0 .36-.058.484-.171a.555.555 0 0 0 .184-.426.592.592 0 0 0-.184-.456.688.688 0 0 0-.484-.17h-1.208v1.223zm-3.284-1.223c-.199 0-.36.057-.484.17a.592.592 0 0 0-.184.456c0 .17.061.312.184.426.124.113.285.17.484.17h.654v-1.222z"/></g><g><path fill="#ffb00d" d="M102.057 115.59a.699.699 0 0 1-.519-.206.7.7 0 0 1-.206-.52v-.528c.156-.191.296-.401.418-.63.318-.592.478-1.262.478-2.01h.554v3.169a.705.705 0 0 1-.725.725zm-.725-2.9l.27-1.507 1.18.512c0-.749-.174-1.422-.519-2.018a3.858 3.858 0 0 0-1.4-1.415c-.59-.346-1.252-.518-1.99-.518-.74 0-1.406.172-1.998.518a3.83 3.83 0 0 0-1.407 1.415c-.346.596-.519 1.27-.519 2.018 0 .749.158 1.42.476 2.012.318.592.75 1.061 1.3 1.407a3.42 3.42 0 0 0 1.863.518c.692 0 1.312-.172 1.862-.518a3.63 3.63 0 0 0 .882-.778zm-3.747 1.315a2.503 2.503 0 0 1-.909-.952 2.751 2.751 0 0 1-.334-1.358c0-.512.111-.968.334-1.372.222-.402.526-.72.91-.952a2.44 2.44 0 0 1 1.287-.349c.482 0 .914.117 1.293.35.378.231.677.549.895.951.218.404.328.86.328 1.372a2.8 2.8 0 0 1-.328 1.358 2.422 2.422 0 0 1-2.188 1.3c-.475 0-.904-.116-1.288-.348z"/></g><g><path fill="#ffb00d" d="M106.791 115.576c-.417 0-.787-.114-1.11-.341a2.268 2.268 0 0 1-.753-.931c-.18-.393-.27-.846-.27-1.358v-7.76a.69.69 0 0 1 .2-.513.694.694 0 0 1 .511-.199c.208 0 .379.067.512.2.132.132.2.303.2.511v7.761c0 .352.065.64.197.867.134.228.304.342.513.342h.355c.189 0 .343.067.462.199a.738.738 0 0 1 .178.512.61.61 0 0 1-.27.511c-.181.133-.412.2-.697.2z"/></g><g><path fill="#ffb00d" d="M112.434 115.632c-.787 0-1.486-.167-2.096-.504a3.69 3.69 0 0 1-1.437-1.393c-.346-.592-.518-1.272-.518-2.04 0-.777.163-1.462.49-2.054a3.583 3.583 0 0 1 1.357-1.393c.58-.336 1.242-.504 1.992-.504.738 0 1.373.163 1.904.49.53.327.935.777 1.215 1.35.279.574.42 1.234.42 1.983 0 .18-.062.33-.185.448a.652.652 0 0 1-.47.177h-5.729v-1.137h5.687l-.583.399a3.04 3.04 0 0 0-.284-1.273 2.171 2.171 0 0 0-.767-.889c-.333-.217-.736-.326-1.208-.326-.541 0-1.003.118-1.388.355a2.293 2.293 0 0 0-.874.974 3.2 3.2 0 0 0-.299 1.4c0 .522.12.986.357 1.393.237.408.563.73.98.967.417.237.896.355 1.436.355.294 0 .595-.055.902-.163.309-.11.558-.235.747-.377a.806.806 0 0 1 .462-.163.62.62 0 0 1 .433.148c.162.143.247.3.256.47.01.17-.066.318-.227.44a3.941 3.941 0 0 1-1.2.626 4.302 4.302 0 0 1-1.373.241z"/></g></g></g></g></svg>