<svg xmlns="http://www.w3.org/2000/svg" width="80" height="80" viewBox="0 0 80 80"><g><g><path fill="#fff" d="M0 66.5C0 59.044 6.044 53 13.5 53S27 59.044 27 66.5 20.956 80 13.5 80 0 73.956 0 66.5z"/></g><g><path fill="#fff" d="M13.5 66V.013h65.989V66z"/></g><g><path fill="#fec107" d="M27.097 18.19l.485.758-.76.487-.484-.758zm1.827 4.52l-1.262.808-.809-1.263 1.263-.808zm.78-7.97l-.007.004-.002-.003zm.799 1.264l-1.263.808-.799-1.264 1.256-.804zm2.875-4.69l1.297 2.02-2.02 1.293-1.293-2.021zm-.287 8.731l-2.02 1.294-1.293-2.021 2.025-1.294 1.292 2.021zm-1.494 6.837l-2.02 1.292-1.293-2.016 2.025-1.297zM68.79.012c-.813 1.65-1.257 2.684-1.974 4.173-.793 1.648-1.668 3.336-2.477 5.003a72.252 72.252 0 0 0-4.856 12.326l-.099.364-.373.072-.853.164a40.888 40.888 0 0 0-7.388 1.993c-.546.208-1.07.42-1.571.636a26.824 26.824 0 0 1 4.096-.718c.538-.05 1.083-.074 1.618-.074.942-.004 1.882.08 2.808.249l.78.144-.352.711-.249.498c-.694 1.38-1.384 2.832-2.052 4.234l-.283.597c-.374.777-.779 1.61-1.226 2.427-.44.812-.922 1.601-1.441 2.366l-.094.124-.116.162-.19.06-.132.043c-1.268.402-2.63.776-4.165 1.146-1.327.318-2.7.612-4.194.899a136.41 136.41 0 0 1-4.215.727c-1.568.241-4.807.7-6.51.927-1.425 2.05-5.67 8.093-10.437 16.326-1.212 2.365-3.573 7.119-3.573 7.119v-8.257L30.485 37.45l-1.481-6.96-.086-.403.346-.224 4.109-2.666-2.302-3.61-.322-.506.505-.323 3.61-2.312-2.3-3.61-.322-.506.504-.323 3.611-2.31-2.313-3.615-.305-.477.457-.355C38.944 5.803 43.092 2.817 46.75.012H13.5v65.989h65.989V.01z"/></g></g></svg>