<svg xmlns="http://www.w3.org/2000/svg" width="37" height="37" viewBox="0 0 37 37"><g><g><path fill="#fff" d="M18.895.726C8.8.726.65 8.876.65 18.972c0 8.028 5.23 14.84 12.53 17.273.972.122 1.216-.365 1.216-.851V32.23c-5.11 1.095-6.204-2.433-6.204-2.433-.851-2.068-2.068-2.676-2.068-2.676-1.703-1.095.122-1.095.122-1.095 1.824.122 2.798 1.825 2.798 1.825 1.58 2.798 4.257 1.946 5.352 1.46.121-1.217.608-1.947 1.216-2.433-4.014-.487-8.271-2.068-8.271-9.002 0-1.946.73-3.649 1.824-4.865-.243-.487-.851-2.311.122-4.866 0 0 1.581-.486 4.987 1.825 1.46-.365 3.041-.608 4.622-.608 1.582 0 3.163.243 4.623.608 3.527-2.311 4.987-1.825 4.987-1.825.973 2.555.365 4.38.121 4.866 1.217 1.216 1.825 2.92 1.825 4.865 0 7.055-4.257 8.515-8.271 9.002.608.608 1.216 1.703 1.216 3.406v4.987c0 .486.365 1.095 1.216.851 7.299-2.432 12.408-9.244 12.408-17.272C37.14 8.876 28.99.726 18.895.726z"/></g></g></svg>