<svg xmlns="http://www.w3.org/2000/svg" width="154" height="159" viewBox="0 0 154 159"><g><g><g><path fill="#ffb00d" d="M0 18.116l61.149-9.634L76.645.524l15.498 7.958 61.148 9.632-23.456 105.963-53.19 34.346-53.19-34.346L-.001 18.116"/></g><g><path fill="#fff" d="M76.644 153.013l-49.156-31.74-22.005-99.42 57.091-8.995 14.07-7.224 14.069 7.224 57.095 8.995-22.007 99.42z"/></g><g><path fill="#ff7e0f" d="M76.643 142.19l-41.088-26.53-19.108-86.333 48.987-7.715 11.209-5.759 11.215 5.76 48.982 7.714-19.107 86.335zm0 5.412zm0 0l45.123-29.136 20.556-92.876-53.036-8.354-12.643-6.492-12.64 6.492-53.037 8.354 20.558 92.876z"/></g><g><path fill="#ffb00d" d="M76.648 22.482l1.836 5.512 5.81.044-4.674 3.45 1.754 5.543-4.728-3.38-4.728 3.38 1.755-5.542-4.678-3.45 5.813-.045z"/></g><g><path fill="#ff7e0f" d="M76.645 136.779l37.052-23.925 1.35-6.1H38.243l1.35 6.1 37.052 23.925z"/></g><g><g><path fill="#ff7e0f" d="M38.17 60.23c-.287 0-.43-.144-.43-.431v-7.006c0-.287.143-.43.43-.43h4.149c.834 0 1.422.176 1.76.528.34.352.51.947.51 1.78v3.29c0 .807-.17 1.388-.51 1.74-.338.353-.926.528-1.76.528H38.17zm-.43 12.17v-7.395c0-.287.156-.432.47-.432h4.93c2.035 0 3.615-.553 4.736-1.662 1.122-1.11 1.683-2.682 1.683-4.716v-3.758c0-2.035-.561-3.607-1.683-4.717-1.12-1.108-2.7-1.662-4.737-1.662H33.59c-.547 0-.821.273-.821.822V72.4c0 .55.274.823.821.823h3.327c.547 0 .823-.273.823-.822z"/></g><g><path fill="#ff7e0f" d="M58.482 59.524v-6.73c0-.288.142-.431.43-.431h3.835c.835 0 1.446.183 1.839.547.392.366.589.953.589 1.762v3.052c0 .783-.197 1.351-.59 1.703-.392.352-1.003.53-1.838.53h-3.835c-.288 0-.43-.145-.43-.433zm-.824 13.699c.549 0 .824-.273.824-.822v-8.023c0-.287.155-.43.468-.43h2.622l3.915 8.453c.131.34.3.561.51.665.206.105.546.157 1.017.157h3.169c.678 0 .901-.313.665-.94l-4.188-8.727V63.4c2.322-.966 3.483-2.922 3.483-5.871v-3.052c0-2.035-.573-3.614-1.721-4.736-1.149-1.122-2.741-1.683-4.774-1.683h-9.316c-.547 0-.821.273-.821.822V72.4c0 .55.274.823.821.823h3.326z"/></g><g><path fill="#ff7e0f" d="M88.54 73.223H75.742c-.549 0-.823-.273-.823-.822V48.88c0-.55.274-.822.823-.822H88.54c.52 0 .781.273.781.822v2.661c0 .548-.26.822-.781.822h-8.18c-.313 0-.47.143-.47.43v5.088c0 .288.157.43.47.43h6.692c.549 0 .822.275.822.822v2.662c0 .548-.273.822-.822.822h-6.693c-.312 0-.47.143-.47.43v5.44c0 .288.158.43.47.43h8.181c.52 0 .781.275.781.823v2.66c0 .55-.26.823-.781.823z"/></g><g><path fill="#ff7e0f" d="M98.83 48.88V72.4c0 .55-.274.823-.82.823h-3.326c-.55 0-.822-.273-.822-.822V48.88c0-.55.272-.823.822-.823h3.325c.547 0 .822.274.822.823z"/></g><g><path fill="#ff7e0f" d="M103.488 66.805v-.783c0-.548.274-.822.821-.822h3.326c.55 0 .823.274.823.822v.313c0 .992.196 1.67.587 2.035.393.365 1.11.547 2.152.547h1.84c1.018 0 1.73-.195 2.132-.587.406-.39.609-1.12.609-2.19v-.471c0-.757-.307-1.336-.921-1.741-.612-.404-1.377-.645-2.29-.724a24.694 24.694 0 0 1-2.954-.45 19.036 19.036 0 0 1-2.955-.861c-.913-.353-1.677-1.043-2.291-2.074-.61-1.031-.917-2.355-.917-3.973v-1.37c0-2.034.572-3.613 1.72-4.735 1.148-1.122 2.74-1.683 4.774-1.683h3.915c2.061 0 3.664.56 4.812 1.683 1.149 1.122 1.724 2.7 1.724 4.736v.743c0 .548-.273.822-.822.822h-3.325c-.55 0-.823-.274-.823-.822v-.235c0-1.017-.197-1.709-.587-2.075-.392-.364-1.11-.547-2.153-.547h-1.525c-1.07 0-1.797.203-2.172.607-.381.405-.568 1.194-.568 2.367v.744c0 1.227 1.069 1.93 3.208 2.114 2.218.183 4.188.625 5.91 1.33.913.39 1.676 1.09 2.29 2.093.612 1.006.919 2.29.919 3.856v1.33c0 2.035-.574 3.615-1.721 4.735-1.149 1.124-2.74 1.684-4.776 1.684h-4.264c-2.036 0-3.63-.56-4.777-1.684-1.148-1.12-1.721-2.7-1.721-4.734z"/></g></g><g><g><path fill="#ff7e0f" d="M39.122 90.35H36.99c-1.059 0-1.877-.28-2.452-.844-.577-.563-.865-1.373-.865-2.432v-6.373c0-1.059.288-1.87.865-2.432.575-.563 1.393-.844 2.452-.844h2.132c1.044 0 1.856.285 2.43.854.578.57.867 1.377.867 2.422v.603c0 .295-.142.443-.423.443h-1.71c-.282 0-.421-.148-.421-.443v-.482c0-.429-.086-.733-.262-.915-.174-.18-.477-.272-.903-.272H37.39c-.414 0-.712.091-.893.272-.182.182-.27.486-.27.915v6.13c0 .43.088.735.27.916.181.181.48.271.893.271H38.7c.426 0 .73-.09.903-.271.176-.181.262-.486.262-.915v-1.265c0-.15-.073-.222-.223-.222h-1.205c-.28 0-.422-.14-.422-.423v-1.367c0-.282.142-.422.422-.422h3.518c.308 0 .464.155.464.463v3.357c0 1.046-.289 1.852-.867 2.422-.574.57-1.386.855-2.43.855z"/></g><g><path fill="#ff7e0f" d="M50.177 79.857l1.448 5.81H48.65l1.446-5.81zm-2.995 10.494c.134 0 .233-.031.292-.09.059-.062.105-.172.131-.333l.562-2.211h3.92l.564 2.211c.026.161.065.271.12.333.054.059.153.09.3.09h1.931c.24 0 .323-.142.24-.423L52.07 77.847c-.07-.28-.27-.422-.606-.422h-2.672c-.31 0-.51.141-.604.422l-3.176 12.081c-.079.281 0 .423.241.423z"/></g><g><path fill="#ff7e0f" d="M60.809 83.536c-.147 0-.22-.073-.22-.221v-3.458c0-.148.073-.222.22-.222h1.97c.43 0 .745.095.945.282.2.189.302.49.302.905v1.568c0 .402-.101.693-.302.874-.2.182-.515.272-.945.272zm-.643 6.815c.282 0 .423-.142.423-.423v-4.12c0-.148.08-.222.241-.222h1.347l2.01 4.342c.067.175.154.29.261.342.108.054.282.08.523.08h1.628c.348 0 .463-.16.341-.482l-2.15-4.482v-.082c1.193-.495 1.79-1.5 1.79-3.015V80.72c0-1.045-.296-1.856-.885-2.432-.59-.575-1.408-.864-2.452-.864h-4.785c-.282 0-.42.141-.42.422v12.081c0 .281.138.423.42.423h1.708z"/></g><g><path fill="#ff7e0f" d="M74.379 79.857l1.448 5.81h-2.974l1.447-5.81zm-2.993 10.494c.134 0 .23-.031.29-.09.06-.062.104-.172.13-.333l.564-2.211h3.92l.562 2.211c.027.161.068.271.12.333.055.059.154.09.302.09h1.93c.242 0 .322-.142.242-.423L76.27 77.847c-.067-.28-.268-.422-.603-.422h-2.673c-.308 0-.51.141-.604.422l-3.174 12.081c-.082.281 0 .423.241.423z"/></g><g><path fill="#ff7e0f" d="M84.331 90.35h-1.669c-.281 0-.42-.14-.42-.422V77.847c0-.28.139-.422.42-.422h1.508c.282 0 .47.094.562.281l4.062 7.62h.08v-7.48c0-.28.142-.421.423-.421h1.666c.284 0 .424.141.424.422v12.081c0 .281-.14.423-.424.423h-1.465a.672.672 0 0 1-.644-.402l-4.02-7.478h-.081v7.457c0 .281-.14.423-.422.423z"/></g><g><path fill="#ff7e0f" d="M99.003 90.35h-1.688c-.294 0-.442-.14-.442-.422v-10.07c0-.149-.075-.223-.223-.223h-2.29c-.283 0-.422-.14-.422-.42v-1.368c0-.28.14-.422.421-.422h7.601c.28 0 .422.141.422.422v1.367c0 .28-.142.421-.422.421h-2.292c-.162 0-.242.074-.242.222v10.071c0 .281-.14.423-.423.423z"/></g><g><path fill="#ff7e0f" d="M107.57 77.847v12.081c0 .281-.142.423-.424.423h-1.708c-.283 0-.422-.142-.422-.423V77.847c0-.28.14-.422.422-.422h1.709c.28 0 .422.141.422.422z"/></g><g><path fill="#ff7e0f" d="M118.28 90.35h-6.572c-.28 0-.421-.14-.421-.422V77.847c0-.28.141-.422.42-.422h6.574c.268 0 .403.141.403.422v1.367c0 .28-.135.422-.403.422h-4.2c-.162 0-.243.073-.243.221v2.614c0 .146.081.22.243.22h3.436c.282 0 .422.14.422.423v1.366c0 .281-.14.423-.422.423h-3.436c-.162 0-.243.073-.243.22v2.795c0 .147.081.221.243.221h4.2c.268 0 .403.141.403.422v1.367c0 .281-.135.423-.403.423z"/></g></g><g><g><path fill="#fff" d="M59.034 118.19c-.544 0-1.03-.123-1.454-.373a2.675 2.675 0 0 1-1.002-1.01 2.878 2.878 0 0 1-.363-1.446c0-.552.12-1.041.358-1.471.239-.428.566-.765.982-1.006.415-.242.891-.362 1.428-.362.4 0 .769.076 1.103.23.335.152.634.382.9.688.095.11.13.222.102.338a.532.532 0 0 1-.224.305.391.391 0 0 1-.317.068.626.626 0 0 1-.32-.18 1.634 1.634 0 0 0-1.244-.53c-.346 0-.653.08-.919.24-.265.16-.472.383-.625.668a2.172 2.172 0 0 0-.222 1.012c0 .367.076.695.23.981.153.285.365.512.636.679.273.167.59.25.951.25.238 0 .45-.03.63-.086.179-.059.343-.149.495-.271a.61.61 0 0 1 .337-.149.4.4 0 0 1 .305.097.48.48 0 0 1 .194.323.38.38 0 0 1-.122.322c-.49.456-1.102.683-1.839.683z"/></g><g><path fill="#fff" d="M63.14 114.658a2.037 2.037 0 0 1 .52-1.394v-.19c0-.17-.041-.297-.125-.383-.087-.085-.214-.127-.383-.127-.164 0-.291.044-.379.132-.09.09-.133.215-.133.377v4.567c0 .171.043.299.133.383.088.086.215.128.379.128.169 0 .296-.043.383-.133.084-.089.126-.214.126-.378v-2.982zm1.114-1.87c.34-.19.715-.286 1.124-.286.41 0 .714.066.914.2.2.132.277.29.23.474a.398.398 0 0 1-.117.22.424.424 0 0 1-.2.098.641.641 0 0 1-.246-.011c-.436-.088-.828-.095-1.174-.021-.347.076-.62.215-.824.42-.199.203-.3.462-.3.776v-1.394c.166-.189.365-.347.593-.476z"/></g><g><path fill="#fff" d="M69.821 118.19c-.566 0-1.068-.121-1.508-.362a2.639 2.639 0 0 1-1.03-1.001c-.25-.425-.373-.915-.373-1.466 0-.559.117-1.05.35-1.476.237-.426.561-.76.977-1 .415-.243.892-.363 1.432-.363.53 0 .987.116 1.367.352.381.235.672.558.873.97.2.412.302.887.302 1.425 0 .13-.044.236-.133.322a.466.466 0 0 1-.337.128h-4.115v-.818h4.085l-.418.286a2.199 2.199 0 0 0-.207-.914 1.577 1.577 0 0 0-.549-.638c-.24-.157-.53-.235-.868-.235-.389 0-.722.084-1 .256-.273.17-.483.402-.625.698a2.26 2.26 0 0 0-.214 1.007c0 .374.083.708.254 1.001.169.293.405.524.705.695a2.06 2.06 0 0 0 1.68.138c.221-.078.4-.17.537-.27a.572.572 0 0 1 .33-.118.445.445 0 0 1 .312.107.492.492 0 0 1 .185.337c.007.122-.047.227-.165.316a2.798 2.798 0 0 1-.861.45 3.086 3.086 0 0 1-.986.173z"/></g><g><path fill="#fff" d="M78.155 118.16a.502.502 0 0 1-.371-.148.513.513 0 0 1-.15-.373v-.379c.113-.138.214-.289.302-.453.229-.425.343-.908.343-1.446h.398v2.278c0 .15-.049.274-.15.373a.502.502 0 0 1-.372.148zm-.52-2.084l.195-1.083.847.368c0-.539-.124-1.02-.373-1.452a2.796 2.796 0 0 0-1.006-1.015 2.768 2.768 0 0 0-1.43-.372 2.76 2.76 0 0 0-2.446 1.387 2.845 2.845 0 0 0-.374 1.452c0 .538.114 1.02.343 1.446.229.426.54.762.935 1.01.395.25.84.373 1.339.373.497 0 .942-.123 1.336-.373.243-.152.454-.338.633-.557zm-2.692.945a1.814 1.814 0 0 1-.653-.684 1.984 1.984 0 0 1-.238-.976c0-.368.077-.697.238-.987.16-.288.377-.516.653-.684a1.76 1.76 0 0 1 .926-.25 1.74 1.74 0 0 1 1.572.934c.157.29.235.619.235.987 0 .36-.078.686-.235.976-.157.289-.371.517-.645.684a1.73 1.73 0 0 1-.927.25 1.75 1.75 0 0 1-.926-.25z"/></g><g><path fill="#fff" d="M82.26 118.15c-.338 0-.645-.087-.918-.261a1.812 1.812 0 0 1-.643-.71 2.13 2.13 0 0 1-.236-1.011v-2.523h1.022v2.523c0 .273.076.502.226.685a.69.69 0 0 0 .55.276h.348c.121 0 .226.047.31.143a.523.523 0 0 1 .129.367.46.46 0 0 1-.17.368.646.646 0 0 1-.432.143zm-1.797-6.855a.493.493 0 0 1 .512-.51c.149 0 .272.048.367.144a.495.495 0 0 1 .143.366v1.471h-1.022zm1.89 2.35a.49.49 0 0 0 .348-.122.402.402 0 0 0 .133-.306.427.427 0 0 0-.133-.328.5.5 0 0 0-.347-.123h-.869v.88zm-2.359-.879a.496.496 0 0 0-.347.123.421.421 0 0 0-.133.328c0 .122.044.224.133.306a.487.487 0 0 0 .347.122h.469v-.879z"/></g><g><path fill="#fff" d="M89.148 118.16a.499.499 0 0 1-.37-.148.502.502 0 0 1-.15-.373v-.38c.112-.138.212-.288.3-.452.23-.425.344-.908.344-1.446h.397v2.278c0 .15-.049.274-.147.373a.51.51 0 0 1-.374.148zm-.52-2.084l.193-1.083.848.368c0-.539-.123-1.02-.373-1.452a2.786 2.786 0 0 0-1.005-1.015 2.765 2.765 0 0 0-1.43-.372c-.532 0-1.01.123-1.435.372-.425.25-.764.587-1.012 1.015a2.854 2.854 0 0 0-.374 1.452c0 .538.115 1.02.344 1.446.227.426.54.762.934 1.01.395.25.842.373 1.338.373.496 0 .944-.123 1.34-.373.242-.152.453-.338.632-.558zm-2.691.945a1.802 1.802 0 0 1-.655-.684 1.986 1.986 0 0 1-.241-.976c0-.368.081-.697.241-.987.16-.288.38-.516.655-.684.275-.166.583-.25.924-.25.346 0 .656.084.929.25.272.168.487.396.645.684.156.29.233.619.233.987 0 .36-.077.686-.233.976a1.741 1.741 0 0 1-1.573.934c-.342 0-.65-.083-.925-.25z"/></g><g><path fill="#fff" d="M92.55 118.151c-.3 0-.567-.082-.799-.245a1.623 1.623 0 0 1-.54-.67 2.33 2.33 0 0 1-.195-.975v-5.577c0-.15.047-.273.144-.368a.496.496 0 0 1 .368-.143c.15 0 .27.047.368.143a.504.504 0 0 1 .142.368v5.577c0 .252.047.46.142.623.097.164.219.245.37.245h.253c.136 0 .25.048.333.143a.542.542 0 0 1 .128.367c0 .15-.065.274-.193.37a.84.84 0 0 1-.503.142z"/></g><g><path fill="#fff" d="M96.604 118.19c-.567 0-1.068-.121-1.507-.362a2.653 2.653 0 0 1-1.033-1.001c-.248-.425-.372-.915-.372-1.466 0-.559.117-1.05.354-1.476.233-.426.56-.76.974-1 .416-.243.892-.363 1.43-.363.531 0 .987.116 1.368.352.382.235.672.558.873.97.2.412.303.887.303 1.425 0 .13-.045.236-.134.322a.464.464 0 0 1-.336.128h-4.117v-.818h4.084l-.417.286a2.183 2.183 0 0 0-.203-.914 1.56 1.56 0 0 0-.554-.638c-.238-.157-.526-.235-.867-.235-.387 0-.72.084-.997.256-.273.17-.484.402-.628.698a2.3 2.3 0 0 0-.213 1.007c0 .374.084.708.256 1.001.17.293.403.524.704.695.298.17.643.254 1.032.254.21 0 .427-.038.648-.116.22-.078.401-.17.536-.27a.57.57 0 0 1 .333-.118c.12-.004.22.032.312.107a.484.484 0 0 1 .181.337c.007.122-.047.227-.162.316-.232.184-.52.334-.862.45a3.101 3.101 0 0 1-.986.173z"/></g></g></g></g></svg>