<svg xmlns="http://www.w3.org/2000/svg" width="172" height="172" viewBox="0 0 172 172"><g><g><g><g><path fill="#ff7e0f" d="M44.201 73.507c-.175-.181-.26-.486-.26-.914v-6.127c0-.429.085-.733.26-.914.174-.181.475-.271.904-.271h1.426c.428 0 .734.09.914.27.18.182.271.486.271.915v6.127c0 .428-.09.733-.271.914-.18.18-.486.27-.914.27h-1.426c-.43 0-.73-.09-.904-.27zm4.58 5.151c.147 0 .254-.046.321-.14.067-.094.067-.22 0-.382l-1.286-2.229c.777-.147 1.376-.496 1.799-1.044.422-.55.632-1.267.632-2.15v-6.367c0-1.059-.288-1.869-.864-2.43-.575-.564-1.392-.845-2.45-.845h-2.25c-1.058 0-1.875.281-2.45.844-.576.562-.865 1.372-.865 2.43v6.369c0 1.057.289 1.867.864 2.43.576.562 1.393.843 2.451.843h.542l1.306 2.25c.161.281.422.421.783.421z"/></g><g><path fill="#ff7e0f" d="M59.446 63.07h1.687c.295 0 .442.135.442.403v9.24c0 1.045-.291 1.852-.873 2.42-.583.57-1.397.854-2.44.854h-2.21c-1.058 0-1.876-.281-2.451-.843-.576-.563-.864-1.373-.864-2.43v-9.221c0-.281.14-.422.423-.422h1.706c.281 0 .423.14.423.422v9.1c0 .428.09.733.27.914.18.18.479.27.894.27h1.386c.429 0 .734-.09.915-.27.18-.181.27-.486.27-.914v-9.1c0-.281.142-.422.422-.422z"/></g><g><path fill="#ff7e0f" d="M68.426 65.501l1.446 5.805h-2.973l1.446-5.805zm-2.994 10.486c.134 0 .231-.03.292-.09.06-.06.104-.17.13-.331l.563-2.21h3.917l.562 2.21c.027.16.066.27.12.33.054.061.155.091.302.091h1.93c.24 0 .32-.14.24-.421l-3.175-12.073c-.067-.281-.268-.422-.602-.422h-2.672c-.308 0-.509.14-.602.422l-3.174 12.073c-.08.28 0 .421.241.421z"/></g><g><path fill="#ff7e0f" d="M82.306 75.987h-6.609c-.28 0-.422-.14-.422-.421V63.493c0-.281.142-.422.422-.422h1.708c.281 0 .422.14.422.422v10.043c0 .148.08.222.24.222h4.24c.268 0 .401.148.401.442v1.366c0 .28-.133.421-.402.421z"/></g><g><path fill="#ff7e0f" d="M86.946 63.493v12.073c0 .28-.14.421-.423.421h-1.707c-.281 0-.421-.14-.421-.421V63.493c0-.281.14-.422.42-.422h1.708c.282 0 .423.14.423.422z"/></g><g><path fill="#ff7e0f" d="M93.655 75.987h-1.687c-.296 0-.442-.14-.442-.421V65.5c0-.146-.075-.22-.221-.22h-2.29c-.281 0-.422-.141-.422-.422v-1.366c0-.281.14-.422.422-.422h7.593c.282 0 .422.14.422.422v1.366c0 .28-.14.422-.422.422h-2.29c-.161 0-.241.074-.241.22v10.065c0 .28-.14.421-.422.421z"/></g><g><path fill="#ff7e0f" d="M103.558 61.364c0 .28.128.421.381.421h1.607c.255 0 .382-.14.382-.421v-1.788c0-.254-.127-.382-.382-.382h-1.607c-.253 0-.381.134-.381.402zm-.663 4.137l1.446 5.806h-2.973l1.446-5.806zm-3.154-4.137c0 .28.128.421.382.421h1.606c.255 0 .382-.14.382-.421v-1.788c0-.254-.127-.382-.382-.382h-1.606c-.254 0-.382.134-.382.402zm.16 14.624c.135 0 .232-.03.292-.091.06-.06.103-.17.13-.331l.563-2.21h3.916l.563 2.21c.027.16.067.271.12.33.055.061.155.092.303.092h1.928c.24 0 .322-.142.24-.422l-3.172-12.073c-.068-.28-.269-.422-.604-.422h-2.67c-.31 0-.51.141-.604.422l-3.174 12.073c-.08.28 0 .422.241.422h1.929z"/></g><g><path fill="#ff7e0f" d="M113.722 75.987h-1.686c-.296 0-.443-.14-.443-.421V65.5c0-.146-.074-.22-.22-.22h-2.29c-.283 0-.423-.141-.423-.422v-1.366c0-.281.14-.422.423-.422h7.592c.282 0 .422.14.422.422v1.366c0 .28-.14.422-.422.422h-2.29c-.16 0-.24.074-.24.22v10.065c0 .28-.141.421-.423.421z"/></g><g><path fill="#ff7e0f" d="M118.302 72.693v-.402c0-.281.14-.422.423-.422h1.708c.28 0 .42.14.42.422v.16c0 .51.101.858.302 1.045.201.188.569.282 1.105.282h.945c.521 0 .886-.101 1.094-.302.207-.2.311-.575.311-1.125v-.24c0-.388-.157-.686-.472-.894-.314-.208-.706-.332-1.175-.372-.47-.04-.974-.117-1.517-.231a9.838 9.838 0 0 1-1.516-.442c-.469-.18-.86-.536-1.175-1.065-.316-.529-.473-1.208-.473-2.038v-.704c0-1.044.295-1.854.884-2.43.589-.576 1.407-.864 2.451-.864h2.008c1.059 0 1.882.288 2.472.864.59.576.884 1.386.884 2.43v.382c0 .281-.142.422-.422.422h-1.708c-.28 0-.421-.14-.421-.422v-.12c0-.523-.101-.877-.302-1.065-.2-.188-.57-.281-1.106-.281h-.782c-.55 0-.92.104-1.115.31-.194.209-.291.614-.291 1.216v.382c0 .63.548.991 1.647 1.085 1.138.093 2.15.321 3.033.683.469.2.86.558 1.175 1.075.315.515.473 1.174.473 1.978v.683c0 1.044-.296 1.855-.885 2.43-.589.576-1.405.864-2.45.864h-2.19c-1.045 0-1.862-.288-2.45-.864-.59-.575-.885-1.386-.885-2.43z"/></g><g><path fill="#ff7e0f" d="M133.188 70.603h-3.817c-.282 0-.423-.14-.423-.421v-1.186c0-.294.141-.442.423-.442h3.816c.281 0 .422.148.422.442v1.186c0 .28-.14.421-.422.421z"/></g></g><g><g><path fill="#ff7e0f" d="M47.33 95.456H45.05c-1.132 0-2.006-.301-2.622-.903-.616-.602-.925-1.469-.925-2.6v-6.814c0-1.132.309-2 .925-2.6.616-.603 1.49-.904 2.622-.904h2.279c1.117 0 1.984.305 2.6.914.616.61.925 1.472.925 2.59v.645c0 .315-.15.472-.452.472h-1.826c-.302 0-.452-.157-.452-.472v-.516c0-.459-.094-.785-.28-.977-.186-.195-.508-.291-.967-.291h-1.397c-.445 0-.763.096-.957.29-.193.193-.29.52-.29.978v6.555c0 .46.097.785.29.978.194.194.512.29.957.29h1.397c.459 0 .78-.096.968-.29.185-.193.279-.518.279-.978V90.47c0-.157-.08-.237-.237-.237H46.6c-.3 0-.452-.15-.452-.45V88.32c0-.301.151-.45.452-.45h3.761c.33 0 .495.163.495.492v3.59c0 1.118-.31 1.982-.925 2.59-.616.61-1.483.914-2.6.914z"/></g><g><path fill="#ff7e0f" d="M59.15 84.237l1.548 6.21h-3.181l1.547-6.21zm-3.202 11.219c.143 0 .247-.032.31-.097.065-.064.112-.183.141-.355L57 92.64h4.191l.603 2.364c.028.172.071.29.129.355.056.065.165.097.322.097h2.064c.257 0 .344-.15.257-.452L61.17 82.087c-.071-.301-.286-.452-.645-.452h-2.859c-.33 0-.544.15-.644.452l-3.396 12.917c-.085.302 0 .452.259.452z"/></g><g><path fill="#ff7e0f" d="M70.52 88.17c-.158 0-.236-.08-.236-.237v-3.696c0-.158.078-.237.237-.237h2.105c.459 0 .796.1 1.01.3.216.201.323.524.323.968v1.676c0 .43-.107.742-.322.935-.215.194-.552.29-1.01.29H70.52zm-.687 7.286c.3 0 .451-.15.451-.452v-4.406c0-.158.085-.236.258-.236h1.44l2.149 4.642c.072.186.165.309.28.366.114.058.3.086.558.086h1.741c.373 0 .495-.173.366-.516l-2.3-4.793v-.086c1.275-.53 1.913-1.605 1.913-3.224V85.16c0-1.118-.315-1.984-.946-2.6-.63-.616-1.504-.925-2.622-.925h-5.115c-.301 0-.452.15-.452.452v12.917c0 .302.15.452.452.452h1.827z"/></g><g><path fill="#ff7e0f" d="M85.029 84.237l1.547 6.21h-3.182l1.548-6.21zm-3.203 11.219c.142 0 .247-.032.312-.097.063-.064.11-.183.139-.355l.601-2.364h4.191l.603 2.364c.029.172.07.29.128.355.057.065.165.097.324.097h2.062c.258 0 .344-.15.258-.452l-3.396-12.917c-.071-.301-.287-.452-.645-.452h-2.858c-.33 0-.545.15-.645.452l-3.395 12.917c-.087.302 0 .452.258.452z"/></g><g><path fill="#ff7e0f" d="M95.667 95.456h-1.783c-.301 0-.452-.15-.452-.452V82.087c0-.301.151-.452.452-.452h1.612c.3 0 .501.1.602.301l4.341 8.147h.086v-7.996c0-.301.151-.452.451-.452h1.784c.302 0 .452.15.452.452v12.917c0 .302-.15.452-.452.452h-1.569c-.316 0-.544-.143-.687-.43l-4.3-7.996h-.085v7.974c0 .302-.15.452-.452.452z"/></g><g><path fill="#ff7e0f" d="M111.359 95.456h-1.807c-.315 0-.472-.15-.472-.452V84.237c0-.158-.08-.237-.236-.237h-2.45c-.301 0-.453-.15-.453-.452v-1.461c0-.301.152-.452.453-.452h8.123c.3 0 .451.15.451.452v1.461c0 .302-.15.452-.45.452h-2.451c-.171 0-.257.08-.257.237v10.767c0 .302-.151.452-.451.452z"/></g><g><path fill="#ff7e0f" d="M120.514 82.087v12.917c0 .302-.15.452-.451.452h-1.827c-.3 0-.452-.15-.452-.452V82.087c0-.301.152-.452.452-.452h1.826c.302 0 .452.15.452.452z"/></g><g><path fill="#ff7e0f" d="M131.97 95.456h-7.029c-.3 0-.45-.15-.45-.452V82.087c0-.301.15-.452.45-.452h7.03c.285 0 .428.15.428.452v1.461c0 .302-.143.452-.429.452h-4.492c-.173 0-.258.08-.258.237v2.793c0 .158.085.237.258.237h3.674c.302 0 .452.15.452.451v1.461c0 .301-.15.452-.452.452h-3.674c-.173 0-.258.078-.258.236v2.988c0 .158.085.236.258.236h4.492c.286 0 .43.15.43.452v1.46c0 .303-.144.453-.43.453z"/></g></g><g><path fill="#ffb00d" d="M85.733.338l2.93 8.153 8.658.263-6.85 5.304 2.425 8.32-7.163-4.877-7.16 4.877 2.425-8.32-6.851-5.304 8.659-.263L85.733.338z"/></g><g><path fill="#ff7e0f" d="M53.84 157.361c-3.102 2.482-7.547 3.989-12.453 3.884-4.903-.103-9.282-1.794-12.28-4.407 3.105-2.48 7.55-3.989 12.454-3.884 4.906.102 9.282 1.795 12.28 4.407z"/></g><g><path fill="#ff7e0f" d="M39.194 148.237c-3.365 1.714-7.788 2.263-12.333 1.225-4.542-1.038-8.29-3.454-10.577-6.456 3.364-1.715 7.787-2.263 12.332-1.225 4.543 1.038 8.292 3.455 10.578 6.456z"/></g><g><path fill="#ff7e0f" d="M27.155 136.223c-3.471.903-7.687.506-11.69-1.383-4.004-1.894-6.987-4.9-8.494-8.155 3.47-.9 7.688-.506 11.69 1.387 4.005 1.89 6.987 4.899 8.494 8.15z"/></g><g><path fill="#ff7e0f" d="M18.244 122.503c-3.403.098-7.225-1.163-10.532-3.762-3.307-2.6-5.43-6.017-6.135-9.353 3.405-.098 7.224 1.162 10.533 3.764 3.305 2.601 5.43 6.017 6.134 9.35z"/></g><g><path fill="#ff7e0f" d="M12.619 107.141c-3.174-.637-6.44-2.623-8.94-5.739-2.505-3.115-3.736-6.734-3.677-9.97 3.174.64 6.44 2.623 8.944 5.741 2.5 3.114 3.735 6.734 3.673 9.968z"/></g><g><path fill="#ff7e0f" d="M10.353 91.016c-2.77-1.334-5.312-3.93-6.88-7.385-1.573-3.457-1.858-7.078-1.04-10.042 2.77 1.334 5.308 3.93 6.88 7.386 1.573 3.455 1.858 7.074 1.04 10.041z"/></g><g><path fill="#ff7e0f" d="M11.603 76.028c-2.526-1.753-4.627-4.715-5.635-8.374-1.01-3.66-.723-7.28.548-10.079 2.528 1.753 4.628 4.712 5.637 8.374 1.008 3.658.725 7.28-.55 10.079z"/></g><g><path fill="#ff7e0f" d="M16.07 60.746c-2.018-2.109-3.41-5.267-3.652-8.863-.24-3.599.714-6.913 2.431-9.275 2.018 2.11 3.41 5.266 3.65 8.865.243 3.598-.712 6.915-2.429 9.273z"/></g><g><path fill="#ff7e0f" d="M23.012 47.425c-1.366-2.417-1.911-5.649-1.294-9.02.616-3.369 2.271-6.198 4.404-7.972 1.365 2.414 1.909 5.646 1.294 9.015-.617 3.372-2.271 6.2-4.404 7.977z"/></g><g><path fill="#ff7e0f" d="M26.339 49.886c2.479 1.243 5.734 1.628 9.07.844 3.336-.784 6.08-2.575 7.746-4.795-2.479-1.242-5.735-1.626-9.069-.843-3.338.783-6.08 2.576-7.747 4.794z"/></g><g><path fill="#ff7e0f" d="M32.525 36.012c-.955-2.456-1.029-5.568.01-8.654 1.037-3.084 2.976-5.52 5.224-6.897.955 2.455 1.027 5.568-.012 8.653-1.038 3.083-2.975 5.52-5.222 6.898z"/></g><g><path fill="#ff7e0f" d="M35.402 38.709c2.214 1.428 5.249 2.126 8.478 1.728 3.231-.4 6.006-1.81 7.81-3.733-2.216-1.43-5.25-2.125-8.48-1.728-3.231.399-6.006 1.808-7.808 3.733z"/></g><g><path fill="#ff7e0f" d="M41.57 28.289c-.562-2.441-.206-5.376 1.188-8.136 1.396-2.759 3.552-4.785 5.85-5.776.565 2.44.212 5.375-1.185 8.137-1.396 2.757-3.549 4.783-5.852 5.775z"/></g><g><path fill="#ff7e0f" d="M44.219 31.184c2.004 1.494 4.84 2.349 7.926 2.178 3.087-.171 5.807-1.334 7.639-3.042-2.008-1.495-4.842-2.348-7.928-2.178-3.087.171-5.808 1.332-7.637 3.042z"/></g><g><path fill="#ff7e0f" d="M19.582 62.59c1.274-2.63 3.745-5.032 7.033-6.516 3.289-1.483 6.728-1.743 9.542-.96-1.276 2.628-3.747 5.036-7.034 6.517-3.29 1.483-6.728 1.743-9.541.959z"/></g><g><path fill="#ff7e0f" d="M15.458 77.106c.623-3.012 2.527-6.1 5.5-8.46 2.975-2.36 6.42-3.51 9.493-3.434-.625 3.01-2.53 6.101-5.503 8.462-2.975 2.358-6.418 3.51-9.49 3.432z"/></g><g><path fill="#ff7e0f" d="M14.509 90.633c.225-3.066 1.706-6.383 4.345-9.11 2.639-2.733 5.9-4.325 8.957-4.655-.225 3.066-1.706 6.383-4.343 9.113-2.638 2.73-5.901 4.325-8.959 4.652z"/></g><g><path fill="#ff7e0f" d="M16.478 105.916c-.483-3.198.263-6.948 2.338-10.364 2.07-3.416 5.05-5.815 8.109-6.862.485 3.198-.263 6.946-2.334 10.365-2.071 3.418-5.052 5.812-8.113 6.861z"/></g><g><path fill="#ff7e0f" d="M21.718 120.349c-1.07-3.235-.954-7.258.595-11.169 1.55-3.91 4.215-6.922 7.208-8.55 1.067 3.235.952 7.257-.597 11.167-1.547 3.914-4.215 6.924-7.206 8.552z"/></g><g><path fill="#ff7e0f" d="M30.43 133.88c-1.702-3.156-2.326-7.342-1.441-11.683.881-4.34 3.09-7.954 5.891-10.193 1.705 3.156 2.324 7.345 1.442 11.685-.882 4.338-3.092 7.954-5.893 10.19z"/></g><g><path fill="#ff7e0f" d="M41.86 144.899c-2.344-2.956-3.763-7.182-3.65-11.843.114-4.661 1.737-8.812 4.227-11.65 2.347 2.956 3.761 7.182 3.65 11.844-.116 4.658-1.737 8.812-4.227 11.649z"/></g><g><path fill="#ff7e0f" d="M55.862 153.225c-3.07-2.525-5.463-6.56-6.374-11.384-.911-4.821-.156-9.453 1.779-12.923 3.066 2.523 5.458 6.563 6.371 11.382.911 4.822.158 9.453-1.776 12.925z"/></g><g><path fill="#ff7e0f" d="M49.399 25.434c.982-2.303 2.998-4.468 5.753-5.875 2.752-1.407 5.687-1.773 8.13-1.218-.982 2.305-3 4.465-5.753 5.872-2.754 1.407-5.689 1.775-8.13 1.221z"/></g><g><path fill="#ff7e0f" d="M85.618 162.868c-34.754-.005-65.858-24.764-72.536-60.119-5.854-30.995 8.75-61.259 34.245-76.792 1.201-.733 2.036.271.653 1.116C23.116 42.23 8.882 71.748 14.59 101.98c6.53 34.58 37.018 58.772 71.028 58.652z"/></g><g><path fill="#ff7e0f" d="M70.033 162.8c-2.362 2.943-6.172 5.26-10.743 6.177-4.57.917-8.978.252-12.294-1.55 2.365-2.942 6.175-5.258 10.742-6.176 4.57-.917 8.98-.251 12.295 1.548z"/></g><g><path fill="#ff7e0f" d="M71.132 158.356c-3.303-1.532-6.354-4.561-8.272-8.626-1.917-4.066-2.315-8.346-1.398-11.866 3.3 1.53 6.352 4.558 8.27 8.624 1.919 4.065 2.317 8.345 1.4 11.868z"/></g><g><path fill="#ff7e0f" d="M84.022 164.271c-1.366 2.677-3.958 5.1-7.37 6.556-3.411 1.459-6.955 1.655-9.834.79 1.366-2.676 3.957-5.1 7.371-6.558 3.413-1.456 6.955-1.654 9.833-.788z"/></g><g><path fill="#ff7e0f" d="M84.155 159.915c-2.824-.657-5.692-2.524-7.846-5.378-2.156-2.857-3.163-6.13-3.02-9.021 2.822.656 5.69 2.523 7.846 5.378 2.156 2.857 3.162 6.128 3.02 9.021z"/></g><g><path fill="#ff7e0f" d="M117.399 157.361c3.101 2.482 7.546 3.989 12.452 3.884 4.907-.103 9.283-1.794 12.278-4.407-3.102-2.48-7.547-3.989-12.452-3.884-4.908.102-9.283 1.795-12.278 4.407z"/></g><g><path fill="#ff7e0f" d="M132.043 148.237c3.364 1.714 7.789 2.263 12.333 1.225 4.544-1.038 8.291-3.454 10.576-6.456-3.363-1.715-7.787-2.263-12.33-1.225-4.545 1.038-8.293 3.455-10.579 6.456z"/></g><g><path fill="#ff7e0f" d="M144.08 136.223c3.475.903 7.69.506 11.693-1.383 4.002-1.894 6.985-4.9 8.493-8.155-3.468-.9-7.686-.506-11.69 1.387-4.005 1.89-6.986 4.899-8.496 8.15z"/></g><g><path fill="#ff7e0f" d="M152.993 122.503c3.405.098 7.226-1.163 10.534-3.762 3.304-2.6 5.429-6.017 6.137-9.353-3.407-.098-7.229 1.162-10.536 3.764-3.304 2.601-5.428 6.017-6.135 9.35z"/></g><g><path fill="#ff7e0f" d="M158.617 107.141c3.174-.637 6.442-2.623 8.942-5.739 2.505-3.115 3.736-6.734 3.676-9.97-3.172.64-6.442 2.623-8.94 5.741-2.505 3.114-3.74 6.734-3.678 9.968z"/></g><g><path fill="#ff7e0f" d="M160.885 91.016c2.768-1.334 5.31-3.93 6.881-7.385 1.57-3.457 1.857-7.078 1.04-10.042-2.773 1.334-5.311 3.93-6.883 7.386-1.57 3.455-1.856 7.074-1.038 10.041z"/></g><g><path fill="#ff7e0f" d="M159.634 76.028c2.527-1.753 4.627-4.715 5.635-8.374 1.01-3.66.723-7.28-.547-10.079-2.527 1.753-4.63 4.712-5.638 8.374-1.01 3.658-.722 7.28.55 10.079z"/></g><g><path fill="#ff7e0f" d="M155.168 60.746c2.017-2.109 3.41-5.267 3.653-8.863.24-3.599-.716-6.913-2.435-9.275-2.016 2.11-3.408 5.266-3.65 8.865-.24 3.598.715 6.915 2.432 9.273z"/></g><g><path fill="#ff7e0f" d="M148.227 47.425c1.363-2.417 1.908-5.649 1.292-9.02-.618-3.369-2.27-6.198-4.403-7.972-1.365 2.414-1.911 5.646-1.294 9.015.617 3.372 2.272 6.2 4.405 7.977z"/></g><g><path fill="#ff7e0f" d="M144.897 49.886c-2.478 1.243-5.734 1.628-9.068.844-3.335-.784-6.079-2.575-7.747-4.795 2.481-1.242 5.734-1.626 9.07-.843 3.336.783 6.08 2.576 7.745 4.794z"/></g><g><path fill="#ff7e0f" d="M138.713 36.012c.956-2.456 1.029-5.568-.009-8.654-1.037-3.084-2.977-5.52-5.224-6.897-.955 2.455-1.03 5.568.009 8.653 1.037 3.083 2.978 5.52 5.224 6.898z"/></g><g><path fill="#ff7e0f" d="M135.836 38.709c-2.216 1.428-5.248 2.126-8.477 1.728-3.231-.4-6.006-1.81-7.811-3.733 2.214-1.43 5.25-2.125 8.48-1.728 3.232.399 6.007 1.808 7.808 3.733z"/></g><g><path fill="#ff7e0f" d="M129.665 28.289c.563-2.441.21-5.376-1.187-8.136-1.394-2.759-3.55-4.785-5.85-5.776-.563 2.44-.21 5.375 1.187 8.137 1.396 2.757 3.549 4.783 5.85 5.775z"/></g><g><path fill="#ff7e0f" d="M127.022 31.184c-2.01 1.494-4.842 2.349-7.928 2.178-3.09-.171-5.808-1.334-7.639-3.042 2.007-1.495 4.84-2.348 7.928-2.178 3.087.171 5.806 1.332 7.639 3.042z"/></g><g><path fill="#ff7e0f" d="M151.657 62.59c-1.274-2.63-3.747-5.032-7.036-6.516-3.286-1.483-6.724-1.743-9.54-.96 1.274 2.628 3.748 5.036 7.035 6.517 3.287 1.483 6.726 1.743 9.54.959z"/></g><g><path fill="#ff7e0f" d="M155.783 77.106c-.627-3.012-2.53-6.1-5.506-8.46-2.974-2.36-6.417-3.51-9.493-3.434.626 3.01 2.53 6.101 5.505 8.462 2.976 2.358 6.419 3.51 9.494 3.432z"/></g><g><path fill="#ff7e0f" d="M156.727 90.633c-.223-3.066-1.704-6.383-4.342-9.11-2.638-2.733-5.902-4.325-8.957-4.655.223 3.066 1.703 6.383 4.342 9.113 2.638 2.73 5.9 4.325 8.957 4.652z"/></g><g><path fill="#ff7e0f" d="M154.758 105.916c.486-3.198-.262-6.948-2.335-10.364-2.071-3.416-5.05-5.815-8.112-6.862-.485 3.198.264 6.946 2.336 10.365 2.072 3.418 5.05 5.812 8.11 6.861z"/></g><g><path fill="#ff7e0f" d="M149.523 120.349c1.067-3.235.95-7.258-.597-11.169-1.547-3.91-4.215-6.922-7.21-8.55-1.067 3.235-.952 7.257.596 11.167 1.55 3.914 4.215 6.924 7.21 8.552z"/></g><g><path fill="#ff7e0f" d="M140.806 133.88c1.704-3.156 2.325-7.342 1.443-11.683-.883-4.34-3.093-7.954-5.892-10.193-1.704 3.156-2.325 7.345-1.443 11.685.882 4.338 3.092 7.954 5.892 10.19z"/></g><g><path fill="#ff7e0f" d="M129.375 144.899c2.348-2.956 3.766-7.182 3.651-11.843-.114-4.661-1.735-8.812-4.225-11.65-2.348 2.956-3.765 7.182-3.65 11.844.113 4.658 1.737 8.812 4.224 11.649z"/></g><g><path fill="#ff7e0f" d="M115.375 153.225c3.07-2.525 5.462-6.56 6.373-11.384.91-4.821.158-9.453-1.776-12.923-3.07 2.523-5.461 6.563-6.372 11.382-.914 4.822-.158 9.453 1.775 12.925z"/></g><g><path fill="#ff7e0f" d="M121.84 25.434c-.983-2.303-3-4.468-5.753-5.875-2.754-1.407-5.688-1.773-8.13-1.218.981 2.305 2.997 4.465 5.752 5.872s5.69 1.775 8.13 1.221z"/></g><g><path fill="#ff7e0f" d="M85.618 162.868c34.756-.005 65.859-24.764 72.534-60.119 5.857-30.995-8.746-61.259-34.241-76.792-1.201-.733-2.038.271-.653 1.116 24.862 15.158 39.098 44.675 33.388 74.907-6.53 34.58-37.015 58.772-71.028 58.652z"/></g><g><path fill="#ff7e0f" d="M101.202 162.8c2.364 2.943 6.175 5.26 10.745 6.177 4.57.917 8.977.252 12.294-1.55-2.364-2.942-6.172-5.258-10.744-6.176-4.57-.917-8.977-.251-12.295 1.548z"/></g><g><path fill="#ff7e0f" d="M100.105 158.356c3.302-1.532 6.353-4.561 8.273-8.626 1.917-4.066 2.316-8.346 1.398-11.866-3.302 1.53-6.351 4.558-8.27 8.624-1.918 4.065-2.317 8.345-1.401 11.868z"/></g><g><path fill="#ff7e0f" d="M87.217 164.271c1.365 2.677 3.957 5.1 7.369 6.556 3.412 1.459 6.957 1.655 9.834.79-1.365-2.676-3.957-5.1-7.371-6.558-3.412-1.456-6.955-1.654-9.832-.788z"/></g><g><path fill="#ff7e0f" d="M87.083 159.915c2.822-.657 5.692-2.524 7.845-5.378 2.156-2.857 3.162-6.13 3.018-9.021-2.822.656-5.69 2.523-7.846 5.378-2.153 2.857-3.16 6.128-3.017 9.021z"/></g><g><g><path fill="#ffb00d" d="M59.318 115.632c-.759 0-1.434-.173-2.026-.519a3.737 3.737 0 0 1-1.393-1.407c-.337-.592-.504-1.263-.504-2.011 0-.768.165-1.45.496-2.047a3.634 3.634 0 0 1 1.366-1.4c.577-.336 1.24-.505 1.99-.505.559 0 1.07.106 1.535.32.464.213.882.533 1.25.959.133.152.18.308.143.47-.038.16-.143.302-.313.426a.54.54 0 0 1-.44.092.872.872 0 0 1-.442-.248c-.463-.493-1.042-.74-1.733-.74-.484 0-.91.112-1.28.334-.369.223-.659.533-.867.931-.208.399-.312.867-.312 1.408 0 .511.106.966.32 1.365.212.398.509.712.888.944.379.233.82.349 1.322.349.332 0 .622-.04.874-.121.25-.08.48-.206.69-.377a.858.858 0 0 1 .47-.206.556.556 0 0 1 .425.135c.161.133.25.282.27.448a.53.53 0 0 1-.17.448c-.683.635-1.535.952-2.56.952z"/></g><g><path fill="#ffb00d" d="M65.033 110.714a2.838 2.838 0 0 1 .725-1.94v-.264c0-.237-.06-.414-.178-.533-.119-.119-.297-.178-.533-.178-.228 0-.403.062-.526.185s-.185.3-.185.526v6.354c0 .238.062.415.185.533.123.12.298.178.526.178.236 0 .414-.061.533-.184.119-.123.178-.3.178-.527v-4.156.006zm1.549-2.602a3.146 3.146 0 0 1 1.564-.397c.569 0 .992.092 1.272.276.28.185.386.405.32.661a.552.552 0 0 1-.164.306.557.557 0 0 1-.276.135.836.836 0 0 1-.342-.014c-.606-.123-1.151-.133-1.634-.028-.484.103-.866.298-1.145.583-.278.283-.418.64-.42 1.074v-1.935c.232-.262.506-.482.825-.66z"/></g><g><path fill="#ffb00d" d="M74.33 115.632c-.787 0-1.486-.168-2.098-.505a3.698 3.698 0 0 1-1.436-1.392c-.345-.593-.519-1.273-.519-2.04 0-.778.164-1.462.492-2.054a3.59 3.59 0 0 1 1.357-1.393c.578-.336 1.242-.505 1.99-.505.739 0 1.374.163 1.905.49.53.327.936.777 1.215 1.35.28.574.42 1.235.42 1.984 0 .18-.062.329-.185.448a.65.65 0 0 1-.47.177h-5.728v-1.137h5.686l-.583.398a3.055 3.055 0 0 0-.284-1.272 2.165 2.165 0 0 0-.767-.889c-.333-.218-.736-.327-1.21-.327-.539 0-1.001.119-1.385.355a2.288 2.288 0 0 0-.874.974c-.2.413-.298.88-.298 1.4 0 .522.117.986.355 1.393.236.408.564.73.981.967.417.238.895.356 1.436.356.293 0 .594-.055.902-.164.308-.109.557-.235.747-.377a.807.807 0 0 1 .461-.163.624.624 0 0 1 .434.149c.161.142.247.299.255.47.01.17-.066.317-.227.44a3.93 3.93 0 0 1-1.2.626 4.299 4.299 0 0 1-1.372.24z"/></g><g><path fill="#ffb00d" d="M85.929 115.59a.7.7 0 0 1-.725-.725v-.53c.157-.191.296-.4.419-.629.317-.592.477-1.263.477-2.011h.553v3.17a.704.704 0 0 1-.724.724zm-.725-2.9l.27-1.507 1.18.512c0-.75-.174-1.422-.52-2.019a3.857 3.857 0 0 0-1.4-1.414c-.588-.346-1.25-.519-1.99-.519s-1.404.173-1.997.519a3.83 3.83 0 0 0-1.407 1.414c-.346.597-.519 1.27-.519 2.019 0 .748.159 1.419.476 2.011a3.7 3.7 0 0 0 1.3 1.407 3.42 3.42 0 0 0 1.864.519c.691 0 1.311-.173 1.861-.519.338-.212.632-.472.882-.778zm-3.746 1.314a2.5 2.5 0 0 1-.91-.952 2.746 2.746 0 0 1-.334-1.357c0-.512.111-.969.335-1.372.222-.403.525-.72.909-.952a2.436 2.436 0 0 1 1.286-.349c.484 0 .915.117 1.294.349.379.232.678.55.896.952.217.403.327.86.327 1.372 0 .502-.11.955-.327 1.357a2.425 2.425 0 0 1-2.19 1.3c-.474.001-.902-.115-1.286-.348z"/></g><g><path fill="#ffb00d" d="M91.644 115.576c-.475 0-.901-.121-1.28-.363a2.54 2.54 0 0 1-.896-.988 2.993 2.993 0 0 1-.326-1.407v-3.51h1.421v3.51c0 .38.104.697.313.952.208.256.464.384.768.384h.483c.17 0 .315.067.434.199a.742.742 0 0 1 .177.512.64.64 0 0 1-.235.511c-.156.133-.358.2-.604.2zm-2.502-9.538c0-.21.066-.38.199-.513a.694.694 0 0 1 .511-.198c.209 0 .38.066.512.198a.697.697 0 0 1 .199.513v2.046h-1.421zm2.63 3.27c.199 0 .36-.058.483-.172a.555.555 0 0 0 .185-.426.592.592 0 0 0-.185-.456.688.688 0 0 0-.484-.17h-1.208v1.223zm-3.284-1.224c-.2 0-.36.057-.484.17a.592.592 0 0 0-.185.456c0 .17.062.313.185.426.123.114.285.171.484.171h.654v-1.223z"/></g><g><path fill="#ffb00d" d="M101.224 115.59a.699.699 0 0 1-.518-.207.7.7 0 0 1-.207-.519v-.528c.157-.192.296-.402.419-.63.318-.592.477-1.263.477-2.011h.554v3.17a.705.705 0 0 1-.725.724zm-.725-2.9l.27-1.507 1.18.512c0-.75-.173-1.422-.518-2.019a3.858 3.858 0 0 0-1.401-1.414c-.589-.346-1.251-.519-1.99-.519-.74 0-1.405.173-1.998.519a3.83 3.83 0 0 0-1.407 1.414c-.346.597-.518 1.27-.518 2.019 0 .748.157 1.419.475 2.011.318.592.75 1.062 1.301 1.407a3.42 3.42 0 0 0 1.863.519c.691 0 1.312-.173 1.861-.519a3.63 3.63 0 0 0 .882-.777zm-3.746 1.314a2.503 2.503 0 0 1-.91-.952 2.751 2.751 0 0 1-.333-1.357c0-.512.11-.969.334-1.372.221-.403.526-.72.909-.952a2.44 2.44 0 0 1 1.287-.349c.483 0 .915.117 1.293.349.379.232.678.55.896.952.218.403.327.86.327 1.372a2.8 2.8 0 0 1-.327 1.357 2.422 2.422 0 0 1-2.188 1.3c-.476.001-.904-.115-1.288-.348z"/></g><g><path fill="#ffb00d" d="M105.959 115.576c-.418 0-.788-.114-1.11-.342a2.268 2.268 0 0 1-.753-.93c-.18-.394-.27-.846-.27-1.358v-7.761a.69.69 0 0 1 .199-.512.694.694 0 0 1 .512-.2c.208 0 .378.068.511.2s.2.303.2.512v7.76c0 .352.066.64.198.868.133.227.304.342.513.342h.354c.19 0 .344.066.462.199a.738.738 0 0 1 .178.511.61.61 0 0 1-.27.511c-.18.133-.412.2-.696.2z"/></g><g><path fill="#ffb00d" d="M111.602 115.632c-.788 0-1.486-.168-2.097-.505a3.69 3.69 0 0 1-1.436-1.392c-.346-.593-.519-1.273-.519-2.04 0-.778.163-1.462.49-2.054a3.583 3.583 0 0 1 1.358-1.393c.579-.336 1.242-.505 1.991-.505.739 0 1.374.163 1.905.49.53.327.935.777 1.214 1.35.28.574.42 1.235.42 1.984 0 .18-.062.329-.185.448a.652.652 0 0 1-.47.177h-5.729v-1.137h5.687l-.583.398a3.04 3.04 0 0 0-.284-1.272 2.171 2.171 0 0 0-.767-.889c-.332-.218-.735-.327-1.208-.327-.54 0-1.003.119-1.387.355a2.293 2.293 0 0 0-.875.974 3.2 3.2 0 0 0-.298 1.4c0 .522.119.986.357 1.393.236.408.563.73.979.967.417.238.896.356 1.437.356.293 0 .594-.055.901-.164.309-.109.559-.235.748-.377a.806.806 0 0 1 .462-.163.62.62 0 0 1 .433.149c.161.142.247.299.256.47.01.17-.066.317-.227.44a3.941 3.941 0 0 1-1.2.626 4.302 4.302 0 0 1-1.373.24z"/></g></g></g></g></svg>