<svg xmlns="http://www.w3.org/2000/svg" width="166" height="166" viewBox="0 0 166 166"><g><g><g><path fill="#ff7e0f" d="M82.858 160.722c-27.645 0-51.996-14.537-65.817-36.355 5.855-2.002 11.95-3.603 17.974-4.99 6.87-1.58 13.832-2.761 20.819-3.676 17.63-2.308 36.42-2.308 54.047 0 6.987.915 13.95 2.095 20.816 3.676 6.027 1.387 12.121 2.988 17.976 4.99-13.82 21.818-38.172 36.355-65.815 36.355zm-10.424-50.54c-10.232.49-20.43 1.613-30.497 3.522-8.146 1.543-16.219 3.526-24.114 6.062-2.538.814-5.112 1.608-7.6 2.562 14.049 25.72 41.361 43.235 72.635 43.235 31.273 0 58.585-17.515 72.634-43.235-2.489-.954-5.063-1.748-7.6-2.562-7.896-2.536-15.968-4.519-24.114-6.062-10.068-1.909-20.267-3.031-30.497-3.523a215.578 215.578 0 0 0-20.847 0zm76.24-68.822c-5.856 2.003-11.95 3.603-17.977 4.99-6.866 1.58-13.829 2.761-20.816 3.676-17.628 2.309-36.418 2.309-54.047 0-6.987-.915-13.95-2.095-20.819-3.677-6.025-1.386-12.119-2.986-17.974-4.989C30.861 19.542 55.213 5.004 82.858 5.004c27.644 0 51.995 14.538 65.815 36.356zm-76.24 14.186c6.995.336 13.852.336 20.847 0 10.23-.491 20.43-1.615 30.497-3.522 8.146-1.544 16.218-3.527 24.115-6.062 2.536-.815 5.11-1.609 7.6-2.564C141.442 17.678 114.13.165 82.857.165c-31.274 0-58.586 17.513-72.636 43.233 2.489.955 5.063 1.75 7.6 2.564 7.896 2.535 15.969 4.518 24.115 6.062 10.067 1.907 20.265 3.03 30.497 3.522z"/></g><g><path fill="#ff7e0f" d="M157.413 47.14a82.08 82.08 0 0 1 8.142 35.724c0 12.781-2.926 24.9-8.142 35.723-22.108-8.212-47.534-12.902-74.555-12.902-27.023 0-52.45 4.69-74.557 12.902A82.083 82.083 0 0 1 .159 82.864a82.087 82.087 0 0 1 8.142-35.725c22.108 8.212 47.534 12.903 74.557 12.903 27.02 0 52.447-4.691 74.555-12.903zM14.106 81.232l-4.373.033 3.518 2.597-1.32 4.17 3.556-2.543 3.558 2.543-1.318-4.17 3.518-2.597-4.374-.033-1.384-4.148zm136.12-4.148zm0 0l-1.383 4.148-4.373.033 3.518 2.597-1.319 4.17 3.558-2.543 3.557 2.543-1.32-4.17 3.518-2.597-4.374-.033z"/></g><g><path fill="#ffb00d" d="M72.434 55.546c-10.232-.491-20.43-1.615-30.498-3.522-2.197-.417-4.39-.865-6.575-1.348 10.345-15.204 27.787-25.224 47.497-25.224 19.708 0 37.15 10.02 47.495 25.224a222.94 222.94 0 0 1-6.575 1.348c-10.068 1.907-20.267 3.03-30.498 3.522-6.995.337-13.851.337-20.846 0zm0 54.635a215.568 215.568 0 0 1 20.846 0c10.23.492 20.43 1.615 30.498 3.523 2.197.416 4.39.865 6.575 1.347-10.346 15.204-27.787 25.224-47.495 25.224-19.71 0-37.152-10.02-47.497-25.224 2.184-.482 4.378-.93 6.575-1.347 10.067-1.909 20.266-3.03 30.498-3.523z"/></g><g><g><path fill="#fff" d="M63.3 97.81H49.15c-.606 0-.909-.304-.909-.91V70.893c0-.606.303-.909.909-.909H63.3c.577 0 .866.303.866.909v2.942c0 .606-.289.91-.866.91h-9.044c-.346 0-.52.158-.52.475v5.626c0 .318.174.476.52.476h7.4c.606 0 .909.303.909.909v2.942c0 .606-.303.909-.91.909h-7.399c-.346 0-.52.159-.52.476v6.015c0 .318.174.476.52.476H63.3c.577 0 .866.303.866.909V96.9c0 .606-.289.91-.866.91z"/></g><g><path fill="#fff" d="M72.128 97.81h-4.284c-.289 0-.491-.094-.606-.282-.115-.187-.115-.411 0-.67l6.707-13.286-6.49-12.636c-.117-.23-.117-.447 0-.65.114-.2.316-.302.605-.302h4.154c.721 0 1.197.303 1.429.909l4.11 9.304h.174l4.067-9.304c.289-.606.75-.909 1.385-.909h4.241c.288 0 .498.108.627.325.13.216.137.44.022.67l-6.578 12.593 6.707 13.242c.145.289.159.527.044.714-.115.188-.332.281-.649.281h-4.328c-.605 0-1.024-.288-1.254-.865l-4.284-9.347h-.174l-4.327 9.347c-.26.577-.692.865-1.298.865z"/></g><g><path fill="#fff" d="M98.048 70.893V96.9c0 .606-.302.91-.908.91H93.46c-.606 0-.908-.304-.908-.91V70.893c0-.606.302-.909.908-.909h3.679c.606 0 .908.303.908.909z"/></g><g><path fill="#fff" d="M112.502 97.81h-3.634c-.636 0-.952-.304-.952-.91V75.22c0-.317-.16-.476-.477-.476h-4.933c-.606 0-.909-.303-.909-.909v-2.942c0-.606.303-.909.909-.909h16.358c.606 0 .908.303.908.909v2.942c0 .606-.302.91-.908.91h-4.934c-.346 0-.52.158-.52.475V96.9c0 .606-.302.91-.908.91z"/></g></g><g><g><path fill="#fff" d="M67.37 44.791v-.314c0-.22.11-.33.33-.33h1.338c.22 0 .33.11.33.33v.126c0 .398.08.671.237.818.157.147.446.22.865.22h.74c.41 0 .695-.079.857-.236.163-.157.245-.45.245-.881v-.189a.79.79 0 0 0-.37-.7c-.247-.163-.554-.26-.921-.291a9.91 9.91 0 0 1-1.188-.181 7.699 7.699 0 0 1-1.188-.346c-.367-.142-.674-.42-.92-.834-.247-.415-.37-.947-.37-1.598v-.55c0-.819.23-1.453.692-1.904.461-.452 1.101-.677 1.92-.677h1.573c.829 0 1.474.225 1.936.677.461.45.692 1.085.692 1.904v.299c0 .22-.11.33-.33.33H72.5c-.22 0-.33-.11-.33-.33v-.095c0-.409-.08-.687-.236-.834-.158-.147-.446-.22-.866-.22h-.613c-.431 0-.722.081-.874.244-.152.163-.228.48-.228.952v.299c0 .493.43.776 1.29.85.892.073 1.684.251 2.376.535.367.157.674.438.92.841.247.404.371.921.371 1.55v.535c0 .819-.23 1.453-.692 1.905-.462.45-1.102.676-1.92.676h-1.716c-.818 0-1.458-.226-1.92-.676-.46-.452-.692-1.086-.692-1.905z"/></g><g><path fill="#fff" d="M79.234 47.372h-1.32c-.232 0-.347-.11-.347-.33v-7.884c0-.116-.058-.173-.173-.173H75.6c-.22 0-.33-.11-.33-.33v-1.07c0-.221.11-.331.33-.331h5.948c.22 0 .33.11.33.33v1.07c0 .22-.11.33-.33.33h-1.794c-.126 0-.19.058-.19.174v7.884c0 .22-.109.33-.33.33z"/></g><g><path fill="#fff" d="M85.12 45.429c-.137-.142-.204-.38-.204-.716v-4.8c0-.336.067-.574.204-.716.136-.141.372-.212.708-.212h1.117c.336 0 .575.07.717.212.14.142.212.38.212.716v4.8c0 .336-.071.574-.212.716-.142.141-.38.212-.717.212h-1.117c-.336 0-.572-.07-.708-.212zm4.076 1.282c.45-.44.676-1.075.676-1.904V39.82c0-.829-.226-1.464-.676-1.904-.451-.44-1.092-.661-1.92-.661h-1.763c-.828 0-1.469.22-1.92.66-.45.441-.676 1.076-.676 1.905v4.988c0 .829.225 1.464.677 1.904.45.44 1.09.661 1.92.661h1.762c.828 0 1.469-.22 1.92-.66z"/></g><g><path fill="#fff" d="M93.932 42.148c-.116 0-.173-.058-.173-.173v-2.817c0-.116.057-.173.173-.173H95.6c.336 0 .571.07.708.212.136.142.205.38.205.716v1.322c0 .325-.069.559-.205.7-.137.142-.372.213-.708.213h-1.668zm-.504 5.224c.22 0 .33-.11.33-.33v-2.974c0-.116.064-.173.19-.173h1.982c.819 0 1.453-.223 1.904-.67.451-.445.677-1.077.677-1.896v-1.51c0-.819-.226-1.45-.677-1.896-.45-.446-1.085-.67-1.904-.67h-3.84c-.22 0-.33.111-.33.331v9.458c0 .22.11.33.33.33z"/></g></g><g><g><path fill="#fff" d="M57.718 121.122c-.116 0-.174-.057-.174-.173v-2.816c0-.116.058-.174.174-.174h1.668c.335 0 .572.072.708.213.136.141.204.38.204.716v1.322c0 .325-.068.558-.204.7-.136.142-.373.212-.708.212h-1.668zm-.504 5.225c.22 0 .33-.11.33-.33v-2.975c0-.115.064-.173.19-.173h1.982c.818 0 1.453-.223 1.904-.669.451-.445.677-1.078.677-1.896v-1.51c0-.819-.226-1.45-.677-1.897-.451-.445-1.086-.668-1.904-.668h-3.84c-.22 0-.33.11-.33.33v9.457c0 .22.11.33.33.33z"/></g><g><path fill="#fff" d="M66.058 121.012c-.116 0-.173-.057-.173-.173v-2.706c0-.116.057-.174.173-.174H67.6c.336 0 .583.074.74.22.158.148.236.384.236.709v1.227c0 .315-.078.543-.236.685-.157.141-.404.212-.74.212h-1.542zm-.504 5.335c.22 0 .33-.11.33-.33v-3.227c0-.115.064-.173.19-.173h1.054l1.574 3.4c.052.136.12.225.204.267.084.042.22.063.41.063h1.274c.273 0 .362-.126.268-.378l-1.684-3.509v-.063c.933-.388 1.4-1.175 1.4-2.36v-1.228c0-.818-.23-1.453-.692-1.904-.462-.45-1.102-.676-1.92-.676h-3.745c-.22 0-.33.11-.33.33v9.457c0 .22.11.33.33.33z"/></g><g><path fill="#fff" d="M74.54 124.403c-.138-.141-.206-.38-.206-.716v-4.8c0-.335.068-.574.205-.715.136-.141.372-.213.708-.213h1.118c.335 0 .573.072.715.213.142.141.212.38.212.716v4.8c0 .335-.07.574-.212.715-.142.142-.38.213-.715.213h-1.118c-.336 0-.572-.071-.708-.213zm4.074 1.283c.451-.44.677-1.075.677-1.904v-4.989c0-.828-.226-1.463-.677-1.904-.45-.44-1.09-.66-1.92-.66h-1.762c-.828 0-1.469.22-1.92.66-.45.441-.676 1.076-.676 1.904v4.989c0 .829.226 1.463.677 1.904.45.44 1.09.66 1.92.66h1.762c.828 0 1.469-.22 1.92-.66z"/></g><g><path fill="#fff" d="M85.76 116.229h1.321c.22 0 .33.105.33.314v7.239c0 .818-.225 1.45-.676 1.896-.451.446-1.086.669-1.904.669h-1.574c-.828 0-1.468-.22-1.92-.661-.45-.44-.676-1.075-.676-1.904v-1.48c0-.22.11-.33.33-.33h1.338c.22 0 .33.11.33.33v1.385c0 .336.071.575.213.716.142.142.375.213.7.213h.928c.336 0 .572-.071.709-.213.136-.141.204-.38.204-.716v-7.128c0-.22.115-.33.346-.33z"/></g><g><path fill="#fff" d="M94.854 126.347h-5.146c-.22 0-.33-.11-.33-.33v-9.458c0-.22.11-.33.33-.33h5.146c.21 0 .315.11.315.33v1.07c0 .22-.105.33-.315.33h-3.289c-.125 0-.189.058-.189.174v2.045c0 .116.064.173.19.173h2.69c.221 0 .33.11.33.33v1.071c0 .22-.109.33-.33.33h-2.69c-.126 0-.19.058-.19.174v2.187c0 .115.064.173.19.173h3.288c.21 0 .315.11.315.33v1.07c0 .22-.105.33-.315.33z"/></g><g><path fill="#fff" d="M98.584 126.347h-1.337c-.221 0-.331-.11-.331-.33v-9.458c0-.22.11-.33.33-.33h1.338c.22 0 .33.11.33.33v4.485h.032c.084-.252.246-.577.488-.976l2.392-3.509c.136-.22.34-.33.613-.33h1.542c.115 0 .186.034.213.102.026.068-.003.155-.087.26l-2.99 4.138 3.336 5.224c.074.126.087.223.04.291-.047.069-.144.103-.29.103h-1.15c-.367 0-.614-.11-.74-.33l-2.407-3.856-.991 1.164v2.691c0 .22-.11.33-.331.33z"/></g><g><path fill="#fff" d="M108.828 126.347h-1.323c-.23 0-.345-.11-.345-.33v-7.884c0-.116-.058-.174-.174-.174h-1.794c-.22 0-.33-.11-.33-.33v-1.07c0-.22.11-.33.33-.33h5.949c.22 0 .33.11.33.33v1.07c0 .22-.11.33-.33.33h-1.794c-.126 0-.19.058-.19.174v7.883c0 .22-.11.33-.33.33z"/></g></g><g><g><path fill="#ff7e0f" d="M51.483 28.488c-.77.45-1.559.675-2.365.675-.807 0-1.557-.2-2.25-.602-.693-.401-1.262-.983-1.707-1.743-.455-.78-.692-1.57-.71-2.374a4.262 4.262 0 0 1 .555-2.232c.388-.684.961-1.249 1.722-1.693a4.275 4.275 0 0 1 1.749-.587c.597-.059 1.21.018 1.839.232.225.075.366.206.423.392.057.186.036.392-.065.62a.634.634 0 0 1-.392.354 1.015 1.015 0 0 1-.595.01c-.765-.225-1.498-.133-2.2.278-.49.287-.858.653-1.101 1.099a2.73 2.73 0 0 0-.328 1.46c.025.528.197 1.066.518 1.614.303.52.682.918 1.134 1.196.454.278.941.422 1.464.433.523.01 1.039-.133 1.55-.432.336-.196.608-.41.815-.641.207-.23.366-.495.477-.792.08-.214.198-.377.354-.487a.657.657 0 0 1 .512-.116c.243.039.423.137.54.294a.621.621 0 0 1 .093.556c-.316 1.05-.993 1.878-2.032 2.486z"/></g><g><path fill="#ff7e0f" d="M56.491 19.59a3.34 3.34 0 0 1-.02-2.437l-.11-.289c-.1-.26-.24-.43-.42-.51-.18-.081-.4-.071-.66.028-.25.096-.416.238-.5.424-.083.188-.077.406.018.656l2.673 6.98c.1.26.242.43.427.507.185.079.403.07.653-.026.26-.1.429-.242.508-.427.078-.185.069-.403-.027-.652l-1.745-4.56zm.608-3.51c.41-.49.926-.856 1.55-1.095.625-.239 1.13-.316 1.515-.23.384.085.594.283.629.591a.643.643 0 0 1-.051.405.666.666 0 0 1-.248.265.987.987 0 0 1-.38.128c-.718.12-1.321.338-1.808.656-.487.318-.825.691-1.012 1.121-.188.43-.19.884-.006 1.363l-.816-2.13a3.67 3.67 0 0 1 .627-1.074z"/></g><g><path fill="#ff7e0f" d="M70.154 21.468c-.905.192-1.75.17-2.536-.067a4.334 4.334 0 0 1-1.993-1.25c-.544-.596-.91-1.336-1.098-2.219-.19-.893-.17-1.721.06-2.483a4.215 4.215 0 0 1 1.22-1.935c.582-.53 1.304-.886 2.166-1.07.85-.18 1.62-.148 2.31.097.692.246 1.268.665 1.73 1.255.463.592.785 1.318.969 2.179a.698.698 0 0 1-.103.56.761.761 0 0 1-.496.32l-6.589 1.405-.28-1.308 6.541-1.395-.572.6a3.592 3.592 0 0 0-.64-1.393 2.542 2.542 0 0 0-1.1-.834c-.435-.169-.926-.195-1.47-.079-.622.132-1.124.382-1.508.749A2.698 2.698 0 0 0 66 15.934c-.128.524-.128 1.085 0 1.684.128.6.378 1.105.75 1.516.373.41.828.7 1.366.87.538.171 1.117.19 1.739.057a3.19 3.19 0 0 0 .998-.41c.328-.2.583-.406.766-.616a.948.948 0 0 1 .491-.301.733.733 0 0 1 .536.065c.22.124.356.283.41.477.052.194 0 .381-.155.563-.307.373-.717.711-1.228 1.014a5.051 5.051 0 0 1-1.518.615z"/></g><g><path fill="#ff7e0f" d="M84.83 20.058a.828.828 0 0 1-.878-.828l-.018-.62c.179-.232.336-.483.472-.756.353-.707.518-1.501.492-2.381l.652-.019.107 3.727a.826.826 0 0 1-.828.877zm-.951-3.385l.266-1.78 1.405.561c-.025-.88-.25-1.665-.677-2.356a4.539 4.539 0 0 0-1.694-1.615c-.703-.387-1.489-.568-2.358-.543-.869.025-1.646.25-2.33.677a4.511 4.511 0 0 0-1.607 1.71c-.387.714-.568 1.51-.542 2.391.025.88.234 1.663.627 2.349a4.34 4.34 0 0 0 1.576 1.61c.659.389 1.394.57 2.207.548.814-.024 1.538-.248 2.172-.673.39-.261.727-.575 1.01-.943zm-2.836 2.038a2.865 2.865 0 0 1-1.523-.366 2.953 2.953 0 0 1-1.103-1.09 3.245 3.245 0 0 1-.438-1.584c-.017-.602.099-1.143.347-1.624a2.963 2.963 0 0 1 1.037-1.15 2.866 2.866 0 0 1 1.501-.453 2.854 2.854 0 0 1 1.533.366c.453.26.815.623 1.084 1.09.27.465.414 1 .431 1.601a3.297 3.297 0 0 1-.338 1.607 2.914 2.914 0 0 1-1.02 1.15 2.858 2.858 0 0 1-1.51.453z"/></g><g><path fill="#ff7e0f" d="M92.709 20.867a2.738 2.738 0 0 1-1.436-.62 2.99 2.99 0 0 1-.892-1.291 3.521 3.521 0 0 1-.163-1.692l.544-4.093 1.658.22-.544 4.093c-.06.442.013.829.217 1.16.203.33.482.519.836.566l.563.075c.199.026.357.126.475.299a.87.87 0 0 1 .127.624.753.753 0 0 1-.352.56c-.203.13-.448.177-.736.139zm-1.44-11.508a.813.813 0 0 1 .31-.566.815.815 0 0 1 .628-.153.815.815 0 0 1 .566.311.816.816 0 0 1 .153.628l-.317 2.386-1.658-.22zm2.56 4.219a.807.807 0 0 0 .59-.124.656.656 0 0 0 .28-.469.694.694 0 0 0-.144-.558c-.126-.153-.306-.244-.537-.275l-1.41-.187-.188 1.426zm-3.64-1.934a.804.804 0 0 0-.59.124.695.695 0 0 0-.286.502.657.657 0 0 0 .15.526c.125.151.305.242.537.273l.762.102.19-1.426z"/></g><g><path fill="#ff7e0f" d="M104.773 23.928a.825.825 0 0 1-.568-1.064l.18-.594a4.59 4.59 0 0 0 .687-.567c.559-.558.966-1.259 1.221-2.102l.624.19-1.08 3.568a.83.83 0 0 1-1.064.569zm.173-3.512l.818-1.604 1.153.978c.256-.842.29-1.659.104-2.449a4.533 4.533 0 0 0-1.094-2.07c-.543-.589-1.231-1.01-2.063-1.262-.832-.252-1.64-.284-2.425-.097a4.515 4.515 0 0 0-2.066 1.113c-.594.554-1.018 1.252-1.272 2.095-.256.843-.306 1.652-.15 2.427.155.775.483 1.45.984 2.027.5.577 1.14.983 1.92 1.22.778.235 1.536.252 2.273.05a4.267 4.267 0 0 0 1.256-.574zm-3.335 1.034a2.87 2.87 0 0 1-1.33-.83 2.96 2.96 0 0 1-.699-1.383 3.234 3.234 0 0 1 .087-1.642c.174-.576.455-1.053.843-1.43a2.96 2.96 0 0 1 1.35-.762 2.865 2.865 0 0 1 1.566.046c.544.165.99.443 1.338.833.347.391.575.85.683 1.378.108.528.075 1.08-.1 1.655a3.295 3.295 0 0 1-.83 1.417c-.383.38-.828.635-1.333.767a2.851 2.851 0 0 1-1.575-.049z"/></g><g><path fill="#ff7e0f" d="M110.986 26.7a2.201 2.201 0 0 1-1.007-.92 2.662 2.662 0 0 1-.331-1.37c.007-.508.14-1.035.397-1.578l3.912-8.249a.815.815 0 0 1 .47-.443.815.815 0 0 1 .643.046c.222.105.37.262.444.47a.82.82 0 0 1-.046.644l-3.912 8.248c-.177.373-.252.713-.226 1.022.026.308.15.515.372.62l.378.18a.695.695 0 0 1 .39.444c.06.2.037.412-.069.633a.717.717 0 0 1-.544.408c-.258.05-.539.003-.84-.14z"/></g><g><path fill="#ff7e0f" d="M117.794 30.719c-.776-.504-1.356-1.118-1.744-1.842a4.334 4.334 0 0 1-.523-2.294c.038-.805.305-1.587.796-2.344.498-.766 1.098-1.337 1.8-1.711a4.218 4.218 0 0 1 2.232-.504c.786.04 1.548.298 2.286.778.73.474 1.25 1.042 1.565 1.705.313.662.424 1.366.332 2.11-.092.745-.377 1.487-.857 2.225a.698.698 0 0 1-.47.323.764.764 0 0 1-.576-.125l-5.65-3.673.73-1.121 5.607 3.645-.83.019a3.57 3.57 0 0 0 .535-1.437c.062-.485 0-.94-.188-1.368-.187-.428-.514-.793-.982-1.097-.532-.347-1.064-.526-1.594-.538a2.692 2.692 0 0 0-1.486.4c-.461.279-.859.675-1.192 1.19-.335.513-.515 1.047-.543 1.6a3.051 3.051 0 0 0 .348 1.583c.259.5.655.924 1.188 1.27.29.189.621.328.995.418.373.09.7.125.977.107a.95.95 0 0 1 .56.135.735.735 0 0 1 .333.425c.067.243.051.452-.049.627-.1.173-.269.27-.506.288-.482.046-1.011-.005-1.586-.153a5.037 5.037 0 0 1-1.508-.641z"/></g></g><g><g><path fill="#ff7e0f" d="M33.501 138.644l-1.658-1.584c-.824-.788-1.252-1.615-1.281-2.48-.03-.868.348-1.713 1.134-2.537l4.738-4.96c.787-.824 1.614-1.241 2.48-1.25.868-.01 1.713.378 2.538 1.166l1.658 1.584c.814.777 1.233 1.601 1.258 2.473.026.872-.35 1.715-1.128 2.528l-.448.47c-.22.23-.438.239-.657.03l-1.33-1.27c-.22-.21-.22-.429 0-.658l.359-.376c.318-.334.477-.636.476-.906 0-.27-.168-.565-.502-.884l-1.017-.971c-.324-.31-.623-.46-.898-.454-.276.006-.573.176-.891.51l-4.559 4.772c-.318.334-.475.639-.468.914.006.276.171.567.494.876l1.017.972c.334.318.636.473.906.46.27-.01.565-.183.883-.517l.942-.986c.11-.114.107-.227-.007-.336l-.94-.897c-.219-.209-.224-.423-.015-.642l1.017-1.064c.209-.22.423-.224.642-.015l2.738 2.615c.24.23.246.464.017.704l-2.496 2.613c-.777.813-1.602 1.228-2.473 1.243-.873.015-1.715-.366-2.529-1.143z"/></g><g><path fill="#ff7e0f" d="M52.197 138.475l-1.787 6.192-2.77-1.606 4.482-4.63zm-8.451 8.157c.124.072.231.097.32.073.088-.023.189-.103.3-.238l1.718-1.756 3.65 2.115-.668 2.363c-.062.164-.084.289-.067.374.018.085.095.167.232.247l1.797 1.04c.225.131.376.044.453-.262l3.56-12.966c.09-.298-.022-.538-.334-.718l-2.49-1.443c-.287-.166-.55-.143-.79.068l-9.475 9.539c-.227.218-.229.393-.004.523l1.798 1.041z"/></g><g><path fill="#ff7e0f" d="M63.011 147.583c-.152-.045-.206-.143-.16-.296l1.047-3.57c.044-.153.143-.206.295-.162l2.035.598c.442.13.74.322.89.576.151.255.163.597.037 1.026l-.474 1.62c-.122.415-.315.685-.577.811-.263.126-.615.124-1.058-.006zm-2.73 6.844c.291.084.48-.018.565-.309l1.248-4.256c.045-.152.15-.204.317-.155l1.39.408.761 5.094c.017.2.072.344.167.432.094.088.266.168.515.242l1.681.493c.36.105.527-.026.5-.395l-.863-5.282.024-.083c1.382-.15 2.303-1.007 2.761-2.572l.476-1.619c.317-1.08.258-2.006-.177-2.78-.434-.774-1.19-1.32-2.27-1.636l-4.942-1.45c-.29-.085-.479.017-.564.308l-3.661 12.478c-.085.29.017.478.308.563l1.765.519z"/></g><g><path fill="#ff7e0f" d="M80.08 146.648l1.245 6.323-3.199-.16 1.867-6.167zm-3.781 11.12c.143.008.25-.02.318-.08.068-.062.12-.179.158-.35l.724-2.348 4.213.21.488 2.407c.02.175.057.296.112.363.054.068.16.106.319.114l2.074.103c.26.012.354-.135.282-.441l-2.769-13.157c-.057-.307-.266-.469-.626-.487l-2.874-.143c-.332-.016-.555.125-.67.422l-4.06 12.818c-.102.298-.023.454.237.467l2.074.103z"/></g><g><path fill="#ff7e0f" d="M94.575 157.161l-1.762.348c-.297.059-.476-.06-.534-.358l-2.517-12.758c-.059-.297.06-.475.358-.533l1.592-.314c.297-.06.515 0 .653.18l5.875 7.199.085-.017-1.558-7.897c-.058-.297.06-.475.358-.533l1.762-.348c.297-.058.475.06.533.358l2.518 12.758c.059.297-.061.474-.358.533l-1.55.306c-.311.062-.566-.035-.763-.29l-5.803-7.06-.085.017 1.554 7.876c.058.297-.061.475-.358.533z"/></g><g><path fill="#ff7e0f" d="M113.655 151.297l-1.659.743c-.29.13-.496.057-.62-.22l-4.432-9.893c-.065-.144-.17-.184-.315-.12l-2.25 1.01c-.277.123-.477.047-.601-.23l-.602-1.343c-.124-.276-.047-.476.23-.6l7.464-3.343c.276-.124.476-.048.6.228l.6 1.343c.125.276.049.476-.228.6l-2.25 1.009c-.158.07-.205.178-.14.323l4.431 9.893c.124.276.048.476-.228.6z"/></g><g><path fill="#ff7e0f" d="M117.343 133.692l7.255 10.792c.169.251.127.462-.124.63l-1.526 1.026c-.252.17-.462.128-.63-.123l-7.255-10.793c-.17-.25-.128-.461.123-.63l1.526-1.026c.252-.17.462-.128.63.124z"/></g><g><path fill="#ff7e0f" d="M136.444 134.911l-5.09 4.914c-.218.21-.433.207-.643-.011l-9.031-9.356c-.21-.218-.207-.432.01-.643l5.091-4.914c.208-.2.417-.19.627.027l1.022 1.058c.21.218.212.428.004.628l-3.253 3.14c-.125.12-.132.238-.021.352l1.953 2.024c.11.114.227.111.352-.01l2.662-2.569c.218-.21.432-.206.643.011l1.021 1.059c.21.218.207.432-.011.642l-2.662 2.57c-.124.12-.132.238-.021.352l2.088 2.163c.11.115.228.111.353-.008l3.253-3.142c.207-.2.416-.19.627.027l1.021 1.058c.211.218.212.428.005.628z"/></g></g></g></g></svg>