<svg xmlns="http://www.w3.org/2000/svg" width="335" height="192" viewBox="0 0 335 192"><g><g><g><path fill="#fff" d="M284.743 132.044c-5.836 9.868-11.546 25.619-6.871 29.133 4.675 3.514 18.213-6.275 26.089-14.668 7.357.831 17.837-5.35 21.963-10.982 4.126-5.632-7.138 1.192-14.841.251a17.906 17.906 0 0 0 .973-12.378 8.143 8.143 0 0 0 6.777-3.231l4.926-6.527-13.068-9.836-4.91 6.526a8.157 8.157 0 0 0-1.24 7.42 17.826 17.826 0 0 0-11.625 4.362c-3.027-7.138.487-20.112-3.859-14.339-4.345 5.773-7.216 17.43-4.314 24.27z"/></g><g><path fill="#fff" d="M287.269 144.155a3.342 3.342 0 1 1 6.683 0 3.342 3.342 0 0 1-6.683 0z"/></g><g><g><g><path fill="#fff" d="M23.846 134.994h-9.864c-1.054 0-1.683-.528-1.883-1.58L.427 88.306c-.35-1.154.151-1.732 1.507-1.732h7.078c1.004 0 1.606.527 1.807 1.58l7.907 37.05h.301l7.907-37.05c.2-1.053.801-1.58 1.807-1.58h7.078c1.254 0 1.757.578 1.506 1.732l-11.671 45.108c-.251 1.052-.854 1.58-1.808 1.58z"/></g><g><path fill="#fff" d="M53.29 88.154v45.26c0 1.052-.528 1.58-1.582 1.58h-6.4c-1.055 0-1.582-.528-1.582-1.58v-45.26c0-1.053.527-1.58 1.582-1.58h6.4c1.054 0 1.582.527 1.582 1.58z"/></g><g><path fill="#fff" d="M62.25 122.644v-1.506c0-1.054.528-1.58 1.582-1.58h6.4c1.055 0 1.582.526 1.582 1.58v.602c0 1.91.376 3.215 1.13 3.916.752.703 2.133 1.054 4.141 1.054h3.54c1.957 0 3.323-.375 4.103-1.13.778-.752 1.167-2.158 1.167-4.216v-.902c0-1.456-.591-2.573-1.77-3.353-1.179-.776-2.647-1.242-4.404-1.393-1.76-.149-3.653-.437-5.686-.864a36.767 36.767 0 0 1-5.685-1.658c-1.759-.678-3.227-2.007-4.405-3.991-1.182-1.983-1.77-4.53-1.77-7.642v-2.637c0-3.916 1.103-6.953 3.313-9.112 2.208-2.158 5.272-3.238 9.187-3.238h7.53c3.965 0 7.052 1.08 9.263 3.238 2.209 2.159 3.313 5.196 3.313 9.112v1.43c0 1.055-.527 1.582-1.581 1.582h-6.401c-1.054 0-1.581-.527-1.581-1.581v-.452c0-1.958-.377-3.288-1.13-3.991-.753-.701-2.135-1.054-4.142-1.054h-2.938c-2.058 0-3.451.389-4.178 1.168-.728.778-1.091 2.295-1.091 4.556v1.43c0 2.36 2.058 3.716 6.174 4.067 4.266.35 8.058 1.203 11.37 2.56 1.756.752 3.225 2.095 4.406 4.028 1.178 1.932 1.77 4.406 1.77 7.417v2.56c0 3.916-1.105 6.954-3.314 9.112-2.21 2.16-5.27 3.238-9.188 3.238h-8.206c-3.916 0-6.98-1.078-9.187-3.238-2.21-2.158-3.314-5.196-3.314-9.112z"/></g><g><path fill="#fff" d="M113.981 88.154v45.26c0 1.052-.527 1.58-1.58 1.58H106c-1.054 0-1.58-.528-1.58-1.58v-45.26c0-1.053.526-1.58 1.58-1.58h6.403c1.052 0 1.58.527 1.58 1.58z"/></g><g><path fill="#fff" d="M133.936 125.695c-.652-.679-.978-1.821-.978-3.427V99.3c0-1.604.326-2.748.978-3.424.652-.68 1.781-1.018 3.39-1.018h5.346c1.604 0 2.748.338 3.426 1.018.677.676 1.016 1.82 1.016 3.424v22.968c0 1.606-.339 2.748-1.016 3.427-.678.677-1.822 1.015-3.426 1.015h-5.347c-1.608 0-2.737-.338-3.389-1.015zm19.504 6.137c2.157-2.11 3.238-5.147 3.238-9.113V98.85c0-3.966-1.081-7.003-3.238-9.112-2.16-2.11-5.223-3.163-9.187-3.163h-8.434c-3.967 0-7.03 1.053-9.187 3.163-2.16 2.109-3.238 5.146-3.238 9.112v23.87c0 3.966 1.078 7.003 3.238 9.113 2.157 2.107 5.22 3.162 9.187 3.162h8.434c3.964 0 7.027-1.055 9.187-3.162z"/></g><g><path fill="#fff" d="M173.544 134.994h-6.25c-1.055 0-1.582-.528-1.582-1.58v-45.26c0-1.053.528-1.58 1.582-1.58h5.647c1.055 0 1.757.352 2.109 1.053l15.21 28.541h.304V88.154c0-1.053.527-1.58 1.581-1.58h6.25c1.054 0 1.581.527 1.581 1.58v45.26c0 1.052-.527 1.58-1.58 1.58h-5.498c-1.106 0-1.91-.5-2.411-1.506l-15.06-28.013h-.3v27.939c0 1.052-.527 1.58-1.583 1.58z"/></g></g><g><g><path fill="#fff" d="M23.997 191.47h-8.208c-3.966 0-7.028-1.054-9.187-3.161-2.158-2.11-3.238-5.147-3.238-9.113v-23.87c0-3.965 1.08-7.004 3.238-9.11 2.159-2.11 5.221-3.165 9.187-3.165h8.208c3.916 0 6.965 1.068 9.15 3.2 2.183 2.134 3.275 5.158 3.275 9.074v3.54c0 1.104-.554 1.658-1.657 1.658H28.44c-1.054 0-1.581-.554-1.581-1.659v-3.087c0-1.605-.34-2.749-1.017-3.425-.678-.679-1.82-1.018-3.426-1.018h-5.12c-1.557 0-2.674.339-3.352 1.018-.678.676-1.016 1.82-1.016 3.425v22.967c0 1.607.338 2.749 1.016 3.428.678.676 1.795 1.015 3.351 1.015h5.12c1.607 0 2.75-.339 3.427-1.015.678-.68 1.017-1.821 1.017-3.428v-3.087c0-1.103.527-1.655 1.58-1.655h6.326c1.103 0 1.657.552 1.657 1.655v3.539c0 3.916-1.092 6.942-3.276 9.074-2.184 2.135-5.233 3.2-9.149 3.2z"/></g><g><path fill="#fff" d="M54.419 182.172c-.653-.68-.979-1.821-.979-3.428v-22.967c0-1.605.326-2.749.979-3.425.651-.679 1.78-1.018 3.389-1.018h5.346c1.605 0 2.749.339 3.426 1.018.678.676 1.015 1.82 1.015 3.425v22.967c0 1.607-.337 2.749-1.015 3.428-.677.676-1.821 1.015-3.426 1.015h-5.346c-1.608 0-2.738-.339-3.389-1.015zm19.503 6.137c2.157-2.11 3.238-5.147 3.238-9.113v-23.87c0-3.965-1.08-7.004-3.238-9.11-2.16-2.11-5.222-3.165-9.187-3.165h-8.433c-3.968 0-7.03 1.054-9.187 3.164-2.16 2.107-3.238 5.146-3.238 9.11v23.87c0 3.967 1.078 7.004 3.238 9.114 2.157 2.107 5.22 3.161 9.187 3.161h8.433c3.965 0 7.027-1.054 9.187-3.161z"/></g><g><path fill="#fff" d="M94.026 191.47h-6.25c-1.054 0-1.581-.527-1.581-1.58v-45.258c0-1.054.527-1.581 1.581-1.581h5.648c1.054 0 1.757.353 2.108 1.054l15.211 28.54h.302v-28.013c0-1.054.527-1.581 1.581-1.581h6.25c1.054 0 1.581.527 1.581 1.581v45.258c0 1.053-.527 1.58-1.58 1.58h-5.496c-1.106 0-1.91-.5-2.412-1.506l-15.06-28.012h-.301v27.938c0 1.053-.526 1.58-1.582 1.58z"/></g><g><path fill="#fff" d="M145.23 191.47h-6.324c-1.106 0-1.658-.527-1.658-1.58v-37.726c0-.554-.276-.83-.827-.83h-8.586c-1.052 0-1.58-.527-1.58-1.58v-5.122c0-1.054.528-1.581 1.58-1.581H156.3c1.054 0 1.581.527 1.581 1.581v5.122c0 1.053-.527 1.58-1.581 1.58h-8.585c-.6 0-.902.276-.902.83v37.726c0 1.053-.527 1.58-1.583 1.58z"/></g><g><path fill="#fff" d="M173.167 165.116v-12.952c0-.554.276-.83.829-.83h7.38c1.606 0 2.787.353 3.538 1.054.753.703 1.13 1.834 1.13 3.389v5.875c0 1.506-.377 2.598-1.13 3.274-.751.678-1.932 1.017-3.539 1.017h-7.38c-.552 0-.828-.275-.828-.827zm-1.581 26.354c1.054 0 1.581-.527 1.581-1.58v-15.437c0-.553.301-.83.904-.83h5.045l7.532 16.267c.25.653.576 1.08.977 1.279.402.202 1.055.301 1.958.301h6.1c1.305 0 1.732-.6 1.28-1.807l-8.058-16.792v-.3c4.468-1.858 6.702-5.623 6.702-11.297V155.4c0-3.915-1.103-6.95-3.313-9.11-2.209-2.158-5.271-3.24-9.187-3.24h-17.922c-1.054 0-1.581.528-1.581 1.582v45.258c0 1.053.527 1.58 1.581 1.58h6.401z"/></g><g><path fill="#fff" d="M214.582 182.172c-.653-.68-.977-1.821-.977-3.428v-22.967c0-1.605.324-2.749.977-3.425.652-.679 1.784-1.018 3.388-1.018h5.348c1.605 0 2.749.339 3.425 1.018.68.676 1.018 1.82 1.018 3.425v22.967c0 1.607-.339 2.749-1.018 3.428-.676.676-1.82 1.015-3.425 1.015h-5.348c-1.604 0-2.736-.339-3.388-1.015zm19.505 6.137c2.158-2.11 3.236-5.147 3.236-9.113v-23.87c0-3.965-1.078-7.004-3.236-9.11-2.159-2.11-5.223-3.165-9.187-3.165h-8.432c-3.97 0-7.03 1.054-9.189 3.164-2.159 2.107-3.236 5.146-3.236 9.11v23.87c0 3.967 1.077 7.004 3.236 9.114 2.159 2.107 5.22 3.161 9.189 3.161h8.432c3.964 0 7.028-1.054 9.187-3.161z"/></g><g><path fill="#fff" d="M272.717 191.47H247.94c-1.055 0-1.582-.527-1.582-1.58v-45.258c0-1.054.527-1.581 1.582-1.581h6.4c1.055 0 1.582.527 1.582 1.581v37.651c0 .553.303.829.903.829h15.89c1.003 0 1.505.553 1.505 1.656v5.122c0 1.053-.502 1.58-1.504 1.58z"/></g></g></g><g><path fill="#fff" d="M70.744 53.95a83.91 83.91 0 0 1 13.02-15.563 108.783 108.783 0 0 1 16.238-12.299 153.18 153.18 0 0 1 37.274-16.645 208.096 208.096 0 0 1 40.177-7.922 225.836 225.836 0 0 1 41.04-.44 201.3 201.3 0 0 1 20.394 2.636 187.084 187.084 0 0 1 20.175 4.706 152.376 152.376 0 0 1 38.294 16.786c11.907 7.515 23.014 17.351 30.419 30.435a58.487 58.487 0 0 1 6.965 21.587 54.592 54.592 0 0 1-2.431 22.873 7.06 7.06 0 1 1-13.413-4.408c0-.08 0-.189.11-.283a40.952 40.952 0 0 0 2.588-17.084 46.225 46.225 0 0 0-4.706-16.975C311.397 50.53 302.14 41.29 291.552 33.98a143.69 143.69 0 0 0-35.047-17.21 181.46 181.46 0 0 0-19.108-5.318 196.517 196.517 0 0 0-19.626-3.404 220.54 220.54 0 0 0-39.941-1.318 205.46 205.46 0 0 0-39.628 6.103 151.07 151.07 0 0 0-37.29 14.762 108.04 108.04 0 0 0-16.567 11.452A84.699 84.699 0 0 0 70.744 53.95z"/></g></g></g></svg>